<svg width="1575" height="762" viewBox="0 0 1575 762" fill="none" xmlns="http://www.w3.org/2000/svg">
<path opacity="0.5" d="M1427.35 270.437H1380.76C1374.17 270.437 1368.83 265.109 1368.83 258.515C1368.83 251.93 1374.17 246.594 1380.76 246.594H1486.44C1489.1 246.594 1491.24 244.43 1491.24 241.779C1491.24 239.128 1489.1 236.955 1486.44 236.955H1436.8C1430.22 236.955 1424.87 231.61 1424.87 225.034C1424.87 218.448 1430.22 213.103 1436.8 213.103H1541.44C1548.02 213.103 1553.37 218.448 1553.37 225.034C1553.37 231.602 1548.02 236.955 1541.44 236.955H1524.53C1521.87 236.955 1519.72 239.128 1519.72 241.77C1519.72 244.43 1521.87 246.594 1524.53 246.594H1562.18C1568.76 246.594 1574.1 251.93 1574.1 258.515C1574.1 265.101 1568.76 270.437 1562.18 270.437H1469.79C1467.14 270.437 1464.97 272.609 1464.97 275.269C1464.97 277.929 1467.14 280.093 1469.79 280.093H1522.71C1529.29 280.093 1534.63 285.429 1534.63 292.014C1534.63 298.6 1529.29 303.945 1522.71 303.945H1393.54C1386.95 303.945 1381.61 298.6 1381.61 292.014C1381.61 285.429 1386.95 280.093 1393.54 280.093H1427.36C1430.01 280.093 1432.17 277.937 1432.17 275.278C1432.17 272.609 1430 270.437 1427.35 270.437Z" fill="white"/>
<path opacity="0.5" d="M193.339 578.923H11.9217C5.34512 578.923 0 573.587 0 566.993C0 560.416 5.34512 555.071 11.9217 555.071H54.0669C56.7181 555.071 58.8818 552.916 58.8818 550.248C58.8818 547.597 56.7181 545.433 54.0669 545.433H24.6902C18.105 545.433 12.7684 540.096 12.7684 533.511C12.7684 526.926 18.1135 521.589 24.6902 521.589H153.862C160.456 521.589 165.776 526.934 165.776 533.511C165.776 540.096 160.448 545.433 153.862 545.433H114.309C111.657 545.433 109.494 547.605 109.494 550.248C109.494 552.907 111.657 555.071 114.309 555.071H193.331C199.924 555.071 205.261 560.416 205.261 566.993C205.27 573.587 199.933 578.923 193.339 578.923Z" fill="white"/>
<path opacity="0.5" d="M314.644 249.724H361.236C367.83 249.724 373.166 244.396 373.166 237.802C373.166 231.217 367.83 225.88 361.236 225.88H255.557C252.897 225.88 250.75 223.717 250.75 221.065C250.75 218.414 252.897 216.242 255.557 216.242H305.193C311.779 216.242 317.124 210.897 317.124 204.32C317.124 197.735 311.779 192.39 305.193 192.39H200.557C193.972 192.39 188.627 197.735 188.627 204.32C188.627 210.888 193.972 216.242 200.557 216.242H217.465C220.125 216.242 222.271 218.414 222.271 221.057C222.271 223.717 220.125 225.88 217.465 225.88H179.818C173.233 225.88 167.897 231.217 167.897 237.802C167.897 244.387 173.233 249.724 179.818 249.724H272.208C274.859 249.724 277.023 251.896 277.023 254.547C277.023 257.216 274.859 259.371 272.208 259.371H219.295C212.71 259.371 207.373 264.707 207.373 271.292C207.373 277.878 212.702 283.223 219.295 283.223H348.467C355.053 283.223 360.389 277.878 360.389 271.292C360.389 264.707 355.053 259.371 348.467 259.371H314.644C311.992 259.371 309.829 257.216 309.829 254.556C309.837 251.896 311.992 249.724 314.644 249.724Z" fill="white"/>
<path opacity="0.5" d="M1319.65 728.253H1366.24C1372.83 728.253 1378.17 722.925 1378.17 716.331C1378.17 709.746 1372.83 704.409 1366.24 704.409H1260.56C1257.9 704.409 1255.75 702.246 1255.75 699.594C1255.75 696.943 1257.9 694.771 1260.56 694.771H1310.19C1316.78 694.771 1322.13 689.426 1322.13 682.849C1322.13 676.264 1316.79 670.919 1310.19 670.919H1205.56C1198.97 670.919 1193.63 676.264 1193.63 682.849C1193.63 689.417 1198.97 694.771 1205.56 694.771H1222.47C1225.13 694.771 1227.27 696.943 1227.27 699.586C1227.27 702.246 1225.13 704.409 1222.47 704.409H1184.82C1178.23 704.409 1172.9 709.746 1172.9 716.331C1172.9 722.916 1178.23 728.253 1184.82 728.253H1277.21C1279.86 728.253 1282.02 730.425 1282.02 733.076C1282.02 735.745 1279.86 737.9 1277.21 737.9H1224.29C1217.7 737.9 1212.37 743.236 1212.37 749.821C1212.37 756.407 1217.7 761.752 1224.29 761.752H1353.46C1360.05 761.752 1365.38 756.407 1365.38 749.821C1365.38 743.236 1360.05 737.9 1353.46 737.9H1319.64C1316.99 737.9 1314.82 735.745 1314.82 733.085C1314.82 730.425 1316.99 728.253 1319.65 728.253Z" fill="white"/>
<path opacity="0.5" d="M782.268 213.608H735.676C729.082 213.608 723.746 208.28 723.746 201.686C723.746 195.101 729.082 189.764 735.676 189.764H841.355C844.015 189.764 846.162 187.601 846.162 184.95C846.162 182.298 844.015 180.126 841.355 180.126H791.719C785.133 180.126 779.788 174.781 779.788 168.204C779.788 161.619 785.133 156.274 791.719 156.274H896.355C902.94 156.274 908.285 161.619 908.285 168.204C908.285 174.772 902.94 180.126 896.355 180.126H879.447C876.787 180.126 874.641 182.298 874.641 184.941C874.641 187.601 876.787 189.764 879.447 189.764H917.094C923.679 189.764 929.015 195.101 929.015 201.686C929.015 208.271 923.679 213.608 917.094 213.608H824.704C822.053 213.608 819.89 215.78 819.89 218.44C819.89 221.1 822.053 223.263 824.704 223.263H877.625C884.21 223.263 889.547 228.6 889.547 235.185C889.547 241.77 884.21 247.115 877.625 247.115H748.445C741.859 247.115 736.523 241.77 736.523 235.185C736.523 228.6 741.859 223.263 748.445 223.263H782.268C784.92 223.263 787.083 221.108 787.083 218.448C787.075 215.78 784.92 213.608 782.268 213.608Z" fill="white"/>
<path opacity="0.5" d="M1401.45 57.3253H1220.03C1213.45 57.3253 1208.11 51.9973 1208.11 45.4036C1208.11 38.8269 1213.45 33.4818 1220.03 33.4818H1262.17C1264.83 33.4818 1266.99 31.3267 1266.99 28.6584C1266.99 26.0072 1264.83 23.8435 1262.17 23.8435H1232.8C1226.21 23.8435 1220.88 18.5069 1220.88 11.9217C1220.88 5.33657 1226.22 0 1232.8 0H1361.97C1368.56 0 1373.88 5.34512 1373.88 11.9217C1373.88 18.5069 1368.56 23.8435 1361.97 23.8435H1322.42C1319.76 23.8435 1317.6 26.0158 1317.6 28.6584C1317.6 31.3181 1319.76 33.4818 1322.42 33.4818H1401.44C1408.03 33.4818 1413.37 38.8269 1413.37 45.4036C1413.38 51.9973 1408.04 57.3253 1401.45 57.3253Z" fill="white"/>
<path opacity="0.5" d="M478.298 752.447H296.88C290.304 752.447 284.959 747.119 284.959 740.525C284.959 733.949 290.304 728.604 296.88 728.604H339.026C341.677 728.604 343.841 726.448 343.841 723.78C343.841 721.129 341.677 718.965 339.026 718.965H309.649C303.064 718.965 297.727 713.629 297.727 707.044C297.727 700.458 303.072 695.122 309.649 695.122H438.821C445.415 695.122 450.743 700.467 450.743 707.044C450.743 713.629 445.415 718.965 438.821 718.965H399.267C396.616 718.965 394.452 721.138 394.452 723.78C394.452 726.44 396.616 728.604 399.267 728.604H478.289C484.883 728.604 490.22 733.949 490.22 740.525C490.228 747.119 484.892 752.447 478.298 752.447Z" fill="white"/>
<path opacity="0.5" d="M837.798 633.828H1019.22C1025.79 633.828 1031.14 628.5 1031.14 621.906C1031.14 615.33 1025.79 609.985 1019.22 609.985H977.07C974.419 609.985 972.255 607.821 972.255 605.161C972.255 602.51 974.419 600.346 977.07 600.346H1006.45C1013.03 600.346 1018.37 595.01 1018.37 588.425C1018.37 581.839 1013.02 576.503 1006.45 576.503H877.275C870.681 576.503 865.353 581.848 865.353 588.425C865.353 595.01 870.681 600.346 877.275 600.346H916.829C919.48 600.346 921.643 602.519 921.643 605.161C921.643 607.821 919.48 609.985 916.829 609.985H837.798C831.204 609.985 825.867 615.33 825.867 621.906C825.867 628.492 831.204 633.828 837.798 633.828Z" fill="white"/>
</svg>
