<svg width="33" height="33" viewBox="0 0 33 33" fill="none" xmlns="http://www.w3.org/2000/svg">
<path d="M13.953 8.49596H10.8108L15.9895 13.6747L21.2557 8.40845H18.2885V5.95035C18.2885 5.95035 18.0339 4.29571 19.9432 4.29571C21.8524 4.29571 26.0924 4.29571 26.0924 4.29571C26.0924 4.29571 27.8504 4.04114 27.8504 6.06172C27.8504 8.07433 27.8504 12.7439 27.8504 12.7439C27.8504 12.7439 31.1756 12.5769 32.0745 14.5258V3.57976C32.0745 3.57976 31.6927 0 28.0413 0H18.4476C18.4476 0 14.1917 0.254561 14.0723 4.37526L13.953 8.49596Z" fill="#43B035"/>
<path d="M8.50391 18.1136V21.2558L13.6826 16.0771L8.41641 10.8109V13.786H5.95831C5.95831 13.786 4.30367 14.0406 4.30367 12.1314C4.30367 10.2222 4.30367 5.98217 4.30367 5.98217C4.30367 5.98217 4.04911 4.22411 6.06968 4.22411C8.09025 4.22411 12.7519 4.22411 12.7519 4.22411C12.7519 4.22411 12.5848 0.890962 14.5338 0H3.57976C3.57976 0 0 0.381846 0 4.0332V13.6269C0 13.6269 0.254561 17.8829 4.37526 18.0022L8.50391 18.1136Z" fill="#43B035"/>
<path d="M18.1295 23.5628H21.2717L16.093 18.384L10.8268 23.6503H13.794V26.1163C13.794 26.1163 14.0485 27.771 12.1393 27.771C10.2301 27.771 5.98217 27.771 5.98217 27.771C5.98217 27.771 4.22411 28.0255 4.22411 26.0129C4.22411 23.9923 4.22411 19.3227 4.22411 19.3227C4.22411 19.3227 0.898916 19.4978 0 17.5408V28.4949C0 28.4949 0.381839 32.0746 4.02523 32.0746H13.619C13.619 32.0746 17.8749 31.8201 18.0022 27.6914L18.1295 23.5628Z" fill="#43B035"/>
<path d="M23.5707 13.9372V10.795L18.4 15.9737L23.6662 21.2399V18.2727H26.1322C26.1322 18.2727 27.7869 18.0181 27.7869 19.9273C27.7869 21.8445 27.7869 26.0845 27.7869 26.0845C27.7869 26.0845 28.0414 27.8426 26.0288 27.8426C24.0083 27.8426 19.3466 27.8426 19.3466 27.8426C19.3466 27.8426 19.5137 31.1757 17.5647 32.0667H28.5108C28.5108 32.0667 32.0905 31.6848 32.0905 28.0335V18.4397C32.0905 18.4397 31.836 14.1838 27.7153 14.0645L23.5707 13.9372Z" fill="#43B035"/>
</svg>
