<svg width="60" height="60" viewBox="0 0 60 60" fill="none" xmlns="http://www.w3.org/2000/svg">
<path d="M30.0038 59.6351C13.6571 59.6351 0.35791 46.336 0.35791 29.9893C0.35791 13.6497 13.6571 0.35054 29.9966 0.35054C46.3434 0.35054 59.6425 13.6497 59.6425 29.9964C59.6425 46.3432 46.3434 59.6351 30.0038 59.6351ZM29.9966 4.71442C16.0608 4.71442 4.71465 16.0534 4.71465 29.9964C4.71465 43.9394 16.0608 55.2784 29.9966 55.2784C43.9396 55.2784 55.2786 43.9394 55.2786 29.9964C55.2858 16.0606 43.9396 4.71442 29.9966 4.71442Z" fill="url(#paint0_linear)"/>
<path d="M29.9964 0.715393C46.1428 0.715393 59.2846 13.85 59.2846 30.0036C59.2846 46.15 46.15 59.2846 30.0036 59.2846C13.8572 59.2846 0.715393 46.15 0.715393 29.9964C0.715393 13.85 13.8572 0.715393 29.9964 0.715393ZM30.0036 55.6361C44.1397 55.6361 55.6433 44.1326 55.6433 29.9964C55.6433 15.8603 44.1397 4.35672 30.0036 4.35672C15.8674 4.35672 4.36388 15.8603 4.36388 29.9964C4.35673 44.1326 15.8603 55.6361 30.0036 55.6361ZM29.9964 0C13.4565 0 0 13.4565 0 29.9964C0 46.5363 13.4565 60 30.0036 60C46.5435 60 60 46.5435 60 30.0036C60 13.4565 46.5435 0 29.9964 0ZM30.0036 54.9207C16.2609 54.9207 5.07927 43.7391 5.07927 29.9964C5.07927 16.2537 16.2609 5.07211 30.0036 5.07211C43.7463 5.07211 54.9279 16.2537 54.9279 29.9964C54.9279 43.7391 43.7463 54.9207 30.0036 54.9207Z" fill="white"/>
<path d="M53.6618 29.9964C53.6618 43.0595 43.074 53.6545 30.0038 53.6545C16.9335 53.6545 6.3457 43.0595 6.3457 29.9964C6.3457 16.9262 16.9407 6.33836 30.0038 6.33836C43.0668 6.33836 53.6618 16.9333 53.6618 29.9964Z" fill="#5F5F5F"/>
<path d="M30.0036 6.70323C42.9594 6.70323 53.4614 17.1909 53.4614 30.1252C53.4614 43.0595 42.9594 53.5471 30.0036 53.5471C17.0479 53.5471 6.5459 43.0595 6.5459 30.1252C6.5459 17.1909 17.0479 6.70323 30.0036 6.70323Z" fill="#606060"/>
<path d="M30.0037 7.06808C42.845 7.06808 53.254 17.4484 53.254 30.2539C53.254 43.0595 42.845 53.4399 30.0037 53.4399C17.1624 53.4399 6.75342 43.0595 6.75342 30.2539C6.74627 17.4484 17.1552 7.06808 30.0037 7.06808Z" fill="#616161"/>
<path d="M30.0036 7.43294C42.7376 7.43294 53.0535 17.706 53.0535 30.3899C53.0535 43.0666 42.7376 53.3397 30.0036 53.3397C17.2696 53.3397 6.95361 43.0666 6.95361 30.3899C6.95361 17.7131 17.2696 7.43294 30.0036 7.43294Z" fill="#626262"/>
<path d="M30.0035 7.79776C42.623 7.79776 52.846 17.9707 52.846 30.5186C52.846 43.0666 42.623 53.2395 30.0035 53.2395C17.3839 53.2395 7.15381 43.0666 7.15381 30.5186C7.15381 17.9707 17.3839 7.79776 30.0035 7.79776Z" fill="#636262"/>
<path d="M30.0035 8.16261C42.5086 8.16261 52.6457 18.2282 52.6457 30.6474C52.6457 43.0666 42.5086 53.1322 30.0035 53.1322C17.4985 53.1322 7.36133 43.0666 7.36133 30.6474C7.35418 18.2282 17.4913 8.16261 30.0035 8.16261Z" fill="#646363"/>
<path d="M30.0039 8.52747C42.3945 8.52747 52.4386 18.4858 52.4386 30.7762C52.4386 43.0667 42.3945 53.0249 30.0039 53.0249C17.6133 53.0249 7.56201 43.0667 7.56201 30.7762C7.56201 18.4858 17.6061 8.52747 30.0039 8.52747Z" fill="#656464"/>
<path d="M30.004 8.89233C42.2873 8.89233 52.2384 18.7505 52.2384 30.905C52.2384 43.0667 42.2873 52.9176 30.004 52.9176C17.7207 52.9176 7.76954 43.0595 7.76954 30.905C7.76238 18.7505 17.7207 8.89233 30.004 8.89233Z" fill="#656564"/>
<path d="M30.0038 9.25719C42.1727 9.25719 52.0379 19.008 52.0379 31.0337C52.0379 43.0595 42.1727 52.8103 30.0038 52.8103C17.835 52.8103 7.96973 43.0595 7.96973 31.0337C7.96973 19.008 17.835 9.25719 30.0038 9.25719Z" fill="#666665"/>
<path d="M30.0039 9.62204C42.0583 9.62204 51.8305 19.2655 51.8305 31.1697C51.8305 43.0667 42.0583 52.7101 30.0039 52.7101C17.9495 52.7101 8.17725 43.0667 8.17725 31.1697C8.1701 19.2655 17.9424 9.62204 30.0039 9.62204Z" fill="#676666"/>
<path d="M30.0038 9.98686C41.9508 9.98686 51.6301 19.5231 51.6301 31.2984C51.6301 43.0667 41.9508 52.61 30.0038 52.61C18.0567 52.61 8.37744 43.0738 8.37744 31.2984C8.37744 19.5302 18.0567 9.98686 30.0038 9.98686Z" fill="#686767"/>
<path d="M30.0037 10.3517C41.8363 10.3517 51.4225 19.7878 51.4225 31.4272C51.4225 43.0666 41.8363 52.5027 30.0037 52.5027C18.1711 52.5027 8.57764 43.0666 8.57764 31.4272C8.57764 19.7878 18.1711 10.3517 30.0037 10.3517Z" fill="#696867"/>
<path d="M30.0037 10.7166C41.7219 10.7166 51.2222 20.0453 51.2222 31.556C51.2222 43.0666 41.7219 52.3954 30.0037 52.3954C18.2856 52.3954 8.78516 43.0666 8.78516 31.556C8.77801 20.0453 18.2784 10.7166 30.0037 10.7166Z" fill="#6A6968"/>
<path d="M30.0036 11.0814C41.6144 11.0814 51.0147 20.3028 51.0147 31.6847C51.0147 43.0666 41.6073 52.2881 30.0036 52.2881C18.3999 52.2881 8.98535 43.0666 8.98535 31.6847C8.98535 20.3028 18.3928 11.0814 30.0036 11.0814Z" fill="#6B6969"/>
<path d="M30.0037 11.4463C41.5 11.4463 50.8145 20.5675 50.8145 31.8135C50.8145 43.0595 41.5 52.1808 30.0037 52.1808C18.5073 52.1808 9.19288 43.0595 9.19288 31.8135C9.18572 20.5675 18.5073 11.4463 30.0037 11.4463Z" fill="#6C6A6A"/>
<path d="M30.0036 11.8111C41.3855 11.8111 50.614 20.8251 50.614 31.9423C50.614 43.0595 41.3926 52.0734 30.0036 52.0734C18.6217 52.0734 9.39307 43.0595 9.39307 31.9423C9.39307 20.8251 18.6145 11.8111 30.0036 11.8111Z" fill="#6D6B6A"/>
<path d="M30.0036 12.176C41.271 12.176 50.4066 21.0826 50.4066 32.0782C50.4066 43.0666 41.271 51.9733 30.0036 51.9733C18.7362 51.9733 9.60059 43.0666 9.60059 32.0782C9.59344 21.0826 18.729 12.176 30.0036 12.176Z" fill="#6E6C6B"/>
<path d="M30.0035 12.5408C41.1636 12.5408 50.2062 21.3402 50.2062 32.207C50.2062 43.0667 41.1636 51.8731 30.0035 51.8731C18.8434 51.8731 9.80078 43.0667 9.80078 32.207C9.80078 21.3473 18.8434 12.5408 30.0035 12.5408Z" fill="#6F6D6C"/>
<path d="M30.0034 12.9057C41.049 12.9057 49.9986 21.6049 49.9986 32.3358C49.9986 43.0667 41.049 51.7658 30.0034 51.7658C18.9577 51.7658 10.001 43.0667 10.001 32.3358C10.001 21.6049 18.9577 12.9057 30.0034 12.9057Z" fill="#6F6D6D"/>
<path d="M30.0034 13.2705C40.9346 13.2705 49.7983 21.8624 49.7983 32.4645C49.7983 43.0667 40.9346 51.6585 30.0034 51.6585C19.0722 51.6585 10.2085 43.0667 10.2085 32.4645C10.2085 21.8624 19.0651 13.2705 30.0034 13.2705Z" fill="#706E6E"/>
<path d="M30.0038 13.6354C40.8277 13.6354 49.5912 22.12 49.5912 32.5933C49.5912 43.0667 40.8205 51.5512 30.0038 51.5512C19.1799 51.5512 10.4092 43.0595 10.4092 32.5933C10.4092 22.12 19.1799 13.6354 30.0038 13.6354Z" fill="#716F6E"/>
<path d="M30.0039 14.0002C40.7133 14.0002 49.391 22.3846 49.391 32.7221C49.391 43.0666 40.7133 51.4439 30.0039 51.4439C19.2944 51.4439 10.6167 43.0595 10.6167 32.7221C10.6095 22.3846 19.2944 14.0002 30.0039 14.0002Z" fill="#72706F"/>
<path d="M30.0037 14.3651C40.5987 14.3651 49.1906 22.6422 49.1906 32.858C49.1906 43.0666 40.6059 51.3438 30.0037 51.3438C19.4088 51.3438 10.8169 43.0666 10.8169 32.858C10.8169 22.6422 19.4016 14.3651 30.0037 14.3651Z" fill="#737170"/>
<path d="M30.0038 14.7299C40.4843 14.7299 48.9832 22.8997 48.9832 32.9868C48.9832 43.0666 40.4843 51.2436 30.0038 51.2436C19.5233 51.2436 11.0244 43.0738 11.0244 32.9868C11.0173 22.8997 19.5161 14.7299 30.0038 14.7299Z" fill="#747271"/>
<path d="M30.0037 15.0948C40.3769 15.0948 48.7827 23.1644 48.7827 33.1155C48.7827 43.0666 40.3769 51.1363 30.0037 51.1363C19.6305 51.1363 11.2246 43.0666 11.2246 33.1155C11.2246 23.1644 19.6305 15.0948 30.0037 15.0948Z" fill="#757372"/>
<path d="M30.0037 15.4596C40.2625 15.4596 48.5753 23.4219 48.5753 33.2443C48.5753 43.0666 40.2625 51.029 30.0037 51.029C19.745 51.029 11.4321 43.0666 11.4321 33.2443C11.425 23.4219 19.745 15.4596 30.0037 15.4596Z" fill="#767372"/>
<path d="M30.0036 15.8245C40.1479 15.8245 48.3749 23.6795 48.3749 33.3731C48.3749 43.0666 40.1551 50.9217 30.0036 50.9217C19.8594 50.9217 11.6323 43.0666 11.6323 33.3731C11.6323 23.6795 19.8522 15.8245 30.0036 15.8245Z" fill="#777473"/>
<path d="M30.0035 16.1893C40.0405 16.1893 48.1673 23.9371 48.1673 33.5019C48.1673 43.0667 40.0333 50.8143 30.0035 50.8143C19.9666 50.8143 11.8325 43.0595 11.8325 33.5019C11.8325 23.9371 19.9666 16.1893 30.0035 16.1893Z" fill="#777574"/>
<path d="M30.0036 16.5542C39.9261 16.5542 47.9671 24.2017 47.9671 33.6306C47.9671 43.0667 39.9261 50.7071 30.0036 50.7071C20.0811 50.7071 12.04 43.0595 12.04 33.6306C12.0329 24.2017 20.0811 16.5542 30.0036 16.5542Z" fill="#787675"/>
<path d="M30.0039 16.919C39.812 16.919 47.76 24.4593 47.76 33.7594C47.76 43.0595 39.812 50.5997 30.0039 50.5997C20.1959 50.5997 12.2407 43.0595 12.2407 33.7594C12.2407 24.4593 20.1887 16.919 30.0039 16.919Z" fill="#797776"/>
<path d="M30.0035 17.2839C39.7042 17.2839 47.5592 24.7168 47.5592 33.8953C47.5592 43.0667 39.6971 50.5067 30.0035 50.5067C20.3099 50.5067 12.4478 43.0738 12.4478 33.8953C12.4406 24.7168 20.3028 17.2839 30.0035 17.2839Z" fill="#7A7877"/>
<path d="M30.0039 17.6487C39.5901 17.6487 47.3593 24.9815 47.3593 34.0241C47.3593 43.0667 39.5901 50.3994 30.0039 50.3994C20.4176 50.3994 12.6484 43.0667 12.6484 34.0241C12.6484 24.9815 20.4176 17.6487 30.0039 17.6487Z" fill="#7B7977"/>
<path d="M30.0039 18.0136C39.4757 18.0136 47.1519 25.239 47.1519 34.1528C47.1519 43.0666 39.4757 50.2921 30.0039 50.2921C20.5321 50.2921 12.856 43.0666 12.856 34.1528C12.8488 25.239 20.5321 18.0136 30.0039 18.0136Z" fill="#7C7978"/>
<path d="M30.0038 18.3784C39.3612 18.3784 46.9515 25.4966 46.9515 34.2816C46.9515 43.0666 39.3683 50.1848 30.0038 50.1848C20.6465 50.1848 13.0562 43.0666 13.0562 34.2816C13.0562 25.4966 20.6393 18.3784 30.0038 18.3784Z" fill="#7D7A79"/>
<path d="M30.0037 18.7433C39.2537 18.7433 46.7439 25.7541 46.7439 34.4104C46.7439 43.0666 39.2466 50.0775 30.0037 50.0775C20.7537 50.0775 13.2563 43.0666 13.2563 34.4104C13.2563 25.7541 20.7537 18.7433 30.0037 18.7433Z" fill="#7E7B7A"/>
<path d="M30.0038 19.1081C39.1393 19.1081 46.5437 26.0188 46.5437 34.5392C46.5437 43.0595 39.1393 49.9702 30.0038 49.9702C20.8682 49.9702 13.4639 43.0595 13.4639 34.5392C13.4639 26.0188 20.8682 19.1081 30.0038 19.1081Z" fill="#7F7C7B"/>
<path d="M30.0037 19.473C39.0248 19.473 46.3361 26.2764 46.3361 34.6751C46.3361 43.0666 39.0248 49.87 30.0037 49.87C20.9826 49.87 13.6641 43.0666 13.6641 34.6751C13.6641 26.2764 20.9754 19.473 30.0037 19.473Z" fill="#807D7C"/>
<path d="M30.0037 19.8378C38.9175 19.8378 46.1358 26.5339 46.1358 34.8038C46.1358 43.0666 38.9175 49.7699 30.0037 49.7699C21.0899 49.7699 13.8716 43.0738 13.8716 34.8038C13.8644 26.5339 21.0899 19.8378 30.0037 19.8378Z" fill="#817E7D"/>
<path d="M30.0036 20.2027C38.8029 20.2027 45.9354 26.7986 45.9354 34.9326C45.9354 43.0667 38.8029 49.6626 30.0036 49.6626C21.2043 49.6626 14.0718 43.0667 14.0718 34.9326C14.0718 26.7986 21.2043 20.2027 30.0036 20.2027Z" fill="#827F7E"/>
<path d="M30.0036 20.5676C38.6885 20.5676 45.728 27.0562 45.728 35.0614C45.728 43.0667 38.6885 49.5553 30.0036 49.5553C21.3188 49.5553 14.2793 43.0667 14.2793 35.0614C14.2721 27.0562 21.3116 20.5676 30.0036 20.5676Z" fill="#82807E"/>
<path d="M30.0035 20.9324C38.5739 20.9324 45.5275 27.3137 45.5275 35.1902C45.5275 43.0667 38.5811 49.448 30.0035 49.448C21.4331 49.448 14.4795 43.0667 14.4795 35.1902C14.4795 27.3137 21.426 20.9324 30.0035 20.9324Z" fill="#83817F"/>
<path d="M30.0036 21.2973C38.4667 21.2973 45.3201 27.5784 45.3201 35.3189C45.3201 43.0666 38.4595 49.3406 30.0036 49.3406C21.5405 49.3406 14.687 43.0595 14.687 35.3189C14.6799 27.5712 21.5405 21.2973 30.0036 21.2973Z" fill="#848180"/>
<path d="M30.0035 21.6621C38.3521 21.6621 45.1197 27.8359 45.1197 35.4549C45.1197 43.0667 38.3521 49.2405 30.0035 49.2405C21.6548 49.2405 14.8872 43.0667 14.8872 35.4549C14.8872 27.8359 21.6548 21.6621 30.0035 21.6621Z" fill="#858281"/>
<path d="M30.0038 22.0269C38.238 22.0269 44.9126 28.0935 44.9126 35.5836C44.9126 43.0666 38.238 49.1403 30.0038 49.1403C21.7697 49.1403 15.0879 43.0738 15.0879 35.5836C15.0879 28.0935 21.7625 22.0269 30.0038 22.0269Z" fill="#868382"/>
<path d="M30.0034 22.3918C38.1303 22.3918 44.7119 28.351 44.7119 35.7124C44.7119 43.0666 38.1303 49.033 30.0034 49.033C21.8766 49.033 15.2949 43.0738 15.2949 35.7124C15.2878 28.351 21.8766 22.3918 30.0034 22.3918Z" fill="#878483"/>
<path d="M30.0038 22.7567C38.0162 22.7567 44.5048 28.6157 44.5048 35.8412C44.5048 43.0666 38.009 48.9257 30.0038 48.9257C21.9914 48.9257 15.4956 43.0666 15.4956 35.8412C15.4956 28.6157 21.9914 22.7567 30.0038 22.7567Z" fill="#888584"/>
<path d="M30.0038 23.1215C37.9018 23.1215 44.3045 28.8732 44.3045 35.9699C44.3045 43.0666 37.9018 48.8184 30.0038 48.8184C22.1059 48.8184 15.7031 43.0666 15.7031 35.9699C15.696 28.8732 22.0988 23.1215 30.0038 23.1215Z" fill="#898685"/>
<path d="M30.0037 23.4864C37.7872 23.4864 44.1041 29.1308 44.1041 36.0987C44.1041 43.0666 37.7944 48.7111 30.0037 48.7111C22.2203 48.7111 15.9033 43.0666 15.9033 36.0987C15.9033 29.1308 22.2131 23.4864 30.0037 23.4864Z" fill="#8A8786"/>
<path d="M30.0038 23.8512C37.68 23.8512 43.8967 29.3955 43.8967 36.2275C43.8967 43.0667 37.68 48.6038 30.0038 48.6038C22.3276 48.6038 16.1108 43.0595 16.1108 36.2275C16.1037 29.3884 22.3276 23.8512 30.0038 23.8512Z" fill="#8B8887"/>
<path d="M30.0037 24.216C37.5654 24.216 43.6963 29.653 43.6963 36.3563C43.6963 43.0667 37.5654 48.4965 30.0037 48.4965C22.442 48.4965 16.311 43.0595 16.311 36.3563C16.311 29.653 22.442 24.216 30.0037 24.216Z" fill="#8C8988"/>
<path d="M30.0036 24.5809C37.4508 24.5809 43.4887 29.9106 43.4887 36.4922C43.4887 43.0667 37.4508 48.4035 30.0036 48.4035C22.5563 48.4035 16.5112 43.0738 16.5112 36.4922C16.5112 29.9106 22.5492 24.5809 30.0036 24.5809Z" fill="#8D8A88"/>
<path d="M30.0036 24.9457C37.3435 24.9457 43.2884 30.1681 43.2884 36.621C43.2884 43.0666 37.3435 48.2962 30.0036 48.2962C22.6637 48.2962 16.7188 43.0738 16.7188 36.621C16.7116 30.1681 22.6637 24.9457 30.0036 24.9457Z" fill="#8E8B89"/>
<path d="M30.0035 25.3106C37.229 25.3106 43.0809 30.4328 43.0809 36.7497C43.0809 43.0667 37.229 48.1889 30.0035 48.1889C22.778 48.1889 16.9189 43.0667 16.9189 36.7497C16.9189 30.4328 22.778 25.3106 30.0035 25.3106Z" fill="#8F8C8A"/>
<path d="M30.0035 25.6755C37.1145 25.6755 42.8806 30.6903 42.8806 36.8785C42.8806 43.0666 37.1145 48.0815 30.0035 48.0815C22.8925 48.0815 17.1265 43.0666 17.1265 36.8785C17.1265 30.6903 22.8854 25.6755 30.0035 25.6755Z" fill="#908D8B"/>
<path d="M30.0039 26.0403C37.0076 26.0403 42.6807 30.9479 42.6807 37.0073C42.6807 43.0666 37.0076 47.9743 30.0039 47.9743C23.0074 47.9743 17.3271 43.0666 17.3271 37.0073C17.3271 30.9479 23.0002 26.0403 30.0039 26.0403Z" fill="#918E8C"/>
<path d="M30.004 26.4051C36.8932 26.4051 42.4733 31.2126 42.4733 37.136C42.4733 43.0666 36.8932 47.8669 30.004 47.8669C23.1148 47.8669 17.5347 43.0595 17.5347 37.136C17.5275 31.2054 23.1148 26.4051 30.004 26.4051Z" fill="#928F8D"/>
<path d="M30.0034 26.77C36.7782 26.77 42.2724 31.4701 42.2724 37.272C42.2724 43.0738 36.7782 47.7668 30.0034 47.7668C23.2286 47.7668 17.7344 43.0666 17.7344 37.272C17.7344 31.4701 23.2286 26.77 30.0034 26.77Z" fill="#92908E"/>
<path d="M30.0038 27.1348C36.6641 27.1348 42.0653 31.7276 42.0653 37.4007C42.0653 43.0666 36.6641 47.6666 30.0038 47.6666C23.3434 47.6666 17.9351 43.0738 17.9351 37.4007C17.9351 31.7276 23.3363 27.1348 30.0038 27.1348Z" fill="#93918F"/>
<path d="M30.0038 27.4997C36.5568 27.4997 41.865 31.9852 41.865 37.5295C41.865 43.0666 36.5568 47.5593 30.0038 47.5593C23.4508 47.5593 18.1426 43.0666 18.1426 37.5295C18.1426 31.9852 23.4508 27.4997 30.0038 27.4997Z" fill="#949290"/>
<path d="M30.0037 27.8646C36.4422 27.8646 41.6574 32.2499 41.6574 37.6583C41.6574 43.0667 36.4422 47.452 30.0037 47.452C23.5652 47.452 18.3428 43.0667 18.3428 37.6583C18.3428 32.2499 23.5652 27.8646 30.0037 27.8646Z" fill="#959391"/>
<path d="M30.0037 28.2294C36.3278 28.2294 41.4572 32.5075 41.4572 37.7871C41.4572 43.0667 36.3278 47.3447 30.0037 47.3447C23.6797 47.3447 18.5503 43.0667 18.5503 37.7871C18.5431 32.5075 23.6725 28.2294 30.0037 28.2294Z" fill="#969492"/>
<path d="M30.0036 28.5942C36.2132 28.5942 41.2496 32.765 41.2496 37.9158C41.2496 43.0667 36.2132 47.2374 30.0036 47.2374C23.7869 47.2374 18.7505 43.0667 18.7505 37.9158C18.7505 32.765 23.7869 28.5942 30.0036 28.5942Z" fill="#979593"/>
<path d="M30.0037 28.9591C36.106 28.9591 41.0493 33.0297 41.0493 38.0446C41.0493 43.0666 36.106 47.1301 30.0037 47.1301C23.9014 47.1301 18.958 43.0595 18.958 38.0446C18.9509 33.0297 23.9014 28.9591 30.0037 28.9591Z" fill="#989594"/>
<path d="M30.0036 29.3239C35.9914 29.3239 40.8489 33.2872 40.8489 38.1805C40.8489 43.0738 35.9986 47.0371 30.0036 47.0371C24.0157 47.0371 19.1582 43.0738 19.1582 38.1805C19.1582 33.2872 24.0157 29.3239 30.0036 29.3239Z" fill="#999695"/>
<path d="M30.0036 29.6888C35.877 29.6888 40.6415 33.5448 40.6415 38.3093C40.6415 43.0738 35.877 46.9298 30.0036 46.9298C24.1303 46.9298 19.3657 43.0738 19.3657 38.3093C19.3657 33.5448 24.1231 29.6888 30.0036 29.6888Z" fill="#9A9796"/>
<path d="M30.0035 30.0537C35.7696 30.0537 40.4411 33.8095 40.4411 38.438C40.4411 43.0666 35.7696 46.8225 30.0035 46.8225C24.2375 46.8225 19.5659 43.0666 19.5659 38.438C19.5659 33.8023 24.2375 30.0537 30.0035 30.0537Z" fill="#9B9897"/>
<path d="M30.0034 30.4185C35.655 30.4185 40.2335 34.067 40.2335 38.5668C40.2335 43.0666 35.655 46.7151 30.0034 46.7151C24.3518 46.7151 19.7661 43.0666 19.7661 38.5668C19.7661 34.067 24.3518 30.4185 30.0034 30.4185Z" fill="#9C9998"/>
<path d="M30.0035 30.7833C35.5406 30.7833 40.0333 34.3245 40.0333 38.6956C40.0333 43.0666 35.5406 46.6078 30.0035 46.6078C24.4663 46.6078 19.9736 43.0666 19.9736 38.6956C19.9665 34.3245 24.4592 30.7833 30.0035 30.7833Z" fill="#9D9A99"/>
<path d="M30.0038 31.1482C35.4337 31.1482 39.8262 34.5821 39.8262 38.8244C39.8262 43.0667 35.4265 46.5005 30.0038 46.5005C24.574 46.5005 20.1743 43.0667 20.1743 38.8244C20.1743 34.5821 24.574 31.1482 30.0038 31.1482Z" fill="#9E9C9A"/>
<path d="M30.0039 31.513C35.3193 31.513 39.6259 34.8468 39.6259 38.9532C39.6259 43.0667 35.3193 46.3932 30.0039 46.3932C24.6885 46.3932 20.3818 43.0595 20.3818 38.9532C20.3747 34.8468 24.6885 31.513 30.0039 31.513Z" fill="#9F9D9B"/>
<path d="M30.0038 31.8779C35.2047 31.8779 39.4255 35.1043 39.4255 39.0891C39.4255 43.0738 35.2118 46.3002 30.0038 46.3002C24.8029 46.3002 20.582 43.0738 20.582 39.0891C20.582 35.1043 24.8029 31.8779 30.0038 31.8779Z" fill="#A09E9C"/>
<path d="M30.0038 32.2428C35.0903 32.2428 39.2181 35.3619 39.2181 39.2178C39.2181 43.0667 35.0903 46.1929 30.0038 46.1929C24.9174 46.1929 20.7896 43.0738 20.7896 39.2178C20.7824 35.3619 24.9102 32.2428 30.0038 32.2428Z" fill="#A19F9D"/>
<path d="M30.0037 32.6076C34.9828 32.6076 39.0176 35.6266 39.0176 39.3466C39.0176 43.0667 34.9828 46.0856 30.0037 46.0856C25.0246 46.0856 20.9897 43.0667 20.9897 39.3466C20.9897 35.6194 25.0246 32.6076 30.0037 32.6076Z" fill="#A2A09E"/>
<path d="M30.0036 32.9724C34.8683 32.9724 38.8101 35.8841 38.8101 39.4754C38.8101 43.0667 34.8683 45.9783 30.0036 45.9783C25.1389 45.9783 21.1899 43.0667 21.1899 39.4754C21.1899 35.8841 25.1389 32.9724 30.0036 32.9724Z" fill="#A3A19F"/>
<path d="M30.0036 33.3373C34.7539 33.3373 38.6098 36.1416 38.6098 39.6041C38.6098 43.0666 34.7539 45.871 30.0036 45.871C25.2534 45.871 21.3975 43.0666 21.3975 39.6041C21.3903 36.1416 25.2463 33.3373 30.0036 33.3373Z" fill="#A4A2A0"/>
<path d="M30.0035 33.7021C34.6464 33.7021 38.4022 36.4063 38.4022 39.7329C38.4022 43.0666 34.6393 45.7637 30.0035 45.7637C25.3606 45.7637 21.5977 43.0595 21.5977 39.7329C21.5977 36.3992 25.3606 33.7021 30.0035 33.7021Z" fill="#A5A3A1"/>
<path d="M30.0036 34.067C34.532 34.067 38.202 36.6639 38.202 39.8688C38.202 43.0738 34.532 45.6635 30.0036 45.6635C25.4752 45.6635 21.8052 43.0666 21.8052 39.8688C21.798 36.6639 25.4752 34.067 30.0036 34.067Z" fill="#A6A4A3"/>
<path d="M30.004 34.4319C34.4179 34.4319 37.9949 36.9214 37.9949 39.9976C37.9949 43.0666 34.4179 45.5634 30.004 45.5634C25.59 45.5634 22.0059 43.0738 22.0059 39.9976C22.0059 36.9214 25.5828 34.4319 30.004 34.4319Z" fill="#A7A5A4"/>
<path d="M30.004 34.7967C34.3107 34.7967 37.7946 37.1789 37.7946 40.1264C37.7946 43.0666 34.3035 45.4561 30.004 45.4561C25.6974 45.4561 22.2134 43.0738 22.2134 40.1264C22.2062 37.1789 25.6974 34.7967 30.004 34.7967Z" fill="#A8A6A5"/>
<path d="M30.0034 35.1615C34.1956 35.1615 37.5937 37.4437 37.5937 40.2552C37.5937 43.0667 34.1956 45.3488 30.0034 45.3488C25.8112 45.3488 22.4131 43.0667 22.4131 40.2552C22.4131 37.4365 25.8112 35.1615 30.0034 35.1615Z" fill="#A9A7A6"/>
<path d="M30.0038 35.5264C34.0815 35.5264 37.3866 37.7012 37.3866 40.3839C37.3866 43.0667 34.0815 45.2414 30.0038 45.2414C25.9261 45.2414 22.6138 43.0667 22.6138 40.3839C22.6138 37.7012 25.9261 35.5264 30.0038 35.5264Z" fill="#AAA8A7"/>
<path d="M30.0034 35.8913C33.9666 35.8913 37.1859 37.9588 37.1859 40.5127C37.1859 43.0667 33.9738 45.1341 30.0034 45.1341C26.0401 45.1341 22.8208 43.0667 22.8208 40.5127C22.8208 37.9588 26.0329 35.8913 30.0034 35.8913Z" fill="#AAA9A8"/>
<path d="M30.0037 36.2561C33.8597 36.2561 36.9788 38.2234 36.9788 40.6415C36.9788 43.0666 33.8525 45.0268 30.0037 45.0268C26.1478 45.0268 23.0215 43.0595 23.0215 40.6415C23.0215 38.2163 26.1478 36.2561 30.0037 36.2561Z" fill="#ABAAA9"/>
<path d="M30.0038 36.621C33.7453 36.621 36.7786 38.481 36.7786 40.7702C36.7786 43.0667 33.7453 44.9267 30.0038 44.9267C26.2623 44.9267 23.229 43.0667 23.229 40.7702C23.2219 38.481 26.2623 36.621 30.0038 36.621Z" fill="#ACABAA"/>
<path d="M30.0037 36.9858C33.6307 36.9858 36.571 38.7385 36.571 40.9062C36.571 43.0738 33.6307 44.8265 30.0037 44.8265C26.3766 44.8265 23.4292 43.0738 23.4292 40.9062C23.4292 38.7385 26.3695 36.9858 30.0037 36.9858Z" fill="#ADACAB"/>
<path d="M30.0037 37.3506C33.5235 37.3506 36.3707 38.9961 36.3707 41.0349C36.3707 43.0666 33.5235 44.7192 30.0037 44.7192C26.484 44.7192 23.6367 43.0738 23.6367 41.0349C23.6296 38.9961 26.484 37.3506 30.0037 37.3506Z" fill="#AEADAC"/>
<path d="M30.0036 37.7155C33.4089 37.7155 36.1703 39.2608 36.1703 41.1637C36.1703 43.0666 33.4089 44.6119 30.0036 44.6119C26.5983 44.6119 23.8369 43.0666 23.8369 41.1637C23.8369 39.2536 26.5983 37.7155 30.0036 37.7155Z" fill="#AFAEAD"/>
<path d="M30.0037 38.0804C33.2945 38.0804 35.9629 39.5183 35.9629 41.2925C35.9629 43.0666 33.2945 44.5046 30.0037 44.5046C26.7129 44.5046 24.0444 43.0666 24.0444 41.2925C24.0373 39.5183 26.7129 38.0804 30.0037 38.0804Z" fill="#B0AFAE"/>
<path d="M30.0036 38.4452C33.1799 38.4452 35.7625 39.7758 35.7625 41.4212C35.7625 43.0666 33.1871 44.3973 30.0036 44.3973C26.8272 44.3973 24.2446 43.0666 24.2446 41.4212C24.2446 39.7758 26.8201 38.4452 30.0036 38.4452Z" fill="#B1B0AF"/>
<path d="M30.0034 38.8101C33.0725 38.8101 35.5549 40.0334 35.5549 41.55C35.5549 43.0667 33.0653 44.2899 30.0034 44.2899C26.9344 44.2899 24.4448 43.0667 24.4448 41.55C24.4448 40.0334 26.9344 38.8101 30.0034 38.8101Z" fill="#B2B1B0"/>
<path d="M30.0035 39.1749C32.9581 39.1749 35.3546 40.2981 35.3546 41.686C35.3546 43.0738 32.9581 44.197 30.0035 44.197C27.0489 44.197 24.6523 43.0738 24.6523 41.686C24.6523 40.2981 27.0489 39.1749 30.0035 39.1749Z" fill="#B3B2B1"/>
<path d="M30.0039 39.5398C32.844 39.5398 35.1475 40.5556 35.1475 41.8147C35.1475 43.0738 32.844 44.0897 30.0039 44.0897C27.1638 44.0897 24.853 43.0738 24.853 41.8147C24.853 40.5556 27.1566 39.5398 30.0039 39.5398Z" fill="#B4B3B2"/>
<path d="M30.0039 39.9046C32.7367 39.9046 34.9473 40.8132 34.9473 41.9435C34.9473 43.0738 32.7367 43.9824 30.0039 43.9824C27.2711 43.9824 25.0606 43.0738 25.0606 41.9435C25.0534 40.8132 27.2711 39.9046 30.0039 39.9046Z" fill="#B5B4B3"/>
<path d="M30.0038 40.2695C32.6221 40.2695 34.7397 41.0779 34.7397 42.0723C34.7397 43.0667 32.615 43.8751 30.0038 43.8751C27.3855 43.8751 25.2607 43.0667 25.2607 42.0723C25.2607 41.0707 27.3855 40.2695 30.0038 40.2695Z" fill="#B6B5B4"/>
<path d="M30.0039 40.6343C32.5078 40.6343 34.5395 41.3354 34.5395 42.201C34.5395 43.0666 32.5078 43.7677 30.0039 43.7677C27.5 43.7677 25.4683 43.0666 25.4683 42.201C25.4611 41.3354 27.4929 40.6343 30.0039 40.6343Z" fill="#B7B6B6"/>
<path d="M30.0033 40.9992C32.3927 40.9992 34.3385 41.5929 34.3385 42.3298C34.3385 43.0666 32.3998 43.6604 30.0033 43.6604C27.6139 43.6604 25.668 43.0666 25.668 42.3298C25.668 41.5929 27.6067 40.9992 30.0033 40.9992Z" fill="#B8B7B7"/>
<path d="M30.0033 41.364C32.2854 41.364 34.1311 41.8576 34.1311 42.4657C34.1311 43.0738 32.2854 43.5674 30.0033 43.5674C27.7212 43.5674 25.8755 43.0738 25.8755 42.4657C25.8684 41.8505 27.7212 41.364 30.0033 41.364Z" fill="#B9B8B8"/>
<path d="M30.0037 41.7289C32.1713 41.7289 33.9312 42.1152 33.9312 42.5945C33.9312 43.0738 32.1713 43.4601 30.0037 43.4601C27.8361 43.4601 26.0762 43.0738 26.0762 42.5945C26.0762 42.1152 27.8361 41.7289 30.0037 41.7289Z" fill="#BAB9B9"/>
<path d="M30.0036 42.0937C32.0568 42.0937 33.7236 42.3727 33.7236 42.7232C33.7236 43.0738 32.0568 43.3528 30.0036 43.3528C27.9504 43.3528 26.2764 43.0738 26.2764 42.7232C26.2764 42.3727 27.9432 42.0937 30.0036 42.0937Z" fill="#BBBABA"/>
<path d="M30.0037 42.4586C31.9495 42.4586 33.5234 42.6374 33.5234 42.852C33.5234 43.0666 31.9495 43.2455 30.0037 43.2455C28.0578 43.2455 26.4839 43.0666 26.4839 42.852C26.4768 42.6302 28.0578 42.4586 30.0037 42.4586Z" fill="#BCBBBB"/>
<path d="M26.6846 42.9808C26.6846 42.895 28.1726 42.8234 30.004 42.8234C31.8354 42.8234 33.3163 42.895 33.3163 42.9808C33.3163 43.0667 31.8283 43.1382 30.004 43.1382C28.1726 43.1382 26.6846 43.0667 26.6846 42.9808Z" fill="#BCBCBC"/>
<path d="M30.0034 32.4431C40.1772 32.4431 48.4248 26.8668 48.4248 19.9881C48.4248 13.1094 40.1772 7.53307 30.0034 7.53307C19.8296 7.53307 11.582 13.1094 11.582 19.9881C11.582 26.8668 19.8296 32.4431 30.0034 32.4431Z" fill="url(#paint1_linear)"/>
<defs>
<linearGradient id="paint0_linear" x1="9.05158" y1="50.9466" x2="50.9486" y2="9.0495" gradientUnits="userSpaceOnUse">
<stop offset="0.00526316" stop-color="#CBD2D7"/>
<stop offset="0.0222" stop-color="#C2CACE"/>
<stop offset="0.0523" stop-color="#ABB2B6"/>
<stop offset="0.092" stop-color="#81888C"/>
<stop offset="0.1368" stop-color="#484B4D"/>
<stop offset="0.1399" stop-color="#62676A"/>
<stop offset="0.1458" stop-color="#8D9498"/>
<stop offset="0.1519" stop-color="#B0B7BB"/>
<stop offset="0.158" stop-color="#CBD2D5"/>
<stop offset="0.1643" stop-color="#E0E5E9"/>
<stop offset="0.1706" stop-color="#EEF3F5"/>
<stop offset="0.1772" stop-color="#F6FAFD"/>
<stop offset="0.1842" stop-color="#F7FCFE"/>
<stop offset="0.228" stop-color="#F4F9FC"/>
<stop offset="0.2787" stop-color="#E8EFF3"/>
<stop offset="0.3327" stop-color="#D4DDE2"/>
<stop offset="0.3632" stop-color="#C5D0D6"/>
<stop offset="0.4216" stop-color="#C3CED4"/>
<stop offset="0.4668" stop-color="#BCC6CC"/>
<stop offset="0.5076" stop-color="#AFBAC0"/>
<stop offset="0.5457" stop-color="#9CA7AD"/>
<stop offset="0.582" stop-color="#838D93"/>
<stop offset="0.6165" stop-color="#646C71"/>
<stop offset="0.6474" stop-color="#404549"/>
<stop offset="0.6491" stop-color="#4E5559"/>
<stop offset="0.6547" stop-color="#737C81"/>
<stop offset="0.661" stop-color="#939EA4"/>
<stop offset="0.6677" stop-color="#AEB9BF"/>
<stop offset="0.6752" stop-color="#C3CED4"/>
<stop offset="0.6835" stop-color="#D4DFE5"/>
<stop offset="0.6932" stop-color="#E1EBF1"/>
<stop offset="0.7051" stop-color="#E9F3F9"/>
<stop offset="0.7213" stop-color="#EEF7FD"/>
<stop offset="0.7632" stop-color="#EFF8FE"/>
<stop offset="0.7709" stop-color="#EDF7FC"/>
<stop offset="0.8521" stop-color="#D6E1E7"/>
<stop offset="0.9208" stop-color="#C7D3D9"/>
<stop offset="0.9684" stop-color="#C2CED4"/>
</linearGradient>
<linearGradient id="paint1_linear" x1="30.0005" y1="32.4395" x2="30.0005" y2="7.53071" gradientUnits="userSpaceOnUse">
<stop offset="0.3368" stop-color="white" stop-opacity="0"/>
<stop offset="0.6737" stop-color="#FFFEFF" stop-opacity="0.1879"/>
<stop offset="1" stop-color="#FEF7FA" stop-opacity="0.7"/>
</linearGradient>
</defs>
</svg>
