<svg width="367" height="65" viewBox="0 0 367 65" fill="none" xmlns="http://www.w3.org/2000/svg">
<path d="M13.75 62.97C8.18 62.97 4.71997 59.55 4.71997 54.05V45.49C4.71997 44.42 4.84998 43.43 5.09998 42.52C3.65998 41.93 2.69004 41.05 2.04004 40.23C0.360039 38.3 0 36.41 0 35.16C0 31.88 1.51995 29.28 4.19995 27.94C3.96995 27.8 3.74002 27.65 3.52002 27.49C1.40002 26.07 0.22998 23.94 0.22998 21.47C0.22998 20.01 0.609985 18.47 1.35999 16.91C1.42999 16.76 1.50998 16.61 1.59998 16.47C3.45998 13.53 5.17004 9.89 6.67004 5.64C8.26004 1.11 11.65 0.619995 13.04 0.619995C15.16 0.619995 17.1 1.23 18.66 2.4C19.5 2.92 20.52 3.84 21.14 5.41H28.39C28.96 5.41 30.27 5.41 31.63 5.87C31.63 5.85999 31.6699 5.74 31.6899 5.68999C33.3199 0.909995 36.8599 0.389999 38.3099 0.389999C40.5199 0.389999 42.42 0.979999 43.98 2.14C44.79 2.67 45.8 3.6 46.42 5.17H55.55C58.01 5.17 59.84 5.81 61.15 7.13C62.44 8.42 63.1 10.29 63.1 12.67C63.1 14.88 62.62 16.57 61.63 17.86C61.6 17.9 61.57 17.93 61.55 17.97C60.78 18.91 59.45 19.99 57.29 20.38C57.4 20.92 57.45 21.44 57.45 21.94C57.45 23.64 56.9 25.17 55.89 26.35C56.49 26.61 57.1 26.88 57.72 27.14C60.73 28.1 62.65 30.7 62.87 34.17C62.88 34.26 62.88 34.35 62.88 34.45C62.88 36.86 62.09 38.47 61.27 39.48C60.67 40.43 59.6399 41.58 57.95 42.29C58.24 43.26 58.39 44.33 58.39 45.49V54.05C58.39 59.55 54.95 62.97 49.42 62.97H13.75Z" fill="#006149"/>
<path d="M110.03 63.74C106.39 63.74 102.9 63.46 99.6403 62.91C99.2103 62.84 98.7903 62.7 98.4003 62.5C97.0303 61.8 95.9502 60.79 95.2002 59.58C94.4302 59.87 93.5702 60.06 92.6302 60.13L67.9203 62.48C67.7903 62.49 67.6503 62.5 67.5203 62.5C65.4203 62.5 63.5703 61.78 62.1503 60.42C60.7803 59.19 60.0502 57.41 59.9702 55.15C59.9702 55.1 59.9702 55.05 59.9702 55C59.9702 52.66 60.6303 50.81 61.9203 49.52C61.9603 49.48 62.0103 49.43 62.0503 49.39C62.3103 49.15 62.6003 48.93 62.9003 48.73C61.7303 47.48 61.1403 45.76 61.1403 43.61C61.1403 41.48 61.7802 40.04 62.5702 39.07C61.1502 37.79 60.4302 35.9 60.4302 33.45C60.4302 30.49 61.6302 28.82 62.7402 27.91C63.0602 27.62 63.4103 27.37 63.7803 27.15C63.7303 27 63.6903 26.86 63.6503 26.71C62.9603 26.43 62.3403 26.05 61.7903 25.58C61.7503 25.55 61.7103 25.51 61.6703 25.48C60.2503 24.17 59.5303 22.27 59.5303 19.82C59.5303 17.26 60.3202 15.34 61.8802 14.09C61.9502 14.03 62.0302 13.97 62.1102 13.91C61.7402 13.09 61.2802 12.15 60.7302 11.1C60.6202 10.9 60.5402 10.69 60.4602 10.47C60.2802 9.91999 60.1902 9.32999 60.1902 8.71999C60.1902 7.85999 60.3702 6.96999 60.7302 6.06999C60.7502 6.00999 60.7803 5.95999 60.8003 5.89999C61.2403 4.92999 62.1902 3.57999 64.2102 2.69999C64.2502 2.67999 64.2902 2.66999 64.3302 2.64999C65.2302 2.28999 66.1403 2.10999 67.0303 2.10999C68.1703 2.10999 69.1203 2.31999 69.9103 2.62999C69.9803 2.54999 70.0603 2.45999 70.1403 2.37999C70.2103 2.30999 70.2802 2.22999 70.3602 2.15999C71.6402 0.989988 73.4002 0.399994 75.5902 0.399994C77.2902 0.399994 78.7403 0.769987 79.9003 1.50999C81.0803 0.769987 82.5602 0.399994 84.3202 0.399994C86.5102 0.399994 88.2803 0.989991 89.5503 2.16999C89.5703 2.17999 89.5802 2.19999 89.6002 2.20999C90.4002 1.79999 91.3103 1.57999 92.2903 1.57999C94.2003 1.57999 95.8003 2.07999 97.0403 3.07999C98.1403 3.85999 99.6102 5.46999 99.6102 8.48999C99.6102 9.23999 99.4703 10.02 99.1603 10.95C99.0903 11.15 99.0302 11.34 98.9702 11.53C99.2602 11.51 99.5502 11.5 99.8502 11.5H103.86V8.72999C103.94 4.44999 106.94 1.57999 111.5 1.34999C111.57 1.34999 111.64 1.33999 111.71 1.33999C116.47 1.33999 119.59 4.20999 119.68 8.63999V12.33C120.26 12.61 120.79 12.97 121.26 13.39C122.92 14.73 123.76 16.89 123.76 19.82C123.76 21.32 123.6 23.5 122.24 25.19C121.68 25.9 120.86 26.67 119.69 27.24V53.82C119.69 57.24 118.34 59.42 117.21 60.65C115.43 62.66 112.93 63.74 110.03 63.74Z" fill="#006149"/>
<path d="M151.88 63.97C148.87 63.97 147.01 62.8 145.95 61.75C144.98 60.87 143.92 59.39 143.63 56.98C141.25 58.78 138.37 60.46 135.02 62.01C133.57 62.84 131.83 63.26 129.86 63.26C127.51 63.26 125.41 62.31 123.77 60.52C122.36 59.04 121.6 57.11 121.6 55C121.6 53.01 122.79 51.45 123.69 50.45C123.96 50.14 124.28 49.88 124.63 49.67C124.02 49.3 123.53 48.88 123.16 48.47C121.89 47.24 121.21 45.5 121.13 43.28C121.12 43.13 121.13 42.98 121.14 42.83C121.35 39.94 122.69 38.31 123.81 37.44C124.76 36.68 125.92 36.19 127.27 35.98C127 35.29 126.86 34.54 126.86 33.75C126.86 32.86 126.97 32.07 127.15 31.38C125.32 29.86 124.27 27.49 124.27 24.54V11.55C124.27 6.24 127.68 2.81 132.95 2.81H171.73C177 2.81 180.41 6.24 180.41 11.55V24.54C180.41 27.5 179.35 29.88 177.5 31.4C177.54 31.46 177.57 31.51 177.61 31.57C179.54 34.03 181.38 37.15 183.21 41.11C183.82 42.4 184.15 43.48 184.24 44.49C184.25 44.61 184.26 44.73 184.26 44.85C184.26 48.23 182.49 50.02 181.43 50.78C181.31 50.86 181.2 50.95 181.08 51.02C182.04 52.33 182.55 53.93 182.55 55.65C182.55 57.43 181.9 59.19 180.68 60.72C178.59 63.22 176.22 63.74 174.58 63.74C172.79 63.74 171.29 63.32 170.12 62.48C166.49 60.26 163.2 58.31 160.31 56.65C160.13 58.83 159.36 60.55 158.01 61.76C156.49 63.23 154.44 63.97 151.88 63.97Z" fill="#006149"/>
<path d="M235.46 64.45C234.02 64.45 232.49 64.13 230.89 63.51C229.01 62.75 227.34 61.87 225.88 60.9C224.51 60.15 223.32 59.18 222.31 58.01C222.1 57.76 221.91 57.49 221.76 57.2C221.45 57.73 221.06 58.21 220.61 58.62C219.83 59.34 218.78 60.04 217.3 60.8C215.85 61.63 214.01 62.52 211.68 63.51C210.26 64.13 208.71 64.44 207.11 64.44C205.11 64.44 203.29 63.71 201.82 62.33C200.4 63.58 198.51 64.21 196.19 64.21C193.38 64.21 191.61 63.1 190.62 62.17C190.59 62.14 190.56 62.11 190.52 62.08C189.14 60.7 188.45 58.8 188.45 56.42V51.67C188.2 51.69 187.95 51.7 187.69 51.7C185.38 51.7 183.32 50.71 181.89 48.92C180.61 47.27 179.96 45.29 179.96 43.14C179.96 41.87 180.27 40.54 180.9 39.08C180.99 38.87 181.1 38.67 181.22 38.48C182.48 36.5 183.72 34.27 184.91 31.8C184.28 31.52 183.69 31.16 183.16 30.72C181.52 29.39 180.67 27.3 180.67 24.55C180.67 21.84 181.44 19.77 182.96 18.38C183.17 18.18 183.38 18 183.61 17.83C182.21 16.47 181.39 14.54 181.32 12.17C181.32 12.07 181.32 11.97 181.32 11.87C181.47 7.83 183.73 5.01 187.37 4.31001C187.42 4.30001 187.48 4.29001 187.53 4.28001C192.24 3.57001 195.95 2.84001 198.56 2.11001C199.18 1.91001 199.8 1.75001 200.39 1.64001C200.64 1.59001 200.9 1.57001 201.15 1.57001C203.75 1.57001 205.45 2.41001 206.54 3.39001C207.05 3.29001 207.61 3.23 208.24 3.23H215.75C215.89 3.07 216.04 2.92001 216.2 2.78001C217.59 1.36001 219.62 0.630005 222.24 0.630005C223.29 0.630005 226.48 0.630003 228.52 2.98C228.59 3.06 228.66 3.14 228.73 3.23H237.35C239.27 3.23 240.88 3.76 242.14 4.8C242.24 4.88 242.33 4.97001 242.43 5.06001C243.63 6.26 244.21 7.9 244.21 10.08C244.21 11.9 243.74 13.41 242.8 14.57C242.74 14.65 242.68 14.72 242.61 14.79C242.59 14.81 242.57 14.83 242.55 14.85C242.71 15.5 242.79 16.21 242.79 16.98C242.79 17.43 242.75 17.84 242.69 18.23C242.79 18.3 242.88 18.37 242.97 18.45C244.01 19.27 245.15 20.8 245.15 23.6C245.15 25.41 244.66 26.9 243.68 28.05C243.01 28.87 242.16 29.49 241.19 29.9C241.31 30.52 241.37 31.18 241.37 31.87V47.87C241.37 49.05 241.19 50.14 240.84 51.1C241.11 51.21 241.36 51.35 241.6 51.52C242.57 52.19 244.2 53.78 244.2 56.91C244.2 58.51 243.61 60.02 242.53 61.21C241.63 62.34 240.45 63.21 239.02 63.83C238.94 63.86 238.86 63.9 238.78 63.92C237.77 64.26 236.65 64.45 235.46 64.45Z" fill="#006149"/>
<path d="M278.08 63.5C272.79 63.5 268.34 63.2 264.86 62.61C261.14 61.96 257.69 60.79 254.56 59.12C254.41 59.42 254.27 59.72 254.12 60C254.08 60.08 254.03 60.17 253.98 60.25C253.25 61.46 251.48 63.5 247.74 63.5C245.82 63.5 243.99 62.75 242.29 61.28C241.19 60.31 239.88 58.56 239.88 55.65C239.88 55.31 239.92 54.96 240 54.63C240.19 53.85 240.58 53.18 241 52.58C241.78 50.96 242.54 48.96 243.25 46.62C243.86 44.48 244.42 42.31 244.9 40.25C244.5 40.01 244.16 39.75 243.88 39.5C242.78 38.57 241.53 36.83 241.53 33.75C241.53 30.69 242.76 28.98 243.89 28.04C244.15 27.81 244.43 27.6 244.72 27.41C244.18 26.22 243.88 24.84 243.88 23.3V11.08C243.88 5.76999 247.33 2.34 252.68 2.34H265.84C267.7 2.34 269.32 2.75 270.66 3.52C271.73 2.89 273.04 2.57999 274.64 2.57999H297.54C299.47 2.57999 301.05 3.1 302.23 4.12C303.4 5.02 304.62 6.71 304.62 9.84C304.62 11.15 304.49 13.06 303.32 14.57C302.98 14.99 302.56 15.42 302.03 15.81C302.64 16.99 302.97 18.41 302.97 20V37.94C302.97 39.83 302.52 41.47 301.69 42.78C302.16 43.05 302.56 43.36 302.9 43.71C303.69 44.46 304.63 45.83 304.63 48.09C304.63 49.04 304.44 49.94 304.08 50.76C304.92 51.95 305.42 53.32 305.56 54.85C305.58 55.07 305.58 55.29 305.57 55.5C305.44 57.65 304.82 59.42 303.74 60.75C303.67 60.83 303.6 60.92 303.53 60.99C302.02 62.58 299.87 63.43 297.13 63.5C297.09 63.5 297.06 63.5 297.02 63.5H278.08Z" fill="#006149"/>
<path d="M341.24 64.21C339.46 64.21 338.05 63.77 336.96 63.18C336.23 63.46 335.38 63.66 334.38 63.73C334.29 63.74 334.19 63.74 334.1 63.74C332.93 63.74 331.8 63.58 330.77 63.25C330.63 63.21 330.5 63.16 330.37 63.1C328.06 62.12 325.73 61.15 323.39 60.23C320.65 61.52 317.75 62.55 314.74 63.29C312.68 63.91 310.98 64.21 309.55 64.21C306.62 64.21 304.77 62.91 303.74 61.81C303.65 61.71 303.56 61.61 303.48 61.5C302.35 60.05 301.76 58.37 301.76 56.65C301.76 55.29 302.22 52.73 305.3 50.88C305.36 50.84 305.42 50.81 305.48 50.78C305.36 50.24 305.3 49.68 305.3 49.1C305.3 49.07 305.3 49.04 305.3 49.02C304.58 48.73 303.93 48.32 303.37 47.81C302.04 46.6 301.35 44.8 301.35 42.5C301.35 40.15 302.04 38.34 303.39 37.11C303.64 36.88 303.91 36.68 304.2 36.49C303.89 35.5 303.71 34.34 303.71 32.99V29.98C303.71 28.4 304.21 26.81 305.26 25.57C304.76 24.58 304.46 23.44 304.38 22.17C303.92 21.9 303.55 21.6 303.26 21.32C301.99 20.13 301.35 18.44 301.35 16.29C301.35 14 302.08 12.24 303.53 11.08C303.8 10.86 304.1 10.67 304.41 10.5C304.84 6.05 307.99 3.24 312.68 3.24H316.94C317.2 2.83 317.5 2.44 317.84 2.06C317.93 1.95 318.03 1.84999 318.14 1.75999C319.44 0.569994 321.21 0 323.55 0C325.85 0 327.6 0.579995 328.9 1.75999C329.39 2.18999 329.81 2.69 330.16 3.24H334.35C336.77 3.24 338.77 3.99 340.21 5.32C341.04 2.39 343.37 0.51 346.51 0.25C346.63 0.24 346.74 0.239998 346.86 0.239998C348.74 0.239998 350.47 0.630002 352.01 1.4C352.17 1.48 352.32 1.57 352.47 1.67C354.48 3.01 355.69 4.95 355.88 7.13C355.89 7.25 355.9 7.37999 355.9 7.50999C355.9 7.94999 355.87 8.42 355.82 8.92H358.02C360.78 8.92 362.86 9.72999 364.18 11.33C365.44 12.71 366.05 14.65 366.05 17.25C366.05 19.54 365.57 21.3 364.58 22.66C364.54 22.72 364.49 22.78 364.45 22.83C364.22 23.11 363.97 23.37 363.7 23.61C363.55 25.28 363.34 27.12 363.07 29.11C362.24 35.47 360.83 40.99 358.87 45.53C360.14 47.16 361.69 48.9 363.5 50.71C365.15 52.13 366.06 54.16 366.06 56.45C366.06 57.72 365.7 59.56 364 61.28C362.49 63.04 360.3 64.01 357.79 64.01C355.65 64.01 353.7 63.31 352.15 62C352.1 61.96 352.05 61.91 352 61.87C351.24 61.16 350.49 60.4 349.77 59.61C349.1 60.28 348.41 60.92 347.68 61.55C345.64 63.3 343.48 64.21 341.24 64.21Z" fill="#006149"/>
<path d="M31.05 19.4C31.13 18.89 31.27 18.34 31.46 17.75C33.03 14.8 34.45 11.24 35.71 7.06999C36.26 5.45999 37.1299 4.64999 38.3099 4.64999C39.6499 4.64999 40.7299 4.97999 41.5599 5.64999C42.3499 6.07999 42.74 7.02999 42.74 8.47999C42.74 8.75999 42.7199 9.06999 42.6799 9.41999H55.55C56.81 9.41999 57.67 9.65999 58.15 10.13C58.62 10.6 58.86 11.45 58.86 12.67C58.86 13.89 58.66 14.76 58.27 15.27C57.72 15.94 56.8099 16.27 55.5599 16.27H50.66C52.35 18.75 53.2 20.64 53.2 21.94C53.2 22.92 52.83 23.63 52.08 24.06C51.45 24.65 50.41 24.95 48.95 24.95C47.77 24.95 46.9 24.32 46.35 23.06C45.05 20.58 43.75 18.34 42.45 16.33C42.45 16.29 42.43 16.27 42.39 16.27H40.6799C39.8499 18.51 39.03 20.4 38.2 21.94C42.88 24.93 48.9 28 56.26 31.15C57.72 31.54 58.5 32.65 58.62 34.46C58.62 35.6 58.34 36.45 57.79 37C57.2 38.14 56.06 38.71 54.37 38.71C53.5 38.71 52.3999 38.42 51.0599 37.82C49.8399 37.19 48.54 36.48 47.16 35.7C47.08 36.13 46.98 36.45 46.87 36.64C46.44 37.23 45.69 37.53 44.63 37.53H18.95C18.16 37.53 17.5299 37.31 17.0599 36.88C16.7399 36.64 16.55 36.27 16.47 35.76C15.33 36.39 14.26 36.94 13.28 37.41C11.19 38.43 9.70004 38.94 8.79004 38.94C7.18004 38.94 6.01994 38.47 5.30994 37.52C4.59994 36.73 4.25 35.95 4.25 35.16C4.25 33.39 4.96 32.21 6.37 31.62C11.41 29.34 16.07 26.96 20.36 24.48C19.97 24.21 19.63 23.81 19.36 23.3C18.65 20.98 17.9 18.85 17.12 16.92C17.04 16.8 16.9799 16.66 16.9399 16.51H15.05C13.99 19.23 12.8299 21.49 11.5699 23.3C11.0599 24.4 10.13 24.95 8.80005 24.95C7.74005 24.95 6.78997 24.64 5.96997 24.01C4.98997 23.38 4.48999 22.53 4.48999 21.47C4.48999 20.64 4.72995 19.74 5.19995 18.75C7.24995 15.52 9.07994 11.63 10.6899 7.05999C11.1999 5.59999 11.99 4.87999 13.05 4.87999C14.35 4.87999 15.43 5.22999 16.3 5.93999C17.09 6.32999 17.48 7.25999 17.48 8.70999C17.48 8.98999 17.46 9.29999 17.42 9.64999H28.4C29.7 9.64999 30.56 9.86999 31 10.3C31.47 10.81 31.71 11.68 31.71 12.9C31.71 14.12 31.51 14.99 31.12 15.5C30.61 16.17 29.7 16.5 28.4 16.5H24.27C25.21 18.47 25.78 20.02 25.98 21.16C27.98 20.15 29.67 19.56 31.05 19.4ZM13.75 40.77H49.4C52.55 40.77 54.12 42.34 54.12 45.49V54.05C54.12 57.16 52.55 58.71 49.4 58.71H13.75C10.56 58.71 8.96997 57.15 8.96997 54.05V45.49C8.96997 42.35 10.57 40.77 13.75 40.77ZM44.86 52.4C45.69 52.4 46.1 51.99 46.1 51.16V48.33C46.1 47.58 45.69 47.21 44.86 47.21H18.24C17.41 47.21 17 47.58 17 48.33V51.16C17 51.99 17.41 52.4 18.24 52.4H44.86ZM23.26 31.86H40.61C38.92 30.8 37.17 29.68 35.36 28.5C33.55 27.44 32.33 26.91 31.7 26.91C31.03 26.91 30.42 27.09 29.87 27.44C27.51 29.05 25.3 30.52 23.26 31.86Z" fill="white"/>
<path d="M75.6097 4.64999C76.6697 4.64999 77.4398 4.86999 77.9098 5.29999C78.5798 5.88999 78.9098 6.61999 78.9098 7.47999V16.75H81.0298V7.47999C81.0298 6.72999 81.3198 5.99999 81.9098 5.29999C82.3798 4.86999 83.1897 4.64999 84.3297 4.64999C85.4297 4.64999 86.2197 4.86999 86.6897 5.29999C87.2797 5.88999 87.5797 6.61999 87.5797 7.47999V16.75H92.2998C93.5198 16.75 94.3798 16.97 94.8998 17.4C95.3698 17.79 95.6097 18.6 95.6097 19.82C95.6097 20.84 95.4098 21.59 95.0198 22.06C94.4698 22.73 93.5597 23.06 92.3097 23.06H89.5398C89.6598 23.14 89.7597 23.22 89.8297 23.3C90.5797 23.69 90.9497 24.56 90.9497 25.9C90.9497 26.33 90.7298 26.88 90.2998 27.55C89.8298 28.65 89.3198 29.6 88.7598 30.38H91.4198C92.6398 30.38 93.4998 30.64 94.0198 31.15C94.4898 31.5 94.7297 32.27 94.7297 33.45C94.7297 34.47 94.5097 35.24 94.0797 35.75C93.5297 36.46 92.6398 36.81 91.4198 36.81H83.3898V40.76H91.1797C92.2397 40.76 93.0497 41 93.5997 41.47C94.0297 41.82 94.2498 42.53 94.2498 43.59C94.2498 44.53 94.0498 45.24 93.6598 45.71C93.1098 46.38 92.2797 46.71 91.1797 46.71H83.3898V50.25L92.2998 49.54C93.2398 49.54 94.0097 49.83 94.5997 50.43C95.0697 51.02 95.3298 51.83 95.3698 52.85C95.3698 53.87 95.1097 54.58 94.5997 54.97C94.1297 55.48 93.3598 55.78 92.2998 55.86L67.5098 58.22C66.4898 58.22 65.6598 57.9 65.0298 57.28C64.5198 56.85 64.2397 56.08 64.1997 54.98C64.1997 53.8 64.4398 52.97 64.9098 52.5C65.3798 52.07 66.0898 51.79 67.0298 51.67L75.8297 50.9V46.71H68.5098C67.4498 46.71 66.6598 46.45 66.1498 45.94C65.6398 45.51 65.3798 44.72 65.3798 43.58C65.3798 42.52 65.6398 41.81 66.1498 41.46C66.6198 40.99 67.4098 40.75 68.5098 40.75H75.8297V36.8H68.0398C66.9398 36.8 66.0898 36.53 65.4998 35.97C64.9498 35.54 64.6698 34.69 64.6698 33.43C64.6698 32.29 64.9398 31.52 65.4998 31.13C66.0098 30.62 66.8598 30.36 68.0398 30.36H70.5797C69.7897 28.98 68.9697 27.64 68.0997 26.35C67.8597 26 67.7498 25.68 67.7498 25.41C67.7498 24.43 68.1597 23.68 68.9897 23.17C69.0697 23.13 69.1497 23.09 69.2297 23.05H67.0498C65.9498 23.05 65.1197 22.81 64.5697 22.34C64.0597 21.87 63.7998 21.02 63.7998 19.8C63.7998 18.58 64.0597 17.77 64.5697 17.38C65.0797 16.95 65.9098 16.73 67.0498 16.73H72.2498V7.45999C72.2498 6.70999 72.5798 5.97999 73.2498 5.27999C73.7298 4.85999 74.5097 4.64999 75.6097 4.64999ZM67.0498 6.35999C68.0698 6.35999 68.7997 6.64999 69.2297 7.24999C69.6597 7.75999 70.1698 8.77999 70.7598 10.32C71.1498 11.3 71.3497 12.09 71.3497 12.68C71.3497 13.35 71.1498 13.82 70.7598 14.1C70.2498 14.57 69.5798 14.81 68.7498 14.81C67.9598 14.81 67.4097 14.69 67.0997 14.46C66.8197 14.26 66.6698 14.01 66.6298 13.69C66.1598 12.47 65.4498 10.96 64.5098 9.14999C64.4698 9.02999 64.4497 8.88999 64.4497 8.73999C64.4497 8.42999 64.5297 8.06999 64.6897 7.67999C64.8897 7.24999 65.2997 6.88999 65.9297 6.61999C66.3297 6.43999 66.6998 6.35999 67.0498 6.35999ZM77.2097 30.38H80.9297C81.0097 30.22 81.1097 30.07 81.2197 29.91C82.4397 28.41 83.5398 26.62 84.5298 24.54C84.7698 23.91 85.0397 23.42 85.3597 23.06H73.3798C73.4998 23.14 73.6197 23.22 73.7297 23.3C74.2397 23.97 74.9497 25.11 75.8497 26.72C76.7597 28.57 77.2097 29.79 77.2097 30.38ZM92.3197 5.82999C93.2997 5.82999 94.0298 6.04999 94.4998 6.47999C95.0898 6.82999 95.3898 7.49999 95.3898 8.48999C95.3898 8.76999 95.3098 9.13999 95.1498 9.60999C94.3998 11.85 93.7897 13.29 93.3197 13.92C93.0797 14.67 92.3797 15.04 91.1997 15.04C90.3697 15.04 89.7397 14.82 89.3097 14.39C88.8397 14.08 88.5997 13.43 88.5997 12.44C88.5997 12.32 88.6397 12.11 88.7197 11.79C89.5497 10.29 90.2197 8.71999 90.7297 7.06999C90.9997 6.23999 91.5297 5.82999 92.3197 5.82999ZM98.7498 27.14C100.01 27.14 100.95 27.51 101.58 28.26C102.49 29.56 103.57 32.16 104.83 36.05C105.66 38.61 106.07 40.67 106.07 42.25C106.07 43.12 105.79 43.78 105.24 44.26C104.69 44.93 103.84 45.28 102.7 45.32C101.76 45.32 101.03 45.16 100.52 44.85C100.2 44.65 99.9897 44.34 99.8698 43.91C98.8898 40.57 97.4298 36.32 95.4998 31.16C95.4198 30.77 95.3798 30.37 95.3798 29.98C95.3798 29.63 95.4598 29.23 95.6198 28.8C95.9697 28.21 96.5198 27.76 97.2698 27.44C97.7498 27.24 98.2398 27.14 98.7498 27.14ZM99.8798 15.74H108.14V8.71999C108.18 6.74999 109.38 5.70999 111.74 5.58999C114.18 5.58999 115.42 6.62999 115.46 8.71999V15.74H115.7C117 15.74 117.94 16.04 118.53 16.63C119.2 17.1 119.53 18.16 119.53 19.82C119.53 21.16 119.33 22.06 118.94 22.54C118.27 23.41 117.19 23.84 115.69 23.84H115.45V53.83C115.45 55.48 115 56.8 114.09 57.78C113.07 58.92 111.71 59.49 110.02 59.49C106.6 59.49 103.37 59.23 100.34 58.72C98.9597 58.01 98.2698 56.85 98.2698 55.24C98.2698 52.68 99.2897 51.25 101.34 50.93C101.61 50.93 101.91 50.97 102.22 51.05C103.72 51.29 105.15 51.42 106.53 51.46C107.59 51.46 108.12 50.91 108.12 49.81V23.84H99.8597C98.7197 23.84 97.8297 23.53 97.1997 22.9C96.4897 22.35 96.1398 21.33 96.1398 19.83C96.1398 18.22 96.4897 17.13 97.1997 16.58C97.7297 16.02 98.6098 15.74 99.8798 15.74Z" fill="white"/>
<path d="M132.93 7.07001H171.71C174.66 7.07001 176.14 8.57001 176.14 11.56V24.55C176.14 27.54 174.66 29.04 171.71 29.04H169.35C169.35 29.36 169.17 29.67 168.82 29.98C166.7 32.58 163.33 35.63 158.73 39.13L169.18 38.84C168.79 38.21 168.41 37.62 168.06 37.07C167.67 36.52 167.47 36.03 167.47 35.59C167.47 34.72 167.9 33.96 168.77 33.29C169.6 32.82 170.5 32.58 171.49 32.58C172.71 32.58 173.57 33.05 174.09 34C175.86 36.2 177.61 39.18 179.34 42.91C179.73 43.74 179.95 44.39 179.99 44.86C179.99 46 179.64 46.83 178.93 47.34C178.06 47.97 177.14 48.3 176.16 48.34C174.62 48.34 173.6 47.73 173.09 46.51C172.85 45.92 172.62 45.37 172.38 44.86L156.09 45.45V55.66C156.09 57.12 155.76 58.12 155.09 58.67C154.42 59.38 153.36 59.73 151.9 59.73C150.56 59.73 149.56 59.38 148.89 58.67C148.18 58.08 147.83 57.08 147.83 55.66V45.74L128.76 46.51C127.58 46.47 126.73 46.14 126.22 45.51C125.71 45.08 125.43 44.29 125.39 43.15C125.47 42.05 125.82 41.26 126.45 40.79C126.92 40.4 127.61 40.18 128.52 40.14L145.93 39.55C141.8 38.25 137.47 37.01 132.94 35.83C131.72 35.4 131.11 34.71 131.11 33.76C131.11 32.54 131.42 31.62 132.05 30.99C132.6 30.44 133.39 30.16 134.41 30.16C135.71 30.16 137.18 30.38 138.84 30.81C139.35 30.97 139.86 31.14 140.37 31.34C141.43 30.55 142.46 29.79 143.44 29.04H132.93C129.98 29.04 128.5 27.55 128.5 24.55V11.55C128.5 8.56 129.98 7.07001 132.93 7.07001ZM140.25 46.97C141.04 47.01 141.8 47.3 142.55 47.86C143.45 48.57 143.89 49.3 143.85 50.04C143.85 50.63 143.67 51.18 143.32 51.69C140.84 54.05 137.42 56.23 133.05 58.24C132.22 58.75 131.16 59.01 129.86 59.01C128.72 59.01 127.74 58.56 126.91 57.65C126.2 56.9 125.85 56.02 125.85 54.99C125.85 54.6 126.18 54.03 126.85 53.28C127.95 52.89 128.93 52.47 129.8 52.04C133.18 50.43 135.94 48.93 138.06 47.55C138.66 47.25 139.38 47.05 140.25 46.97ZM136.77 15.51H148.28V12.44H137.89C137.14 12.44 136.77 12.85 136.77 13.68V15.51ZM148.28 23.6V20.47H136.77V22.42C136.77 23.21 137.14 23.6 137.89 23.6H148.28ZM147.8 33.45C150.04 34.2 152.01 34.89 153.7 35.52C156.26 33.24 158.42 31.07 160.19 29.03H152.63C152.63 29.11 152.61 29.19 152.57 29.27C151.33 30.76 149.73 32.16 147.8 33.45ZM156.36 12.44V15.51H167.87V13.68C167.87 12.85 167.5 12.44 166.75 12.44H156.36ZM166.75 23.6C167.5 23.6 167.87 23.21 167.87 22.42V20.47H156.36V23.6H166.75ZM163.39 46.73C164.33 46.73 165.1 46.87 165.69 47.14C171.55 49.62 175.53 51.74 177.61 53.52C178.04 54.11 178.26 54.82 178.26 55.64C178.26 56.47 177.94 57.27 177.32 58.06C176.53 59 175.61 59.48 174.55 59.48C173.61 59.48 172.92 59.3 172.48 58.95C168.23 56.35 164.47 54.13 161.21 52.28C160.82 52.08 160.52 51.89 160.33 51.69C160.05 51.26 159.92 50.71 159.92 50.04C159.92 49.29 160.31 48.51 161.1 47.68C161.87 47.05 162.64 46.73 163.39 46.73Z" fill="white"/>
<path d="M188.42 20.7H192.73V15.39C191.63 15.51 190.53 15.63 189.43 15.74C186.95 15.66 185.67 14.42 185.59 12.02C185.67 9.97 186.53 8.79 188.19 8.48C193.15 7.73 197.02 6.97001 199.82 6.18001C200.29 6.02001 200.74 5.91 201.18 5.83C202.6 5.83 203.56 6.2 204.07 6.95C204.86 7.7 205.25 8.66 205.25 9.84C205.25 11.22 204.76 12.16 203.77 12.67C202.79 13.22 201.55 13.69 200.05 14.09V20.7H202.41C203.59 20.7 204.46 20.98 205.01 21.53C205.13 21.61 205.23 21.71 205.3 21.82C205.3 21.78 205.32 21.76 205.36 21.76C205.75 21.41 206.42 21.23 207.37 21.23H218.17V19.34H209.73C208.9 19.34 208.29 19.16 207.9 18.81C207.55 18.42 207.37 17.81 207.37 16.98C207.37 16.04 207.55 15.41 207.9 15.09C208.25 14.78 208.86 14.62 209.73 14.62H218.17V12.67H208.25C207.42 12.67 206.77 12.47 206.3 12.08C205.87 11.73 205.65 11.06 205.65 10.07C205.65 9.09001 205.87 8.42001 206.3 8.06001C206.73 7.67001 207.38 7.47001 208.25 7.47001H218.29C218.41 6.76001 218.7 6.21001 219.18 5.82001C219.73 5.19001 220.75 4.88 222.25 4.88C223.78 4.88 224.81 5.17 225.32 5.77C225.71 6.2 225.99 6.77 226.15 7.48H237.36C238.27 7.48 238.95 7.68001 239.43 8.07001C239.78 8.42001 239.96 9.09 239.96 10.08C239.96 10.91 239.8 11.52 239.49 11.91C239.02 12.42 238.31 12.68 237.37 12.68H226.21V14.63H236.13C237.04 14.63 237.67 14.79 238.02 15.1C238.37 15.42 238.55 16.04 238.55 16.99C238.55 17.66 238.39 18.19 238.08 18.58C237.69 19.09 237.04 19.35 236.13 19.35H226.21V21.24H238.31C239.25 21.24 239.92 21.42 240.32 21.77C240.71 22.05 240.91 22.66 240.91 23.6C240.91 24.39 240.75 24.96 240.44 25.31C239.97 25.9 239.26 26.2 238.32 26.2H207.39C206.76 26.2 206.25 26.08 205.85 25.85C205.73 26.44 205.57 26.87 205.38 27.15C204.79 27.9 203.8 28.27 202.43 28.27H200.07V31.87C200.46 31.71 200.92 31.63 201.43 31.63C201.94 31.63 202.35 31.71 202.67 31.87C203.22 32.46 203.81 33.43 204.44 34.76C205.94 38.07 206.68 40.49 206.68 42.02C206.68 42.77 206.4 43.3 205.85 43.61C205.42 44.12 204.65 44.38 203.55 44.38C202.72 44.38 202.11 43.97 201.72 43.14C201.13 41.37 200.58 39.7 200.07 38.12V56.42C200.07 57.64 199.75 58.52 199.12 59.08C198.49 59.67 197.53 59.97 196.23 59.97C195.09 59.97 194.2 59.68 193.57 59.08C193.02 58.53 192.74 57.64 192.74 56.42V41.31C191.8 43.87 190.99 45.52 190.32 46.27C189.81 47.06 188.94 47.45 187.72 47.45C186.7 47.45 185.87 47.06 185.24 46.27C184.57 45.4 184.24 44.36 184.24 43.14C184.24 42.47 184.44 41.68 184.83 40.78C187.07 37.28 189.18 33.11 191.15 28.27H188.44C187.42 28.27 186.57 28 185.9 27.44C185.27 26.93 184.96 25.96 184.96 24.55C184.96 23.05 185.27 22.03 185.9 21.48C186.39 20.96 187.24 20.7 188.42 20.7ZM210.85 28.02H233.34C235.86 28.02 237.12 29.3 237.12 31.86V47.86C237.12 50.42 235.86 51.7 233.34 51.7H230.21C231.23 52.13 232.41 52.6 233.75 53.12C235.48 53.83 237.29 54.46 239.18 55.01C239.69 55.36 239.95 55.99 239.95 56.9C239.95 57.49 239.73 58 239.3 58.43C238.83 59.06 238.18 59.55 237.35 59.91C236.8 60.11 236.17 60.21 235.46 60.21C234.55 60.21 233.55 59.99 232.45 59.56C230.8 58.89 229.34 58.12 228.08 57.26C227.1 56.75 226.25 56.08 225.54 55.25C225.38 54.78 225.3 54.21 225.3 53.54C225.3 53.26 225.34 52.95 225.42 52.6C225.58 52.36 225.81 52.07 226.13 51.71H217.45C217.49 51.79 217.55 51.87 217.63 51.95C218.14 52.5 218.4 53.13 218.4 53.84C218.4 54.55 218.18 55.1 217.75 55.49C217.24 55.96 216.41 56.49 215.27 57.08C213.97 57.83 212.22 58.67 210.02 59.62C209.11 60.01 208.15 60.21 207.13 60.21C206.11 60.21 205.22 59.8 204.47 58.97C204 58.38 203.76 57.61 203.76 56.67C203.8 56 204.29 55.45 205.24 55.02C208.78 53.68 211.4 52.58 213.09 51.71H210.85C208.37 51.71 207.13 50.43 207.13 47.87V31.87C207.13 29.3 208.37 28.02 210.85 28.02ZM229.56 34.69V32.98C229.56 32.71 229.38 32.57 229.03 32.57H215.16C214.84 32.57 214.69 32.71 214.69 32.98V34.69H229.56ZM214.68 38.71V40.78H229.56V38.71H214.68ZM229.56 44.85H214.68V46.74C214.68 47.06 214.84 47.21 215.15 47.21H229.02C229.37 47.21 229.55 47.05 229.55 46.74V44.85H229.56Z" fill="white"/>
<path d="M248.86 30.62H268.69C269.75 30.62 270.52 30.86 270.99 31.33C271.5 31.68 271.76 32.49 271.76 33.75C271.76 34.81 271.6 35.56 271.29 35.99C270.78 36.7 269.91 37.05 268.69 37.05H264.5V40.77H268.93C269.95 40.77 270.64 41.01 271 41.48C271.35 41.87 271.53 42.58 271.53 43.6C271.53 44.58 271.39 45.27 271.12 45.67C270.69 46.22 269.96 46.5 268.94 46.5H264.51V51.69C267.54 52.32 272.14 52.63 278.32 52.63C281.39 52.63 285.42 52.55 290.42 52.39C294.35 52.23 296.89 52.15 298.03 52.15C299.05 52.15 299.86 52.42 300.45 52.98C300.96 53.61 301.26 54.36 301.34 55.22C301.26 56.48 300.97 57.42 300.45 58.05C299.74 58.8 298.6 59.19 297.03 59.23H278.08C273 59.23 268.83 58.95 265.57 58.4C261.99 57.77 258.72 56.61 255.77 54.92C254.71 54.29 253.66 53.54 252.64 52.68C251.85 54.8 251.09 56.59 250.34 58.05C249.87 58.84 249 59.23 247.74 59.23C246.87 59.23 245.99 58.84 245.08 58.05C244.45 57.5 244.13 56.69 244.13 55.63C244.17 55.47 244.35 55.18 244.66 54.74C245.61 52.85 246.49 50.55 247.32 47.83C247.99 45.47 248.58 43.19 249.09 40.98C249.36 40 250.07 39.47 251.21 39.39C252.23 39.39 253.14 39.61 253.92 40.04C254.75 40.51 255.2 41.16 255.28 41.99C255.28 42.9 255.08 44.15 254.69 45.77C254.69 45.81 254.67 45.85 254.63 45.89C255.46 46.72 256.3 47.44 257.17 48.07V37.03H248.85C247.94 37.03 247.22 36.77 246.67 36.26C246.08 35.79 245.78 34.94 245.78 33.72C245.78 32.5 246.07 31.67 246.67 31.24C247.11 30.84 247.84 30.62 248.86 30.62ZM252.7 6.60001H265.86C268.89 6.60001 270.41 8.1 270.41 11.09V23.31C270.41 26.3 268.9 27.8 265.86 27.8H252.7C249.67 27.8 248.15 26.3 248.15 23.31V11.08C248.15 8.09 249.67 6.60001 252.7 6.60001ZM255.06 15.04H263.5V12.44C263.5 12.01 263.28 11.79 262.85 11.79H255.71C255.28 11.79 255.06 12.01 255.06 12.44V15.04ZM262.85 22.59C263.28 22.59 263.5 22.37 263.5 21.94V19.34H255.06V21.94C255.06 22.37 255.28 22.59 255.71 22.59H262.85ZM274.66 6.83H297.56C298.5 6.83 299.17 7.03001 299.57 7.42001C300.12 7.77001 300.4 8.58 300.4 9.84C300.4 10.9 300.26 11.61 299.99 11.96C299.48 12.59 298.67 12.9 297.57 12.9H289.78L288.72 16.03H294.74C297.42 16.03 298.75 17.35 298.75 19.98V37.92C298.75 40.64 297.41 41.99 294.74 41.99H293.21C293.29 42.03 293.37 42.09 293.45 42.17C295.06 43.55 296.97 44.91 299.18 46.24C299.57 46.4 299.83 46.56 299.95 46.71C300.27 46.95 300.42 47.4 300.42 48.07C300.42 48.82 300.13 49.43 299.53 49.9C298.78 50.57 297.88 50.9 296.82 50.9C296.27 50.9 295.82 50.82 295.46 50.66C292.86 49.56 290.48 47.49 288.32 44.46C288.04 44.11 287.91 43.65 287.91 43.1C287.91 42.67 288.09 42.29 288.44 41.98H283.13C283.48 42.1 283.82 42.24 284.13 42.39C284.76 42.82 285.07 43.39 285.07 44.1C285.07 44.65 284.99 45.1 284.83 45.46C283.92 46.88 281.74 48.53 278.28 50.42C277.34 50.89 276.45 51.13 275.62 51.13C274.44 51.13 273.5 50.72 272.79 49.89C272.32 49.38 272.08 48.55 272.08 47.41C272.08 47.14 272.39 46.74 273.02 46.23C275.14 45.13 277.23 43.83 279.28 42.33C279.59 42.17 279.89 42.06 280.17 41.98H276.98C274.34 41.98 273.02 40.62 273.02 37.91V19.99C273.02 17.35 274.34 16.04 276.98 16.04H282.17L283.17 12.91H274.67C273.8 12.91 273.12 12.69 272.6 12.26C272.05 11.83 271.77 11.02 271.77 9.84C271.77 8.62 272.05 7.79001 272.6 7.36001C272.98 7.01001 273.67 6.83 274.66 6.83ZM280.09 23.3H291.6V20.94C291.6 20.63 291.46 20.47 291.19 20.47H280.57C280.25 20.47 280.1 20.63 280.1 20.94V23.3H280.09ZM280.09 30.38H291.6V27.55H280.09V30.38ZM291.18 37.53C291.45 37.53 291.59 37.37 291.59 37.06V34.7H280.08V37.06C280.08 37.38 280.24 37.53 280.55 37.53H291.18Z" fill="white"/>
<path d="M312.67 7.48H319.99V7.24C319.99 6.41 320.32 5.63 320.99 4.88C321.46 4.45 322.31 4.23 323.53 4.23C324.71 4.23 325.54 4.45 326.01 4.88C326.68 5.47 327.01 6.26 327.01 7.24V7.48H334.33C337.05 7.48 338.4 8.84 338.4 11.55V13.91H339.52C340.5 13.91 341.19 14.09 341.59 14.44C341.75 14.56 341.87 14.73 341.94 14.97C342.84 12.02 343.61 9.22 344.24 6.59C344.55 5.29 345.42 4.58 346.84 4.47C348.06 4.47 349.14 4.71 350.09 5.18C351.03 5.81 351.54 6.58 351.63 7.48C351.63 8.66 351.35 10.27 350.8 12.32C350.72 12.6 350.64 12.87 350.56 13.15H358C359.5 13.15 360.48 13.47 360.95 14.09C361.5 14.64 361.78 15.68 361.78 17.22C361.78 18.56 361.56 19.52 361.13 20.11C360.78 20.54 360.26 20.86 359.6 21.05C359.48 23.17 359.22 25.65 358.83 28.49C357.92 35.42 356.35 41.12 354.11 45.61C354.03 45.77 353.97 45.89 353.93 45.96C355.58 48.4 357.81 51.02 360.6 53.81C361.39 54.44 361.78 55.31 361.78 56.41C361.78 57.12 361.46 57.77 360.84 58.36C360.13 59.26 359.11 59.72 357.77 59.72C356.63 59.72 355.66 59.38 354.88 58.72C353.07 57.03 351.4 55.1 349.86 52.93C348.44 54.86 346.77 56.65 344.84 58.3C343.62 59.4 342.42 59.95 341.24 59.95C339.86 59.95 338.78 59.52 337.99 58.65C337.67 58.3 337.4 57.94 337.16 57.59C337 57.86 336.81 58.1 336.57 58.3C336.1 59.01 335.27 59.4 334.09 59.48C333.34 59.48 332.65 59.38 332.02 59.19C329.07 57.93 326.12 56.73 323.17 55.59C320.18 57.16 316.99 58.36 313.61 59.19C311.92 59.7 310.56 59.96 309.54 59.96C308.4 59.96 307.49 59.61 306.82 58.9C306.27 58.19 305.99 57.44 305.99 56.66C305.99 55.83 306.48 55.13 307.47 54.54C310.19 53.95 312.68 53.32 314.97 52.65C314.03 52.33 313.08 52.02 312.14 51.71C311.12 51.55 310.39 51.22 309.96 50.71C309.68 50.28 309.55 49.75 309.55 49.12C309.55 48.57 309.69 48.04 309.96 47.53C310.43 46.82 310.88 46.09 311.32 45.35H308.43C307.45 45.35 306.72 45.13 306.25 44.7C305.82 44.31 305.6 43.58 305.6 42.52C305.6 41.42 305.82 40.67 306.25 40.28C306.68 39.89 307.41 39.69 308.43 39.69H314.51C314.86 39.06 315.2 38.41 315.51 37.74C315.63 37.5 315.75 37.29 315.86 37.09H310.55C308.82 37.09 307.95 35.73 307.95 33.02V30.01C307.95 28.28 309.03 27.41 311.2 27.41H320V25.46H312.68C309.97 25.46 308.61 24.14 308.61 21.51V18.91H308.2C307.29 18.91 306.62 18.69 306.19 18.26C305.8 17.91 305.6 17.26 305.6 16.31C305.6 15.37 305.8 14.74 306.19 14.42C306.58 14.11 307.25 13.95 308.2 13.95H308.61V11.59C308.6 8.84 309.95 7.48 312.67 7.48ZM319.99 33.22V31.15H315.03C314.68 31.15 314.5 31.31 314.5 31.62C314.5 32.68 314.68 33.21 315.03 33.21H319.99V33.22ZM315.74 13.92H319.99V11.56H316.15C315.87 11.56 315.74 11.72 315.74 12.03V13.92ZM319.99 21.47V18.87H315.74V20.94C315.74 21.29 315.88 21.47 316.15 21.47H319.99ZM327.78 45.32H318.45C318.41 45.4 318.35 45.48 318.27 45.56C317.84 46.35 317.62 46.98 317.62 47.45C317.62 47.69 318.05 47.92 318.92 48.16C320.41 48.55 321.81 48.91 323.11 49.22C325.2 47.95 326.76 46.66 327.78 45.32ZM337.22 54.41C337.53 54.02 337.93 53.64 338.4 53.29C341.39 51.05 343.85 48.53 345.78 45.73C345.74 45.57 345.68 45.44 345.6 45.32C343.87 41.82 342.35 37.69 341.06 32.92C340.98 32.21 340.88 31.44 340.77 30.62C340.77 30.07 340.91 29.58 341.18 29.14C340.47 28.98 339.72 28.57 338.94 27.9C338.27 27.31 337.94 26.4 337.94 25.18C337.94 25.02 338.1 24.73 338.41 24.29C339.24 22.64 340.04 20.75 340.83 18.62C340.48 18.78 340.04 18.86 339.53 18.86H338.41V21.46C338.41 24.1 337.05 25.41 334.34 25.41H327.02V27.36H335.11C337.31 27.36 338.42 28.23 338.42 29.96V32.73C338.42 35.6 337.48 37.04 335.59 37.04H322.31C322.51 37.36 322.6 37.73 322.6 38.16C322.6 38.4 322.38 38.89 321.95 39.64H337.95C338.97 39.64 339.72 39.84 340.19 40.23C340.58 40.58 340.78 41.33 340.78 42.47C340.78 43.34 340.6 43.99 340.25 44.42C339.74 45.01 338.97 45.31 337.95 45.31H334.47C333.49 47.28 331.95 49.19 329.87 51.04C331.91 51.71 333.67 52.32 335.12 52.87C336.12 53.15 336.83 53.66 337.22 54.41ZM327.01 11.55V13.91H331.32V12.02C331.32 11.71 331.16 11.55 330.85 11.55H327.01ZM330.85 21.47C331.16 21.47 331.32 21.29 331.32 20.94V18.87H327.01V21.47H330.85ZM331.32 33.22C331.59 33.22 331.73 32.69 331.73 31.63C331.73 31.32 331.59 31.16 331.32 31.16H327.01V33.23H331.32V33.22ZM344.84 27.67C345.86 27.87 346.47 28.48 346.67 29.5C347.69 32.69 348.7 35.48 349.68 37.88C351.22 33.39 352.22 27.85 352.69 21.23H347.91C346.89 23.75 345.86 25.9 344.84 27.67Z" fill="white"/>
</svg>
