<svg width="354" height="76" viewBox="0 0 354 76" fill="none" xmlns="http://www.w3.org/2000/svg">
<path d="M53.84 73.2198C52.32 73.2198 50.94 72.7198 49.76 71.7298C48.55 70.7598 47.7 69.4798 47.27 67.9298C47.15 67.5298 47.02 67.1198 46.89 66.7298C46.85 66.5998 46.82 66.4798 46.79 66.3598C46.59 66.7598 46.35 67.1498 46.06 67.5298L46 67.6098L45.94 67.6798C44.89 68.7998 43.56 69.4698 42 69.6598C37.51 70.1598 30.65 70.9198 21.39 71.9198L21.28 71.9298H20.69C19.29 71.9298 18.01 71.4898 16.88 70.6298C15.87 69.8698 15.14 68.8798 14.74 67.7198C14.64 68.0098 14.54 68.2898 14.43 68.5698C13.81 70.1898 12.55 71.2398 10.86 71.5498C10.53 71.6198 10.17 71.6498 9.81999 71.6498C8.62999 71.6498 7.52999 71.2498 6.62999 70.4998C6.23999 70.1898 5.81999 69.8698 5.39999 69.5798C4.10999 68.6098 3.22999 67.3898 2.72999 65.9098C2.48999 65.2398 2.34999 64.4798 2.34999 63.7098C2.34999 62.9498 2.47999 62.1798 2.72999 61.4398C4.97999 54.7898 6.10999 44.6098 6.10999 31.1798V13.9998C6.10999 12.3798 6.72999 10.9198 7.88999 9.74979C9.04999 8.57979 10.53 7.96979 12.14 7.96979H31.93C32.11 6.67979 32.69 5.51978 33.66 4.55978C34.83 3.38978 36.3 2.77979 37.91 2.77979H40.51C42.12 2.77979 43.59 3.39978 44.76 4.55978C45.72 5.51978 46.31 6.68979 46.49 7.96979H65.12C66.79 7.96979 68.28 8.58979 69.42 9.76979C70.55 10.9398 71.15 12.3998 71.15 13.9998V14.3398C71.15 15.9998 70.55 17.4798 69.4 18.6298C68.6 19.4298 67.63 19.9698 66.54 20.2198C67.23 21.2098 67.59 22.3698 67.59 23.6398V26.9198C68.43 27.1698 69.19 27.6098 69.85 28.2498C70.92 29.2898 71.49 30.6498 71.49 32.1798V33.6198C71.49 35.0998 70.93 36.4398 69.88 37.4998C69.22 38.1598 68.45 38.6298 67.59 38.8798V61.3098C67.59 63.9198 67.28 65.9298 66.65 67.4698C65.94 69.1998 64.66 70.5398 62.86 71.4398C60.82 72.4898 57.95 73.0698 54.11 73.2198H54.07H53.84ZM42.29 57.9498C43.5 58.0198 44.63 58.4898 45.58 59.3198C46.57 60.2498 47.16 61.3698 47.36 62.6198C47.38 62.5798 47.48 62.4298 47.48 62.4298L47.53 62.3698C48.46 61.1298 49.77 60.4798 51.32 60.4798H54.31V56.9098L52.92 57.3398C52.35 57.5498 51.77 57.6498 51.19 57.6498C50.2 57.6498 49.25 57.3498 48.37 56.7698C47.07 55.9898 46.16 54.7198 45.82 53.1398C45.48 51.7698 45.07 50.2998 44.59 48.7498C44.42 50.0398 43.83 51.2198 42.86 52.1798C42.56 52.4798 42.24 52.7398 41.9 52.9698C41.95 53.0498 41.99 53.1198 42.04 53.1998C42.54 54.0098 42.8 54.8798 42.8 55.7898C42.8 56.4798 42.65 57.1598 42.36 57.8298C42.32 57.8498 42.31 57.8998 42.29 57.9498ZM18.32 51.2098C17.89 54.7498 17.33 58.0198 16.64 61.0098C17.45 60.3898 18.45 60.0198 19.56 59.9198C19.62 59.9198 19.69 59.9098 19.75 59.9098C19.44 59.4198 19.21 58.8698 19.05 58.2798C18.85 57.7198 18.75 57.1498 18.75 56.5798C18.75 55.6298 19 54.7198 19.5 53.8598C19.68 53.5398 19.88 53.2398 20.11 52.9698C19.75 52.7398 19.41 52.4598 19.1 52.1398C18.81 51.8598 18.55 51.5398 18.32 51.2098ZM30.6 59.0098C30.65 59.0098 30.69 58.9998 30.74 58.9998C30.72 58.9298 30.7 58.8598 30.68 58.7898C30.65 58.8598 30.63 58.9398 30.6 59.0098ZM29.97 53.9398C30.25 54.3598 30.47 54.8198 30.65 55.3198C30.7 55.4398 30.74 55.5698 30.77 55.6998C30.93 55.0898 31.07 54.5098 31.21 53.9498H29.97V53.9398ZM42.85 38.9398C43.53 39.6198 44.02 40.3898 44.31 41.2398C45.06 40.0498 46.13 39.2298 47.44 38.8398C46.51 38.5498 45.67 38.0298 44.96 37.2998C44.82 37.1598 44.69 37.0098 44.57 36.8598C44.36 37.2098 44.1 37.5398 43.81 37.8498C43.46 38.2098 43.08 38.5098 42.67 38.7498C42.72 38.8098 42.79 38.8698 42.85 38.9398ZM52.08 39.1198C52.99 39.5798 53.73 40.1698 54.3 40.8998V39.1098H52.05C52.07 39.1098 52.08 39.1098 52.08 39.1198ZM19.27 38.7798C19.37 38.6798 19.48 38.5898 19.59 38.4998C19.49 38.4298 19.39 38.3498 19.29 38.2698C19.28 38.4298 19.28 38.6098 19.27 38.7798ZM43.71 30.3198C43.71 30.3098 43.72 30.2898 43.73 30.2798C43.72 30.2898 43.71 30.2898 43.69 30.2998C43.69 30.3098 43.7 30.3198 43.71 30.3198ZM40.99 20.4098C42.41 20.4098 43.71 20.9298 44.74 21.9298C45.79 22.9398 46.34 24.2498 46.34 25.6898C46.34 26.3698 46.22 27.0298 45.97 27.6398C46.93 27.0198 48.05 26.6998 49.26 26.6998H54.3V23.6398C54.3 22.4398 54.62 21.3298 55.22 20.3798H37.55C37.55 20.3898 37.56 20.3998 37.56 20.4098H40.99ZM19.41 20.9198C20.11 20.5798 20.89 20.3998 21.72 20.3998H25.01C25.01 20.3898 25.02 20.3798 25.02 20.3698H19.41V20.9198Z" fill="white"/>
<path d="M40.51 4.76978C41.6 4.76978 42.55 5.16977 43.35 5.96977C44.15 6.76977 44.55 7.70977 44.55 8.80977V9.48978C44.55 9.80978 44.71 9.96977 45.03 9.96977H65.13C66.27 9.96977 67.23 10.3698 68 11.1698C68.77 11.9698 69.16 12.9098 69.16 14.0098V14.3498C69.16 15.4898 68.77 16.4498 68 17.2198C67.22 17.9998 66.27 18.3798 65.13 18.3798H17.96C17.59 18.3798 17.41 18.5598 17.41 18.9298V31.1698C17.41 46.9398 15.79 59.1698 12.56 67.8798C12.19 68.8398 11.51 69.4098 10.51 69.5898C10.28 69.6298 10.05 69.6598 9.83 69.6598C9.1 69.6598 8.46 69.4298 7.92 68.9798C7.46 68.6098 7.01 68.2698 6.55 67.9498C5.64 67.2698 5 66.3798 4.64 65.2798C4.46 64.7798 4.37 64.2498 4.37 63.7098C4.37 63.1698 4.46 62.6198 4.64 62.0698C6.96 55.1898 8.13 44.8898 8.13 31.1698V13.9998C8.13 12.9098 8.53 11.9598 9.33 11.1598C10.13 10.3598 11.07 9.95978 12.17 9.95978H33.36C33.72 9.95978 33.91 9.79977 33.91 9.47977V8.79977C33.91 7.70977 34.31 6.75978 35.11 5.95978C35.91 5.15978 36.85 4.75977 37.95 4.75977H40.51V4.76978ZM32.72 18.9198C33.59 18.9198 34.31 19.2198 34.91 19.8098C35.5 20.3998 35.8 21.1298 35.8 21.9998C35.8 22.2698 35.91 22.4098 36.14 22.4098H40.99C41.9 22.4098 42.69 22.7298 43.35 23.3698C44.01 24.0098 44.34 24.7798 44.34 25.6898C44.34 26.5998 44.01 27.3898 43.35 28.0498C42.69 28.7098 41.9 29.0398 40.99 29.0398H36.27C35.95 29.0398 35.79 29.1998 35.79 29.5198V30.3398C35.79 30.6598 35.95 30.8198 36.27 30.8198H40.03C40.94 30.8198 41.72 31.1498 42.35 31.8098C42.99 32.4698 43.31 33.2498 43.31 34.1298C43.31 35.0098 42.99 35.7898 42.35 36.4498C41.71 37.1098 40.94 37.4398 40.03 37.4398H22.6C21.69 37.4398 20.91 37.1098 20.28 36.4498C19.64 35.7898 19.32 35.0098 19.32 34.1298C19.32 33.2498 19.64 32.4698 20.28 31.8098C20.92 31.1498 21.69 30.8198 22.6 30.8198H26.22C26.58 30.8198 26.77 30.6598 26.77 30.3398V29.5198C26.77 29.1998 26.59 29.0398 26.22 29.0398H21.71C20.8 29.0398 20.02 28.7098 19.39 28.0498C18.75 27.3898 18.43 26.5998 18.43 25.6898C18.43 24.7798 18.75 23.9998 19.39 23.3698C20.03 22.7298 20.8 22.4098 21.71 22.4098H26.36C26.63 22.4098 26.77 22.2698 26.77 21.9998C26.77 21.1298 27.07 20.4098 27.66 19.8098C28.25 19.2198 28.96 18.9198 29.78 18.9198H32.72ZM61.57 19.5998C62.66 19.5998 63.61 19.9898 64.41 20.7598C65.21 21.5398 65.61 22.4898 65.61 23.6298V28.2098C65.61 28.5298 65.75 28.6898 66.02 28.6898C66.98 28.6898 67.8 29.0198 68.48 29.6798C69.16 30.3398 69.51 31.1698 69.51 32.1798V33.6198C69.51 34.5798 69.17 35.3998 68.48 36.0798C67.79 36.7598 66.98 37.1098 66.02 37.1098C65.75 37.1098 65.61 37.2498 65.61 37.5198V61.3098C65.61 63.6298 65.35 65.4298 64.82 66.7098C64.3 67.9898 63.35 68.9698 61.98 69.6498C60.2 70.5598 57.56 71.0898 54.05 71.2198C54 71.2198 53.94 71.2198 53.84 71.2198C52.79 71.2198 51.86 70.8798 51.04 70.1898C50.13 69.4598 49.51 68.5298 49.19 67.3898C49.05 66.9298 48.92 66.4998 48.78 66.0898C48.69 65.7698 48.64 65.4498 48.64 65.1298C48.64 64.5798 48.8 64.0598 49.12 63.5598C49.67 62.8298 50.4 62.4698 51.31 62.4698H51.38C52.43 62.4698 53.59 62.4698 54.87 62.4698C55.42 62.4698 55.79 62.3798 56 62.1998C56.21 62.0198 56.31 61.6998 56.31 61.2398V54.6798C56.31 54.5398 56.25 54.4398 56.14 54.3698C56.07 54.3298 56.01 54.3098 55.95 54.3098C55.91 54.3098 55.87 54.3198 55.84 54.3398L52.29 55.4298C51.92 55.5698 51.56 55.6398 51.2 55.6398C50.61 55.6398 50.04 55.4598 49.49 55.0898C48.58 54.5398 48.01 53.7498 47.78 52.6998C47.23 50.4698 46.53 48.0798 45.66 45.5198C45.52 45.1098 45.45 44.6998 45.45 44.2898C45.45 43.6998 45.59 43.1298 45.86 42.5798C46.36 41.6198 47.11 41.0098 48.12 40.7298C48.53 40.5898 48.96 40.5198 49.42 40.5198C50.06 40.5198 50.67 40.6598 51.27 40.9298C52.27 41.4298 52.98 42.2098 53.39 43.2498C54.62 46.4398 55.55 49.3998 56.19 52.1398C56.28 52.1398 56.33 52.1198 56.33 52.0698V37.5798C56.33 37.2598 56.15 37.0998 55.78 37.0998H49.29C48.15 37.0998 47.19 36.6998 46.42 35.8998C45.64 35.0998 45.26 34.1598 45.26 33.0598V32.7198C45.26 31.5798 45.65 30.6198 46.42 29.8498C47.19 29.0798 48.15 28.6898 49.29 28.6898H55.78C56.14 28.6898 56.33 28.5098 56.33 28.1398V23.6298C56.33 22.4898 56.72 21.5298 57.49 20.7598C58.26 19.9898 59.22 19.5998 60.36 19.5998H61.57ZM38.6 39.1598C39.69 39.1598 40.64 39.5598 41.44 40.3598C42.24 41.1598 42.64 42.0998 42.64 43.1998V47.9198C42.64 49.0098 42.24 49.9598 41.44 50.7598C40.64 51.5598 39.7 51.9598 38.6 51.9598H34.98C34.93 51.9598 34.91 51.9698 34.91 51.9898C34.91 52.0098 34.93 52.0198 34.98 52.0198L38.06 52.5698C39.06 52.7498 39.81 53.2998 40.32 54.2098C40.64 54.7098 40.8 55.2398 40.8 55.7798C40.8 56.1898 40.71 56.5998 40.53 57.0098C40.03 58.2898 39.69 59.1798 39.5 59.6798C39.45 59.8198 39.47 59.9298 39.53 60.0198C39.6 60.1098 39.68 60.1598 39.77 60.1598L41.55 59.9498C41.69 59.9498 41.82 59.9498 41.96 59.9498C42.83 59.9498 43.6 60.2498 44.28 60.8398C45.05 61.5698 45.44 62.4798 45.44 63.5698C45.44 64.5698 45.12 65.4798 44.48 66.2998C43.75 67.0698 42.84 67.5298 41.75 67.6698C37.28 68.1698 30.42 68.9198 21.17 69.9298C20.99 69.9298 20.83 69.9298 20.69 69.9298C19.73 69.9298 18.87 69.6298 18.09 69.0398C17.18 68.3598 16.63 67.4698 16.45 66.3698L16.38 66.2298C16.33 65.9998 16.31 65.7698 16.31 65.5498C16.31 64.7698 16.58 64.0498 17.13 63.3598C17.77 62.4898 18.63 62.0198 19.73 61.9198C25.61 61.4598 30.67 61.0298 34.91 60.6198C34.95 60.6198 34.98 60.6098 34.98 60.5898C34.98 60.5698 34.96 60.5298 34.91 60.4898C34.04 60.3098 33.38 59.8498 32.93 59.1198C32.66 58.5698 32.52 58.0298 32.52 57.4798C32.52 57.2098 32.54 56.9298 32.59 56.6598C33 55.1098 33.34 53.6998 33.62 52.4198C33.66 52.0998 33.51 51.9398 33.14 51.9398H23.36C22.27 51.9398 21.32 51.5398 20.52 50.7398C19.72 49.9398 19.32 48.9998 19.32 47.8998V43.1798C19.32 42.0898 19.72 41.1398 20.52 40.3398C21.32 39.5398 22.26 39.1398 23.36 39.1398H38.6V39.1598ZM27.87 46.6098H33.68C34 46.6098 34.16 46.4298 34.16 46.0598V44.9698C34.16 44.6098 34 44.4198 33.68 44.4198H27.87C27.55 44.4198 27.39 44.5998 27.39 44.9698V46.0598C27.39 46.4198 27.55 46.6098 27.87 46.6098ZM24.59 53.0998C25.32 53.0998 26.03 53.2798 26.71 53.6498C27.71 54.1498 28.4 54.9298 28.76 55.9698C28.9 56.3398 28.97 56.6998 28.97 57.0598C28.97 57.6498 28.81 58.2498 28.49 58.8398C27.94 59.7498 27.12 60.3198 26.03 60.5498L25.55 60.6198C25.28 60.7098 25 60.7598 24.73 60.7598C24.05 60.7598 23.39 60.5498 22.75 60.1398C21.84 59.5498 21.25 58.7298 20.97 57.6798C20.83 57.3198 20.76 56.9498 20.76 56.5898C20.76 55.9998 20.92 55.4298 21.24 54.8798C21.74 53.9698 22.49 53.4198 23.5 53.2398V53.1698C23.86 53.1198 24.22 53.0998 24.59 53.0998ZM40.51 0.769775H37.91C35.75 0.769775 33.79 1.58977 32.24 3.13977C31.41 3.96977 30.78 4.92977 30.39 5.96977H12.14C9.98 5.96977 8.02 6.78977 6.47 8.33977C4.92 9.88977 4.1 11.8498 4.1 14.0098V31.1698C4.1 44.3898 3 54.3498 0.819996 60.7898C0.499996 61.7598 0.339996 62.7298 0.339996 63.7098C0.339996 64.6998 0.509996 65.6698 0.839996 66.5998C1.47 68.4498 2.58 69.9898 4.13 71.1498L4.18 71.1898L4.23 71.2298C4.61 71.4898 4.99 71.7798 5.37 72.0798C6.63 73.1098 8.16 73.6598 9.81 73.6598C10.28 73.6598 10.76 73.6098 11.24 73.5198C12.68 73.2498 13.93 72.5698 14.88 71.5598C15.13 71.7998 15.4 72.0298 15.68 72.2398C17.11 73.3398 18.85 73.9298 20.68 73.9298H21.16H21.38L21.59 73.9098C30.8 72.9098 37.72 72.1498 42.18 71.6498H42.21H42.24C43.63 71.4798 44.91 70.9898 46.02 70.2298C46.62 71.4198 47.45 72.4498 48.52 73.2998C50.05 74.5598 51.89 75.2298 53.85 75.2298H54.06H54.14H54.22C58.36 75.0698 61.5 74.4098 63.82 73.2198C66 72.1298 67.64 70.3998 68.53 68.2398C69.26 66.4598 69.62 64.1898 69.62 61.3198V40.2098C70.23 39.8698 70.8 39.4398 71.32 38.9198C72.76 37.4798 73.52 35.6498 73.52 33.6298V32.1898C73.52 30.0998 72.74 28.2398 71.28 26.8198C70.77 26.3298 70.22 25.9198 69.63 25.5998V23.6398C69.63 22.8098 69.51 22.0198 69.29 21.2698C69.85 20.9398 70.37 20.5298 70.85 20.0498C72.38 18.5198 73.18 16.5498 73.18 14.3498V13.9998C73.18 11.8698 72.39 9.91978 70.89 8.37978C69.35 6.79978 67.37 5.96977 65.15 5.96977H48.03C47.63 4.92977 47.01 3.97977 46.18 3.13977C44.63 1.58977 42.67 0.769775 40.51 0.769775ZM47.55 22.3698H52.4C52.34 22.7798 52.31 23.1998 52.31 23.6298V24.6898H49.27C48.94 24.6898 48.61 24.7098 48.29 24.7398C48.18 23.9098 47.93 23.1098 47.55 22.3698ZM44.75 56.4798C44.77 56.2898 44.78 56.1098 44.79 55.9198C44.97 56.2198 45.17 56.4998 45.39 56.7698C45.18 56.6598 44.97 56.5698 44.75 56.4798ZM48.15 59.2398C48.03 59.0698 47.91 58.8998 47.78 58.7298C48.01 58.8598 48.24 58.9698 48.48 59.0698C48.36 59.1298 48.25 59.1798 48.15 59.2398Z" fill="#6A371B"/>
<path d="M116.46 73.2199C115.1 73.2199 113.81 72.7599 112.63 71.8399C111.42 70.9299 110.54 69.6699 110.05 68.1099C109.91 67.7399 109.77 67.3499 109.63 66.9299C109.43 66.3999 109.32 65.8599 109.32 65.3399C109.32 65.3099 109.32 65.2699 109.32 65.2399C108.73 65.5899 108.07 65.8299 107.34 65.9499C106.96 66.0099 106.6 66.0499 106.26 66.0499C105.45 66.0499 104.66 65.8999 103.92 65.5899C103.63 66.2999 103.2 66.9499 102.64 67.5199C101.49 68.6999 100 69.3199 98.33 69.3199H87.87C87.62 70.1299 87.17 70.8699 86.53 71.4999C85.5 72.5299 84.19 73.0799 82.76 73.0799H81.53C79.87 73.0799 78.39 72.4799 77.24 71.3299C76.09 70.1799 75.49 68.7099 75.49 67.0399C75.49 67.0399 75.49 26.0399 75.49 26.0099C75.08 25.5699 74.63 25.1099 74.16 24.6399C73.03 23.5799 72.41 22.1599 72.41 20.5599C72.41 19.0299 72.97 17.6699 74.02 16.6199C76.59 14.0099 78.79 10.9499 80.56 7.53989C81.25 6.15989 82.27 5.0099 83.58 4.1299C84.93 3.2299 86.42 2.7699 88 2.7699H89.37C92.69 2.7699 95.51 3.9099 97.76 6.1599C99.96 8.2699 101.9 10.3299 103.49 12.2399C104.49 13.4999 104.98 14.8799 104.98 16.3899C104.98 16.5699 104.97 16.7499 104.96 16.9299C107.58 14.2199 109.95 10.9899 112.04 7.27989C112.78 5.90989 113.84 4.7799 115.18 3.9399C116.55 3.0799 118.03 2.63989 119.6 2.63989H120.83C122.42 2.63989 123.92 3.0599 125.31 3.8799C126.64 4.6699 127.75 5.73989 128.59 7.03989C131.84 12.2199 135.27 16.2099 138.8 18.9199C140.02 19.8199 140.82 21.0499 141.16 22.5499C141.29 23.0299 141.36 23.5099 141.36 23.9899C141.36 25.0899 141.06 26.1199 140.46 27.0699C139.94 27.9799 139.42 28.9699 138.9 30.0099L138.83 30.1299C138.12 31.3499 137.04 32.1799 135.73 32.5499L135.59 32.5799C135.24 32.6499 134.87 32.6899 134.51 32.6899C134.32 32.6899 134.14 32.6799 133.96 32.6599C133.74 33.0499 133.46 33.4099 133.12 33.7499C132.41 34.4599 131.54 34.9299 130.58 35.1199H134.44C136.04 35.1199 137.51 35.7199 138.67 36.8499C139.85 37.9999 140.47 39.4899 140.47 41.1599V41.4999C140.47 43.1699 139.85 44.6599 138.67 45.8099C137.94 46.5199 137.09 47.0199 136.16 47.2899C136.91 47.8799 137.5 48.6199 137.94 49.4899C139.4 52.4999 140.56 55.2899 141.4 57.8199C141.61 58.5199 141.71 59.1499 141.71 59.7499C141.71 60.7199 141.47 61.6599 140.99 62.5399C140.2 63.9799 139.02 64.9999 137.47 65.5799L136.38 65.9899C135.7 66.2199 135.09 66.3199 134.52 66.3199C133.57 66.3199 132.66 66.0699 131.8 65.5699C130.43 64.8499 129.44 63.6099 129.03 62.0199C128.57 60.4499 128.01 58.7899 127.36 57.0699V61.8599C127.36 64.2099 127.11 66.0499 126.59 67.4899C126 69.1299 124.9 70.4499 123.33 71.4199C121.67 72.3599 119.61 72.9499 117.16 73.2099L117.06 73.2199H116.46ZM113.91 57.9899C113.49 58.9799 113.04 59.9499 112.57 60.8799C112.99 60.7499 113.44 60.6799 113.91 60.6699V57.9899ZM100.78 49.2799C101.12 49.4999 101.44 49.7699 101.73 50.0699C102.23 50.5899 102.62 51.1699 102.89 51.7999C103.03 51.4399 103.16 51.0699 103.28 50.6899C103.75 49.2699 104.6 48.1299 105.81 47.2999C104.83 47.0299 103.95 46.5099 103.22 45.7799C103.2 45.7599 103.17 45.7299 103.15 45.7099C102.91 46.8299 102.37 47.8299 101.54 48.6599C101.3 48.8699 101.05 49.0899 100.78 49.2799ZM113.57 47.5099C113.69 47.5999 113.8 47.6999 113.91 47.7999V47.5099H113.57ZM127.35 47.5999C127.38 47.5699 127.41 47.5399 127.44 47.5199H127.35V47.5999ZM103.29 36.7899C104.42 35.6899 105.88 35.1099 107.51 35.1099H111.16C110.15 34.9099 109.24 34.4199 108.49 33.6699C108.13 33.3099 107.82 32.8999 107.58 32.4699C107.31 32.5199 107.03 32.5499 106.76 32.5499C106.31 32.5499 105.85 32.4699 105.37 32.3099C104.59 32.0899 103.88 31.6999 103.29 31.1599V36.7899ZM98.41 23.8599C99.01 23.9699 99.58 24.1699 100.1 24.4399C100.1 24.4199 100.1 24.3999 100.1 24.3899C100.1 24.1299 100.11 23.8799 100.14 23.6199C99.68 23.7799 99.2 23.8599 98.68 23.8599H98.41ZM97.25 23.7599C97.42 23.7599 97.58 23.7699 97.74 23.7799C97.6 23.7499 97.45 23.7099 97.32 23.6699C97.3 23.6999 97.27 23.7299 97.25 23.7599ZM123.57 22.9399C122.5 21.5199 121.5 20.0799 120.57 18.6099C119.68 20.0499 118.69 21.4999 117.6 22.9399H123.57Z" fill="white"/>
<path d="M120.84 4.62988C122.07 4.62988 123.22 4.94987 124.29 5.58987C125.36 6.22987 126.24 7.06987 126.92 8.11987C130.29 13.4999 133.85 17.6199 137.58 20.4899C138.45 21.1299 138.99 21.9699 139.22 23.0199C139.31 23.3399 139.36 23.6599 139.36 23.9799C139.36 24.7099 139.15 25.3899 138.74 26.0299C138.19 26.9899 137.65 28.0099 137.1 29.1099C136.64 29.8899 136.01 30.3899 135.19 30.6099C134.96 30.6599 134.73 30.6799 134.51 30.6799C133.92 30.6799 133.39 30.4699 132.94 30.0599H132.87C132.84 30.0299 132.8 30.0099 132.76 30.0099C132.74 30.0099 132.72 30.0099 132.7 30.0199C132.63 30.0399 132.6 30.0999 132.6 30.1899C132.6 31.0099 132.3 31.7199 131.71 32.3099C131.12 32.8999 130.39 33.1999 129.52 33.1999H125.9C125.53 33.1999 125.35 33.3799 125.35 33.7499V36.5499C125.35 36.9199 125.53 37.0999 125.9 37.0999H134.44C135.53 37.0999 136.48 37.4899 137.28 38.2599C138.08 39.0399 138.48 39.9899 138.48 41.1299V41.4699C138.48 42.6099 138.08 43.5699 137.28 44.3399C136.48 45.1199 135.54 45.4999 134.44 45.4999H125.9C125.53 45.4999 125.35 45.6799 125.35 46.0499V61.8399C125.35 63.9399 125.13 65.5899 124.7 66.7999C124.27 68.0099 123.46 68.9799 122.27 69.7099C120.9 70.4799 119.13 70.9899 116.94 71.2099C116.8 71.2099 116.64 71.2099 116.46 71.2099C115.55 71.2099 114.68 70.8899 113.86 70.2499C112.95 69.5699 112.31 68.6299 111.95 67.4499C111.81 67.0799 111.68 66.6999 111.54 66.2899C111.4 65.9199 111.33 65.6099 111.33 65.3299C111.33 64.7799 111.49 64.2799 111.81 63.8299C112.36 63.0599 113.09 62.6699 114 62.6699C114.41 62.6699 114.73 62.6499 114.96 62.5999C115.6 62.5999 115.92 62.2999 115.92 61.7099V46.0599C115.92 45.6999 115.76 45.5099 115.44 45.5099H107.51C106.37 45.5099 105.41 45.1199 104.64 44.3499C103.86 43.5799 103.48 42.6199 103.48 41.4799V41.1399C103.48 39.9999 103.87 39.0399 104.64 38.2699C105.41 37.4999 106.37 37.1099 107.51 37.1099H115.44C115.76 37.1099 115.92 36.9299 115.92 36.5599V33.7599C115.92 33.3999 115.76 33.2099 115.44 33.2099H112.23C111.32 33.2099 110.54 32.8899 109.91 32.2499C109.27 31.6099 108.95 30.8399 108.95 29.9299C108.95 29.8899 108.9 29.8399 108.81 29.7899C108.76 29.7699 108.72 29.7599 108.69 29.7599C108.66 29.7599 108.63 29.7699 108.61 29.7899L108.54 29.8599C107.99 30.3199 107.4 30.5399 106.76 30.5399C106.53 30.5399 106.28 30.4999 106.01 30.3999C105.05 30.1299 104.35 29.5599 103.89 28.6899C103.52 28.0099 103.14 27.3199 102.73 26.6399C102.32 25.9599 102.11 25.1999 102.11 24.3799C102.11 24.1099 102.13 23.8299 102.18 23.5599C102.41 22.4699 102.93 21.5599 103.75 20.8299C107.58 17.5499 110.93 13.3599 113.8 8.24988C114.39 7.15988 115.21 6.27987 116.26 5.61987C117.31 4.95987 118.42 4.62988 119.61 4.62988H120.84ZM113.93 24.9399H127.33C127.42 24.9399 127.49 24.8999 127.54 24.7999C127.58 24.7099 127.56 24.6399 127.47 24.5899C124.87 21.5399 122.64 18.3499 120.77 15.0199C120.72 14.9299 120.64 14.8799 120.53 14.8799C120.42 14.8799 120.34 14.9499 120.29 15.0899C118.6 18.2299 116.42 21.3999 113.73 24.5899C113.68 24.6399 113.68 24.6999 113.73 24.7999C113.77 24.8899 113.84 24.9399 113.93 24.9399ZM89.39 4.76988C92.17 4.76988 94.49 5.69989 96.36 7.56989C98.55 9.66989 100.42 11.6499 101.97 13.5199C102.65 14.3899 103 15.3399 103 16.3899C103 17.6699 102.57 18.7799 101.7 19.7399L100.47 21.0399C100.01 21.5899 99.42 21.8599 98.69 21.8599C98.6 21.8599 98.51 21.8599 98.42 21.8599C97.64 21.7699 97.03 21.3799 96.57 20.6999L96.5 20.6299C96.5 20.5999 96.48 20.5799 96.45 20.5799C96.43 20.5799 96.42 20.5799 96.39 20.5899C96.32 20.6099 96.29 20.6499 96.29 20.6899C96.29 21.5099 96 22.2099 95.44 22.7699C94.87 23.3399 94.2 23.6199 93.42 23.6199H86.04C85.49 23.6199 85.01 23.4099 84.6 22.9999C84.19 22.5899 83.98 22.1099 83.98 21.5599C83.98 21.5199 83.93 21.4899 83.84 21.4899C82.7 22.7699 81.47 24.0399 80.15 25.3199C80.1 25.4099 80.09 25.4999 80.12 25.5899C80.14 25.6799 80.2 25.7299 80.29 25.7299H97.24C98.38 25.7299 99.34 26.1199 100.11 26.8899C100.88 27.6699 101.27 28.6199 101.27 29.7599V44.3199C101.27 45.4599 100.88 46.4199 100.11 47.1899C99.33 47.9699 98.38 48.3499 97.24 48.3499H86.59C86.27 48.3499 86.11 48.5299 86.11 48.8999V49.8599C86.11 50.1799 86.27 50.3399 86.59 50.3399H97.66C98.71 50.3399 99.58 50.7099 100.29 51.4299C101 52.1599 101.35 53.0299 101.35 54.0299C101.35 55.0299 101 55.8999 100.29 56.6299C99.58 57.3599 98.71 57.7199 97.66 57.7199H86.59C86.27 57.7199 86.11 57.8799 86.11 58.1999V59.1599C86.11 59.4799 86.27 59.6399 86.59 59.6399H100.47C100.83 59.6399 101.11 59.4999 101.29 59.2299C102.84 57.0399 104.14 54.3999 105.19 51.2999C105.55 50.2099 106.22 49.3599 107.17 48.7699C107.85 48.3599 108.56 48.1499 109.29 48.1499C109.61 48.1499 109.91 48.1699 110.18 48.2199L110.8 48.3599C111.89 48.5899 112.71 49.1799 113.26 50.1399C113.62 50.7299 113.81 51.3499 113.81 51.9899C113.81 52.3599 113.74 52.7199 113.6 53.0799C112.51 56.4999 111.14 59.5699 109.5 62.3099C108.95 63.2199 108.13 63.7699 107.04 63.9499C106.77 63.9999 106.52 64.0199 106.29 64.0199C105.47 64.0199 104.69 63.7899 103.97 63.3399C103.65 63.1099 103.29 62.8599 102.88 62.5899C102.83 62.5699 102.79 62.5599 102.73 62.5599C102.67 62.5599 102.62 62.5699 102.57 62.5899C102.46 62.6399 102.4 62.7299 102.4 62.8599V63.2699C102.4 64.3599 102.01 65.3099 101.24 66.1099C100.46 66.9099 99.51 67.3099 98.37 67.3099H86.52C86.25 67.3099 86.11 67.4499 86.11 67.7199C86.11 68.6299 85.78 69.4199 85.12 70.0799C84.46 70.7399 83.67 71.0699 82.76 71.0699H81.53C80.39 71.0699 79.43 70.6799 78.66 69.9099C77.88 69.1299 77.5 68.1799 77.5 67.0399V26.0999C77.5 25.8699 77.61 25.7599 77.84 25.7599C77.88 25.7599 77.91 25.7399 77.91 25.6899C77.23 24.9199 76.45 24.0999 75.59 23.2299C74.81 22.4999 74.43 21.6099 74.43 20.5599C74.43 19.5599 74.77 18.7099 75.46 18.0299C78.19 15.2499 80.5 12.0599 82.36 8.45988C82.91 7.36988 83.69 6.47987 84.72 5.78987C85.75 5.09987 86.85 4.75987 88.04 4.75987H89.39V4.76988ZM87.75 17.0799H93.42C93.51 17.0799 93.58 17.0399 93.63 16.9399C93.67 16.8499 93.67 16.7599 93.63 16.6699C92.4 15.0799 91.33 13.8199 90.42 12.9099C90.31 12.8199 90.2 12.7699 90.11 12.7699C89.98 12.7699 89.88 12.8599 89.8 13.0499C89.16 14.0999 88.39 15.2799 87.48 16.5999C87.43 16.6899 87.43 16.7899 87.48 16.9099C87.52 17.0199 87.61 17.0799 87.75 17.0799ZM86.59 33.9599H92.61C92.93 33.9599 93.09 33.7999 93.09 33.4799V32.6599C93.09 32.3399 92.93 32.1799 92.61 32.1799H86.59C86.27 32.1799 86.11 32.3399 86.11 32.6599V33.4799C86.11 33.7999 86.27 33.9599 86.59 33.9599ZM86.59 42.0299H92.61C92.93 42.0299 93.09 41.8699 93.09 41.5499V40.5899C93.09 40.2699 92.93 40.1099 92.61 40.1099H86.59C86.27 40.1099 86.11 40.2699 86.11 40.5899V41.5499C86.11 41.8699 86.27 42.0299 86.59 42.0299ZM132.05 47.8399C132.64 47.8399 133.23 47.9499 133.83 48.1799C134.88 48.6399 135.65 49.3699 136.15 50.3699C137.56 53.2899 138.68 55.9799 139.5 58.4399C139.64 58.8999 139.71 59.3299 139.71 59.7399C139.71 60.3799 139.55 60.9899 139.23 61.5899C138.68 62.5899 137.86 63.2999 136.77 63.7099L135.68 64.1199C135.27 64.2599 134.88 64.3299 134.52 64.3299C133.93 64.3299 133.36 64.1699 132.81 63.8499C131.85 63.3499 131.24 62.5699 130.96 61.5299C130.18 58.8899 129.18 56.1099 127.95 53.1899C127.72 52.7299 127.61 52.2599 127.61 51.7499C127.61 51.2499 127.72 50.7499 127.95 50.2499C128.36 49.2499 129.09 48.5899 130.14 48.2699L130.55 48.1299C131.04 47.9299 131.55 47.8399 132.05 47.8399ZM120.84 0.629883H119.61C117.66 0.629883 115.82 1.16988 114.13 2.23988C112.51 3.25988 111.22 4.63989 110.3 6.31989C109.01 8.60989 107.61 10.7099 106.11 12.5999C105.84 12.0499 105.51 11.5299 105.12 11.0399L105.09 10.9999L105.06 10.9599C103.43 8.98987 101.45 6.88988 99.17 4.70988C96.54 2.08988 93.25 0.769882 89.4 0.769882H88.03C86.05 0.769882 84.19 1.33988 82.5 2.46988C80.9 3.52988 79.66 4.93988 78.8 6.63988C77.12 9.85988 75.04 12.7499 72.61 15.2299C71.2 16.6399 70.44 18.4999 70.44 20.5599C70.44 22.6999 71.26 24.6099 72.81 26.0899C73.05 26.3299 73.29 26.5699 73.52 26.8099V67.0399C73.52 69.2399 74.33 71.2099 75.85 72.7399C77.38 74.2699 79.35 75.0699 81.55 75.0699H82.78C84.76 75.0699 86.55 74.3199 87.96 72.9099C88.45 72.4199 88.86 71.8799 89.19 71.3099H98.36C100.58 71.3099 102.57 70.4799 104.1 68.8999C104.4 68.5899 104.68 68.2599 104.92 67.9099C105.37 67.9799 105.82 68.0199 106.29 68.0199C106.74 68.0199 107.22 67.9799 107.7 67.8999C107.76 67.8899 107.81 67.8799 107.87 67.8699C107.97 68.1699 108.08 68.4599 108.18 68.7399C108.8 70.6799 109.9 72.2499 111.45 73.4199C112.96 74.5799 114.69 75.1999 116.47 75.1999H116.95H117.16L117.37 75.1799C120.14 74.8899 122.39 74.2399 124.26 73.1799L124.32 73.1399L124.38 73.0999C126.35 71.8899 127.73 70.2199 128.47 68.1399C128.71 67.4799 128.9 66.7499 129.04 65.9599C129.57 66.4899 130.18 66.9399 130.87 67.3199C132.01 67.9699 133.24 68.2999 134.51 68.2999C135.3 68.2999 136.12 68.1599 136.94 67.8899L137.01 67.8699L137.08 67.8399L138.17 67.4299C140.16 66.6899 141.74 65.3199 142.74 63.4799C143.39 62.2799 143.71 61.0199 143.71 59.7199C143.71 58.9199 143.58 58.0999 143.34 57.2699L143.32 57.2099L143.3 57.1499C142.43 54.5399 141.24 51.6699 139.76 48.6099L139.75 48.5899L139.74 48.5699C139.62 48.3199 139.48 48.0899 139.34 47.8599C139.6 47.6599 139.84 47.4499 140.08 47.2199C141.66 45.6899 142.49 43.6999 142.49 41.4799V41.1399C142.49 38.9199 141.66 36.9299 140.08 35.3999C139.4 34.7399 138.64 34.2199 137.82 33.8399C138.94 33.2199 139.87 32.3099 140.56 31.1399L140.63 31.0199L140.69 30.8999C141.19 29.9099 141.69 28.9599 142.18 28.0899C142.97 26.8299 143.37 25.4499 143.37 23.9799C143.37 23.3399 143.28 22.6899 143.11 22.0499C142.66 20.1299 141.59 18.4899 140 17.2999C136.67 14.7299 133.41 10.9299 130.31 5.98988L130.29 5.95988L130.27 5.92987C129.25 4.36987 127.93 3.09987 126.34 2.14987C124.64 1.14987 122.79 0.629883 120.84 0.629883Z" fill="#6A371B"/>
<path d="M199.65 73.2799C198.17 73.2799 196.85 72.7499 195.84 71.7399C195.21 71.1099 194.76 70.3599 194.52 69.5199H158.76C158.51 70.3699 158.04 71.1199 157.39 71.7599C156.36 72.7599 155.06 73.2799 153.64 73.2799H150.5C148.84 73.2799 147.36 72.6799 146.21 71.5299C145.06 70.3799 144.46 68.9099 144.46 67.2399V10.9099C144.46 9.30988 145.06 7.83987 146.19 6.67987C147.34 5.49987 148.82 4.87988 150.5 4.87988H203.34C205.01 4.87988 206.5 5.49987 207.64 6.67987C208.77 7.84987 209.37 9.30988 209.37 10.9099V67.2399C209.37 68.8999 208.77 70.3799 207.62 71.5199C206.47 72.6599 204.99 73.2699 203.33 73.2699H199.65V73.2799ZM194.3 56.0899V19.3499H158.99V56.0899H194.3ZM165.89 53.5999C164.22 53.5999 162.73 52.9799 161.58 51.7999C160.45 50.6399 159.85 49.1799 159.85 47.5699V28.0899C159.85 26.4899 160.45 25.0199 161.58 23.8599C162.73 22.6799 164.21 22.0599 165.89 22.0599H187.35C188.96 22.0599 190.43 22.6799 191.6 23.8399C192.77 25.0099 193.38 26.4799 193.38 28.0899V47.5699C193.38 49.1899 192.76 50.6499 191.6 51.8199C190.44 52.9899 188.96 53.5999 187.35 53.5999H165.89ZM179.13 40.8499V34.8699H173.42V40.8499H179.13Z" fill="white"/>
<path d="M203.35 6.88989C204.49 6.88989 205.45 7.28989 206.22 8.08989C206.99 8.88989 207.38 9.82989 207.38 10.9299V67.2599C207.38 68.3999 206.99 69.3599 206.22 70.1299C205.44 70.8999 204.49 71.2899 203.35 71.2899H199.66C198.7 71.2899 197.91 70.9699 197.27 70.3299C196.63 69.6899 196.31 68.8899 196.31 67.9399C196.31 67.6699 196.15 67.5299 195.83 67.5299H157.41C157.14 67.5299 157 67.6699 157 67.9399C157 68.8999 156.67 69.6899 156.01 70.3299C155.35 70.9699 154.56 71.2899 153.65 71.2899H150.51C149.37 71.2899 148.41 70.8999 147.64 70.1299C146.86 69.3499 146.48 68.3999 146.48 67.2599V10.9299C146.48 9.83989 146.87 8.88989 147.64 8.08989C148.41 7.28989 149.37 6.88989 150.51 6.88989H203.35ZM157.55 58.0899H195.76C196.12 58.0899 196.31 57.9099 196.31 57.5399V17.8199C196.31 17.4999 196.13 17.3399 195.76 17.3399H157.55C157.18 17.3399 157 17.4999 157 17.8199V57.5399C157 57.9099 157.18 58.0899 157.55 58.0899ZM187.35 24.0499C188.44 24.0499 189.39 24.4499 190.19 25.2499C190.99 26.0499 191.39 26.9899 191.39 28.0899V47.5699C191.39 48.6599 190.99 49.6099 190.19 50.4099C189.39 51.2099 188.45 51.6099 187.35 51.6099H165.89C164.75 51.6099 163.79 51.2099 163.02 50.4099C162.24 49.6099 161.86 48.6699 161.86 47.5699V28.0899C161.86 26.9999 162.25 26.0499 163.02 25.2499C163.79 24.4499 164.75 24.0499 165.89 24.0499H187.35ZM171.97 42.8499H180.65C180.97 42.8499 181.13 42.6699 181.13 42.2999V33.4099C181.13 33.0499 180.97 32.8599 180.65 32.8599H171.97C171.6 32.8599 171.42 33.0399 171.42 33.4099V42.2999C171.42 42.6699 171.6 42.8499 171.97 42.8499ZM203.35 2.88989H150.51C148.29 2.88989 146.3 3.7199 144.77 5.2999C143.27 6.8399 142.48 8.78991 142.48 10.9199V67.2499C142.48 69.4499 143.29 71.4199 144.81 72.9499C146.34 74.4799 148.31 75.2799 150.51 75.2799H153.65C155.6 75.2799 157.38 74.5599 158.79 73.1999C159.32 72.6899 159.75 72.1299 160.09 71.5199H193.2C193.53 72.1099 193.94 72.6599 194.43 73.1499C195.82 74.5399 197.63 75.2799 199.65 75.2799H203.34C205.54 75.2799 207.51 74.4699 209.04 72.9499C210.57 71.4199 211.38 69.4499 211.38 67.2499V10.9199C211.38 8.78991 210.59 6.8399 209.09 5.2999C207.55 3.7199 205.57 2.88989 203.35 2.88989ZM191.71 21.3499H192.3V21.7799C192.11 21.6299 191.92 21.4799 191.71 21.3499ZM161 21.3499H161.48C161.32 21.4599 161.16 21.5699 161 21.6899V21.3499ZM175.42 36.8699H177.13V38.8499H175.42V36.8699ZM192.01 54.0899C192.11 54.0199 192.21 53.9399 192.31 53.8599V54.0899H192.01ZM161 54.0899V53.9499C161.06 53.9999 161.12 54.0399 161.18 54.0899H161Z" fill="#6A371B"/>
<path d="M234.45 73.2199C232.85 73.2199 231.38 72.6199 230.22 71.4899C229.04 70.3399 228.42 68.8599 228.42 67.1799V56.6299C224.6 57.8299 222.14 58.5999 221.08 58.9099C220.53 59.0899 219.91 59.1999 219.28 59.1999C218.37 59.1999 217.46 59.0099 216.58 58.6299L216.49 58.5899L216.41 58.5499C214.96 57.7599 213.96 56.5899 213.43 55.0599L212.4 52.0399C212.2 51.5099 212.09 50.9099 212.09 50.2999C212.09 49.3699 212.36 48.4799 212.88 47.6499C213.43 46.6999 214.24 45.9699 215.23 45.5399V17.0099C215.23 15.4099 215.83 13.9399 216.96 12.7799C218.11 11.5999 219.59 10.9799 221.27 10.9799H222.91C224.58 10.9799 226.07 11.5999 227.21 12.7799C227.73 13.3199 228.14 13.9099 228.42 14.5599V9.41988C228.42 7.74988 229.04 6.25988 230.22 5.10988C231.38 3.97988 232.85 3.37988 234.45 3.37988H236.36C237.96 3.37988 239.43 3.97988 240.59 5.10988C241.77 6.25988 242.39 7.74988 242.39 9.41988V21.6299C244.27 17.7599 245.84 13.2599 247.06 8.19987C247.38 6.63987 248.31 5.31988 249.73 4.43988C250.69 3.79988 251.8 3.45988 252.97 3.45988C253.35 3.45988 253.73 3.48988 254.11 3.54988L256.69 4.03987C258.33 4.37987 259.65 5.26987 260.52 6.61987C261.14 7.58987 261.46 8.61988 261.46 9.68988C261.46 10.1699 261.39 10.6799 261.26 11.1999C260.93 12.4999 260.57 13.7899 260.2 15.0699H276.48C278.08 15.0699 279.55 15.6699 280.71 16.7999C281.89 17.9499 282.51 19.4399 282.51 21.1099V23.1599C282.51 24.6399 281.95 25.9799 280.9 27.0399C280.14 27.7999 279.22 28.3099 278.22 28.5299C276.29 37.5999 273.44 45.3799 269.73 51.7499C272.33 54.6199 275.3 56.9899 278.56 58.8199C279.94 59.5499 280.82 60.7699 281.06 62.3499C281.13 62.6899 281.16 62.9999 281.16 63.2999C281.16 64.4899 280.74 65.6299 279.94 66.5699C279.29 67.3599 278.62 68.1999 277.96 69.0799C277.02 70.3299 275.8 71.1999 274.34 71.6399L274.24 71.6699C273.72 71.7999 273.19 71.8699 272.66 71.8699C271.59 71.8699 270.56 71.5599 269.6 70.9399C266.28 68.8599 263.25 66.3599 260.6 63.4999C257.42 66.5699 253.8 69.2299 249.84 71.4199C248.93 71.9099 248.02 72.1499 247.09 72.1499C246.47 72.1499 245.84 72.0499 245.23 71.8399C243.88 71.3499 242.81 70.5299 242.01 69.3699C241.71 70.1699 241.23 70.8899 240.59 71.5099C239.42 72.6399 237.96 73.2399 236.36 73.2399H234.45V73.2199ZM242.4 58.7199C246.17 56.8099 249.49 54.4199 252.29 51.5999C250.51 48.1499 248.92 44.2999 247.54 40.0799C246.8 40.4699 245.97 40.6799 245.05 40.6799C244.09 40.6799 243.2 40.4599 242.4 40.0299V58.7199ZM258.16 28.6499C259 31.7799 259.97 34.7299 261.08 37.4799C262.12 34.7399 262.99 31.7899 263.68 28.6499H258.16Z" fill="white"/>
<path d="M236.36 5.38989C237.45 5.38989 238.4 5.7799 239.2 6.5499C240 7.3299 240.4 8.27989 240.4 9.41989V28.4199C240.4 28.5099 240.43 28.5699 240.5 28.5899C240.52 28.5999 240.54 28.5999 240.56 28.5999C240.6 28.5999 240.64 28.5799 240.67 28.5499C244.27 23.3999 247.05 16.7699 249.01 8.6599C249.24 7.5699 249.83 6.7199 250.79 6.1299C251.47 5.6699 252.2 5.44989 252.98 5.44989C253.25 5.44989 253.53 5.4699 253.8 5.5199L256.33 5.99989C257.42 6.22989 258.27 6.7999 258.86 7.7099C259.27 8.3499 259.48 9.0099 259.48 9.6899C259.48 10.0099 259.43 10.3499 259.34 10.7199C258.84 12.6799 258.29 14.6199 257.7 16.5299C257.65 16.6699 257.67 16.7899 257.73 16.9099C257.8 17.0199 257.9 17.0799 258.04 17.0799H276.5C277.59 17.0799 278.54 17.4699 279.34 18.2399C280.14 19.0199 280.54 19.9699 280.54 21.1099V23.1599C280.54 24.1199 280.2 24.9399 279.51 25.6199C278.82 26.2999 278.01 26.6499 277.05 26.6499C276.73 26.6499 276.55 26.7899 276.5 27.0599C274.54 36.7699 271.55 44.9299 267.54 51.5299C267.36 51.8499 267.38 52.1199 267.61 52.3499C270.53 55.7199 273.85 58.4599 277.59 60.5499C278.46 61.0099 278.96 61.7099 279.09 62.6699C279.13 62.8999 279.16 63.0999 279.16 63.2899C279.16 64.0199 278.91 64.6799 278.41 65.2699C277.73 66.0899 277.04 66.9599 276.36 67.8699C275.68 68.7799 274.81 69.3999 273.76 69.7199C273.39 69.8099 273.03 69.8599 272.67 69.8599C271.99 69.8599 271.33 69.6499 270.69 69.2399C267.04 66.9599 263.83 64.1999 261.05 60.9699C260.94 60.8599 260.82 60.7999 260.69 60.7999C260.56 60.7999 260.43 60.8599 260.3 60.9699C256.97 64.3899 253.17 67.2799 248.88 69.6499C248.29 69.9699 247.69 70.1299 247.1 70.1299C246.69 70.1299 246.28 70.0599 245.87 69.9199C244.87 69.5499 244.07 68.8899 243.48 67.9399C242.61 66.3899 241.68 64.9499 240.68 63.6299C240.64 63.5599 240.6 63.5199 240.55 63.5199C240.54 63.5199 240.52 63.5199 240.51 63.5299C240.44 63.5499 240.41 63.6099 240.41 63.6999V67.1899C240.41 68.3299 240.01 69.2899 239.21 70.0599C238.41 70.8299 237.47 71.2199 236.37 71.2199H234.46C233.37 71.2199 232.42 70.8299 231.62 70.0599C230.82 69.2799 230.42 68.3299 230.42 67.1899V54.3999C230.42 54.2599 230.37 54.1599 230.28 54.0899C230.22 54.0499 230.16 54.0299 230.09 54.0299C230.04 54.0299 229.99 54.0399 229.94 54.0599C224.88 55.6599 221.74 56.6399 220.51 56.9999C220.1 57.1399 219.69 57.2099 219.28 57.2099C218.64 57.2099 218 57.0699 217.37 56.7999C216.37 56.2499 215.68 55.4599 215.32 54.4099L214.29 51.3999C214.15 51.0399 214.08 50.6699 214.08 50.3099C214.08 49.7599 214.24 49.2399 214.56 48.7399C215.06 47.8699 215.79 47.3499 216.75 47.1699C217.07 47.0799 217.23 46.8699 217.23 46.5499V17.0199C217.23 15.9299 217.62 14.9799 218.39 14.1799C219.16 13.3799 220.12 12.9799 221.26 12.9799H222.9C224.04 12.9799 225 13.3799 225.77 14.1799C226.54 14.9799 226.93 15.9199 226.93 17.0199V44.4299C226.93 44.7099 227.05 44.8499 227.3 44.8499C227.34 44.8499 227.37 44.8499 227.41 44.8399L229.94 44.2899C230.26 44.1999 230.42 43.9699 230.42 43.6099V9.42989C230.42 8.28989 230.82 7.32989 231.62 6.55989C232.42 5.78989 233.36 5.39989 234.46 5.39989H236.36V5.38989ZM261.11 42.1599C261.2 42.1599 261.27 42.1199 261.32 42.0199C263.42 37.5999 264.99 32.6299 266.04 27.1199C266.13 26.7999 265.99 26.6399 265.63 26.6399H256.06C255.74 26.6399 255.63 26.7999 255.72 27.1199C257.04 32.5899 258.77 37.5599 260.92 42.0199C260.95 42.1199 261.02 42.1599 261.11 42.1599ZM240.72 61.6699C240.77 61.6699 240.82 61.6599 240.87 61.6399C246.2 59.3199 250.71 56.1899 254.41 52.2699C254.64 52.0399 254.66 51.7699 254.48 51.4499C252.2 47.2099 250.24 42.3099 248.6 36.7499C248.55 36.6599 248.49 36.5999 248.39 36.5799C248.37 36.5799 248.35 36.5699 248.34 36.5699C248.27 36.5699 248.19 36.6099 248.12 36.6799C247.94 36.9499 247.78 37.1799 247.64 37.3599C247 38.2299 246.14 38.6599 245.04 38.6599C243.99 38.6599 243.1 38.2699 242.37 37.4999C241.87 36.9499 241.32 36.4099 240.73 35.8599C240.7 35.8299 240.66 35.8099 240.61 35.8099C240.58 35.8099 240.56 35.8099 240.53 35.8199C240.44 35.8399 240.39 35.9199 240.39 36.0599V61.3499C240.39 61.4399 240.43 61.5199 240.53 61.5899C240.59 61.6499 240.65 61.6699 240.72 61.6699ZM236.36 1.38989H234.45C232.31 1.38989 230.37 2.17989 228.83 3.67989C227.25 5.20989 226.42 7.19989 226.42 9.41989V9.7699C225.35 9.2499 224.16 8.97989 222.9 8.97989H221.26C219.04 8.97989 217.05 9.80991 215.52 11.3899C214.02 12.9299 213.23 14.8799 213.23 17.0099V44.3899C212.4 44.9699 211.69 45.7399 211.14 46.6499C210.44 47.7799 210.08 49.0099 210.08 50.2999C210.08 51.1199 210.23 51.9399 210.51 52.7299L211.52 55.6899C212.22 57.6999 213.57 59.2799 215.44 60.2999L215.61 60.3899L215.78 60.4599C216.92 60.9499 218.09 61.1899 219.27 61.1899C220.08 61.1899 220.9 61.0599 221.69 60.7999C222.52 60.5499 224.1 60.0699 226.41 59.3399V67.1599C226.41 69.3799 227.24 71.3699 228.82 72.8999C230.36 74.3999 232.31 75.1899 234.44 75.1899H236.35C238.48 75.1899 240.43 74.3999 241.97 72.8999C242.1 72.7699 242.23 72.6399 242.35 72.5099C243 72.9899 243.72 73.3699 244.49 73.6499L244.54 73.6699L244.59 73.6899C245.41 73.9599 246.25 74.0999 247.09 74.0999C248.35 74.0999 249.58 73.7799 250.76 73.1499L250.78 73.1399L250.8 73.1299C254.32 71.1799 257.58 68.8799 260.51 66.2599C262.93 68.6499 265.61 70.7799 268.53 72.5999C269.81 73.4199 271.2 73.8399 272.65 73.8399C273.34 73.8399 274.03 73.7499 274.71 73.5899L274.81 73.5599L274.91 73.5299C276.78 72.9599 278.34 71.8599 279.54 70.2599C280.18 69.4099 280.82 68.5899 281.46 67.8199C282.55 66.5299 283.14 64.9499 283.14 63.2799C283.14 62.8699 283.1 62.4499 283.02 61.9899C282.68 59.8299 281.43 58.0799 279.49 57.0399C276.84 55.5499 274.39 53.6699 272.19 51.4399C275.51 45.4099 278.1 38.2399 279.92 30.0699C280.8 29.6999 281.6 29.1599 282.31 28.4499C283.75 27.0099 284.51 25.1799 284.51 23.1599V21.1099C284.51 18.8899 283.68 16.8999 282.1 15.3699C280.55 13.8699 278.61 13.0699 276.47 13.0699H262.83C262.95 12.6199 263.07 12.1599 263.19 11.7099C263.37 11.0099 263.45 10.3299 263.45 9.6899C263.45 8.2299 263.03 6.8399 262.2 5.5499C261.01 3.7199 259.26 2.52989 257.12 2.08989L257.08 2.0799L257.04 2.0699L254.51 1.58989L254.46 1.5799L254.41 1.5699C253.92 1.4899 253.43 1.44989 252.94 1.44989C251.39 1.44989 249.93 1.8899 248.59 2.7699C246.75 3.9299 245.53 5.65989 245.07 7.77989C244.84 8.70989 244.61 9.62988 244.36 10.5199V9.41989C244.36 7.19989 243.53 5.20989 241.95 3.67989C240.44 2.17989 238.5 1.38989 236.36 1.38989ZM260.81 30.6499H261.15C261.1 30.8499 261.05 31.0499 260.99 31.2499C260.93 31.0499 260.87 30.8499 260.81 30.6499ZM245.05 42.6799C245.47 42.6799 245.88 42.6499 246.28 42.5799C247.36 45.6599 248.55 48.5299 249.85 51.1799C248.2 52.6999 246.38 54.0799 244.41 55.2999V42.6499C244.61 42.6699 244.83 42.6799 245.05 42.6799Z" fill="#6A371B"/>
<path d="M318.19 72.0499C311.58 72.0499 306.22 71.5199 302.27 70.4799C299.07 69.6399 296.28 68.1499 293.95 66.0299C293.49 67.2599 292.97 68.4099 292.41 69.4699C291.58 70.9699 290.23 71.7699 288.59 71.7699H288.43C286.91 71.6999 285.58 71.0199 284.59 69.8099L283.93 69.0199C282.95 67.8599 282.37 66.4999 282.17 64.9499C282.11 64.6199 282.08 64.2599 282.08 63.8899C282.08 62.7399 282.32 61.6199 282.8 60.5499C283.96 57.8499 284.67 53.6499 284.88 48.0899C284.94 46.4499 285.59 44.9899 286.75 43.8599C286.79 43.8199 286.83 43.7799 286.87 43.7499C285.95 43.4999 285.11 43.0099 284.4 42.2999C283.32 41.2299 282.76 39.8499 282.76 38.3199C282.76 36.7899 283.33 35.4199 284.41 34.3399C285.49 33.2599 286.86 32.6899 288.39 32.6899H288.77C288.21 32.3999 287.69 32.0099 287.22 31.5399C286.09 30.3799 285.49 28.9199 285.49 27.3099V11.3999C285.49 9.79987 286.09 8.32988 287.22 7.16988C288.37 5.98988 289.85 5.36987 291.53 5.36987H309.71C311.32 5.36987 312.79 5.98987 313.96 7.14987C314.3 7.48987 314.59 7.84988 314.84 8.23988C315.08 7.80988 315.39 7.40988 315.75 7.04988C316.8 5.99988 318.14 5.43988 319.63 5.43988H345.13C346.61 5.43988 347.95 5.99988 349.01 7.04988C350.07 8.09988 350.62 9.45987 350.62 10.9599C350.62 12.4599 350.06 13.8199 349.01 14.8699C348.27 15.6099 347.39 16.0999 346.43 16.3299C346.69 16.5199 346.94 16.7299 347.17 16.9599C348.31 18.1099 348.92 19.5899 348.92 21.2499V45.7899C348.92 47.3899 348.32 48.8599 347.19 50.0199C346.85 50.3699 346.48 50.6699 346.08 50.9199C347.1 51.7799 348.11 52.6799 349.11 53.6399C350.11 54.6399 350.62 55.8599 350.62 57.2099V57.8599L350.59 58.0299C350.41 59.0499 349.99 59.9399 349.36 60.6499C349.84 60.9799 350.26 61.4199 350.59 61.9599C351.07 62.7599 351.3 63.5699 351.3 64.3899C351.3 64.9499 351.19 65.5299 350.97 66.1199C350.87 66.3599 350.8 66.5699 350.72 66.7999C350.17 68.3399 349.27 69.5899 348.04 70.5499C346.75 71.5599 345.29 72.0699 343.7 72.0699H318.19V72.0499ZM331.46 51.8199C331.56 52.0399 331.65 52.2799 331.73 52.5299C331.87 52.9499 331.95 53.4199 331.95 53.8599C331.95 54.9899 331.53 56.0499 330.75 56.9099C329.64 58.0399 328.47 59.1099 327.23 60.1199C331.69 60.1099 335.52 60.0799 338.68 60.0499C337.66 58.9999 336.54 57.9399 335.33 56.8599C334.3 55.9099 333.77 54.7199 333.77 53.3799C333.77 52.8299 333.85 52.3099 334 51.8299H331.46V51.8199ZM307.75 59.5199C309.51 59.7899 311.65 59.9599 314.16 60.0499C313.7 59.3199 313.46 58.4899 313.46 57.6099V57.1699L313.47 57.0699C313.54 56.3299 313.78 55.6499 314.15 55.0499C313.33 55.5299 312.4 55.7799 311.43 55.7799H307.76V59.5199H307.75ZM316.81 48.8099C316.92 49.2499 316.98 49.7199 316.98 50.1899C316.98 51.3699 316.63 52.4699 315.95 53.4099C317.16 52.6999 318.32 51.9499 319.37 51.1999C318.79 50.9099 318.25 50.5199 317.77 50.0299C317.39 49.6599 317.07 49.2499 316.81 48.8099ZM311.42 44.6099C312.9 44.6099 314.25 45.1799 315.33 46.2499C315.66 46.5799 315.95 46.9399 316.18 47.3299C316.05 46.8399 315.98 46.3199 315.98 45.7899V42.9299C315.03 43.6099 313.92 43.9699 312.72 43.9699H307.75V44.6199H311.42V44.6099ZM312.72 32.7099C313.93 32.7099 315.04 33.0699 315.98 33.7499V21.2499C315.98 19.5799 316.6 18.0899 317.78 16.9399C318 16.7299 318.23 16.5299 318.47 16.3599C317.45 16.1499 316.52 15.6399 315.75 14.8699V27.3399C315.75 28.9599 315.13 30.4199 313.97 31.5899C313.5 32.0599 312.99 32.4399 312.43 32.7199H312.72V32.7099Z" fill="white"/>
<path d="M309.71 7.36987C310.8 7.36987 311.75 7.76989 312.55 8.56989C313.35 9.36989 313.75 10.3099 313.75 11.4099V27.3399C313.75 28.4299 313.35 29.3799 312.55 30.1799C311.75 30.9799 310.81 31.3799 309.71 31.3799H291.53C290.39 31.3799 289.43 30.9799 288.66 30.1799C287.88 29.3799 287.5 28.4399 287.5 27.3399V11.3999C287.5 10.3099 287.89 9.35988 288.66 8.55988C289.43 7.75988 290.39 7.35988 291.53 7.35988H309.71V7.36987ZM296.93 16.1899H303.83C304.19 16.1899 304.38 16.0299 304.38 15.7099V14.5499C304.38 14.2299 304.2 14.0699 303.83 14.0699H296.93C296.61 14.0699 296.45 14.2299 296.45 14.5499V15.7099C296.45 16.0299 296.61 16.1899 296.93 16.1899ZM296.93 24.6599H303.83C304.19 24.6599 304.38 24.4999 304.38 24.1799V22.9499C304.38 22.6299 304.2 22.4699 303.83 22.4699H296.93C296.61 22.4699 296.45 22.6299 296.45 22.9499V24.1799C296.45 24.4999 296.61 24.6599 296.93 24.6599ZM345.12 7.43988C346.08 7.43988 346.9 7.77988 347.58 8.46988C348.26 9.15988 348.61 9.98988 348.61 10.9699C348.61 11.9499 348.27 12.7799 347.58 13.4699C346.89 14.1599 346.08 14.4999 345.12 14.4999H337.53C337.21 14.4999 336.98 14.6599 336.85 14.9799L335.96 16.7599C335.91 16.8499 335.91 16.9499 335.96 17.0699C336 17.1799 336.1 17.2399 336.23 17.2399H342.86C344 17.2399 344.96 17.6299 345.73 18.3999C346.5 19.1799 346.89 20.1299 346.89 21.2699V45.8099C346.89 46.8999 346.5 47.8499 345.73 48.6499C344.95 49.4499 344 49.8499 342.86 49.8499H341.9C341.81 49.8499 341.75 49.8799 341.73 49.9499C341.71 50.0199 341.72 50.0799 341.76 50.1199C343.76 51.5799 345.75 53.2399 347.71 55.1099C348.3 55.6999 348.6 56.4099 348.6 57.2299C348.6 57.3699 348.6 57.5299 348.6 57.7099C348.42 58.7599 347.87 59.5299 346.96 60.0299L344.02 61.7399C343.93 61.7899 343.89 61.8399 343.92 61.9099C343.94 61.9799 344 62.0099 344.09 62.0099C345.14 61.9699 346.07 61.9399 346.89 61.9399H346.96C347.78 61.9399 348.42 62.3099 348.87 63.0299C349.14 63.4899 349.28 63.9399 349.28 64.3999C349.28 64.7199 349.21 65.0599 349.07 65.4299C348.98 65.6599 348.89 65.9099 348.8 66.1799C348.39 67.3199 347.72 68.2499 346.78 68.9799C345.85 69.7099 344.81 70.0699 343.67 70.0699H318.17C311.7 70.0699 306.56 69.5699 302.75 68.5699C298.94 67.5699 295.83 65.5799 293.42 62.6199C293.35 62.5499 293.27 62.5099 293.18 62.5099C293.16 62.5099 293.14 62.5099 293.11 62.5199C293 62.5399 292.94 62.5999 292.94 62.6899C292.3 64.8799 291.53 66.8399 290.62 68.5699C290.16 69.3899 289.48 69.7999 288.57 69.7999H288.5C287.54 69.7499 286.75 69.3399 286.11 68.5699C285.88 68.2999 285.65 68.0199 285.43 67.7499C284.7 66.8799 284.27 65.8599 284.13 64.6699C284.08 64.4399 284.06 64.1899 284.06 63.9199C284.06 63.0499 284.24 62.2099 284.61 61.3899C285.89 58.4299 286.64 54.0299 286.87 48.1999C286.91 47.0599 287.34 46.0999 288.13 45.3299C288.93 44.5599 289.88 44.1699 291 44.1699C292.12 44.1699 293.06 44.5599 293.84 45.3299C294.57 46.1099 294.93 46.9899 294.93 47.9999C294.93 48.5899 294.86 49.6599 294.72 51.2099C294.67 51.5799 294.72 51.8899 294.86 52.1699C295.41 53.5399 296.11 54.7899 296.98 55.9299C297.01 55.9899 297.05 56.0199 297.09 56.0199C297.11 56.0199 297.13 56.0099 297.15 55.9999C297.22 55.9599 297.25 55.9099 297.25 55.8599V42.4999C297.25 42.1399 297.09 41.9499 296.77 41.9499H288.36C287.36 41.9499 286.5 41.5999 285.8 40.8899C285.09 40.1799 284.74 39.3299 284.74 38.3299C284.74 37.3299 285.09 36.4699 285.8 35.7699C286.51 35.0599 287.36 34.7099 288.36 34.7099H312.7C313.7 34.7099 314.56 35.0599 315.26 35.7699C315.97 36.4799 316.32 37.3299 316.32 38.3299C316.32 39.3299 315.97 40.1899 315.26 40.8899C314.55 41.5999 313.7 41.9499 312.7 41.9499H306.27C305.9 41.9499 305.72 42.1299 305.72 42.4999V46.0499C305.72 46.4199 305.9 46.5999 306.27 46.5999H311.4C312.36 46.5999 313.19 46.9499 313.9 47.6599C314.61 48.3699 314.96 49.2099 314.96 50.1899C314.96 51.1699 314.61 52.0099 313.9 52.7199C313.19 53.4299 312.36 53.7799 311.4 53.7799H306.27C305.9 53.7799 305.72 53.9599 305.72 54.3299V60.6899C305.72 61.0599 305.9 61.2599 306.27 61.3099C309.14 61.8599 313.11 62.1299 318.16 62.1299H318.5C318.59 62.1299 318.66 62.0899 318.71 61.9899C318.75 61.8999 318.73 61.8299 318.64 61.7799C317.86 61.0099 317.07 60.2499 316.25 59.5199C315.7 58.9699 315.43 58.3399 315.43 57.6099C315.43 57.4699 315.43 57.3599 315.43 57.2699C315.52 56.3599 315.98 55.6799 316.8 55.2199C318.21 54.3999 319.51 53.5599 320.7 52.6899C322.29 51.4099 323.89 50.7799 325.49 50.7799C326.13 50.7799 326.79 50.8899 327.47 51.1199L328.02 51.2599C328.93 51.5799 329.52 52.1899 329.8 53.1099C329.89 53.3799 329.94 53.6299 329.94 53.8599C329.94 54.4999 329.71 55.0699 329.26 55.5699C326.94 57.9399 324.29 60.0399 321.33 61.8599C321.24 61.9099 321.2 61.9599 321.23 62.0299C321.25 62.0999 321.31 62.1299 321.4 62.1299C330.65 62.1299 337.69 62.0899 342.52 61.9899C342.66 61.9899 342.75 61.9499 342.79 61.8499C342.83 61.7599 342.81 61.6699 342.72 61.5799C341.08 59.5799 339.05 57.4999 336.64 55.3599C336.05 54.8099 335.75 54.1499 335.75 53.3799C335.75 52.2899 336.21 51.4899 337.12 50.9899L338.97 50.0299C339.01 50.0299 339.04 49.9999 339.04 49.9299C339.04 49.8599 338.99 49.8299 338.9 49.8299H322.02C320.93 49.8299 319.98 49.4299 319.18 48.6299C318.38 47.8299 317.98 46.8899 317.98 45.7899V21.2499C317.98 20.1099 318.38 19.1499 319.18 18.3799C319.98 17.6099 320.92 17.2199 322.02 17.2199H326.67C327.03 17.2199 327.26 17.0599 327.35 16.7399L327.9 14.9599C327.9 14.8199 327.87 14.7099 327.8 14.6199C327.73 14.5299 327.63 14.4799 327.49 14.4799H319.63C318.67 14.4799 317.85 14.1399 317.17 13.4499C316.49 12.7599 316.14 11.9399 316.14 10.9499C316.14 9.96989 316.48 9.13987 317.17 8.44987C317.86 7.75987 318.67 7.41988 319.63 7.41988H345.12V7.43988ZM327.49 26.0999H337.06C337.38 26.0999 337.54 25.9199 337.54 25.5499V24.4599C337.54 24.0999 337.38 23.9099 337.06 23.9099H327.49C327.12 23.9099 326.94 24.0899 326.94 24.4599V25.5499C326.94 25.9199 327.12 26.0999 327.49 26.0999ZM327.49 34.5799H337.06C337.38 34.5799 337.54 34.3999 337.54 34.0299V32.8699C337.54 32.5499 337.38 32.3899 337.06 32.3899H327.49C327.12 32.3899 326.94 32.5499 326.94 32.8699V34.0299C326.94 34.3899 327.12 34.5799 327.49 34.5799ZM327.49 43.0499H337.06C337.38 43.0499 337.54 42.8699 337.54 42.4999V41.3399C337.54 41.0199 337.38 40.8599 337.06 40.8599H327.49C327.12 40.8599 326.94 41.0199 326.94 41.3399V42.4999C326.94 42.8699 327.12 43.0499 327.49 43.0499ZM309.71 3.36987H291.53C289.31 3.36987 287.32 4.19988 285.79 5.77988C284.29 7.31988 283.5 9.26987 283.5 11.3999V27.3299C283.5 28.8899 283.92 30.3499 284.74 31.6299C284.11 31.9699 283.53 32.4099 283 32.9499C281.54 34.4099 280.77 36.2699 280.77 38.3399C280.77 40.4099 281.54 42.2699 283 43.7299C283.27 43.9999 283.54 44.2399 283.84 44.4599C283.27 45.5399 282.94 46.7399 282.89 48.0199C282.63 54.6399 281.7 58.0699 280.96 59.7899C280.39 61.0799 280.09 62.4699 280.09 63.8999C280.09 64.3699 280.13 64.8299 280.2 65.2599C280.45 67.1699 281.19 68.8699 282.39 70.2999L283.06 71.1099C284.4 72.7399 286.23 73.6699 288.33 73.7699H288.43H288.53H288.6C290.96 73.7699 292.99 72.5699 294.15 70.4799L294.17 70.4399L294.19 70.3999C294.39 70.0199 294.59 69.6299 294.77 69.2299C296.84 70.6699 299.18 71.7299 301.76 72.4099C305.94 73.5099 311.32 74.0499 318.19 74.0499H343.69C345.71 74.0499 347.63 73.3799 349.26 72.1099C350.8 70.9099 351.91 69.3599 352.58 67.5099L352.6 67.4599L352.62 67.4099C352.68 67.2199 352.74 67.0499 352.81 66.8899L352.83 66.8399L352.85 66.7899C353.15 65.9799 353.31 65.1599 353.31 64.3599C353.31 63.1699 352.98 62.0199 352.33 60.9399L352.31 60.9099L352.29 60.8799C352.18 60.6999 352.05 60.5199 351.93 60.3599C352.23 59.7399 352.45 59.0699 352.57 58.3599L352.63 58.0199V57.6699V57.1899C352.63 55.2999 351.92 53.5899 350.57 52.2399L350.53 52.1999L350.49 52.1699C350.03 51.7299 349.56 51.2899 349.09 50.8699C350.29 49.4199 350.91 47.6699 350.91 45.7699V21.2299C350.91 19.6499 350.49 18.1799 349.69 16.9099C349.94 16.7099 350.19 16.4999 350.42 16.2599C351.86 14.8199 352.62 12.9799 352.62 10.9399C352.62 8.88988 351.86 7.04987 350.42 5.61987C348.98 4.17987 347.15 3.41988 345.13 3.41988H319.63C317.82 3.41988 316.16 4.02988 314.8 5.18988C313.35 3.99988 311.61 3.36987 309.71 3.36987ZM332.36 58.0999C332.6 57.8199 332.81 57.5399 332.99 57.2399C333.21 57.5399 333.45 57.8299 333.72 58.0999C333.28 58.0899 332.82 58.0899 332.36 58.0999ZM309.97 57.7799H311.42C311.43 57.7799 311.44 57.7799 311.46 57.7799C311.46 57.8199 311.46 57.8699 311.46 57.9099C310.94 57.8699 310.45 57.8299 309.97 57.7799Z" fill="#6A371B"/>
</svg>
