<svg width="289" height="61" viewBox="0 0 289 61" fill="none" xmlns="http://www.w3.org/2000/svg">
<path d="M8.42679 60.3155C6.55781 60.3155 4.7954 59.5777 3.32809 58.176C3.18054 58.0366 3.04939 57.8809 2.92643 57.7169C2.06572 56.5529 1.63125 55.1184 1.63125 53.4707C1.63125 53.4134 1.63125 53.356 1.63125 53.2986C1.72962 51.3149 2.82805 49.6508 4.72981 48.618C4.92655 48.5114 5.13968 48.4212 5.35281 48.3557C5.57414 48.2901 5.78728 48.2163 6.0004 48.1507C5.45119 47.0687 5.15609 45.7653 5.15609 44.2816V28.8134C3.54123 28.4855 2.16408 27.4936 1.205 25.9525C0.39347 24.6082 0 23.2474 0 21.8621C0 19.8046 0.934489 18.0012 2.63952 16.788C2.84445 16.6404 3.06577 16.5175 3.29529 16.4191C4.10682 16.0748 4.92656 15.7223 5.74629 15.3781C4.23799 15.1895 3.18873 14.5583 2.50836 13.9763C1.52469 13.2058 0.45084 11.7385 0.45084 9.04158C0.45084 6.81193 1.13121 5.12329 2.47557 4.01666C3.50842 3.13135 4.88557 2.69688 6.68077 2.69688H16.3208C17.9602 2.69688 19.321 3.13134 20.362 3.98386C20.8293 4.32814 21.3129 4.81998 21.6982 5.51674C21.9359 5.22984 22.1654 4.95114 22.3867 4.68063C23.3868 3.38546 24.0918 2.47555 24.5016 1.95093C24.6574 1.75419 24.8377 1.56568 25.0345 1.40993C25.9935 0.622993 27.2477 0.155739 28.7724 0.0163855C28.879 0.00818826 28.9855 0 29.0921 0C30.502 0 31.8874 0.483632 33.1087 1.40173C33.6989 1.82798 34.199 2.31162 34.5843 2.86084H50.6017C52.7494 2.86084 54.5282 3.37727 55.889 4.40193C55.9545 4.45111 56.0201 4.50848 56.0857 4.56586C57.7087 5.98398 58.5695 7.93495 58.5695 10.222C58.5695 10.9434 58.4711 11.5745 58.2826 12.1647C57.717 13.9517 56.9218 15.665 55.9463 17.2224C55.8808 17.37 55.8152 17.5094 55.7414 17.6487C56.848 18.3045 58.3481 19.7554 58.3481 22.7802C58.3481 24.4114 57.7087 25.9525 56.4464 27.3543C56.43 27.3789 56.4054 27.3952 56.389 27.4198C55.5939 28.256 54.6676 28.8626 53.6429 29.215V44.298C53.6429 45.4702 53.4544 46.5359 53.1019 47.4703C56.2496 48.1589 57.3972 50.5607 57.3972 52.5363C57.3972 53.8642 57.1595 55.061 56.6759 56.0775C56.6513 56.1349 56.6267 56.184 56.5939 56.2414C55.9709 57.4218 55.1266 58.3399 54.0774 58.9629C52.8724 59.7417 51.3149 60.1105 49.2 60.1105C47.7819 60.1105 45.8473 59.799 43.2652 59.1679C43.175 59.1433 43.093 59.1187 43.0028 59.0941C39.2649 57.8563 35.945 56.5611 33.1333 55.2414C33.0186 55.184 32.912 55.1266 32.8055 55.061C31.6988 54.3888 30.8299 53.5691 30.2151 52.6183C30.043 52.3641 29.8872 52.0936 29.7561 51.8149H29.4856C29.0921 52.5773 28.5101 53.2494 27.7723 53.7986C26.6821 54.6593 25.1738 55.4299 23.0343 56.225C20.7883 57.1841 17.8291 58.2662 14.2223 59.4302C12.5008 60.0122 10.5499 60.3155 8.42679 60.3155Z" fill="#6C381C"/>
<path d="M96.3425 59.6434C95.0228 59.6434 93.785 59.5778 92.6538 59.4549C91.4242 59.3073 90.3339 59.0532 89.3667 58.7007C89.0224 58.5777 88.7027 58.3974 88.4158 58.1679C88.1453 57.9547 87.8911 57.7334 87.6452 57.5039C86.6206 58.1843 85.1533 58.6925 83.0548 58.6925C81.5957 58.6925 80.2021 58.1679 78.8988 57.1268C78.6201 57.4383 78.3167 57.717 77.9889 57.9793C77.1445 58.7991 75.7182 59.6434 73.423 59.6434C71.0868 59.6434 69.3735 59.0614 68.1931 57.881C67.0865 58.6761 65.7339 59.1352 64.2092 59.1925C64.1601 59.1925 64.1109 59.1925 64.0699 59.1925C63.947 59.1925 63.8322 59.1843 63.7092 59.1761C61.8812 58.9876 60.2746 58.2744 58.9302 57.0612C58.8892 57.0203 58.8483 56.9793 58.7991 56.9383C57.5203 55.6595 56.8317 53.9217 56.7743 51.774C56.7662 51.4953 56.7907 51.2248 56.8481 50.9543C57.2088 49.241 58.3072 45.2244 60.2172 38.6994C60.5615 37.4698 60.8976 36.4123 61.2173 35.5188C61.8812 33.4941 62.9305 32.3137 64.0043 31.6251C62.7911 30.7316 61.455 29.8217 60.0368 28.9364C59.4794 28.6823 59.0122 28.3462 58.6269 27.9446C57.2744 26.7969 56.5366 25.1165 56.5366 23.1492C56.5366 21.2966 57.1924 19.5669 58.4466 18.1406C59.4057 16.9028 60.7336 16.0913 62.2911 15.7798C61.8566 15.4929 61.4222 15.2142 60.9713 14.9355C60.5615 14.6896 60.2008 14.4109 59.8975 14.1076C58.4302 12.9927 57.6023 11.2713 57.6023 9.26298C57.6023 7.37761 58.299 5.63159 59.6188 4.18887C60.873 2.64779 62.7583 1.80347 64.9552 1.80347C65.9307 1.80347 66.9635 2.02481 68.0128 2.45926C68.0538 2.47566 68.0866 2.49205 68.1275 2.50844C70.0375 3.37735 71.8819 4.43478 73.6197 5.66437C75.2182 3.75441 77.7839 2.70517 81.0956 2.70517H110.237C110.286 2.70517 110.335 2.70517 110.376 2.70517C114.016 2.85272 116.409 5.2955 116.623 9.07444C116.631 9.1974 116.631 9.32857 116.623 9.45153C116.442 13.0173 114.598 14.9437 112.483 15.7388C113.426 17.0996 113.942 18.862 113.942 20.9277V34.2073C113.942 36.6336 113.237 38.6256 111.958 40.0601C113.081 41.3553 114.196 43.3144 115.442 46.1425C116.401 48.4459 116.86 50.3149 116.86 51.9134C116.86 54.2988 115.852 55.7333 114.967 56.5366C114.073 57.3973 112.532 58.3892 110.139 58.4794C110.098 58.4794 110.057 58.4794 110.016 58.4794C108.261 58.4794 106.884 58.1105 105.786 57.3564C104.868 56.7416 104.179 55.8071 103.81 54.6758C102.646 57.6105 100.121 59.3975 96.5802 59.6516C96.5147 59.6434 96.4245 59.6434 96.3425 59.6434Z" fill="#6C381C"/>
<path d="M125.426 58.471C119.491 58.471 115.942 54.9298 115.942 48.9868V11.722C115.942 5.78722 119.483 2.23779 125.426 2.23779H162.912C168.847 2.23779 172.396 5.77902 172.396 11.722V48.9868C172.396 54.9216 168.855 58.471 162.912 58.471H125.426ZM131.533 44.5521C131.312 44.3144 131.115 44.0685 130.935 43.7979V44.5521H131.533ZM145.534 33.1743V28.0428H143.255V33.1743H145.534ZM130.927 17.4191C131.246 16.9519 131.623 16.5338 132.05 16.165H130.927V17.4191ZM156.74 16.165C156.977 16.3699 157.207 16.5994 157.412 16.8371V16.165H156.74Z" fill="#6C381C"/>
<path d="M223.826 59.8729C221.826 59.8729 219.605 58.9302 216.834 56.9054C216.801 56.8809 216.76 56.8563 216.728 56.8235C215.613 55.9382 214.465 54.9135 213.301 53.7577C211.949 55.0693 210.506 56.2825 208.965 57.3973C207.801 58.4711 205.833 59.6515 202.809 59.6515C200.62 59.6515 199.161 59.004 198.194 58.2416C197.177 59.0285 195.71 59.6515 193.611 59.6515C191.357 59.6515 189.439 58.758 188.185 57.1186C187.07 55.889 186.48 54.3151 186.48 52.5281V46.7326C181.742 48.2163 179.832 48.3885 178.815 48.3885C174.176 48.3885 171.298 45.3391 171.298 40.4208C171.298 38.1829 172.331 36.3467 174.159 35.1663V10.4433C174.159 8.29567 174.782 6.59884 176.02 5.40204C177.225 4.16425 178.996 3.54124 181.283 3.54124C183.594 3.54124 185.357 4.18063 186.537 5.44301C186.627 5.53318 186.717 5.63155 186.799 5.72172C187.193 4.41015 187.898 3.49206 188.562 2.87726C189.463 1.90179 191.037 0.852539 193.611 0.852539C195.603 0.852539 197.366 1.51652 198.718 2.7789C199.464 3.45927 200.317 4.5577 200.677 6.22994C200.776 5.93484 200.874 5.64794 200.972 5.36104C201.669 2.7707 203.719 1.09027 206.489 0.860744C206.588 0.852547 206.686 0.852539 206.776 0.852539C208.571 0.852539 210.219 1.2624 211.67 2.08213C214.416 3.6642 214.908 5.90205 214.965 7.09885C214.965 7.14804 214.965 7.19722 214.965 7.2546C214.965 7.5743 214.949 7.90219 214.916 8.25467H224.31C226.687 8.25467 228.482 8.91045 229.663 10.2056C230.819 11.4188 231.384 13.1157 231.384 15.3863C231.384 17.4356 230.958 19.0095 230.097 20.1899C230.032 20.2801 229.966 20.3621 229.892 20.444C229.122 21.3129 228.138 21.9195 226.958 22.272C226.359 28.3626 224.941 34.2154 222.736 39.7158C222.728 39.7486 222.712 39.7732 222.695 39.806C222.507 40.2322 222.318 40.6585 222.13 41.0847C223.925 43.0193 225.876 44.8391 227.95 46.5113C229.999 47.6261 231.163 49.6509 231.163 52.151C231.163 53.9462 230.597 55.6267 229.515 57.0284C228.319 58.8564 226.302 59.8729 223.826 59.8729ZM200.866 45.5522C202.153 44.4538 203.341 43.3226 204.432 42.1504C203.128 40.0109 201.932 37.9124 200.866 35.8549V45.5522ZM210.227 22.6081C210.94 24.0836 211.637 25.4689 212.309 26.7559C212.539 25.4607 212.727 24.0754 212.867 22.6081H210.227Z" fill="#6C381C"/>
<path d="M263.444 59.2007C258.452 59.2007 254.263 58.922 250.984 58.3646C247.312 57.717 243.918 56.5366 240.861 54.8316C240.639 55.307 240.426 55.7578 240.205 56.1841C240.172 56.2497 240.131 56.3234 240.09 56.389C239.459 57.4383 237.91 59.2007 234.639 59.2007C232.958 59.2007 231.335 58.5367 229.827 57.2252C228.868 56.3808 227.729 54.8561 227.729 52.2986C227.729 52.0199 227.761 51.7412 227.827 51.4625C227.983 50.8149 228.294 50.2575 228.712 49.6591C229.475 48.0852 230.212 46.1507 230.901 43.88C231.499 41.7651 232.049 39.6338 232.524 37.6091C232.532 37.5599 232.573 37.4205 232.581 37.4042C232.073 37.1418 231.663 36.8386 231.344 36.5517C230.384 35.7401 229.302 34.2236 229.302 31.5103C229.302 28.8134 230.376 27.3133 231.352 26.51C231.696 26.1985 232.073 25.9444 232.499 25.7313C231.876 24.5836 231.54 23.1901 231.54 21.5916V9.99252C231.54 5.21351 234.532 2.24609 239.344 2.24609H251.837C253.648 2.24609 255.198 2.66415 256.435 3.44289C257.411 2.78711 258.649 2.46741 260.19 2.46741H281.929C283.626 2.46741 285.011 2.91826 286.036 3.80357C287.044 4.57411 288.101 6.04963 288.101 8.81211C288.101 9.97612 287.987 11.6647 286.978 12.9681C286.61 13.4272 286.109 13.9108 285.445 14.3125C286.15 15.4437 286.536 16.8454 286.536 18.4521V35.486C286.536 37.4369 286.019 39.0682 285.077 40.2978C285.552 40.5109 286.118 40.8306 286.609 41.3389C287.355 42.0274 288.11 43.1996 288.11 45.126C288.11 46.0523 287.896 46.9376 287.495 47.7163C288.356 48.823 288.856 50.1263 288.987 51.5854C289.003 51.7658 289.003 51.9461 288.995 52.1183C288.872 54.0446 288.331 55.6185 287.38 56.7825C287.323 56.8481 287.265 56.9219 287.2 56.9874C285.872 58.3892 283.954 59.1351 281.511 59.1925C281.478 59.1925 281.453 59.1925 281.421 59.1925H263.444V59.2007Z" fill="#6C381C"/>
<path d="M16.3292 14.6895C17.4522 14.6895 18.3294 15.0666 18.9605 15.8126C19.4442 16.4519 19.6901 17.1979 19.6901 18.0504C19.6901 18.9849 19.2229 19.7309 18.2884 20.2883C15.4849 21.8949 12.083 23.4606 8.09096 24.9935C7.53355 25.2148 6.96795 25.3706 6.41053 25.4443C5.47604 25.4443 4.73008 24.9935 4.17267 24.1C3.72182 23.3541 3.50049 22.6081 3.50049 21.8621C3.50049 20.9277 3.89396 20.1817 4.6809 19.6243C8.51722 17.9849 12.4027 16.3372 16.3292 14.6895ZM6.68924 6.17259H16.3292C17.1899 6.17259 17.8211 6.36112 18.231 6.73C18.7556 7.06608 19.0179 7.82842 19.0179 9.02522C19.0179 10.0335 18.8868 10.7057 18.6245 11.0418C18.1408 11.6402 17.3703 11.9353 16.3292 11.9353H6.68924C5.86951 11.9353 5.21372 11.7139 4.73008 11.2631C4.20545 10.8942 3.94315 10.14 3.94315 9.02522C3.94315 7.86941 4.20545 7.08247 4.73008 6.67261C5.09896 6.34472 5.75475 6.17259 6.68924 6.17259ZM29.1006 3.48389C29.7727 3.48389 30.4285 3.72979 31.0597 4.21343C31.8056 4.73806 32.1827 5.39385 32.1827 6.17259C32.1827 6.24636 32.1827 6.30374 32.1827 6.34472H50.6184C52.0037 6.34472 53.0612 6.62343 53.8153 7.18904C54.676 7.93499 55.1023 8.94326 55.1023 10.2138C55.1023 10.5499 55.0613 10.8286 54.9875 11.0582C54.4629 12.7058 53.7579 14.2141 52.8562 15.5994C52.5529 16.3864 52.0939 16.9274 51.4545 17.2225C51.0446 17.4848 50.2987 17.616 49.2167 17.616C48.4707 17.616 47.7575 17.2799 47.0854 16.6077C46.7083 16.3126 46.528 15.6732 46.528 14.7059C46.528 14.5584 46.6181 14.3535 46.8067 14.0912C47.8559 12.7058 48.3723 11.9271 48.3723 11.7385C48.3723 11.591 48.151 11.5172 47.7002 11.5172H40.9784V12.7468C40.9784 14.2797 41.7817 15.583 43.3884 16.6733C45.2164 17.9848 48.6756 19.2718 53.7579 20.5424C54.5039 20.8457 54.8809 21.5916 54.8809 22.7802C54.8809 23.5262 54.5449 24.2721 53.8727 25.0181C53.2005 25.7313 52.3972 26.0837 51.4627 26.0837C50.9381 26.0837 50.438 26.051 49.9462 25.969C50.0938 26.4936 50.1675 27.0674 50.1675 27.7068V44.2899C50.1675 46.9786 48.8232 48.3229 46.1345 48.3229H42.9949C45.2328 49.1836 47.4952 49.8394 49.7741 50.2821C50.4872 50.3968 51.1922 50.5608 51.9054 50.7903C53.2497 50.9379 53.9219 51.5199 53.9219 52.5281C53.9219 53.3478 53.7907 54.0446 53.5284 54.602C53.1923 55.2332 52.7661 55.7005 52.2414 56.0037C51.643 56.4136 50.6348 56.6185 49.2167 56.6185C48.0936 56.6185 46.3968 56.3398 44.118 55.7742C40.4948 54.5774 37.3388 53.3479 34.6501 52.0773C33.9779 51.6674 33.4697 51.2002 33.1336 50.6755C32.7975 50.1919 32.6254 49.6263 32.6254 48.9951C32.6254 48.8066 32.6828 48.5852 32.7975 48.3229H26.4692C26.584 48.618 26.6414 48.9213 26.6414 49.2164C26.6414 49.9624 26.3217 50.5608 25.6905 51.0116C24.9036 51.6428 23.6002 52.2986 21.764 52.9708C19.5999 53.9053 16.7227 54.9545 13.1323 56.1103C11.7469 56.594 10.1813 56.8399 8.42705 56.8399C7.45158 56.8399 6.55808 56.4464 5.73835 55.6595C5.32849 55.1021 5.12356 54.3725 5.12356 53.4708C5.15635 52.7248 5.59081 52.1264 6.41053 51.6756C10.4436 50.405 13.7307 49.282 16.2718 48.3147H12.6814C9.99273 48.3147 8.64837 46.9704 8.64837 44.2817V27.6986C8.64837 24.9689 9.99273 23.6082 12.6814 23.6082H22.0919C21.9771 23.3868 21.9197 23.1819 21.9197 22.9934C21.9197 21.8703 22.2722 21.0506 22.9854 20.526C27.1332 19.1816 29.9531 18.0258 31.445 17.0504C33.0106 15.8536 33.7976 14.3944 33.7976 12.6812V11.5008H29.8219C29.7809 11.5746 29.7481 11.632 29.7071 11.6729C28.289 13.837 26.7971 15.4273 25.2232 16.4356C24.7396 16.8864 24.1576 17.1241 23.4854 17.1651C22.51 17.1651 21.5837 16.788 20.682 16.0421C20.0098 15.4437 19.6737 14.6813 19.6737 13.7469C19.6737 13.4518 19.8786 13.0173 20.2885 12.4599C20.8131 11.9353 21.3378 11.3614 21.8542 10.7221C23.01 9.37771 24.092 8.09074 25.1003 6.85295C26.1086 5.54959 26.8217 4.63149 27.2316 4.10686C27.666 3.76258 28.2808 3.55766 29.1006 3.48389ZM15.821 30.7726H42.9949V29.0347C42.9949 28.4036 42.6752 28.0839 42.044 28.0839H16.7719C16.1325 28.0839 15.821 28.4036 15.821 29.0347V30.7726ZM15.821 37.3304H42.9949V34.863H15.821V37.3304ZM42.044 43.8308C42.6752 43.8308 42.9949 43.5111 42.9949 42.8799V41.3634H15.821V42.8799C15.821 43.5193 16.1407 43.8308 16.7719 43.8308H42.044ZM31.3466 23.6H44.1753C41.9703 22.5179 39.9701 21.2309 38.1831 19.7308C37.8798 19.4685 37.6011 19.3374 37.3388 19.3374C37.1503 19.3374 36.9863 19.4522 36.8306 19.6735C35.0026 21.2883 33.1746 22.5917 31.3466 23.6Z" fill="white"/>
<path d="M63.7915 19.116C64.3899 19.116 64.9719 19.2636 65.5293 19.5669C67.9229 20.6161 70.128 21.9605 72.1445 23.5999C73.0052 24.3459 73.4314 25.1656 73.4314 26.0673C73.4314 27.1166 73.1691 28.0101 72.6445 28.756C71.9313 29.9118 70.9477 30.5102 69.6771 30.5512C69.1525 30.5512 68.6688 30.4364 68.218 30.2151C67.8409 30.1004 67.472 29.8954 67.095 29.6003C65.4473 28.3298 63.6357 27.0756 61.6602 25.846C61.3569 25.7312 61.1765 25.6001 61.1028 25.4525C60.3896 24.9689 60.0371 24.1983 60.0371 23.1573C60.0371 22.108 60.4142 21.1735 61.1601 20.3538C61.7503 19.5341 62.6275 19.116 63.7915 19.116ZM67.2097 34.1908C68.218 34.1908 69.0951 34.3957 69.841 34.8056C70.7755 35.2892 71.2428 36.2073 71.2428 37.5517C71.2428 38.3714 71.0952 39.2485 70.7919 40.183C70.0788 43.4291 69.464 46.126 68.9394 48.2491C68.3819 50.3394 67.9475 51.8395 67.6524 52.733C67.095 54.6348 65.8982 55.6266 64.062 55.7004C62.9799 55.5857 62.0455 55.1758 61.2585 54.4708C60.6191 53.8314 60.283 52.9052 60.2502 51.6674C60.5863 50.0607 61.6848 46.0604 63.5537 39.6748C63.8898 38.478 64.2095 37.4697 64.5046 36.65C65.0375 35.0187 65.9391 34.1908 67.2097 34.1908ZM64.9637 5.27905C65.4883 5.27905 66.0621 5.41019 66.7015 5.67251C69.0213 6.72176 71.1854 8.06612 73.2019 9.70557C74.1364 10.4187 74.6037 11.2384 74.6037 12.1729C74.6037 13.2222 74.3413 14.1321 73.8167 14.919C73.0708 16.042 72.0379 16.6159 70.7346 16.6568C70.2099 16.6568 69.7591 16.5421 69.3902 16.3207C69.0131 16.206 68.6278 16.0011 68.2098 15.706C66.5621 14.4354 64.7505 13.1812 62.775 11.9516C62.5127 11.8041 62.3487 11.6565 62.2668 11.5008C61.4798 11.0499 61.0864 10.304 61.0864 9.26291C61.0864 8.21366 61.4798 7.27916 62.2668 6.45944C62.8734 5.6725 63.7669 5.27905 64.9637 5.27905ZM110.245 6.17255C112.073 6.24633 113.049 7.27097 113.155 9.25471C113.041 11.4188 112.073 12.5582 110.245 12.673H101.671L101.22 15.9765H105.532C108.819 15.9765 110.467 17.6241 110.467 20.9112V34.1908C110.467 37.4779 108.819 39.1255 105.532 39.1255H101.048V50.5607C101.048 54.0692 99.4824 55.9381 96.3428 56.1677C95.146 56.1677 94.0476 56.1103 93.0393 55.9955C92.1048 55.8808 91.2851 55.6922 90.5719 55.4381C90.0473 55.0282 89.6374 54.5938 89.3423 54.1511C89.08 53.5118 88.9489 52.692 88.9489 51.6838C88.9489 50.9378 89.1128 50.2492 89.4571 49.6099C89.867 49.3885 90.3014 49.2574 90.7441 49.2164H92.4819C93.4164 49.2164 93.8836 48.9951 93.8836 48.5442V39.1338H89.1784C85.8913 39.1338 84.2436 37.4943 84.2436 34.199V20.9194C84.2436 17.6323 85.8831 15.9847 89.1784 15.9847H93.6049L94.0558 12.6812H83.801C82.719 12.6812 82.1779 13.1074 82.1779 13.9681V24.0508C82.1779 36.2319 80.4811 46.0358 77.0792 53.4708C76.8169 54.2577 76.3497 54.8889 75.6775 55.3725C75.2267 55.8972 74.4807 56.1595 73.4396 56.1595C72.0543 56.1595 71.1198 55.8972 70.6362 55.3725C69.9968 54.8151 69.6853 53.938 69.6853 52.7412C69.7591 52.3314 69.9066 51.7494 70.1361 51.0034C72.6773 46.0686 74.2676 41.0519 74.8988 35.9286C75.1201 31.6332 75.2348 27.674 75.2348 24.0508V11.5008C75.2348 7.95136 77.194 6.18073 81.1205 6.18073H110.245V6.17255ZM86.4815 40.8634C87.375 40.8634 88.2193 41.1421 89.0062 41.7077C89.6784 42.1175 90.0145 42.9045 90.0145 44.0603C89.9735 44.7735 89.7932 45.5932 89.4571 46.5277C88.3751 49.7 87.3832 52.0936 86.4897 53.7003C86.0798 54.7085 84.9404 55.2168 83.0714 55.2168C82.2845 55.2168 81.4812 54.8233 80.6614 54.0364C80.022 53.5855 79.7105 52.8068 79.7105 51.6838C79.7105 51.2329 79.9155 50.7083 80.3253 50.1181C81.6697 48.1016 82.8255 45.6916 83.801 42.8881C84.1289 41.5355 85.0224 40.8634 86.4815 40.8634ZM90.9654 24.7803H103.745V22.7638C103.745 21.9769 103.368 21.5834 102.622 21.5834H92.031C91.3179 21.5834 90.9654 21.9769 90.9654 22.7638V24.7803ZM102.622 33.4612C103.368 33.4612 103.745 33.1088 103.745 32.3956V29.9282H90.9654V32.3956C90.9654 33.1088 91.3179 33.4612 92.031 33.4612H102.622ZM106.376 40.8634C107.647 40.8634 108.54 41.2568 109.065 42.0438C109.999 42.9783 111.065 44.8063 112.262 47.5359C113.008 49.3312 113.385 50.7821 113.385 51.9051C113.385 52.8396 113.123 53.5281 112.598 53.979C111.959 54.6102 111.106 54.9463 110.024 54.9873C109.016 54.9873 108.27 54.8151 107.786 54.479C107.45 54.2577 107.229 53.9216 107.114 53.4708C106.253 51.0772 105.024 48.0688 103.417 44.4456C103.343 44.1833 103.302 43.9046 103.302 43.6013C103.302 43.2652 103.376 42.8717 103.524 42.4209C103.786 41.9372 104.286 41.5438 105.04 41.2405C105.483 40.9945 105.925 40.8634 106.376 40.8634Z" fill="white"/>
<path d="M125.427 5.72998H162.913C166.913 5.72998 168.905 7.73011 168.905 11.7222V48.9869C168.905 52.9872 166.905 54.9791 162.913 54.9791H125.427C121.427 54.9791 119.435 52.979 119.435 48.9869V11.7222C119.435 7.73011 121.427 5.72998 125.427 5.72998ZM159.273 48.0361C160.355 48.0361 160.896 47.5278 160.896 46.5196V14.1896C160.896 13.1813 160.355 12.6731 159.273 12.6731H129.066C127.984 12.6731 127.443 13.1813 127.443 14.1896V46.5196C127.443 47.5278 127.984 48.0361 129.066 48.0361H159.273ZM137.534 17.8292H151.265C154.257 17.8292 155.748 19.3211 155.748 22.3131V38.8961C155.748 41.8881 154.257 43.38 151.265 43.38H137.534C134.542 43.38 133.05 41.8881 133.05 38.8961V22.3131C133.05 19.3293 134.542 17.8292 137.534 17.8292ZM147.896 36.6583C148.641 36.6583 149.019 36.2648 149.019 35.4779V25.6166C149.019 24.9034 148.641 24.5509 147.896 24.5509H140.944C140.157 24.5509 139.764 24.9034 139.764 25.6166V35.4779C139.764 36.2648 140.157 36.6583 140.944 36.6583H147.896Z" fill="white"/>
<path d="M181.299 7.01683C182.643 7.01683 183.561 7.29553 184.045 7.86114C184.569 8.34478 184.832 9.20548 184.832 10.4351V35.822C186.627 35.3384 188.34 34.8301 189.988 34.3055V7.96771C189.988 6.8119 190.34 5.93477 191.053 5.33637C191.611 4.6642 192.471 4.32812 193.627 4.32812C194.75 4.32812 195.66 4.6642 196.373 5.33637C197.045 5.93477 197.382 6.8119 197.382 7.96771V21.6407C198.652 19.698 199.808 17.5339 200.857 15.1403C202.243 12.0745 203.398 9.14811 204.333 6.34465C204.628 5.11506 205.456 4.44289 206.8 4.32812C207.997 4.32812 209.063 4.59043 209.997 5.11506C210.964 5.67247 211.473 6.38564 211.514 7.24635C211.514 8.36938 211.21 9.86128 210.62 11.7303H224.351C225.736 11.7303 226.67 12.009 227.154 12.5746C227.679 13.0992 227.941 14.0337 227.941 15.378C227.941 16.6486 227.736 17.5667 227.326 18.1241C226.728 18.7963 225.736 19.1324 224.359 19.1324H223.744C223.367 25.9279 221.965 32.3546 219.539 38.4123C219.055 39.5354 218.547 40.6174 218.022 41.6585C220.449 44.4947 223.137 47.0932 226.088 49.4459C227.17 49.9295 227.711 50.8312 227.711 52.1346C227.711 53.2166 227.375 54.1675 226.703 54.9954C226.146 55.9299 225.187 56.3971 223.842 56.3971C222.645 56.3971 221.006 55.6348 218.908 54.1019C217.112 52.6838 215.243 50.8722 213.301 48.6671C211.399 50.946 209.21 52.9625 206.743 54.7167C205.767 55.684 204.464 56.1758 202.816 56.1758C201.472 56.1758 200.537 55.8397 200.013 55.1676C199.341 54.4544 199.005 53.7494 199.005 53.0363C199.005 52.1428 199.283 51.3886 199.849 50.7984C203.357 48.2573 206.333 45.4948 208.759 42.5028C205.882 38.0189 203.546 33.7399 201.759 29.6741C201.611 29.338 201.48 28.9855 201.365 28.6084C200.841 28.9117 200.185 29.0593 199.406 29.0593C198.767 29.0593 198.095 28.8543 197.39 28.4445V52.5362C197.39 53.5035 197.144 54.2905 196.66 54.8889C196.062 55.7496 195.054 56.1758 193.635 56.1758C192.406 56.1758 191.488 55.7496 190.889 54.8889C190.291 54.2905 189.996 53.5035 189.996 52.5362V41.888C188.463 42.4864 186.971 42.9864 185.512 43.4045C182.299 44.4127 180.077 44.921 178.848 44.921C176.159 44.921 174.814 43.4291 174.814 40.4371C174.814 38.9042 175.765 37.9123 177.675 37.4697V10.4597C177.675 9.26286 177.954 8.40216 178.52 7.88574C179.02 7.29553 179.954 7.01683 181.299 7.01683ZM206.062 21.9768C208.751 27.6903 211.161 32.1906 213.292 35.4777C215.194 31.4447 216.301 25.9853 216.596 19.116H207.522C207.038 20.1324 206.546 21.0833 206.062 21.9768Z" fill="white"/>
<path d="M235.704 28.5348H254.533C255.542 28.5348 256.271 28.7561 256.722 29.2069C257.206 29.543 257.452 30.3054 257.452 31.5022C257.452 32.5105 257.304 33.2236 257.001 33.6335C256.517 34.3057 255.689 34.6417 254.533 34.6417H250.558V38.1747H254.763C255.73 38.1747 256.386 38.3961 256.722 38.8469C257.058 39.224 257.23 39.8962 257.23 40.8634C257.23 41.7979 257.099 42.4537 256.837 42.8226C256.427 43.3472 255.738 43.6095 254.763 43.6095H250.558V48.5443C253.435 49.1427 257.804 49.4378 263.673 49.4378C266.583 49.4378 270.42 49.364 275.158 49.2165C278.896 49.0689 281.306 48.9951 282.388 48.9951C283.355 48.9951 284.125 49.2575 284.683 49.7821C285.167 50.3805 285.445 51.0854 285.527 51.9134C285.453 53.1102 285.175 54.0037 284.683 54.6021C284.011 55.3152 282.929 55.6841 281.437 55.7251H263.452C258.632 55.7251 254.673 55.4628 251.574 54.9382C248.172 54.3398 245.074 53.2413 242.27 51.6347C241.262 51.0363 240.27 50.3231 239.303 49.5034C238.557 51.5199 237.827 53.2167 237.114 54.6021C236.663 55.348 235.844 55.7251 234.647 55.7251C233.827 55.7251 232.983 55.348 232.122 54.6021C231.524 54.0774 231.229 53.3151 231.229 52.3069C231.261 52.1593 231.433 51.8806 231.737 51.4625C232.63 49.6673 233.475 47.4869 234.262 44.9047C234.893 42.6669 235.458 40.4946 235.942 38.4043C236.204 37.4698 236.876 36.9698 237.958 36.8878C238.926 36.8878 239.786 37.0927 240.532 37.5026C241.319 37.9534 241.746 38.5682 241.819 39.3552C241.819 40.2159 241.631 41.4127 241.262 42.9456C241.262 42.9865 241.246 43.0193 241.205 43.0603C241.992 43.8473 242.795 44.5358 243.615 45.1342V34.6581H235.712C234.852 34.6581 234.163 34.4122 233.639 33.9286C233.081 33.4777 232.794 32.6744 232.794 31.5186C232.794 30.3628 233.073 29.5758 233.639 29.166C234.04 28.7397 234.737 28.5348 235.704 28.5348ZM239.352 5.72998H251.845C254.722 5.72998 256.156 7.14812 256.156 9.99257V21.5917C256.156 24.4279 254.722 25.8543 251.845 25.8543H239.352C236.475 25.8543 235.04 24.4361 235.04 21.5917V9.99257C235.032 7.14812 236.475 5.72998 239.352 5.72998ZM241.59 13.7387H249.607V11.2713C249.607 10.8615 249.402 10.6565 248.992 10.6565H242.213C241.803 10.6565 241.598 10.8615 241.598 11.2713V13.7387H241.59ZM248.984 20.9113C249.394 20.9113 249.599 20.7064 249.599 20.2965V17.8292H241.582V20.2965C241.582 20.7064 241.787 20.9113 242.196 20.9113H248.984ZM260.198 5.9513H281.937C282.83 5.9513 283.47 6.13985 283.839 6.50873C284.363 6.84482 284.626 7.60715 284.626 8.80396C284.626 9.81222 284.494 10.4844 284.232 10.8205C283.748 11.4189 282.978 11.714 281.937 11.714H274.543L273.535 14.6814H279.248C281.789 14.6814 283.06 15.9356 283.06 18.4357V35.4697C283.06 38.0436 281.789 39.3388 279.248 39.3388H277.789C277.863 39.3798 277.937 39.4289 278.01 39.5109C279.543 40.8225 281.355 42.1094 283.445 43.38C283.822 43.5276 284.06 43.6833 284.175 43.8309C284.47 44.0522 284.626 44.4866 284.626 45.1178C284.626 45.831 284.347 46.4048 283.781 46.8556C283.068 47.4868 282.216 47.8065 281.207 47.8065C280.683 47.8065 280.256 47.7328 279.92 47.5852C277.453 46.536 275.19 44.5768 273.141 41.6996C272.879 41.3635 272.748 40.9372 272.748 40.4126C272.748 40.0027 272.92 39.6503 273.256 39.347H268.215C268.551 39.4617 268.87 39.5929 269.165 39.7404C269.764 40.1503 270.059 40.6913 270.059 41.3635C270.059 41.8881 269.985 42.3144 269.838 42.6505C268.977 43.9948 266.903 45.5605 263.616 47.3557C262.722 47.8065 261.878 48.0279 261.091 48.0279C259.968 48.0279 259.075 47.6344 258.402 46.8475C257.952 46.3638 257.73 45.5769 257.73 44.4949C257.73 44.2325 258.025 43.8636 258.624 43.3718C260.64 42.3226 262.624 41.093 264.567 39.6749C264.862 39.5273 265.149 39.4125 265.411 39.3388H262.386C259.886 39.3388 258.632 38.0518 258.632 35.4697V18.4357C258.632 15.9356 259.886 14.6814 262.386 14.6814H267.321L268.272 11.714H260.206C259.386 11.714 258.73 11.509 258.247 11.0992C257.722 10.6893 257.46 9.91878 257.46 8.80396C257.46 7.64814 257.722 6.86121 258.247 6.45134C258.607 6.12345 259.263 5.9513 260.198 5.9513ZM265.346 21.5835H276.273V19.3456C276.273 19.0505 276.141 18.8948 275.879 18.8948H265.796C265.493 18.8948 265.346 19.0423 265.346 19.3456V21.5835ZM265.346 28.3134H276.273V25.6247H265.346V28.3134ZM275.887 35.0926C276.15 35.0926 276.281 34.945 276.281 34.6417V32.4039H265.354V34.6417C265.354 34.945 265.501 35.0926 265.805 35.0926H275.887Z" fill="white"/>
</svg>
