<svg width="306" height="64" viewBox="0 0 306 64" fill="none" xmlns="http://www.w3.org/2000/svg">
<path d="M43.7937 63.3865C39.5328 63.3865 36.2782 63.2018 33.8453 62.8133C33.7497 62.8006 33.6542 62.7815 33.5586 62.756C31.0556 62.1509 28.7309 61.2401 26.6164 60.0428C23.6993 62.1637 21.3109 63.1509 19.1582 63.1509C17.1392 63.1509 15.2921 62.1764 13.9546 60.3994C13.5852 59.9345 13.2859 59.4377 13.0502 58.9091C12.2286 61.4376 9.98671 63.0171 6.87223 63.1509C6.82128 63.1509 6.77033 63.1509 6.71938 63.1509C6.66843 63.1509 6.62384 63.1509 6.57289 63.1509C2.03174 62.9662 0.203817 59.9663 0.00637529 57.2213C6.21994e-06 57.1385 0 57.0493 0 56.9601V10.9054C0 5.81651 3.36924 4.0077 6.25443 4.0077H16.0501C17.0882 4.0077 18.0499 4.18603 18.9034 4.52996C19.9607 4.0268 21.1517 3.77204 22.4446 3.77204C23.763 3.77204 24.9922 4.31978 25.8903 5.30062C26.1068 5.49806 26.3234 5.70187 26.5336 5.93115C27.5144 5.31972 28.7372 5.00764 30.1894 5.00764H32.0938C33.0682 2.75299 34.9535 1.42822 37.2272 1.42822C38.7749 1.42822 40.1825 1.7212 41.4117 2.30079C41.5136 2.34537 41.6091 2.40269 41.7047 2.46001C42.7747 3.09055 43.5899 3.96948 44.1122 5.00764H55.0606C56.6975 5.00764 58.0477 5.42163 59.0922 6.24324C60.1431 6.98205 61.2514 8.42783 61.2514 11.2047C61.2514 12.8925 60.8883 14.2046 60.1495 15.2109C59.8693 15.5994 59.4489 16.0771 58.8502 16.5102C59.0413 17.1662 59.1432 17.8986 59.1432 18.7202C59.1432 19.5291 59.054 20.2424 58.8693 20.873C59.0094 20.9813 59.1368 21.0895 59.2515 21.2042C60.1304 21.9557 61.0221 23.3123 61.0221 25.7071C61.0221 26.7835 60.9011 28.3439 59.882 29.605C59.6018 29.9616 59.1687 30.4075 58.5572 30.7896C58.9394 31.7259 59.1432 32.7959 59.1432 33.9805V48.2345C59.1432 48.8842 59.0986 49.4956 59.0031 50.0752C59.8247 50.349 60.538 50.8203 61.1049 51.4573C61.8628 52.2215 62.6653 53.5081 62.6653 55.508C62.6653 57.527 62.3405 59.132 61.6654 60.4185C61.5634 60.6096 61.4488 60.7879 61.3214 60.9535C59.6145 63.1509 56.6656 63.4056 54.6021 63.4056H43.7937V63.3865Z" fill="#054F2B"/>
<path d="M67.8244 61.0428C65.8436 61.0428 64.194 60.4887 62.9393 59.3995C61.57 58.2276 60.8694 56.457 60.8694 54.1451C60.8694 51.7949 61.5509 50.0179 62.9011 48.8651C63.4871 48.3237 64.1813 47.9097 64.9774 47.6295C64.6271 46.7378 64.4488 45.6997 64.4488 44.5214C64.4488 42.1712 65.1558 40.4197 66.5506 39.3051C67.2194 38.7574 68.0091 38.3689 68.9326 38.1332C68.3021 36.8976 67.9645 35.4136 67.9645 33.7258V33.0889C66.022 32.9615 64.4552 32.3437 63.296 31.2546C63.2705 31.2292 63.2387 31.2037 63.2132 31.1782C62.2515 30.2165 61.0987 28.4777 61.0987 25.6944V19.1789C61.0987 14.0581 63.7036 10.7526 68.162 10.0265C68.1429 9.8673 68.1365 9.71444 68.1365 9.55522C68.1365 6.93753 69.3594 4.81663 71.5758 3.58103C73.0025 2.77852 74.582 2.36454 76.2634 2.36454C78.9002 2.36454 80.6007 3.44091 81.5561 4.34532C81.6453 4.42812 81.7281 4.51728 81.8109 4.61282C82.3586 5.24336 82.9764 6.16687 83.728 7.46616C83.9636 5.75925 84.5878 4.3708 85.6005 3.32627C86.8998 1.91234 88.8933 1.19263 91.5173 1.19263C94.2306 1.19263 96.1986 1.88049 97.517 3.28805C98.6379 4.40264 99.3067 5.90574 99.5169 7.7655C99.7398 7.47253 99.9564 7.17955 100.173 6.89931C100.905 5.75925 101.364 5.07139 101.644 4.67014C101.765 4.49817 101.899 4.33895 102.045 4.19246C103.154 3.08424 104.625 2.39002 106.306 2.1671C106.459 2.14799 106.618 2.13525 106.771 2.13525C108.485 2.13525 110.147 2.7212 111.593 3.82942C114.414 5.60002 114.841 8.02027 114.841 9.31956C114.841 9.55521 114.828 9.79087 114.809 10.0265C119.274 10.7462 121.879 14.0581 121.879 19.1789V25.2231C121.879 28.2484 120.63 29.9171 119.471 30.8152C118.599 31.6049 117.191 32.4456 115.077 32.6176V33.7322C115.077 35.42 114.739 36.904 114.108 38.1396C115.064 38.3816 115.866 38.7892 116.548 39.3625C117.86 40.4579 118.535 42.1967 118.535 44.5278C118.535 45.6296 118.363 46.6168 118.025 47.483C119.076 47.7696 119.981 48.2664 120.719 48.9734C122.586 50.6484 122.586 53.2725 122.586 54.1514C122.586 55.9348 122.14 57.4251 121.255 58.5779C121.204 58.648 121.146 58.7117 121.089 58.7754C120.172 59.8072 118.484 61.0428 115.688 61.0428H67.8244Z" fill="#054F2B"/>
<path d="M164.309 63.6223C154.042 63.6223 145.476 62.5395 138.852 60.3932C138.578 60.304 138.311 60.183 138.062 60.0301C136.788 59.2404 134.648 57.3296 134.648 53.3808C134.648 51.935 135.056 50.5211 135.871 49.1709C135.935 49.0626 136.005 48.9607 136.082 48.8588C134.292 47.6359 133.47 45.7698 133.324 43.8973C133.196 43.9418 133.069 43.9801 132.935 44.0183C131.674 44.7189 130.228 45.0755 128.636 45.0755C127.171 45.0755 125.012 44.496 123.05 41.7381C122.942 41.5853 122.847 41.4324 122.764 41.2668C122.12 39.9803 121.796 38.5472 121.796 37.0059C121.796 35.6047 122.286 32.9934 125.585 31.2356C125.821 31.1082 126.069 31.0126 126.33 30.9426C127.566 30.605 128.808 30.2292 130.069 29.8216H129.101C126.713 29.8216 125.171 28.9236 124.28 28.1274C122.904 26.9746 122.203 25.2104 122.203 22.8666C122.203 20.4909 122.923 18.7012 124.343 17.5548C124.897 17.0898 125.541 16.7332 126.254 16.4784C125.592 15.4466 125.254 14.1346 125.254 12.5423C125.254 9.74631 126.407 8.26869 127.432 7.5044C128.566 6.61273 130.056 6.17963 131.973 6.17963H142.724C142.935 4.96951 143.521 3.52373 144.909 2.13528C144.973 2.07158 145.03 2.01426 145.1 1.95694C146.374 0.848724 148.151 0.313721 150.514 0.313721C152.807 0.313721 154.545 0.855092 155.826 1.97605C157.15 3.03331 157.985 4.49183 158.252 6.17963H165.296C166.812 6.17963 168.067 6.44713 169.099 6.99487C170.061 6.07773 170.971 5.16695 171.812 4.26254C171.869 4.19885 171.927 4.14153 171.99 4.08421C173.207 2.95688 174.767 2.35819 176.5 2.35819C178.315 2.35819 179.971 2.97599 181.296 4.14153C182.875 5.56184 183.69 7.3388 183.69 9.31321C183.69 11.0774 183.117 12.7461 181.99 14.2747C181.913 14.383 181.831 14.4785 181.741 14.5741C181.226 15.1345 180.697 15.6887 180.143 16.2491C181.289 16.5103 182.245 16.9879 183.002 17.6822C184.811 19.3318 184.811 21.9877 184.811 22.8602C184.811 24.6882 184.359 26.1976 183.474 27.3504C182.856 28.1466 181.856 29.0382 180.289 29.5032C180.837 30.5222 181.117 31.7578 181.117 33.1909C181.117 35.1462 180.71 36.6429 179.869 37.7639C179.843 37.8021 179.812 37.8339 179.786 37.8721C179.302 38.4708 178.563 39.1332 177.468 39.5918C178.493 40.993 179.009 42.7954 179.009 44.9864C179.009 48.0626 178.512 51.1007 177.525 54.005C176.251 57.5717 174.602 59.9473 172.468 61.3103C170.264 62.8516 167.519 63.6223 164.309 63.6223Z" fill="#054F2B"/>
<path d="M230.344 62.9216C225.446 62.9216 222.274 59.9345 221.854 55.043C220.115 57.5397 217.956 59.6542 215.408 61.3675C214.497 62.1254 213.026 62.9216 210.867 62.9216C208.676 62.9216 207.186 62.2783 206.192 61.514C205.644 61.6286 205.033 61.6923 204.358 61.6923H191.919C187.55 61.6923 184.728 58.9154 184.728 54.6227V43.8271C184.728 41.9992 185.219 40.4451 186.117 39.2541C185.391 38.1905 185.021 36.8147 185.021 35.146C185.021 33.5092 185.352 32.159 186.015 31.1208C185.352 30.0763 185.021 28.7579 185.021 27.1656C185.021 25.9619 185.2 24.9173 185.556 24.032C184.232 22.8219 183.556 21.0322 183.556 18.7139C183.556 16.3509 184.289 14.5485 185.735 13.3575C185.754 13.3447 185.773 13.3256 185.792 13.3129C185.282 12.3448 185.028 11.1729 185.028 9.79715C185.028 7.46608 185.696 5.70185 187.028 4.55541C188.11 3.60005 189.562 3.13511 191.454 3.13511H204.829C206.619 3.13511 208.09 3.61279 209.192 4.55541C210.402 5.53625 210.88 6.91197 211.071 8.04566C211.975 7.37691 213.09 6.96292 214.357 6.84828C214.465 6.84191 214.574 6.83554 214.682 6.83554C215.039 6.83554 215.389 6.85465 215.733 6.89286C216.09 5.89929 216.625 5.16684 217.128 4.65095C217.956 3.70196 219.44 2.67017 221.956 2.67017H231.344C234.974 2.67017 237.974 4.55541 239.808 7.98197C239.827 8.02019 239.846 8.0584 239.865 8.09661C240.814 10.0392 242.445 12.8607 244.706 16.4783C245.712 18.0005 246.215 19.6246 246.215 21.3061C246.215 22.6117 245.795 24.5288 243.833 26.2994C243.222 26.93 242.324 27.6051 241.05 28.0254V36.7956C241.05 38.4134 240.693 39.8146 240.037 40.9546C241.407 41.0693 242.61 41.5024 243.617 42.2603C244.598 42.9545 246.113 44.4958 246.215 47.4638C246.215 47.502 246.215 47.5466 246.215 47.5848C246.215 51.6292 245.808 54.6481 244.98 56.8072C243.133 61.4949 240.177 62.7177 238.018 62.9152C237.91 62.9279 237.795 62.9279 237.681 62.9279H230.344V62.9216ZM211.396 43.0118C211.421 43.273 211.427 43.5468 211.427 43.8207V44.9544C211.644 44.4958 211.841 43.9736 212.013 43.3876C211.797 43.273 211.593 43.1456 211.396 43.0118ZM226.732 30.5858V28.8343H222.745V30.5858H226.732Z" fill="#054F2B"/>
<path d="M294.926 62.9217C291.754 62.8771 288.251 62.3676 284.513 61.3995C284.372 61.3613 284.232 61.3167 284.099 61.2657C282.564 60.667 281.322 59.7053 280.404 58.4188C279.92 59.4442 279.233 60.3295 278.373 61.0301C277.468 61.9663 275.933 62.9217 273.443 62.9217C272.462 62.9217 269.577 62.9217 267.711 61.1001C266.736 60.2785 265.698 58.9219 265.393 56.7628H255.603C250.629 56.7628 247.534 53.6929 247.534 48.7505V12.3768C247.534 7.36432 250.623 4.24984 255.603 4.24984H267.042C269.698 4.24984 271.819 5.13514 273.214 6.72741C274.889 4.41544 277.704 3.13525 281.417 3.13525H295.499C301.582 3.13525 305.212 6.82931 305.212 13.0264V51.572C305.212 55.4444 304.359 58.1322 302.607 59.7499C301.378 61.2912 299.098 62.9281 294.971 62.9281C294.958 62.9217 294.939 62.9217 294.926 62.9217ZM288.117 46.5596C288.971 46.7888 289.767 46.9544 290.487 47.0563V45.0819H284.557C284.481 45.4641 284.404 45.8398 284.321 46.2093C284.685 46.1392 285.079 46.0882 285.5 46.0755C285.551 46.0755 285.595 46.0755 285.646 46.0755C286.481 46.0755 287.309 46.2411 288.117 46.5596Z" fill="#054F2B"/>
<path d="M16.0437 7.62564C17.5277 7.62564 18.5277 8.19249 19.0372 9.32618C19.1964 8.74023 19.5849 8.26892 20.2091 7.91862C20.8333 7.56832 21.5785 7.38998 22.4383 7.38998C22.7886 7.38998 23.0816 7.54921 23.3172 7.86129C24.0242 8.44725 24.7248 9.32618 25.4317 10.5045C27.1514 13.4788 28.0112 15.6698 28.0112 17.0773C28.0112 17.8225 27.7374 18.3703 27.1896 18.7206C26.7183 19.1919 25.9158 19.4275 24.7821 19.4275C23.8013 19.4275 23.0816 18.9371 22.6102 17.9626C21.553 15.5806 20.4957 13.4088 19.4448 11.4534C19.4066 11.4152 19.3875 11.377 19.3875 11.3388C19.3875 11.377 19.3875 11.4152 19.3875 11.4534C19.3875 15.4405 18.6041 20.6822 17.0437 27.1787C18.3366 30.618 19.1327 33.9235 19.4512 37.0953C19.5722 36.8215 19.706 36.5667 19.8652 36.331C20.1391 35.8215 20.6868 35.5667 21.5084 35.5667H25.9094C28.2978 35.5667 29.4889 36.7641 29.4889 39.1462V49.2348C29.4889 50.4449 30.234 51.3493 31.718 51.9353C32.8135 52.5976 35.1828 53.0881 38.8195 53.4001C42.4181 53.5976 46.9719 53.6931 52.4876 53.6931C55.067 53.4957 56.6338 53.4001 57.1816 53.4001C57.7675 53.4001 58.2006 53.5785 58.4745 53.9288C58.863 54.2791 59.0604 54.8077 59.0604 55.5147C59.0604 56.9222 58.863 57.9986 58.4745 58.7438C57.9267 59.4508 56.6338 59.8011 54.6021 59.8011H43.8065C39.7749 59.8011 36.6477 59.6227 34.4185 59.2724C31.839 58.6483 29.508 57.6674 27.438 56.3363C27.1259 55.9414 26.8712 55.7503 26.6737 55.7503C26.2024 55.7503 25.7375 56.0242 25.2662 56.5719C22.6867 58.5655 20.6486 59.5654 19.1646 59.5654C18.2665 59.5654 17.4831 59.1132 16.8144 58.2152C16.3049 57.591 16.0501 56.8458 16.0501 55.986C16.0501 55.0497 17.6742 53.8332 20.9161 52.3492C21.9351 51.7251 22.4447 50.999 22.4447 50.1774V42.4135C22.4447 42.2606 21.9542 42.1778 20.9798 42.1778C20.3938 42.1778 19.9225 41.9422 19.5722 41.4772C19.4512 44.4134 18.9671 46.5789 18.1073 47.9864C17.0883 50.0182 15.4642 51.0372 13.235 51.0372C12.0249 51.0372 10.8657 50.8589 9.77658 50.5086V56.9605C9.65556 58.6037 8.64288 59.4635 6.72579 59.5399C4.77048 59.4635 3.73232 58.6037 3.61768 56.9605V10.9057C3.61768 8.71475 4.49662 7.61927 6.26086 7.61927H16.0437V7.62564ZM9.76384 43.7064C10.1524 43.7829 10.5281 43.8211 10.8784 43.8211C11.9739 43.8211 12.7127 43.1969 13.1076 41.9422C13.3433 41.1206 13.4579 39.7703 13.4579 37.8915C13.4579 35.5031 12.77 32.7835 11.4071 29.739C11.0568 28.841 10.8784 28.0576 10.8784 27.3952C10.8784 26.6883 11.0122 26.0641 11.286 25.5164C12.579 21.8796 13.2222 18.4212 13.2222 15.1348C13.2222 14.8609 13.1458 14.7208 12.9866 14.7208H9.76384V43.7064ZM22.4383 21.765C22.7886 21.765 23.0816 21.9242 23.3172 22.2363C23.9796 22.784 24.6484 23.6247 25.3107 24.7584C26.954 27.65 27.7756 29.7836 27.7756 31.153C27.7756 31.9364 27.5017 32.465 26.954 32.7389C26.4826 33.2102 25.6801 33.4458 24.5465 33.4458C23.5656 33.4458 22.865 32.9936 22.4319 32.0956C21.3746 29.7072 20.3556 27.5799 19.3811 25.7011C19.069 25.268 18.9098 24.8221 18.9098 24.3508C18.9098 23.4528 19.3429 22.7458 20.2027 22.2363C20.8333 21.9178 21.5785 21.765 22.4383 21.765ZM30.1831 8.61921H34.6988C34.8962 7.99504 35.0873 7.37087 35.2847 6.74034C35.6732 5.60664 36.3229 5.03979 37.2209 5.03979C38.2399 5.03979 39.1189 5.21813 39.8577 5.56843C40.7175 6.07795 41.1506 6.84224 41.1506 7.85492C41.1506 8.09058 41.1315 8.34534 41.0933 8.61921H55.0543C55.9141 8.61921 56.5383 8.79755 56.9332 9.14785C57.4045 9.42172 57.6401 10.1096 57.6401 11.1987C57.6401 12.0967 57.5064 12.7209 57.2325 13.0776C56.7994 13.7017 56.0797 14.0138 55.0607 14.0138H39.3991C39.0488 14.7972 38.6539 15.5806 38.2272 16.364C38.2654 16.364 38.3037 16.364 38.3482 16.364H53.3665C54.1117 16.364 54.6403 16.5232 54.9524 16.8353C55.3409 17.1092 55.5383 17.7334 55.5383 18.7142C55.5383 19.4976 55.4237 20.0262 55.188 20.3001C54.8377 20.7714 54.2327 21.0071 53.3665 21.0071H48.9655V23.3509H55.3027C56.0097 23.3509 56.5128 23.5292 56.8249 23.8795C57.2134 24.1534 57.4109 24.7584 57.4109 25.7011C57.4109 26.5227 57.2898 27.0704 57.0605 27.3443C56.7103 27.8156 56.1243 28.0512 55.3027 28.0512H33.4186C32.7944 28.0512 32.304 27.8729 31.9537 27.5226C31.5588 27.2105 31.3677 26.6055 31.3677 25.7011C31.3677 25.6628 31.3677 25.6246 31.3677 25.58C30.8582 26.0131 30.234 26.2233 29.4889 26.2233C28.3934 26.2233 27.5909 25.8921 27.0813 25.2297C26.4572 24.7584 26.1451 24.0578 26.1451 23.1152C26.1451 22.5675 26.419 22.0197 26.9667 21.472C29.4315 18.6187 31.113 16.3513 32.011 14.6635C32.1256 14.466 32.2467 14.2558 32.3613 14.0202H30.1894C29.406 14.0202 28.7819 13.7845 28.3106 13.3196C27.8393 12.9311 27.6036 12.2241 27.6036 11.2051C27.6036 10.1478 27.8393 9.44719 28.3106 9.09052C28.6927 8.77844 29.3233 8.61921 30.1831 8.61921ZM51.3029 30.153C54.118 30.153 55.5256 31.4268 55.5256 33.9681V48.2221C55.5256 49.8653 55.118 51.0372 54.2964 51.7442C53.4366 52.4066 52.1819 52.7441 50.545 52.7441H48.9018C48.3922 52.7441 47.8254 52.6868 47.2012 52.5658C46.6153 52.5276 46.1249 52.2728 45.7363 51.8015C45.386 51.2155 45.2077 50.6678 45.2077 50.1583C45.2077 49.8462 45.2459 49.5341 45.3224 49.222C45.558 48.7507 45.8701 48.4386 46.2586 48.2858C46.6471 48.1329 47.0229 48.031 47.3732 47.9928H48.4305C48.7808 47.9928 48.9591 47.9164 48.9591 47.7572V46.1712H38.5775V49.4577C38.4629 51.2156 37.3674 52.1582 35.2911 52.2728C33.2148 52.1582 32.1447 51.2156 32.0619 49.4577V32.9745C32.0619 31.0957 33.4695 30.1594 36.2846 30.1594H51.3029V30.153ZM41.9149 23.3445V21.0007H38.3355C37.7113 21.0007 37.2209 20.8224 36.8706 20.4721C36.5967 20.2746 36.4184 19.9434 36.342 19.4785C35.3611 21.0007 34.3676 22.2936 33.3485 23.3509H33.4058H41.9149V23.3445ZM38.5711 36.7832H48.9527V34.6687H39.0998C38.7495 34.6687 38.5711 34.7451 38.5711 34.9044V36.7832ZM38.5711 42.4135H48.9527V40.4773H38.5711V42.4135Z" fill="white"/>
<path d="M76.2694 5.98223C77.4413 5.98223 78.3839 6.31342 79.0845 6.98218C79.594 7.56813 80.2946 8.68272 81.199 10.3259C81.9442 11.7717 82.3709 12.829 82.492 13.4914H87.2433V9.09034C87.2433 7.56813 87.5744 6.47265 88.2368 5.8039C88.8228 5.14152 89.9183 4.80396 91.5233 4.80396C93.2047 4.80396 94.3384 5.13515 94.9244 5.8039C95.6313 6.47265 95.9816 7.56176 95.9816 9.09034V13.4914H99.6757C100.026 13.1028 100.395 12.6315 100.79 12.0838C101.612 10.9883 102.395 9.95016 103.14 8.97569C103.847 7.88021 104.331 7.1414 104.605 6.74652C105.153 6.19878 105.873 5.86759 106.777 5.75294C107.752 5.75294 108.675 6.10324 109.535 6.81021C110.669 7.47259 111.236 8.31968 111.236 9.33236C111.236 10.0393 111.076 10.6635 110.764 11.2112C110.414 11.9564 109.904 12.7143 109.242 13.4977H112.879C116.477 13.4977 118.273 15.3957 118.273 19.1917V25.2359C118.273 26.6053 117.898 27.5415 117.159 28.0511C116.496 28.7134 115.535 29.051 114.286 29.051C113.032 29.051 112.095 28.8536 111.471 28.465V28.5224V33.745C111.471 37.0314 109.828 38.6747 106.542 38.6747H95.746V41.4898H111.701C112.872 41.4898 113.713 41.7063 114.223 42.1331C114.694 42.5279 114.93 43.3304 114.93 44.5406C114.93 45.5214 114.732 46.2602 114.344 46.7697C113.796 47.4321 112.917 47.7697 111.701 47.7697H95.746V50.8205H115.694C116.866 50.8205 117.726 51.0943 118.273 51.6421C118.745 52.0306 118.98 52.8713 118.98 54.1642C118.98 55.1387 118.783 55.8839 118.394 56.3934C117.77 57.1004 116.872 57.4507 115.694 57.4507H67.824C66.7285 57.4507 65.8878 57.1959 65.3018 56.6864C64.7541 56.2151 64.4802 55.3744 64.4802 54.1642C64.4802 52.8713 64.7541 52.0115 65.3018 51.5848C65.8113 51.0752 66.6521 50.8205 67.824 50.8205H87.4789V47.7697H71.3461C70.2124 47.7697 69.3717 47.534 68.8239 47.0627C68.3144 46.5914 68.0596 45.7507 68.0596 44.5406C68.0596 43.3304 68.3144 42.5279 68.8239 42.1331C69.3334 41.7063 70.1742 41.4898 71.3461 41.4898H87.4789V38.6747H76.5114C73.2249 38.6747 71.5817 37.0314 71.5817 33.745V28.9937C70.913 29.344 69.9767 29.5223 68.7666 29.5223C67.3972 29.5223 66.4037 29.2293 65.7731 28.6434C65.0662 27.9364 64.7159 26.9619 64.7159 25.7072V19.1789C64.7159 15.383 66.512 13.485 70.1105 13.485H74.5115C73.8045 12.4277 73.0084 11.3896 72.104 10.3769C71.8683 10.0648 71.7537 9.79093 71.7537 9.55528C71.7537 8.26236 72.2823 7.3261 73.3396 6.74015C74.2376 6.23699 75.2185 5.98223 76.2694 5.98223ZM72.6899 24.9302C73.5498 24.0704 74.8236 23.6373 76.505 23.6373H106.542C108.223 23.6373 109.452 24.0704 110.236 24.9302V21.0005C110.236 20.3763 109.866 20.0642 109.121 20.0642H73.6835C73.0211 20.0642 72.6836 20.3763 72.6836 21.0005V24.9302H72.6899ZM102.026 33.2036C103 33.2036 103.491 32.7514 103.491 31.8534V30.3885C103.491 29.4905 103 29.0383 102.026 29.0383H80.9634C79.9825 29.0383 79.4985 29.4905 79.4985 30.3885V31.8534C79.4985 32.7514 79.9889 33.2036 80.9634 33.2036H102.026Z" fill="white"/>
<path d="M131.98 9.79098H146.234V7.38347C146.234 6.409 146.641 5.5046 147.463 4.68299C148.049 4.17346 149.068 3.9187 150.514 3.9187C151.921 3.9187 152.921 4.19257 153.507 4.74031C154.329 5.36448 154.743 6.24978 154.743 7.3771V9.78461H165.303C166.398 9.78461 167.201 9.98205 167.71 10.3706C168.143 10.7209 168.354 11.4469 168.354 12.5424C170.621 10.5871 172.659 8.65092 174.455 6.73383C175.003 6.2243 175.691 5.96954 176.506 5.96954C177.442 5.96954 178.245 6.26252 178.913 6.84847C179.697 7.55544 180.085 8.37068 180.085 9.3133C180.085 10.2941 179.754 11.2304 179.085 12.1284C176.78 14.6315 174.079 17.1345 170.99 19.6376H177.971C179.181 19.6376 180.041 19.8732 180.55 20.3445C180.983 20.7394 181.194 21.5738 181.194 22.8667C181.194 23.8857 180.996 24.6436 180.608 25.1532C180.06 25.8601 179.181 26.2104 177.971 26.2104H161.602C160.704 26.7582 159.781 27.3059 158.845 27.8537C157.552 28.6753 156.246 29.4396 154.915 30.1402H174.449C175.621 30.1402 176.404 30.3567 176.799 30.7834C177.27 31.293 177.506 32.0955 177.506 33.1909C177.506 34.3246 177.328 35.1271 176.977 35.5984C176.468 36.2226 175.627 36.5347 174.455 36.5347H147.82L146.234 40.2288H169.525C171.716 40.2288 173.22 40.5408 174.041 41.165C174.939 41.9484 175.391 43.2159 175.391 44.9801C175.391 47.6806 174.958 50.2983 174.098 52.8395C173.118 55.5782 171.907 57.3934 170.462 58.2978C168.857 59.4315 166.806 59.9984 164.303 59.9984C154.367 59.9984 146.253 58.9793 139.954 56.9476C138.82 56.247 138.253 55.0496 138.253 53.3681C138.253 52.5848 138.489 51.8014 138.96 51.018C139.546 50.5084 140.17 50.2155 140.839 50.139C142.247 50.139 143.476 50.2983 144.533 50.6103C154.584 52.2918 160.723 53.1325 162.953 53.1325C165.417 53.1325 166.647 50.9606 166.647 46.6233H141.31C138.374 46.6233 136.909 45.5087 136.909 43.2795C136.909 42.891 137.457 41.165 138.553 38.1142C136.202 39.0951 133.84 39.9549 131.451 40.6937C130.668 41.2032 129.732 41.458 128.636 41.458C127.738 41.458 126.859 40.8529 125.999 39.6364C125.604 38.853 125.413 37.9741 125.413 36.9933C125.413 35.936 126.037 35.0762 127.292 34.4138C133.865 32.6177 140.705 29.879 147.826 26.1977H129.114C128.056 26.1977 127.235 25.9238 126.649 25.3761C126.101 24.943 125.827 24.1086 125.827 22.8539C125.827 21.6056 126.101 20.7585 126.649 20.3318C127.197 19.8605 128.018 19.6248 129.114 19.6248H146.247V15.5996H131.993C130.973 15.5996 130.196 15.3639 129.649 14.8926C129.139 14.5041 128.884 13.7207 128.884 12.5424C128.884 11.4469 129.139 10.7209 129.649 10.3706C130.107 9.98842 130.891 9.79098 131.98 9.79098ZM159.029 19.6503C161.023 18.2809 162.883 16.9307 164.602 15.5996H154.749V19.6503H159.029Z" fill="white"/>
<path d="M190.684 15.3638H205.466C206.759 15.3638 207.676 15.6377 208.224 16.1854C208.657 16.4593 208.906 16.9879 208.988 17.7713C209.262 17.3828 209.536 16.9879 209.81 16.5994C210.791 15.1154 211.632 13.7079 212.332 12.3767C212.606 11.2048 213.389 10.5552 214.682 10.4405C215.74 10.4405 216.676 10.6953 217.497 11.2048C218.395 11.7525 218.867 12.434 218.905 13.2556C218.905 13.918 218.631 14.7842 218.083 15.8351C217.574 16.8542 217.064 17.8095 216.561 18.7076H232.458C231.599 17.1026 230.758 15.4848 229.936 13.8416C229.662 13.3321 229.35 13.02 229 12.9053C228.567 12.8289 228.159 12.7907 227.764 12.7907H221.956C220.86 12.7907 220.115 12.5359 219.727 12.0264C219.179 11.4405 218.905 10.6188 218.905 9.56158C218.905 8.4661 219.198 7.6445 219.784 7.09676C220.217 6.54902 220.937 6.27515 221.956 6.27515H231.344C233.649 6.27515 235.414 7.40884 236.624 9.67623C237.643 11.7525 239.324 14.6632 241.668 18.421C242.292 19.3572 242.604 20.3189 242.604 21.2934C242.604 22.1532 242.171 22.9557 241.311 23.7009C240.649 24.4461 239.649 24.8155 238.318 24.8155C238.006 24.8155 237.713 24.7773 237.439 24.7009V36.7894C237.439 39.407 236.089 40.7191 233.388 40.7191H232.509V51.3363C232.509 52.1197 232.898 52.5082 233.681 52.5082H235.503C235.7 52.5082 235.993 52.2152 236.382 51.6293C236.77 50.7695 236.968 49.0307 236.968 46.4066C237.044 45.7825 237.299 45.3112 237.732 44.9991C238.12 44.687 238.649 44.5278 239.318 44.5278C240.216 44.5278 240.942 44.7443 241.49 45.171C242.197 45.6424 242.566 46.4449 242.604 47.5786C242.604 51.1389 242.273 53.7757 241.611 55.5017C240.674 57.8901 239.362 59.1575 237.681 59.3168H230.344C227.057 59.3168 225.414 57.5143 225.414 53.9222V40.7191H223.185C222.835 43.8845 222.013 46.9162 220.72 49.8141C219.001 53.4508 216.497 56.3424 213.211 58.4951C212.625 59.0429 211.842 59.3168 210.861 59.3168C209.492 59.3168 208.536 58.9665 207.988 58.2595C207.6 57.8646 207.326 57.457 207.167 57.0303C206.581 57.7372 205.645 58.0875 204.352 58.0875H191.913C189.524 58.0875 188.333 56.9347 188.333 54.6228V43.8272C188.333 41.4452 189.524 40.2478 191.913 40.2478H204.352C206.657 40.2478 207.816 41.4452 207.816 43.8272V53.6801C210.829 51.6866 213.058 49.4192 214.504 46.8716C215.326 45.3048 215.892 43.254 216.205 40.7127H216.09C213.428 40.7127 212.103 39.4007 212.103 36.783V24.4588C211.555 25.1212 210.695 25.4588 209.523 25.4588C208.899 25.4588 208.23 25.2613 207.53 24.8728C207.88 25.3059 208.058 26.0638 208.058 27.1593C208.058 28.0574 207.88 28.7452 207.53 29.2102C207.02 29.8343 206.18 30.1464 205.008 30.1464H191.69C190.633 30.1464 189.849 29.9299 189.346 29.5031C188.875 29.0764 188.639 28.293 188.639 27.1593C188.639 25.9492 188.875 25.1467 189.346 24.7518C189.817 24.3251 190.594 24.1085 191.69 24.1085H205.008C205.829 24.1085 206.453 24.2041 206.887 24.4015C206.848 24.3633 206.81 24.3251 206.772 24.2869C206.148 23.7773 205.81 23.0767 205.772 22.1723C205.657 22.2106 205.555 22.2297 205.479 22.2297H190.696C189.563 22.2297 188.684 21.9558 188.06 21.4081C187.474 20.8985 187.181 20.0005 187.181 18.7076C187.181 17.4592 187.474 16.5994 188.06 16.1281C188.633 15.6249 189.512 15.3638 190.684 15.3638ZM191.448 6.74009H204.823C205.759 6.74009 206.447 6.93753 206.874 7.32604C207.345 7.67634 207.581 8.49795 207.581 9.79087C207.581 10.8099 207.447 11.4914 207.173 11.8417C206.702 12.4659 205.925 12.778 204.829 12.778H191.454C190.594 12.778 189.907 12.5614 189.403 12.1347C188.894 11.708 188.639 10.9246 188.639 9.79087C188.639 8.54253 188.894 7.69545 189.403 7.26872C189.786 6.91842 190.473 6.74009 191.448 6.74009ZM191.684 32.089H205.001C206.135 32.089 206.938 32.3055 207.409 32.7323C207.836 33.1271 208.052 33.9296 208.052 35.1398C208.052 36.076 207.874 36.7639 207.523 37.1906C207.014 37.8148 206.173 38.1269 205.001 38.1269H191.684C190.626 38.1269 189.843 37.9103 189.34 37.4836C188.868 37.0569 188.633 36.2735 188.633 35.1398C188.633 33.9296 188.868 33.1271 189.34 32.7323C189.805 32.3055 190.588 32.089 191.684 32.089ZM200.072 52.0369C200.734 52.0369 201.072 51.7057 201.072 51.037V47.3429C201.072 46.7187 200.74 46.4066 200.072 46.4066H196.142C195.48 46.4066 195.142 46.7187 195.142 47.3429V51.037C195.142 51.6993 195.473 52.0369 196.142 52.0369H200.072ZM229.229 34.1971C229.974 34.1971 230.344 33.7895 230.344 32.9679V26.4587C230.344 25.6371 229.974 25.2295 229.229 25.2295H220.255C219.51 25.2295 219.141 25.6371 219.141 26.4587V32.9679C219.141 33.7895 219.51 34.1971 220.255 34.1971H229.229Z" fill="white"/>
<path d="M255.61 7.85482H267.049C270.023 7.85482 271.507 9.36429 271.507 12.3705V48.7442C271.507 48.7825 271.507 48.8207 271.507 48.8589C273.112 44.8336 274.169 40.7829 274.672 36.7131C274.946 31.8662 275.08 27.4079 275.08 23.338V12.7845C275.08 8.75923 277.195 6.74023 281.417 6.74023H295.499C299.563 6.74023 301.601 8.83566 301.601 13.0201V51.5658C301.601 54.5401 301.053 56.4317 299.958 57.2533C299.021 58.6227 297.359 59.3042 294.971 59.3042C292.079 59.266 288.888 58.7946 285.411 57.8966C284.513 57.5463 283.806 56.9986 283.296 56.2534C282.825 55.5082 282.589 54.5528 282.589 53.3809C282.666 52.2855 282.939 51.3874 283.411 50.6805C283.92 50.0563 284.659 49.7251 285.64 49.6805C286.073 49.6805 286.5 49.776 286.933 49.9735C288.926 50.5212 290.665 50.7951 292.155 50.7951C293.448 50.7951 294.092 50.3429 294.092 49.4449V41.4644H281.538C280.64 47.0564 279.252 51.9861 277.373 56.247C277.099 57.1451 276.609 57.852 275.908 58.3552C275.398 58.9794 274.577 59.2914 273.443 59.2914C271.762 59.2914 270.666 58.9985 270.157 58.4125C269.335 57.7883 268.921 56.8075 268.921 55.4764C269.036 55.005 269.214 54.3427 269.45 53.4828C269.647 53.088 269.838 52.7377 270.036 52.4256C269.29 52.8969 268.297 53.1325 267.042 53.1325H255.603C252.629 53.1325 251.145 51.6677 251.145 48.7315V12.3769C251.151 9.3643 252.635 7.85482 255.61 7.85482ZM257.954 26.2232H264.934V16.3639C264.934 15.7015 264.622 15.364 263.998 15.364H258.832C258.247 15.364 257.954 15.6951 257.954 16.3639V26.2232ZM263.998 45.6425C264.622 45.6425 264.934 45.3495 264.934 44.7636V33.968H257.954V44.7636C257.954 45.3495 258.247 45.6425 258.832 45.6425H263.998ZM294.098 34.433V27.5671H282.774C282.697 29.9555 282.557 32.242 282.36 34.433H294.098ZM294.098 20.5293V16.3639C294.098 14.6443 293.372 13.7844 291.926 13.7844H284.417C283.36 13.7844 282.831 14.2366 282.831 15.1347V20.5293H294.098Z" fill="white"/>
</svg>
