<svg width="354" height="75" viewBox="0 0 354 75" fill="none" xmlns="http://www.w3.org/2000/svg">
<path d="M30.33 69.6501C28.73 69.6501 27.26 69.0501 26.1 67.9201C24.92 66.7701 24.3 65.2901 24.3 63.6101V62.1101C24.3 60.4901 24.92 59.0201 26.08 57.8601C27.25 56.6901 28.72 56.0801 30.33 56.0801H36.08C35.35 55.2001 34.94 54.1501 34.89 52.9701C34.53 46.8301 33.63 40.1401 32.19 33.1101L32.17 33.0001C32.11 32.5901 32.08 32.2001 32.08 31.8301C32.08 30.6601 32.42 29.5501 33.1 28.5301C33.32 28.1901 33.56 27.8801 33.84 27.6101H32.58C31.31 27.6101 30.12 27.2301 29.11 26.5001C29.09 28.0901 28.48 29.5401 27.33 30.6901C26.19 31.8401 24.75 32.4501 23.16 32.4701V43.2301C23.65 43.1001 24.12 43.0301 24.58 43.0301C25.54 43.0301 26.49 43.3101 27.4 43.8701C28.77 44.6901 29.66 45.9801 29.95 47.5701L30.3 49.1101L30.31 49.1901C30.37 49.6001 30.4 50.0201 30.4 50.4301C30.4 51.6001 30.11 52.7101 29.53 53.7401C28.68 55.1801 27.49 56.1801 25.96 56.7501C21.73 58.3401 16.54 60.2101 10.54 62.3001C9.89999 62.5101 9.24999 62.6201 8.57999 62.6201C7.67999 62.6201 6.79999 62.4101 5.97999 62.0001C4.51999 61.2401 3.51999 60.0201 3.04999 58.4701L2.22999 55.7301C2.07999 55.1101 2.00999 54.5801 2.00999 54.0501C2.00999 53.1001 2.23999 52.1601 2.69999 51.2401L2.74999 51.1401C3.55999 49.7201 4.80999 48.7601 6.36999 48.3501C7.13999 48.1401 8.12999 47.8501 9.31999 47.5001V32.4701H8.71999C7.09999 32.4701 5.62999 31.8501 4.46999 30.6901C3.29999 29.5301 2.68999 28.0601 2.68999 26.4401V24.8701C2.68999 23.2501 3.30999 21.7801 4.46999 20.6201C5.63999 19.4501 7.10999 18.8401 8.71999 18.8401H9.31999V9.22008C9.31999 7.55008 9.93999 6.06008 11.12 4.91008C12.28 3.78008 13.75 3.18008 15.35 3.18008H17.13C18.73 3.18008 20.2 3.78008 21.36 4.91008C22.54 6.06008 23.16 7.55008 23.16 9.22008V18.8401C24.4 18.8601 25.55 19.2401 26.55 19.9601C26.6 18.3701 27.22 16.9501 28.35 15.8501C29.51 14.7201 30.98 14.1201 32.58 14.1201H41.11V8.87007C41.11 7.20007 41.73 5.71007 42.91 4.56007C44.07 3.43007 45.54 2.83008 47.14 2.83008H49.33C50.93 2.83008 52.4 3.43007 53.56 4.56007C54.74 5.71007 55.36 7.20007 55.36 8.87007V14.1201H64.57C66.17 14.1201 67.64 14.7201 68.8 15.8501C69.98 17.0001 70.6 18.4901 70.6 20.1601V21.6001C70.6 23.2201 69.98 24.6901 68.82 25.8501C67.87 26.8001 66.72 27.3901 65.45 27.5701C65.62 27.7601 65.78 27.9601 65.93 28.1801C66.63 29.2401 66.98 30.3701 66.98 31.5801C66.98 31.9201 66.95 32.2701 66.89 32.6601C65.3 41.1401 63.49 49.0001 61.49 56.1101H66.08C67.75 56.1101 69.24 56.7301 70.38 57.9101C71.51 59.0801 72.11 60.5401 72.11 62.1401V63.6401C72.11 65.3001 71.51 66.7801 70.36 67.9201C69.21 69.0701 67.73 69.6701 66.07 69.6701H30.33V69.6501ZM47.4 56.0801C47.66 55.1001 47.92 54.1001 48.17 53.1001C47.96 53.6901 47.66 54.2701 47.27 54.8101C46.9 55.3001 46.49 55.7201 46.05 56.0801H47.4ZM43.7 27.6101C44.39 28.3801 44.85 29.2901 45.07 30.3301C46.8 37.4401 47.97 44.1901 48.52 50.3201L48.53 50.4101V50.9801C48.53 51.2801 48.51 51.5801 48.47 51.8701C50.08 45.1501 51.38 37.9301 52.34 30.3601C52.47 29.3401 52.83 28.4201 53.4 27.6201H43.7V27.6101Z" fill="white"/>
<path d="M49.33 4.83008C50.42 4.83008 51.37 5.22008 52.17 5.99008C52.97 6.77008 53.37 7.72008 53.37 8.86008V15.5601C53.37 15.9301 53.53 16.1101 53.85 16.1101H64.58C65.67 16.1101 66.62 16.5001 67.42 17.2701C68.22 18.0501 68.62 19.0001 68.62 20.1401V21.5801C68.62 22.6701 68.22 23.6201 67.42 24.4201C66.62 25.2201 65.68 25.6201 64.58 25.6201H32.58C31.49 25.6201 30.54 25.2201 29.74 24.4201C28.94 23.6201 28.54 22.6801 28.54 21.5801V20.1401C28.54 19.0001 28.94 18.0401 29.74 17.2701C30.54 16.5001 31.48 16.1101 32.58 16.1101H42.63C42.95 16.1101 43.11 15.9301 43.11 15.5601V8.86008C43.11 7.72008 43.51 6.76008 44.31 5.99008C45.11 5.22008 46.05 4.83008 47.15 4.83008H49.33ZM17.13 5.17007C18.22 5.17007 19.17 5.56008 19.97 6.33008C20.77 7.11008 21.17 8.06007 21.17 9.20007V20.3401C21.17 20.6601 21.33 20.8201 21.65 20.8201H23.09C24.18 20.8201 25.13 21.2201 25.93 22.0201C26.73 22.8201 27.13 23.7601 27.13 24.8601V26.4301C27.13 27.5201 26.73 28.4701 25.93 29.2701C25.13 30.0701 24.19 30.4701 23.09 30.4701H21.65C21.33 30.4701 21.17 30.6301 21.17 30.9501V45.4401C21.17 45.5801 21.21 45.6801 21.31 45.7501C21.4 45.8201 21.52 45.8501 21.65 45.8501L23.43 45.2301C23.84 45.0901 24.23 45.0201 24.59 45.0201C25.18 45.0201 25.77 45.2001 26.37 45.5701C27.28 46.1201 27.83 46.9101 28.01 47.9601L28.35 49.4601C28.39 49.7801 28.42 50.1001 28.42 50.4201C28.42 51.2401 28.21 52.0201 27.8 52.7401C27.21 53.7401 26.36 54.4501 25.27 54.8601C21.03 56.4601 15.9 58.3001 9.89 60.4001C9.48 60.5401 9.05 60.6101 8.59 60.6101C8 60.6101 7.43 60.4701 6.88 60.2001C5.92 59.7001 5.28 58.9201 4.97 57.8801L4.15 55.1501C4.05 54.7801 4.01 54.4101 4.01 54.0501C4.01 53.4101 4.17 52.7701 4.49 52.1401C5.04 51.1801 5.83 50.5701 6.88 50.2901C7.88 50.0201 9.2 49.6301 10.84 49.1301C11.16 49.0401 11.32 48.8101 11.32 48.4501V30.9501C11.32 30.6301 11.16 30.4701 10.84 30.4701H8.73C7.64 30.4701 6.69 30.0701 5.89 29.2701C5.09 28.4701 4.69 27.5301 4.69 26.4301V24.8601C4.69 23.7701 5.09 22.8201 5.89 22.0201C6.69 21.2201 7.63 20.8201 8.73 20.8201H10.85C11.17 20.8201 11.33 20.6601 11.33 20.3401V9.20007C11.33 8.06007 11.73 7.10008 12.53 6.33008C13.33 5.56008 14.27 5.17007 15.37 5.17007H17.13ZM58.08 27.1801C58.31 27.1801 58.51 27.2001 58.7 27.2501L61.71 27.6601C62.8 27.8401 63.67 28.3901 64.31 29.3001C64.77 29.9801 64.99 30.7401 64.99 31.5601C64.99 31.7901 64.97 32.0401 64.92 32.3101C63.19 41.5601 61.21 49.9901 58.97 57.6001C58.92 57.6901 58.94 57.7901 59 57.9101C59.07 58.0201 59.17 58.0801 59.31 58.0801H66.08C67.22 58.0801 68.18 58.4801 68.95 59.2801C69.72 60.0801 70.11 61.0201 70.11 62.1201V63.6201C70.11 64.7601 69.72 65.7201 68.95 66.4901C68.17 67.2601 67.22 67.6501 66.08 67.6501H30.33C29.24 67.6501 28.29 67.2601 27.49 66.4901C26.69 65.7101 26.29 64.7601 26.29 63.6201V62.1201C26.29 61.0301 26.69 60.0801 27.49 59.2801C28.29 58.4801 29.23 58.0801 30.33 58.0801H48.45C48.77 58.0801 48.97 57.9201 49.07 57.6001C51.35 49.3101 53.1 40.3101 54.33 30.6001C54.47 29.5101 54.97 28.6201 55.83 27.9301C56.51 27.4301 57.26 27.1801 58.08 27.1801ZM39.15 27.5901C39.88 27.5901 40.61 27.8001 41.34 28.2101C42.3 28.8001 42.89 29.6501 43.12 30.7401C44.85 37.8501 45.99 44.4401 46.54 50.5001C46.54 50.6401 46.54 50.8001 46.54 50.9801C46.54 51.9401 46.24 52.8301 45.65 53.6501C44.92 54.6101 43.99 55.2201 42.85 55.5001L40.94 55.9801C40.67 56.0301 40.39 56.0501 40.12 56.0501C39.44 56.0501 38.8 55.8201 38.21 55.3701C37.39 54.7301 36.96 53.9101 36.91 52.9101C36.54 46.6201 35.63 39.9001 34.18 32.7401C34.13 32.4201 34.11 32.1201 34.11 31.8501C34.11 31.0801 34.34 30.3501 34.79 29.6601C35.38 28.7501 36.2 28.1801 37.25 27.9501L38.21 27.7401C38.51 27.6401 38.83 27.5901 39.15 27.5901ZM49.33 0.830078H47.14C45 0.830078 43.06 1.62008 41.52 3.12008C39.94 4.65008 39.11 6.64008 39.11 8.86008V12.1101H32.58C30.44 12.1101 28.5 12.9001 26.96 14.4001C26.17 15.1601 25.57 16.0401 25.17 17.0001V9.20007C25.17 6.98007 24.34 4.99008 22.76 3.46008C21.21 1.96008 19.27 1.16008 17.13 1.16008H15.35C13.21 1.16008 11.27 1.95007 9.73 3.45007C8.15 4.98007 7.32 6.97008 7.32 9.19008V16.9301C5.72 17.2101 4.26 17.9701 3.06 19.1801C1.51 20.7301 0.69 22.6901 0.69 24.8501V26.4201C0.69 28.5801 1.51 30.5401 3.06 32.0901C4.26 33.2901 5.72 34.0601 7.32 34.3401V46.0001C6.76 46.1601 6.26 46.3001 5.82 46.4201C3.77 46.9501 2.09 48.2401 1.01 50.1401L0.95 50.2401L0.9 50.3401C0.3 51.5401 0 52.7801 0 54.0401C0 54.7401 0.09 55.4301 0.26 56.1101L0.28 56.2001L0.31 56.2901L1.13 59.0201C1.76 61.1101 3.11 62.7401 5.02 63.7401L5.05 63.7601L5.08 63.7801C6.18 64.3301 7.36 64.6101 8.58 64.6101C9.46 64.6101 10.33 64.4701 11.14 64.2001L11.17 64.1901L11.2 64.1801C15.39 62.7201 19.18 61.3701 22.53 60.1501C22.37 60.7801 22.29 61.4401 22.29 62.1201V63.6201C22.29 65.8401 23.12 67.8301 24.7 69.3601C26.24 70.8601 28.19 71.6501 30.32 71.6501H66.07C68.27 71.6501 70.24 70.8401 71.77 69.3201C73.3 67.7901 74.11 65.8201 74.11 63.6201V62.1201C74.11 59.9901 73.32 58.0401 71.82 56.5001C70.28 54.9201 68.3 54.0901 66.08 54.0901H64.11C65.85 47.6101 67.44 40.5601 68.85 33.0501L68.86 33.0101L68.87 32.9701C68.95 32.4701 68.99 32.0201 68.99 31.5701C68.99 30.5401 68.81 29.5601 68.44 28.6301C69.09 28.2701 69.69 27.8101 70.24 27.2501C71.79 25.7001 72.61 23.7401 72.61 21.5801V20.1401C72.61 17.9201 71.78 15.9301 70.2 14.4001C68.65 12.9001 66.71 12.1001 64.57 12.1001H57.36V8.85008C57.36 6.63008 56.53 4.64008 54.95 3.11008C53.41 1.62008 51.47 0.830078 49.33 0.830078ZM46.96 29.6101H50.43C50.4 29.7701 50.37 29.9401 50.35 30.1001C49.96 33.2001 49.51 36.2301 49 39.2001C48.45 36.1701 47.79 33.0501 47.01 29.8401C46.99 29.7701 46.98 29.6901 46.96 29.6101ZM25.17 34.1901C26.5 33.8301 27.72 33.1201 28.75 32.0901C29.41 31.4301 29.94 30.6901 30.33 29.9001C30.17 30.5201 30.09 31.1701 30.09 31.8301C30.09 32.3001 30.13 32.7901 30.2 33.2901L30.22 33.4001L30.24 33.5101C31.65 40.4401 32.55 47.0201 32.9 53.0901C32.92 53.4201 32.95 53.7501 33.01 54.0701H31.61C32.15 52.9201 32.42 51.6901 32.42 50.4101C32.42 49.9101 32.38 49.4001 32.31 48.9001L32.29 48.7301L32.25 48.5701L31.93 47.1501C31.52 45.0001 30.31 43.2601 28.43 42.1301C27.41 41.5001 26.31 41.1301 25.18 41.0401V34.1901H25.17Z" fill="#6A371B"/>
<path d="M132.59 71.4302C131.64 71.4302 130.7 71.2002 129.78 70.7402C126.64 69.0202 123.76 67.0002 121.16 64.7002C118.83 66.7202 116.26 68.6002 113.53 70.2502C112.54 70.8102 111.54 71.0902 110.51 71.0902C109.99 71.0902 109.45 71.0202 108.93 70.8902C107.37 70.5002 106.08 69.6202 105.12 68.2702C104.64 67.6202 104.15 67.0202 103.68 66.4502C103.36 67.0202 103.03 67.5702 102.71 68.0902C101.85 69.5302 100.46 70.3802 98.72 70.5302L98.64 70.5402H98.15C96.77 70.5402 95.52 70.0902 94.43 69.2002C93.78 68.6802 93.05 68.1202 92.26 67.5602C91 66.5802 90.25 65.2602 90.02 63.7002C89.95 63.4002 89.92 63.0702 89.92 62.7302C89.92 61.4802 90.3 60.3202 91.06 59.2902C91.97 57.9602 92.81 56.4602 93.58 54.8102C90.09 56.4502 86.11 58.2702 81.66 60.2502C80.92 60.6202 80.06 60.8302 79.2 60.8302C78.46 60.8302 77.69 60.6502 76.93 60.3102C75.51 59.7302 74.4 58.6202 73.79 57.1302L72.63 54.3402C72.34 53.6302 72.2 52.9002 72.2 52.1402C72.2 51.3302 72.41 50.5002 72.82 49.6702C73.48 48.2802 74.62 47.2402 76.11 46.7002C76.47 46.5702 77.12 46.3402 78.04 46.0302C78.49 45.8802 78.88 45.7502 79.24 45.6402V31.7102H78.71C77.1 31.7102 75.64 31.1102 74.48 29.9802C73.3 28.8402 72.68 27.3502 72.68 25.6802V24.1802C72.68 22.5602 73.3 21.0902 74.46 19.9302C75.63 18.7602 77.1 18.1502 78.71 18.1502H79.24V9.21017C79.24 7.54017 79.86 6.05017 81.04 4.90017C82.2 3.77017 83.67 3.17017 85.27 3.17017H86.64C88.3 3.17017 89.78 3.77017 90.92 4.92017C92.06 6.07017 92.67 7.55017 92.67 9.21017V18.1702C94.11 18.2902 95.39 18.9002 96.41 19.9502C97.54 21.1202 98.14 22.5802 98.14 24.1802V25.6802C98.14 27.3402 97.54 28.8202 96.39 29.9702C95.38 30.9802 94.1 31.5702 92.67 31.6902V41.0502C92.78 41.0402 92.89 41.0402 92.99 41.0402C93.89 41.0402 94.77 41.2502 95.59 41.6602C96.25 42.0202 96.81 42.4802 97.26 43.0102C98.58 36.3902 99.36 28.0702 99.58 18.1702C98.33 17.9802 97.2 17.4002 96.26 16.4602C95.09 15.3002 94.48 13.8302 94.48 12.2102V10.8402C94.48 9.22016 95.1 7.75016 96.26 6.59016C97.43 5.42016 98.9 4.81017 100.51 4.81017H123.19C123.85 4.67017 124.52 4.60017 125.18 4.60017C125.59 4.60017 126 4.63017 126.42 4.69017L128.45 4.88017C130.05 5.10017 131.33 5.83017 132.24 7.02017C133.01 8.00017 133.4 9.10016 133.4 10.2902C133.4 10.5902 133.37 10.8902 133.3 11.2002C132.78 15.0802 132.06 19.4802 131.15 24.2902C131.16 24.2902 131.18 24.2902 131.19 24.2902C132.02 24.2902 132.86 24.4502 133.68 24.7602L135.44 25.3402C136.84 25.8302 137.91 26.7302 138.66 28.0102C139.17 28.9502 139.41 29.8902 139.41 30.8602C139.41 31.2202 139.38 31.6102 139.32 32.0302L139.31 32.1102L139.29 32.1902C137.4 40.5102 134.4 47.8702 130.37 54.1102C132.68 55.9302 135.23 57.5002 137.98 58.7802C139.38 59.3702 140.36 60.5602 140.67 62.1102C140.75 62.5702 140.78 62.9202 140.78 63.2602C140.78 64.3402 140.44 65.3402 139.76 66.2402C139.14 67.0102 138.58 67.7202 138.05 68.4302C137.15 69.6902 135.92 70.6102 134.42 71.1102C133.84 71.3302 133.22 71.4302 132.59 71.4302ZM109.99 49.4502C109.25 52.6102 108.4 55.5402 107.45 58.2202C109.24 57.0702 110.97 55.7302 112.62 54.2002C111.69 52.6802 110.82 51.1002 109.99 49.4502ZM118.35 37.3902C119.15 39.3502 120.05 41.2302 121.05 42.9902C121.99 41.2002 122.83 39.3202 123.53 37.3902H118.35ZM117.64 24.4302C118.02 22.3002 118.38 20.2302 118.7 18.2402H113.36C113.32 19.3402 113.25 21.2002 113.12 24.4302H117.64Z" fill="white"/>
<path d="M86.66 5.17017C87.8 5.17017 88.76 5.56017 89.53 6.33017C90.3 7.11017 90.69 8.06016 90.69 9.20016V19.5902C90.69 19.9602 90.87 20.1402 91.24 20.1402H92.13C93.27 20.1402 94.23 20.5402 95 21.3402C95.77 22.1402 96.16 23.0802 96.16 24.1802V25.6802C96.16 26.8202 95.77 27.7802 95 28.5502C94.22 29.3302 93.27 29.7102 92.13 29.7102H91.24C90.87 29.7102 90.69 29.8902 90.69 30.2602V43.1802C90.69 43.2702 90.75 43.3502 90.86 43.4202C90.93 43.4602 90.99 43.4802 91.05 43.4802C91.09 43.4802 91.13 43.4702 91.17 43.4502L91.79 43.2402C92.2 43.1002 92.61 43.0302 93.02 43.0302C93.61 43.0302 94.18 43.1702 94.73 43.4402C95.64 43.9402 96.23 44.7202 96.51 45.7602L97.4 49.7202C97.4 49.8102 97.44 49.8602 97.54 49.8602C97.63 49.8602 97.68 49.8202 97.68 49.7202C100.1 41.9302 101.42 30.9202 101.64 16.7002C101.64 16.3802 101.48 16.2202 101.16 16.2202H100.54C99.45 16.2202 98.5 15.8202 97.7 15.0202C96.9 14.2202 96.5 13.2802 96.5 12.1802V10.8102C96.5 9.72017 96.9 8.77017 97.7 7.97017C98.5 7.17017 99.44 6.77017 100.54 6.77017H123.1C123.24 6.77017 123.35 6.77017 123.44 6.77017C124.03 6.63017 124.62 6.56017 125.22 6.56017C125.54 6.56017 125.86 6.58017 126.18 6.63017L128.3 6.84016C129.3 6.98016 130.1 7.43017 130.69 8.21017C131.19 8.85017 131.44 9.53016 131.44 10.2602C131.44 10.4402 131.42 10.6302 131.37 10.8102C130.78 15.2302 129.93 20.2702 128.84 25.9202C128.75 26.2402 128.88 26.4002 129.25 26.4002H129.73C129.87 26.4002 130 26.4002 130.14 26.4002C130.5 26.3102 130.87 26.2602 131.23 26.2602C131.82 26.2602 132.41 26.3702 133.01 26.6002L134.86 27.2202C135.77 27.5402 136.48 28.1302 136.98 29.0002C137.3 29.5902 137.46 30.2102 137.46 30.8502C137.46 31.1202 137.44 31.4202 137.39 31.7402C135.43 40.3502 132.31 47.8002 128.02 54.0902C127.84 54.3602 127.88 54.6102 128.16 54.8402C130.85 57.1202 133.86 59.0302 137.18 60.5802C138.05 60.9502 138.57 61.5802 138.75 62.4902C138.79 62.7602 138.82 63.0102 138.82 63.2402C138.82 63.8802 138.61 64.4702 138.2 65.0202C137.61 65.7502 137.04 66.4802 136.49 67.2102C135.81 68.1702 134.92 68.8302 133.82 69.1902C133.41 69.3302 133 69.4002 132.59 69.4002C131.95 69.4002 131.31 69.2402 130.68 68.9202C127.35 67.1002 124.32 64.9102 121.59 62.3602C121.47 62.2102 121.33 62.1402 121.2 62.1402C121.09 62.1402 120.97 62.1902 120.84 62.3002C118.29 64.6202 115.51 66.7002 112.5 68.5202C111.86 68.8802 111.2 69.0702 110.52 69.0702C110.15 69.0702 109.79 69.0202 109.43 68.9302C108.34 68.6602 107.45 68.0402 106.76 67.0802C105.67 65.6202 104.62 64.3902 103.62 63.3902C103.52 63.2902 103.42 63.2302 103.32 63.2302C103.21 63.2302 103.1 63.3002 103 63.4502C102.36 64.7302 101.7 65.9102 101.02 67.0002C100.47 67.9102 99.65 68.4102 98.56 68.5002C98.42 68.5002 98.29 68.5002 98.15 68.5002C97.24 68.5002 96.42 68.2002 95.69 67.6102C95.01 67.0602 94.25 66.4902 93.43 65.9002C92.61 65.2602 92.13 64.4002 91.99 63.3002C91.94 63.1202 91.92 62.9102 91.92 62.6802C91.92 61.8602 92.17 61.1102 92.67 60.4202C94.45 57.8202 95.93 54.7702 97.11 51.2602C97.15 51.1702 97.14 51.0902 97.08 51.0202C97.04 50.9802 96.99 50.9602 96.94 50.9602C96.91 50.9602 96.87 50.9702 96.84 50.9902C92.51 53.0902 87.18 55.5502 80.84 58.3702C80.29 58.6402 79.75 58.7802 79.2 58.7802C78.74 58.7802 78.27 58.6702 77.76 58.4402C76.76 58.0302 76.05 57.3202 75.64 56.3202L74.48 53.5202C74.3 53.0602 74.21 52.5902 74.21 52.0802C74.21 51.5802 74.35 51.0502 74.62 50.5102C75.08 49.5502 75.8 48.8902 76.81 48.5302C77.17 48.3902 77.8 48.1802 78.69 47.8802C79.58 47.5802 80.27 47.3702 80.77 47.2302C81.09 47.0902 81.25 46.8702 81.25 46.5502V30.2102C81.25 29.8502 81.09 29.6602 80.77 29.6602H78.72C77.63 29.6602 76.68 29.2702 75.88 28.5002C75.08 27.7302 74.68 26.7702 74.68 25.6302V24.1302C74.68 23.0402 75.08 22.0902 75.88 21.2902C76.68 20.4902 77.62 20.0902 78.72 20.0902H80.77C81.09 20.0902 81.25 19.9102 81.25 19.5402V9.20016C81.25 8.06016 81.65 7.10017 82.45 6.33017C83.25 5.56017 84.19 5.17017 85.29 5.17017H86.66ZM111.54 26.4302H118.79C119.11 26.4302 119.31 26.2702 119.41 25.9502C120 22.7102 120.53 19.6402 120.98 16.7202C121.02 16.4002 120.87 16.2402 120.5 16.2402H111.96C111.64 16.2402 111.46 16.4002 111.41 16.7202C111.41 17.4002 111.3 20.4802 111.07 25.9502C111.01 26.2702 111.17 26.4302 111.54 26.4302ZM121.08 46.6002C121.19 46.6002 121.3 46.5602 121.39 46.4602C123.39 43.1802 124.99 39.6502 126.18 35.8602C126.22 35.7702 126.21 35.6702 126.15 35.5502C126.08 35.4402 125.98 35.3802 125.84 35.3802H116C115.91 35.3802 115.82 35.4402 115.73 35.5502C115.64 35.6602 115.62 35.7702 115.66 35.8602C117.03 39.7302 118.76 43.2702 120.86 46.4602C120.88 46.5502 120.96 46.6002 121.08 46.6002ZM103.85 62.4202C103.88 62.4202 103.92 62.4102 103.95 62.3902C107.82 60.6602 111.45 58.1502 114.82 54.8702C115.05 54.6402 115.07 54.3702 114.89 54.0502C112.79 50.7702 110.97 47.1702 109.42 43.2502C109.42 43.1802 109.4 43.1402 109.35 43.1402C109.34 43.1402 109.33 43.1402 109.31 43.1502C109.24 43.1702 109.21 43.2102 109.21 43.2502C107.89 50.7702 106.04 57.0802 103.67 62.1902C103.62 62.2402 103.64 62.2902 103.7 62.3602C103.75 62.4002 103.8 62.4202 103.85 62.4202ZM86.66 1.17017H85.29C83.15 1.17017 81.21 1.96017 79.67 3.46017C78.09 4.99017 77.26 6.98016 77.26 9.20016V16.2702C75.68 16.5602 74.25 17.3202 73.07 18.5102C71.52 20.0602 70.7 22.0202 70.7 24.1802V25.6802C70.7 27.9102 71.53 29.8902 73.11 31.4202C74.29 32.5702 75.7 33.3002 77.26 33.5802V44.1902C76.37 44.4902 75.79 44.6902 75.41 44.8302C73.47 45.5402 71.94 46.9202 71.03 48.8002C70.49 49.8902 70.21 51.0102 70.21 52.1302C70.21 53.1402 70.4 54.1302 70.77 55.0602L71.95 57.9102C72.75 59.8702 74.21 61.3402 76.18 62.1702C77.18 62.6102 78.2 62.8402 79.2 62.8402C80.34 62.8402 81.46 62.5802 82.54 62.0502C84.72 61.0802 86.79 60.1402 88.74 59.2502C88.2 60.3302 87.91 61.5102 87.91 62.7302C87.91 63.1902 87.95 63.6302 88.04 64.0502C88.35 66.1102 89.35 67.8502 90.96 69.1002L91.02 69.1402L91.08 69.1802C91.83 69.7202 92.54 70.2602 93.18 70.7702C94.59 71.9202 96.32 72.5402 98.14 72.5402H98.55H98.72L98.89 72.5302C100.92 72.3602 102.66 71.4402 103.88 69.9202C105.07 71.3802 106.65 72.3802 108.46 72.8302C109.14 73.0002 109.84 73.0902 110.52 73.0902C111.9 73.0902 113.24 72.7302 114.48 72.0202L114.53 71.9902L114.58 71.9602C116.89 70.5602 119.09 69.0102 121.16 67.3202C123.52 69.2502 126.06 70.9802 128.76 72.4602L128.83 72.5002L128.9 72.5302C130.1 73.1302 131.34 73.4302 132.6 73.4302C133.44 73.4302 134.28 73.2902 135.1 73.0202C136.99 72.3902 138.55 71.2402 139.73 69.6102C140.24 68.9302 140.78 68.2402 141.32 67.5802L141.37 67.5202L141.42 67.4602C142.35 66.2302 142.84 64.7802 142.84 63.2802C142.84 62.8302 142.8 62.3802 142.72 61.8802L142.71 61.8102L142.7 61.7402C142.26 59.5502 140.89 57.8602 138.84 56.9602C136.8 56.0102 134.88 54.8902 133.1 53.6302C136.76 47.5602 139.52 40.5102 141.3 32.6502L141.34 32.4902L141.36 32.3202C141.43 31.8102 141.47 31.3302 141.47 30.8702C141.47 29.5702 141.15 28.3102 140.52 27.1302L140.49 27.0702L140.46 27.0102C139.48 25.3202 138.01 24.1002 136.2 23.4702L136.17 23.4602L136.14 23.4502L134.37 22.8602C134.1 22.7602 133.83 22.6702 133.56 22.6002C134.29 18.5802 134.88 14.8702 135.33 11.5402C135.41 11.1302 135.46 10.7102 135.46 10.3002C135.46 8.68017 134.91 7.12017 133.86 5.78017C132.65 4.20017 130.91 3.20017 128.86 2.92017L128.78 2.91017L128.7 2.90017L126.66 2.70016C126.18 2.64016 125.71 2.61017 125.24 2.61017C124.51 2.61017 123.78 2.68017 123.05 2.82017H100.56C98.4 2.82017 96.44 3.64017 94.89 5.19017C94.6 5.48017 94.34 5.78016 94.11 6.09016C93.72 5.14016 93.14 4.28016 92.38 3.52016C90.83 1.98016 88.86 1.17017 86.66 1.17017ZM115.29 20.2502H116.34C116.22 20.9702 116.09 21.7002 115.96 22.4402H115.2C115.24 21.5802 115.27 20.8602 115.29 20.2502ZM94.69 33.3202C95.45 33.0702 96.16 32.7102 96.81 32.2502C96.55 34.8702 96.24 37.3202 95.87 39.5902C95.48 39.4402 95.09 39.3202 94.69 39.2302V33.3202Z" fill="#6A371B"/>
<path d="M202.5 72.32C198.74 72.27 195.61 69.96 193.18 65.44C191.91 66.78 190.58 68.05 189.2 69.24L189.11 69.31C187.98 70.17 186.7 70.61 185.3 70.61H184.81L184.73 70.6C183.18 70.47 181.78 69.83 180.58 68.69L179.65 67.76C178.64 66.75 178.11 65.48 178.11 64.09C178.11 62.31 178.84 60.83 180.22 59.81C180.84 59.33 181.45 58.82 182.05 58.29H180.34C180.09 59.02 179.67 59.69 179.09 60.27C178.1 61.26 176.87 61.78 175.52 61.78H175.31C173.92 61.78 172.65 61.25 171.64 60.24C171.24 59.84 170.92 59.4 170.67 58.93C169.97 62.13 169.1 64.99 168.07 67.52C167.49 69.04 166.25 70.08 164.59 70.42C164.16 70.55 163.75 70.61 163.35 70.61C162.2 70.61 161.12 70.25 160.14 69.56C159.88 69.37 159.61 69.2 159.35 69.05L159.27 69L159.19 68.95C157.92 68.06 157.05 66.87 156.59 65.42C156.51 65.21 156.45 64.99 156.4 64.78C156.24 65.22 156.09 65.65 155.93 66.09C155.36 67.65 154.24 68.77 152.68 69.34C152.01 69.56 151.39 69.67 150.76 69.67C149.9 69.67 149.05 69.46 148.22 69.05L145.95 67.77C144.53 66.99 143.52 65.82 142.99 64.29L142.95 64.16C142.77 63.49 142.67 62.81 142.67 62.13C142.67 61.34 142.83 60.52 143.15 59.7C145.33 54.56 147.31 49.3 149.06 44C149.66 42.43 150.74 41.34 152.23 40.78C152.83 40.56 153.43 40.44 154.04 40.44C154.98 40.44 155.88 40.73 156.71 41.31L158.01 42.09C158.72 42.52 159.32 43.04 159.82 43.63C160.01 40.67 160.11 37.47 160.11 34.02V33.63C160.02 33.78 159.92 33.92 159.81 34.06L158.58 35.7C157.65 36.97 156.33 37.76 154.78 37.98C154.45 38.04 154.13 38.07 153.84 38.07C152.54 38.07 151.33 37.66 150.25 36.85C149.06 36.03 147.63 35.18 146.07 34.35C144.66 33.58 143.74 32.38 143.37 30.86C143.23 30.42 143.16 29.96 143.16 29.5C143.16 28.39 143.52 27.34 144.22 26.36L144.99 25.31C146.01 23.98 147.3 23.09 148.87 22.65C149.47 22.47 150.11 22.37 150.71 22.37C151.68 22.37 152.66 22.59 153.61 23.04C155.35 23.84 156.96 24.68 158.37 25.53C159.09 25.98 159.68 26.54 160.13 27.2V18.71C159.53 19.02 158.86 19.23 158.14 19.32L158.02 19.34H157.35C156.07 19.34 154.89 18.97 153.82 18.24C152.44 17.26 150.94 16.31 149.32 15.39C147.96 14.64 147.04 13.45 146.67 11.93C146.53 11.49 146.46 11.03 146.46 10.57C146.46 9.45998 146.82 8.40997 147.52 7.42997L148.41 6.31998C149.4 5.07998 150.69 4.22998 152.23 3.79998L152.34 3.76997C152.89 3.64997 153.45 3.58997 154 3.58997C155.04 3.58997 156.03 3.81998 156.94 4.27998C158.78 5.15998 160.48 6.05998 161.94 6.95998C163.32 7.78998 164.21 9.11998 164.5 10.8C164.57 11.12 164.61 11.45 164.61 11.81C164.61 11.91 164.61 12.02 164.6 12.12C165.1 11.99 165.62 11.93 166.16 11.93H185.46C185.43 9.96997 185.42 8.94997 185.42 8.86997C185.42 7.31997 185.99 5.89997 187.06 4.76997C188.25 3.57997 189.73 2.97998 191.39 2.97998H193.3C194.73 2.97998 196.03 3.50997 197.04 4.51997C197.23 4.70997 197.4 4.89998 197.55 5.10998C198.65 4.26998 199.86 3.75998 201.2 3.54998L201.35 3.52998H202.19C203.45 3.52998 204.69 3.86998 205.86 4.54998L205.95 4.59998C206.74 5.10998 207.51 5.61998 208.25 6.12998L208.36 6.20998C209.71 7.26998 210.42 8.75997 210.42 10.51C210.42 11.45 210.22 12.33 209.82 13.12C209.85 13.15 209.87 13.17 209.9 13.2C210.73 14.03 211.17 15.07 211.17 16.19V18.79C211.17 20.39 210.57 21.86 209.44 23.02C208.29 24.2 206.81 24.82 205.13 24.82H199.16C199.21 25.66 199.27 26.48 199.33 27.3C199.68 26.88 200.1 26.51 200.57 26.18L200.66 26.12C201.71 25.46 202.82 25.13 203.98 25.13C204.36 25.13 204.74 25.16 205.12 25.22L205.91 25.36C207.52 25.63 208.86 26.52 209.76 27.94C210.38 28.86 210.7 29.87 210.7 30.95C210.7 31.43 210.63 31.94 210.5 32.46C208.77 38.77 206.65 44.49 204.16 49.54C204.28 49.48 204.4 49.42 204.53 49.37C205.06 49.16 205.59 49.05 206.12 49.05C206.96 49.05 207.76 49.31 208.49 49.84L208.58 49.91C208.73 50.03 208.88 50.14 209.04 50.23L209.12 50.28L209.19 50.33C210.45 51.25 211.44 52.41 212.13 53.79C212.64 54.87 212.89 55.94 212.89 57.01C212.89 57.53 212.82 58.07 212.69 58.59C212 61.93 209.85 72.34 202.55 72.34H202.5V72.32ZM172.94 35C173.28 34.78 173.63 34.6 174 34.46C173.63 34.27 173.27 34.03 172.95 33.76C172.94 33.76 172.94 34.67 172.94 35ZM185.9 34.37C186.17 34.46 186.43 34.57 186.68 34.7C186.66 34.43 186.63 34.17 186.61 33.9C186.38 34.08 186.14 34.24 185.9 34.37ZM172.94 25.12C173.07 25.01 173.21 24.91 173.34 24.81H172.94V25.12Z" fill="white"/>
<path d="M193.3 4.96997C194.21 4.96997 194.99 5.28996 195.62 5.92996C196.26 6.56996 196.6 7.33997 196.65 8.24997C196.65 8.29997 196.68 8.33997 196.75 8.38997C196.78 8.40997 196.82 8.41997 196.84 8.41997C196.86 8.41997 196.89 8.40997 196.92 8.38997L198.36 7.01997C199.27 6.19997 200.32 5.69997 201.5 5.51997C201.73 5.51997 201.96 5.51997 202.18 5.51997C203.09 5.51997 203.98 5.76997 204.85 6.26997C205.62 6.76997 206.38 7.26997 207.11 7.76997C207.98 8.44997 208.41 9.36997 208.41 10.5C208.41 11.59 208.02 12.51 207.25 13.23L206.77 13.71C206.72 13.76 206.71 13.8 206.74 13.85C206.76 13.9 206.8 13.92 206.84 13.92C207.48 13.92 208.02 14.15 208.48 14.6C208.94 15.06 209.16 15.58 209.16 16.17V18.77C209.16 19.86 208.77 20.81 208 21.61C207.22 22.41 206.27 22.81 205.13 22.81H197.54C197.22 22.81 197.06 22.97 197.06 23.29C197.33 28.03 197.68 32.31 198.09 36.14C198.09 36.19 198.11 36.22 198.16 36.24C198.18 36.25 198.19 36.25 198.21 36.25C198.24 36.25 198.27 36.23 198.3 36.2C198.89 34.33 199.44 32.4 199.94 30.39C200.21 29.3 200.81 28.43 201.72 27.79C202.45 27.33 203.2 27.11 203.98 27.11C204.25 27.11 204.53 27.13 204.8 27.18L205.55 27.32C206.64 27.5 207.49 28.07 208.08 29.03C208.49 29.62 208.7 30.26 208.7 30.94C208.7 31.26 208.65 31.6 208.56 31.97C206.46 39.63 203.8 46.33 200.56 52.07C200.38 52.34 200.33 52.64 200.42 52.96C201.19 56.47 201.95 58.22 202.68 58.22C203.32 58.22 203.8 56.42 204.12 52.82C204.16 52.05 204.55 51.51 205.28 51.21C205.57 51.09 205.85 51.04 206.12 51.04C206.54 51.04 206.94 51.18 207.33 51.45C207.56 51.63 207.79 51.79 208.01 51.93C209.01 52.66 209.79 53.57 210.33 54.66C210.69 55.44 210.88 56.21 210.88 56.98C210.88 57.35 210.83 57.71 210.74 58.07C209.05 66.23 206.32 70.31 202.54 70.31C199.03 70.26 196.16 67.6 193.93 62.31C193.86 62.14 193.77 62.05 193.67 62.05C193.58 62.05 193.49 62.11 193.38 62.24C191.69 64.2 189.87 66.02 187.91 67.71C187.13 68.3 186.27 68.6 185.31 68.6C185.17 68.6 185.04 68.6 184.9 68.6C183.81 68.51 182.83 68.05 181.96 67.23C181.69 66.96 181.39 66.66 181.07 66.34C180.43 65.7 180.11 64.95 180.11 64.08C180.11 62.94 180.54 62.05 181.41 61.41C183.23 60 184.94 58.43 186.54 56.69C186.63 56.6 186.65 56.51 186.61 56.42C186.56 56.33 186.5 56.28 186.4 56.28H178.95C178.72 56.28 178.61 56.42 178.61 56.69C178.61 57.51 178.3 58.23 177.69 58.84C177.08 59.45 176.36 59.76 175.54 59.76H175.33C174.46 59.76 173.71 59.44 173.07 58.8C172.43 58.16 172.11 57.39 172.11 56.48V40.1C172.11 39.01 172.51 38.06 173.31 37.26C174.11 36.46 175.05 36.06 176.15 36.06H184.01C185.1 36.06 186.05 36.46 186.85 37.26C187.65 38.06 188.05 39 188.05 40.1V54.52C188.05 54.61 188.08 54.68 188.15 54.73C188.17 54.75 188.2 54.75 188.22 54.75C188.27 54.75 188.33 54.72 188.39 54.66C189.35 53.48 190.08 52.52 190.58 51.79C190.76 51.52 190.81 51.2 190.72 50.83C189.44 43.54 188.51 34.36 187.92 23.28C187.92 22.96 187.74 22.8 187.37 22.8H171.44C171.12 22.8 170.96 22.96 170.96 23.28V34.01C170.96 48.14 169.39 59.05 166.24 66.75C165.87 67.71 165.17 68.28 164.12 68.46C163.85 68.55 163.6 68.6 163.37 68.6C162.64 68.6 161.96 68.37 161.32 67.92C161 67.69 160.68 67.49 160.36 67.3C159.45 66.66 158.83 65.82 158.51 64.77C158.33 64.27 158.24 63.79 158.24 63.33C158.24 62.74 158.35 62.17 158.58 61.62C160.95 55.47 162.13 46.26 162.13 34V17.94C162.13 16.8 162.52 15.84 163.29 15.07C164.06 14.3 165.02 13.91 166.16 13.91H187.01C187.37 13.91 187.53 13.73 187.49 13.36C187.44 10.44 187.42 8.93998 187.42 8.84998C187.42 7.79998 187.78 6.88996 188.51 6.11996C189.28 5.34996 190.24 4.95997 191.38 4.95997H193.3V4.96997ZM197.19 13.92H202.04C202.13 13.92 202.19 13.88 202.21 13.78C202.23 13.69 202.22 13.62 202.18 13.57C200.49 12.16 198.78 10.9 197.05 9.80997C197 9.78997 196.96 9.77997 196.91 9.77997C196.86 9.77997 196.82 9.78997 196.77 9.80997C196.68 9.85997 196.63 9.94997 196.63 10.08L196.7 13.36C196.72 13.74 196.87 13.92 197.19 13.92ZM179.08 49.06H180.93C181.29 49.06 181.48 48.88 181.48 48.51V43.79C181.48 43.47 181.3 43.31 180.93 43.31H179.08C178.76 43.31 178.6 43.47 178.6 43.79V48.51C178.6 48.88 178.76 49.06 179.08 49.06ZM153.99 5.57997C154.72 5.57997 155.4 5.73997 156.04 6.05997C157.86 6.92997 159.48 7.78997 160.89 8.65997C161.8 9.20997 162.35 10.05 162.53 11.19C162.57 11.37 162.6 11.58 162.6 11.81C162.6 12.68 162.3 13.47 161.71 14.2L160.48 15.84C159.84 16.71 158.98 17.21 157.88 17.34C157.7 17.34 157.51 17.34 157.33 17.34C156.46 17.34 155.67 17.09 154.94 16.59C153.53 15.59 151.98 14.61 150.29 13.65C149.38 13.15 148.81 12.4 148.58 11.39C148.49 11.12 148.44 10.84 148.44 10.57C148.44 9.88998 148.67 9.22997 149.12 8.58997L149.94 7.55997C150.67 6.64997 151.6 6.02998 152.74 5.70998C153.17 5.62998 153.58 5.57997 153.99 5.57997ZM150.71 24.38C151.39 24.38 152.08 24.54 152.76 24.86C154.45 25.64 155.97 26.43 157.34 27.25C158.3 27.84 158.87 28.71 159.05 29.85C159.05 30.03 159.05 30.24 159.05 30.47C159.05 31.34 158.78 32.13 158.23 32.86L157 34.5C156.36 35.37 155.52 35.87 154.47 36C154.24 36.05 154.04 36.07 153.85 36.07C152.98 36.07 152.19 35.8 151.46 35.25C150.14 34.34 148.66 33.45 147.02 32.58C146.11 32.08 145.54 31.33 145.31 30.32C145.22 30.05 145.17 29.77 145.17 29.5C145.17 28.82 145.4 28.16 145.85 27.52L146.6 26.49C147.33 25.53 148.26 24.9 149.4 24.58C149.87 24.45 150.3 24.38 150.71 24.38ZM183.18 25.82C184.18 25.82 185.04 26.17 185.74 26.88C186.45 27.59 186.8 28.44 186.8 29.44C186.8 30.44 186.45 31.3 185.74 32C185.03 32.71 184.18 33.06 183.18 33.06H176.55C175.55 33.06 174.69 32.71 173.99 32C173.28 31.29 172.93 30.44 172.93 29.44C172.93 28.44 173.28 27.58 173.99 26.88C174.7 26.17 175.55 25.82 176.55 25.82H183.18ZM154.06 42.43C154.61 42.43 155.13 42.61 155.63 42.98L157 43.8C158.05 44.44 158.78 45.33 159.19 46.47C159.42 47.06 159.53 47.68 159.53 48.32C159.53 48.82 159.44 49.32 159.26 49.82C157.57 55.33 155.84 60.53 154.06 65.41C153.69 66.41 153.01 67.1 152.01 67.46C151.6 67.6 151.19 67.67 150.78 67.67C150.23 67.67 149.69 67.53 149.14 67.26L146.95 66.03C145.95 65.48 145.26 64.69 144.9 63.64C144.76 63.14 144.69 62.64 144.69 62.14C144.69 61.59 144.8 61.02 145.03 60.43C147.22 55.28 149.2 50.02 150.98 44.64C151.34 43.68 152.01 43.02 152.96 42.66C153.33 42.5 153.69 42.43 154.06 42.43ZM193.3 0.969971H191.39C189.19 0.969971 187.22 1.77997 185.69 3.29997L185.65 3.33997L185.61 3.37997C184.18 4.89997 183.43 6.78997 183.43 8.85997C183.43 8.91997 183.43 9.27997 183.44 9.91997H166.37C165.89 7.89997 164.72 6.27997 162.96 5.22997C161.47 4.31997 159.72 3.37997 157.79 2.45997C156.6 1.87997 155.33 1.57997 153.99 1.57997C153.29 1.57997 152.59 1.65997 151.89 1.80997L151.78 1.82997L151.67 1.85997C149.71 2.40997 148.08 3.47997 146.82 5.05997L146 6.07997L145.93 6.16997L145.87 6.25996C144.94 7.56996 144.44 9.05998 144.44 10.57C144.44 11.21 144.53 11.84 144.72 12.46C145.23 14.49 146.48 16.11 148.33 17.14C149.88 18.02 151.32 18.93 152.62 19.85L152.64 19.87L152.66 19.89C154.06 20.86 155.63 21.35 157.32 21.35H157.87H158.11V23.1C156.97 22.47 155.73 21.84 154.42 21.24C153.22 20.68 151.96 20.4 150.7 20.4C149.91 20.4 149.1 20.52 148.29 20.76C146.31 21.32 144.68 22.44 143.42 24.09L143.4 24.12L143.38 24.15L142.63 25.18L142.61 25.2L142.6 25.22C141.67 26.53 141.17 28.02 141.17 29.53C141.17 30.17 141.26 30.8 141.45 31.42C141.96 33.46 143.22 35.08 145.09 36.11L145.12 36.13L145.15 36.15C146.62 36.93 147.96 37.73 149.14 38.54C149.59 38.87 150.07 39.15 150.57 39.38C149.03 40.23 147.89 41.54 147.25 43.22L147.22 43.3L147.19 43.38C145.46 48.63 143.49 53.84 141.36 58.86L141.33 58.92L141.31 58.98C140.91 60.03 140.7 61.09 140.7 62.13C140.7 62.98 140.82 63.85 141.05 64.69L141.09 64.82L141.13 64.95C141.82 66.92 143.16 68.51 145.02 69.53L147.19 70.75L147.27 70.8L147.36 70.84C148.46 71.39 149.62 71.67 150.79 71.67C151.63 71.67 152.47 71.53 153.29 71.26L153.34 71.24L153.39 71.22C154.6 70.78 155.64 70.07 156.44 69.14C156.91 69.68 157.46 70.17 158.06 70.6L158.21 70.71L158.37 70.8C158.57 70.91 158.78 71.05 158.98 71.19C160.29 72.13 161.81 72.62 163.36 72.62C163.92 72.62 164.5 72.54 165.09 72.37C167.36 71.88 169.12 70.4 169.95 68.25C170.63 66.58 171.24 64.78 171.78 62.86C172.85 63.48 174.05 63.8 175.32 63.8H175.53C175.73 63.8 175.92 63.79 176.12 63.78C176.12 63.89 176.11 64 176.11 64.11C176.11 66.04 176.85 67.8 178.24 69.19L179.13 70.08L179.17 70.12L179.21 70.16C180.72 71.6 182.58 72.44 184.57 72.61L184.74 72.62H184.91H185.32C187.14 72.62 188.88 72.03 190.34 70.91L190.43 70.84L190.52 70.76C191.3 70.08 192.07 69.39 192.82 68.66C195.41 72.37 198.65 74.27 202.49 74.32H202.52H202.55C208.46 74.32 212.54 69.15 214.66 58.96C214.82 58.31 214.89 57.65 214.89 56.99C214.89 55.63 214.58 54.27 213.96 52.96L213.94 52.92L213.92 52.88C213.09 51.21 211.89 49.81 210.37 48.7L210.22 48.59L210.07 48.5C210 48.46 209.92 48.4 209.84 48.33L209.75 48.26L209.66 48.19C208.98 47.71 208.24 47.37 207.46 47.19C209.37 42.86 211.03 38.12 212.42 33.02L212.43 32.98L212.44 32.94C212.61 32.26 212.7 31.59 212.7 30.95C212.7 29.5 212.26 28.08 211.43 26.85C211.03 26.21 210.55 25.66 210.02 25.18C210.32 24.95 210.61 24.69 210.88 24.41C212.38 22.87 213.17 20.92 213.17 18.79V16.19C213.17 14.94 212.81 13.77 212.11 12.75C212.31 12.04 212.42 11.3 212.42 10.52C212.42 8.16997 211.42 6.07997 209.6 4.64997L209.5 4.56997L209.39 4.48997C208.64 3.97997 207.85 3.44997 207.05 2.92997L206.96 2.86997L206.87 2.81997C205.39 1.95997 203.82 1.52997 202.2 1.52997H201.52H201.21L200.91 1.57997C199.83 1.74997 198.8 2.07997 197.86 2.56997C196.55 1.50997 194.99 0.969971 193.3 0.969971ZM157.3 39.3C157.56 39.18 157.81 39.04 158.06 38.89C158.05 39.18 158.04 39.47 158.03 39.75L157.81 39.62C157.64 39.5 157.47 39.4 157.3 39.3Z" fill="#6A371B"/>
<path d="M218.45 70.9502C216.92 70.9502 215.55 70.3802 214.47 69.3102C213.39 68.2302 212.82 66.8502 212.82 65.3002C212.82 63.7502 213.39 62.3602 214.47 61.2902C215.55 60.2102 216.92 59.6402 218.45 59.6402H220.21C219.67 58.8102 219.39 57.8602 219.39 56.8202C219.39 55.4102 219.91 54.1402 220.9 53.1502C221.27 52.7802 221.68 52.4702 222.12 52.2402C221.09 51.1102 220.55 49.7102 220.55 48.1802V38.0602C220.55 36.7102 220.95 35.4802 221.71 34.4502H218.38C216.85 34.4502 215.49 33.8902 214.44 32.8402C213.39 31.7902 212.83 30.4302 212.83 28.9302C212.83 27.4302 213.39 26.0702 214.44 25.0202C215.49 23.9702 216.86 23.4102 218.38 23.4102H223.07C222.22 22.3602 221.78 21.0802 221.78 19.6702V10.2402C221.78 8.62021 222.4 7.15021 223.56 5.99021C224.73 4.82021 226.2 4.21021 227.81 4.21021H265.75C267.36 4.21021 268.83 4.83021 270 5.99021C271.17 7.16021 271.78 8.63021 271.78 10.2402V19.6702C271.78 21.0802 271.34 22.3602 270.49 23.4102H275.59C277.12 23.4102 278.48 23.9702 279.53 25.0202C280.58 26.0702 281.14 27.4302 281.14 28.9302C281.14 30.4302 280.58 31.7902 279.53 32.8402C278.48 33.8902 277.11 34.4502 275.59 34.4502H272.12C272.88 35.4802 273.28 36.7102 273.28 38.0602V48.1802C273.28 49.7002 272.75 51.0902 271.73 52.2202C272.19 52.4602 272.61 52.7702 273 53.1602C273.99 54.1502 274.51 55.4202 274.51 56.8302C274.51 57.8702 274.23 58.8202 273.69 59.6502H275.52C277.04 59.6502 278.42 60.2202 279.5 61.2902C280.58 62.3702 281.15 63.7602 281.15 65.3002C281.15 66.8402 280.58 68.2302 279.51 69.3102C278.43 70.3902 277.05 70.9602 275.53 70.9602H218.45V70.9502Z" fill="white"/>
<path d="M265.76 6.2002C266.85 6.2002 267.8 6.60019 268.6 7.40019C269.4 8.20019 269.8 9.1402 269.8 10.2402V19.6702C269.8 20.8102 269.4 21.7702 268.6 22.5402C267.8 23.3202 266.86 23.7002 265.76 23.7002H227.82C226.73 23.7002 225.78 23.3102 224.98 22.5402C224.18 21.7702 223.78 20.8102 223.78 19.6702V10.2402C223.78 9.1502 224.18 8.20019 224.98 7.40019C225.78 6.60019 226.72 6.2002 227.82 6.2002H265.76ZM234.11 12.6202H258.99C259.31 12.6202 259.47 12.4602 259.47 12.1402V11.5902C259.47 11.2702 259.31 11.1102 258.99 11.1102H234.11C233.74 11.1102 233.56 11.2702 233.56 11.5902V12.1402C233.56 12.4602 233.74 12.6202 234.11 12.6202ZM234.11 18.8402H258.99C259.31 18.8402 259.47 18.6602 259.47 18.2902V17.7402C259.47 17.4202 259.31 17.2602 258.99 17.2602H234.11C233.74 17.2602 233.56 17.4202 233.56 17.7402V18.2902C233.56 18.6602 233.74 18.8402 234.11 18.8402ZM275.6 25.4102C276.6 25.4102 277.45 25.7502 278.13 26.4402C278.81 27.1302 279.16 27.9602 279.16 28.9402C279.16 29.9202 278.82 30.7502 278.13 31.4402C277.44 32.1302 276.6 32.4702 275.6 32.4702H218.38C217.38 32.4702 216.53 32.1302 215.85 31.4402C215.17 30.7502 214.82 29.9302 214.82 28.9402C214.82 27.9602 215.16 27.1302 215.85 26.4402C216.54 25.7502 217.38 25.4102 218.38 25.4102H275.6ZM267.26 34.0202C268.4 34.0202 269.36 34.4102 270.13 35.1802C270.9 35.9602 271.29 36.9102 271.29 38.0502V48.1702C271.29 49.2602 270.9 50.2102 270.13 51.0102C269.35 51.8102 268.4 52.2102 267.26 52.2102H252.29C251.97 52.2102 251.81 52.3702 251.81 52.6902V53.1702C251.81 53.4902 251.97 53.6502 252.29 53.6502H269.38C270.25 53.6502 270.99 53.9602 271.6 54.5702C272.21 55.1802 272.52 55.9402 272.52 56.8302C272.52 57.7202 272.21 58.4702 271.6 59.0902C270.99 59.7102 270.24 60.0102 269.38 60.0102H252.29C251.97 60.0102 251.81 60.1702 251.81 60.4902V61.1702C251.81 61.4902 251.97 61.6502 252.29 61.6502H275.53C276.53 61.6502 277.39 62.0002 278.09 62.7102C278.8 63.4202 279.15 64.2802 279.15 65.3102C279.15 66.3402 278.8 67.2002 278.09 67.9102C277.38 68.6202 276.53 68.9702 275.53 68.9702H218.45C217.45 68.9702 216.59 68.6202 215.89 67.9102C215.18 67.2002 214.83 66.3402 214.83 65.3102C214.83 64.2802 215.18 63.4202 215.89 62.7102C216.6 62.0002 217.45 61.6502 218.45 61.6502H241.42C241.74 61.6502 241.9 61.4902 241.9 61.1702V60.4902C241.9 60.1702 241.74 60.0102 241.42 60.0102H224.54C223.67 60.0102 222.93 59.7002 222.32 59.0902C221.71 58.4802 221.4 57.7202 221.4 56.8302C221.4 55.9402 221.71 55.1902 222.32 54.5702C222.93 53.9502 223.68 53.6502 224.54 53.6502H241.42C241.74 53.6502 241.9 53.4902 241.9 53.1702V52.6902C241.9 52.3702 241.74 52.2102 241.42 52.2102H226.59C225.45 52.2102 224.49 51.8102 223.72 51.0102C222.94 50.2102 222.56 49.2702 222.56 48.1702V38.0502C222.56 36.9102 222.95 35.9502 223.72 35.1802C224.49 34.4102 225.45 34.0202 226.59 34.0202H267.26ZM252.29 40.7202H260.77C261.13 40.7202 261.32 40.5602 261.32 40.2402V39.6202C261.32 39.2602 261.14 39.0702 260.77 39.0702H252.29C251.97 39.0702 251.81 39.2502 251.81 39.6202V40.2402C251.81 40.5602 251.97 40.7202 252.29 40.7202ZM232.54 40.7202H241.43C241.75 40.7202 241.91 40.5602 241.91 40.2402V39.6202C241.91 39.2602 241.75 39.0702 241.43 39.0702H232.54C232.22 39.0702 232.06 39.2502 232.06 39.6202V40.2402C232.06 40.5602 232.22 40.7202 232.54 40.7202ZM252.29 47.0802H260.77C261.13 47.0802 261.32 46.9202 261.32 46.6002V45.9802C261.32 45.6602 261.14 45.5002 260.77 45.5002H252.29C251.97 45.5002 251.81 45.6602 251.81 45.9802V46.6002C251.81 46.9202 251.97 47.0802 252.29 47.0802ZM232.54 47.0802H241.43C241.75 47.0802 241.91 46.9202 241.91 46.6002V45.9802C241.91 45.6602 241.75 45.5002 241.43 45.5002H232.54C232.22 45.5002 232.06 45.6602 232.06 45.9802V46.6002C232.06 46.9202 232.22 47.0802 232.54 47.0802ZM265.76 2.2002H227.82C225.66 2.2002 223.7 3.0202 222.15 4.5702C220.6 6.1202 219.78 8.0802 219.78 10.2402V19.6702C219.78 20.2702 219.84 20.8502 219.96 21.4102H218.38C216.31 21.4102 214.46 22.1702 213.02 23.6102C211.58 25.0502 210.82 26.8902 210.82 28.9302C210.82 30.9702 211.58 32.8202 213.02 34.2502C214.46 35.6902 216.31 36.4502 218.38 36.4502H218.7C218.6 36.9702 218.55 37.5002 218.55 38.0602V48.1802C218.55 49.4802 218.84 50.7102 219.41 51.8202C218.09 53.1802 217.39 54.9102 217.39 56.8302C217.39 57.1302 217.41 57.4202 217.44 57.7102C215.78 57.9202 214.28 58.6602 213.06 59.8802C211.6 61.3402 210.83 63.2202 210.83 65.3102C210.83 67.4002 211.6 69.2802 213.06 70.7402C214.52 72.2002 216.38 72.9702 218.45 72.9702H275.53C277.6 72.9702 279.46 72.2002 280.92 70.7402C282.38 69.2802 283.15 67.4002 283.15 65.3102C283.15 63.2202 282.38 61.3502 280.92 59.8902C279.68 58.6502 278.16 57.9102 276.47 57.7102C276.5 57.4202 276.52 57.1302 276.52 56.8402C276.52 54.9002 275.81 53.1502 274.45 51.7802C275 50.6802 275.29 49.4702 275.29 48.1902V38.0702C275.29 37.5202 275.24 36.9802 275.14 36.4602H275.6C277.67 36.4602 279.52 35.7002 280.96 34.2602C282.4 32.8202 283.16 30.9802 283.16 28.9402C283.16 26.9002 282.4 25.0502 280.96 23.6202C279.52 22.1802 277.67 21.4202 275.6 21.4202H273.61C273.73 20.8602 273.79 20.2802 273.79 19.6802V10.2502C273.79 8.0902 272.97 6.14019 271.42 4.59019C269.87 3.01019 267.91 2.2002 265.76 2.2002Z" fill="#6A371B"/>
<path d="M318.19 71.3602C311.58 71.3602 306.22 70.8301 302.27 69.7901C299.07 68.9501 296.28 67.4601 293.95 65.3401C293.49 66.5701 292.97 67.7201 292.41 68.7802C291.58 70.2802 290.23 71.0802 288.59 71.0802H288.43C286.91 71.0102 285.58 70.3301 284.59 69.1201L283.92 68.3202C282.95 67.1702 282.36 65.8101 282.17 64.2601C282.11 63.9301 282.08 63.5701 282.08 63.2001C282.08 62.0501 282.32 60.9302 282.8 59.8602C283.96 57.1602 284.67 52.9601 284.88 47.4001C284.94 45.7601 285.59 44.3002 286.75 43.1702C286.79 43.1301 286.83 43.0901 286.87 43.0602C285.95 42.8102 285.11 42.3202 284.4 41.6102C283.32 40.5402 282.76 39.1602 282.76 37.6302C282.76 36.1002 283.33 34.7301 284.41 33.6501C285.49 32.5701 286.86 32.0002 288.39 32.0002H288.77C288.21 31.7102 287.69 31.3202 287.22 30.8502C286.09 29.6902 285.49 28.2301 285.49 26.6201V10.6902C285.49 9.09016 286.09 7.62016 287.22 6.46016C288.37 5.28016 289.85 4.66016 291.53 4.66016H309.71C311.32 4.66016 312.79 5.28016 313.96 6.44016C314.3 6.78015 314.59 7.14015 314.84 7.53015C315.08 7.10015 315.39 6.70015 315.75 6.34015C316.8 5.29015 318.14 4.73016 319.63 4.73016H345.13C346.61 4.73016 347.95 5.29015 349.01 6.34015C350.06 7.39015 350.62 8.75015 350.62 10.2502C350.62 11.7502 350.06 13.1102 349.01 14.1602C348.27 14.9002 347.39 15.3901 346.43 15.6201C346.69 15.8101 346.94 16.0202 347.17 16.2502C348.31 17.4002 348.92 18.8801 348.92 20.5401V45.0802C348.92 46.6802 348.32 48.1502 347.19 49.3102C346.85 49.6601 346.48 49.9602 346.08 50.2102C347.1 51.0702 348.11 51.9701 349.11 52.9301C350.11 53.9301 350.62 55.1502 350.62 56.5002V57.1501L350.59 57.3202C350.41 58.3402 349.99 59.2302 349.36 59.9402C349.84 60.2702 350.26 60.7102 350.59 61.2502C351.07 62.0502 351.3 62.8601 351.3 63.6801C351.3 64.2401 351.19 64.8202 350.97 65.4102C350.87 65.6502 350.8 65.8601 350.72 66.0901C350.17 67.6301 349.27 68.8801 348.04 69.8401C346.75 70.8502 345.29 71.3602 343.7 71.3602H318.19ZM331.46 51.1302C331.56 51.3502 331.65 51.5901 331.73 51.8401C331.87 52.2601 331.95 52.7302 331.95 53.1702C331.95 54.3002 331.53 55.3602 330.75 56.2202C329.64 57.3502 328.47 58.4201 327.23 59.4301C331.69 59.4201 335.52 59.3902 338.68 59.3602C337.66 58.3102 336.54 57.2502 335.33 56.1702C334.3 55.2201 333.77 54.0202 333.77 52.6902C333.77 52.1402 333.85 51.6202 334 51.1402H331.46V51.1302ZM307.75 58.8302C309.51 59.1002 311.65 59.2702 314.16 59.3602C313.7 58.6302 313.46 57.8002 313.46 56.9202V56.4801L313.47 56.3802C313.54 55.6402 313.78 54.9602 314.15 54.3602C313.33 54.8402 312.4 55.0901 311.43 55.0901H307.76V58.8302H307.75ZM316.81 48.1201C316.92 48.5601 316.98 49.0302 316.98 49.5002C316.98 50.6802 316.63 51.7802 315.95 52.7202C317.16 52.0102 318.32 51.2601 319.37 50.5101C318.79 50.2201 318.25 49.8302 317.77 49.3502C317.39 48.9702 317.07 48.5601 316.81 48.1201ZM311.42 43.9102C312.9 43.9102 314.25 44.4802 315.33 45.5502C315.66 45.8802 315.95 46.2402 316.18 46.6302C316.05 46.1302 315.98 45.6201 315.98 45.0901V42.2301C315.03 42.9101 313.92 43.2702 312.72 43.2702H307.75V43.9202H311.42V43.9102ZM312.72 32.0202C313.93 32.0202 315.04 32.3801 315.98 33.0602V20.5602C315.98 18.8902 316.6 17.4002 317.78 16.2502C318 16.0402 318.23 15.8402 318.47 15.6702C317.45 15.4602 316.52 14.9501 315.75 14.1801V26.6501C315.75 28.2701 315.13 29.7401 313.97 30.9001C313.5 31.3701 312.99 31.7502 312.43 32.0302H312.72V32.0202Z" fill="white"/>
<path d="M309.71 6.68017C310.8 6.68017 311.75 7.08018 312.55 7.88018C313.35 8.68018 313.75 9.62018 313.75 10.7202V26.6502C313.75 27.7402 313.35 28.6902 312.55 29.4902C311.75 30.2902 310.81 30.6902 309.71 30.6902H291.53C290.39 30.6902 289.43 30.2902 288.66 29.4902C287.88 28.6902 287.5 27.7502 287.5 26.6502V10.7202C287.5 9.63018 287.89 8.68018 288.66 7.88018C289.43 7.08018 290.39 6.68017 291.53 6.68017H309.71ZM296.93 15.4902H303.83C304.19 15.4902 304.38 15.3302 304.38 15.0102V13.8502C304.38 13.5302 304.2 13.3702 303.83 13.3702H296.93C296.61 13.3702 296.45 13.5302 296.45 13.8502V15.0102C296.45 15.3302 296.61 15.4902 296.93 15.4902ZM296.93 23.9702H303.83C304.19 23.9702 304.38 23.8102 304.38 23.4902V22.2602C304.38 21.9402 304.2 21.7802 303.83 21.7802H296.93C296.61 21.7802 296.45 21.9402 296.45 22.2602V23.4902C296.45 23.8102 296.61 23.9702 296.93 23.9702ZM345.12 6.74018C346.08 6.74018 346.9 7.08018 347.58 7.77018C348.26 8.46018 348.61 9.29018 348.61 10.2702C348.61 11.2502 348.27 12.0802 347.58 12.7702C346.89 13.4602 346.08 13.8002 345.12 13.8002H337.53C337.21 13.8002 336.98 13.9602 336.85 14.2802L335.96 16.0602C335.91 16.1502 335.91 16.2502 335.96 16.3702C336 16.4802 336.1 16.5402 336.23 16.5402H342.86C344 16.5402 344.96 16.9302 345.73 17.7002C346.5 18.4802 346.89 19.4302 346.89 20.5702V45.1102C346.89 46.2002 346.5 47.1502 345.73 47.9502C344.95 48.7502 344 49.1502 342.86 49.1502H341.9C341.81 49.1502 341.75 49.1802 341.73 49.2502C341.71 49.3202 341.72 49.3802 341.76 49.4202C343.76 50.8802 345.75 52.5402 347.71 54.4102C348.3 55.0002 348.6 55.7102 348.6 56.5302C348.6 56.6702 348.6 56.8302 348.6 57.0102C348.42 58.0602 347.87 58.8302 346.96 59.3302L344.02 61.0402C343.93 61.0902 343.89 61.1402 343.92 61.2102C343.94 61.2802 344 61.3102 344.09 61.3102C345.14 61.2702 346.07 61.2402 346.89 61.2402H346.96C347.78 61.2402 348.42 61.6102 348.87 62.3302C349.14 62.7902 349.28 63.2402 349.28 63.7002C349.28 64.0202 349.21 64.3602 349.07 64.7302C348.98 64.9602 348.89 65.2102 348.8 65.4802C348.39 66.6202 347.72 67.5502 346.78 68.2802C345.85 69.0102 344.81 69.3702 343.67 69.3702H318.17C311.7 69.3702 306.56 68.8702 302.75 67.8702C298.94 66.8702 295.83 64.8802 293.42 61.9202C293.35 61.8502 293.27 61.8102 293.18 61.8102C293.16 61.8102 293.14 61.8102 293.11 61.8202C293 61.8402 292.94 61.9002 292.94 61.9902C292.3 64.1802 291.53 66.1402 290.62 67.8702C290.16 68.6902 289.48 69.1002 288.57 69.1002H288.5C287.54 69.0502 286.75 68.6402 286.11 67.8702C285.88 67.6002 285.65 67.3202 285.43 67.0502C284.7 66.1802 284.27 65.1602 284.13 63.9702C284.08 63.7402 284.06 63.4902 284.06 63.2202C284.06 62.3502 284.24 61.5102 284.61 60.6902C285.89 57.7302 286.64 53.3302 286.87 47.5002C286.91 46.3602 287.34 45.4002 288.13 44.6302C288.93 43.8602 289.88 43.4702 291 43.4702C292.12 43.4702 293.06 43.8602 293.84 44.6302C294.57 45.4102 294.93 46.2902 294.93 47.3002C294.93 47.8902 294.86 48.9602 294.72 50.5102C294.67 50.8802 294.72 51.1902 294.86 51.4702C295.41 52.8402 296.11 54.0902 296.98 55.2302C297.01 55.2902 297.05 55.3202 297.09 55.3202C297.11 55.3202 297.13 55.3102 297.15 55.3002C297.22 55.2602 297.25 55.2102 297.25 55.1602V41.8302C297.25 41.4702 297.09 41.2802 296.77 41.2802H288.36C287.36 41.2802 286.5 40.9302 285.8 40.2202C285.09 39.5102 284.74 38.6602 284.74 37.6602C284.74 36.6602 285.09 35.8002 285.8 35.1002C286.51 34.3902 287.36 34.0402 288.36 34.0402H312.7C313.7 34.0402 314.56 34.3902 315.26 35.1002C315.97 35.8102 316.32 36.6602 316.32 37.6602C316.32 38.6602 315.97 39.5202 315.26 40.2202C314.55 40.9302 313.7 41.2802 312.7 41.2802H306.27C305.9 41.2802 305.72 41.4602 305.72 41.8302V45.3802C305.72 45.7502 305.9 45.9302 306.27 45.9302H311.4C312.36 45.9302 313.19 46.2802 313.9 46.9902C314.61 47.7002 314.96 48.5402 314.96 49.5202C314.96 50.5002 314.61 51.3402 313.9 52.0502C313.19 52.7602 312.36 53.1102 311.4 53.1102H306.27C305.9 53.1102 305.72 53.2902 305.72 53.6602V60.0002C305.72 60.3702 305.9 60.5702 306.27 60.6202C309.14 61.1702 313.11 61.4402 318.16 61.4402H318.5C318.59 61.4402 318.66 61.4002 318.71 61.3002C318.75 61.2102 318.73 61.1402 318.64 61.0902C317.86 60.3202 317.07 59.5602 316.25 58.8302C315.7 58.2802 315.43 57.6502 315.43 56.9202C315.43 56.7802 315.43 56.6702 315.43 56.5802C315.52 55.6702 315.98 54.9902 316.8 54.5302C318.21 53.7102 319.51 52.8702 320.7 52.0002C322.29 50.7202 323.89 50.0902 325.49 50.0902C326.13 50.0902 326.79 50.2002 327.47 50.4302L328.02 50.5702C328.93 50.8902 329.52 51.5002 329.8 52.4202C329.89 52.6902 329.94 52.9402 329.94 53.1702C329.94 53.8102 329.71 54.3802 329.26 54.8802C326.94 57.2502 324.29 59.3502 321.33 61.1702C321.24 61.2202 321.2 61.2702 321.23 61.3402C321.25 61.4102 321.31 61.4402 321.4 61.4402C330.65 61.4402 337.69 61.4002 342.52 61.3002C342.66 61.3002 342.75 61.2602 342.79 61.1602C342.83 61.0702 342.81 60.9802 342.72 60.8902C341.08 58.8902 339.05 56.8102 336.64 54.6702C336.05 54.1202 335.75 53.4602 335.75 52.6902C335.75 51.6002 336.21 50.8002 337.12 50.3002L338.97 49.3402C339.01 49.3402 339.04 49.3102 339.04 49.2402C339.04 49.1702 338.99 49.1402 338.9 49.1402H322.02C320.93 49.1402 319.98 48.7402 319.18 47.9402C318.38 47.1402 317.98 46.2002 317.98 45.1002V20.5602C317.98 19.4202 318.38 18.4602 319.18 17.6902C319.98 16.9202 320.92 16.5302 322.02 16.5302H326.67C327.03 16.5302 327.26 16.3702 327.35 16.0502L327.9 14.2702C327.9 14.1302 327.87 14.0202 327.8 13.9302C327.73 13.8402 327.63 13.7902 327.49 13.7902H319.63C318.67 13.7902 317.85 13.4502 317.17 12.7602C316.49 12.0702 316.14 11.2502 316.14 10.2602C316.14 9.28017 316.48 8.45017 317.17 7.76017C317.86 7.07017 318.67 6.73017 319.63 6.73017H345.12V6.74018ZM327.49 25.4102H337.06C337.38 25.4102 337.54 25.2302 337.54 24.8602V23.7702C337.54 23.4102 337.38 23.2202 337.06 23.2202H327.49C327.12 23.2202 326.94 23.4002 326.94 23.7702V24.8602C326.94 25.2202 327.12 25.4102 327.49 25.4102ZM327.49 33.8802H337.06C337.38 33.8802 337.54 33.7002 337.54 33.3302V32.1702C337.54 31.8502 337.38 31.6902 337.06 31.6902H327.49C327.12 31.6902 326.94 31.8502 326.94 32.1702V33.3302C326.94 33.7002 327.12 33.8802 327.49 33.8802ZM327.49 42.3602H337.06C337.38 42.3602 337.54 42.1802 337.54 41.8102V40.6502C337.54 40.3302 337.38 40.1702 337.06 40.1702H327.49C327.12 40.1702 326.94 40.3302 326.94 40.6502V41.8102C326.94 42.1802 327.12 42.3602 327.49 42.3602ZM309.71 2.68018H291.53C289.31 2.68018 287.32 3.51017 285.79 5.09017C284.29 6.63017 283.5 8.58018 283.5 10.7102V26.6402C283.5 28.2002 283.92 29.6602 284.74 30.9402C284.11 31.2802 283.53 31.7202 283 32.2602C281.54 33.7202 280.77 35.5802 280.77 37.6502C280.77 39.7202 281.54 41.5802 283 43.0402C283.27 43.3102 283.54 43.5502 283.84 43.7702C283.27 44.8502 282.94 46.0502 282.89 47.3302C282.63 53.9502 281.7 57.3802 280.96 59.1002C280.39 60.3902 280.09 61.7802 280.09 63.2102C280.09 63.6802 280.13 64.1402 280.2 64.5702C280.45 66.4802 281.19 68.1802 282.39 69.6102L283.06 70.4202C284.4 72.0502 286.23 72.9802 288.33 73.0802H288.43H288.53H288.6C290.96 73.0802 292.99 71.8802 294.15 69.7902L294.17 69.7502L294.19 69.7102C294.39 69.3302 294.59 68.9402 294.77 68.5402C296.84 69.9802 299.18 71.0402 301.76 71.7202C305.94 72.8202 311.32 73.3602 318.19 73.3602H343.69C345.71 73.3602 347.63 72.6902 349.26 71.4202C350.8 70.2202 351.91 68.6702 352.58 66.8202L352.6 66.7702L352.62 66.7202C352.68 66.5302 352.74 66.3602 352.81 66.2002L352.83 66.1502L352.85 66.1002C353.15 65.2902 353.31 64.4702 353.31 63.6702C353.31 62.4802 352.98 61.3302 352.33 60.2502L352.31 60.2202L352.29 60.1902C352.18 60.0102 352.05 59.8302 351.93 59.6702C352.23 59.0502 352.45 58.3802 352.57 57.6702L352.63 57.3302V56.9802V56.5002C352.63 54.6102 351.92 52.9002 350.57 51.5502L350.53 51.5102L350.49 51.4802C350.03 51.0402 349.56 50.6002 349.09 50.1802C350.29 48.7302 350.91 46.9802 350.91 45.0802V20.5402C350.91 18.9602 350.49 17.4902 349.69 16.2202C349.94 16.0202 350.19 15.8102 350.42 15.5702C351.86 14.1302 352.62 12.2902 352.62 10.2502C352.62 8.20018 351.86 6.36018 350.42 4.93018C348.98 3.49018 347.15 2.73018 345.13 2.73018H319.63C317.82 2.73018 316.16 3.34018 314.8 4.50018C313.35 3.31018 311.61 2.68018 309.71 2.68018ZM332.36 57.4002C332.6 57.1202 332.81 56.8402 332.99 56.5402C333.21 56.8402 333.45 57.1302 333.72 57.4002C333.28 57.4002 332.82 57.4002 332.36 57.4002ZM309.97 57.0902H311.42C311.43 57.0902 311.44 57.0902 311.46 57.0902C311.46 57.1302 311.46 57.1802 311.46 57.2202C310.94 57.1802 310.45 57.1402 309.97 57.0902Z" fill="#6A371B"/>
</svg>
