<svg width="22" height="24" viewBox="0 0 22 24" fill="none" xmlns="http://www.w3.org/2000/svg">
<path d="M21.8219 16.848C21.8219 17.184 21.5202 17.328 21.1682 17.472C19.7602 18.048 18.2516 18.576 16.6425 18.576C14.3796 18.576 13.3236 17.232 10.6082 17.232C8.64703 17.232 6.58531 17.904 4.92589 18.624C4.82531 18.672 4.72474 18.672 4.62417 18.72V22.368C4.62417 23.3714 3.83247 24 2.96474 24C2.00931 24 1.25503 23.28 1.25503 22.368V4.8C0.601314 4.32 0.148743 3.552 0.148743 2.688C0.148743 1.2 1.40589 0 2.96474 0C4.5236 0 5.78074 1.2 5.78074 2.688C5.78074 3.552 5.37846 4.32 4.67446 4.8V6.288C4.87698 6.22359 7.56039 4.944 10.3065 4.944C13.5117 4.944 15.103 6.24 16.5419 6.24C18.4527 6.24 20.5647 4.944 21.0676 4.944C21.4699 4.944 21.8219 5.232 21.8219 5.568V16.848Z" fill="#FCA311"/>
</svg>
