<svg width="22" height="24" viewBox="0 0 22 24" fill="none" xmlns="http://www.w3.org/2000/svg">
<path d="M21.5832 8.94375C21.7508 8.79844 22 8.93437 22 9.16406V18.75C22 19.9922 21.0762 21 19.9375 21H2.0625C0.923828 21 0 19.9922 0 18.75V9.16875C0 8.93438 0.244922 8.80312 0.416797 8.94844C1.3793 9.76406 2.65547 10.8 7.03828 14.2734C7.94492 14.9953 9.47461 16.5141 11 16.5047C12.534 16.5188 14.0937 14.9672 14.966 14.2734C19.3488 10.8 20.6207 9.75938 21.5832 8.94375ZM11 15C11.9969 15.0188 13.432 13.6313 14.1539 13.0594C19.8559 8.54531 20.2898 8.15156 21.6047 7.02656C21.8539 6.81562 22 6.4875 22 6.14062V5.25C22 4.00781 21.0762 3 19.9375 3H2.0625C0.923828 3 0 4.00781 0 5.25V6.14062C0 6.4875 0.146094 6.81094 0.395312 7.02656C1.71016 8.14687 2.14414 8.54531 7.84609 13.0594C8.56797 13.6313 10.0031 15.0188 11 15Z" fill="#FCA311"/>
</svg>
