<svg width="22" height="24" viewBox="0 0 22 24" fill="none" xmlns="http://www.w3.org/2000/svg">
<g clip-path="url(#clip0)">
<path d="M10.7086 6.94967L3.66665 14.0676V21.75C3.66665 21.9489 3.73104 22.1397 3.84564 22.2803C3.96025 22.421 4.11569 22.5 4.27776 22.5L8.55783 22.4864C8.71937 22.4854 8.87403 22.406 8.98797 22.2654C9.10192 22.1249 9.16588 21.9347 9.16588 21.7364V17.25C9.16588 17.0511 9.23027 16.8603 9.34487 16.7197C9.45948 16.579 9.61491 16.5 9.77699 16.5H12.2214C12.3835 16.5 12.5389 16.579 12.6536 16.7197C12.7682 16.8603 12.8325 17.0511 12.8325 17.25V21.7331C12.8323 21.8318 12.8479 21.9296 12.8785 22.0208C12.9091 22.1121 12.9541 22.1951 13.0109 22.265C13.0676 22.3349 13.1351 22.3903 13.2093 22.4281C13.2836 22.466 13.3632 22.4855 13.4437 22.4855L17.7222 22.5C17.8843 22.5 18.0397 22.421 18.1543 22.2803C18.2689 22.1397 18.3333 21.9489 18.3333 21.75V14.0625L11.2929 6.94967C11.2102 6.86779 11.107 6.82314 11.0007 6.82314C10.8944 6.82314 10.7913 6.86779 10.7086 6.94967ZM21.8319 11.7876L18.6389 8.55748V2.06482C18.6389 1.91564 18.5906 1.77256 18.5046 1.66707C18.4187 1.56158 18.3021 1.50232 18.1805 1.50232H16.0416C15.9201 1.50232 15.8035 1.56158 15.7175 1.66707C15.6316 1.77256 15.5833 1.91564 15.5833 2.06482V5.46842L12.1638 2.0156C11.8356 1.68418 11.4238 1.50298 10.9988 1.50298C10.5738 1.50298 10.1621 1.68418 9.8339 2.0156L0.165756 11.7876C0.119345 11.8347 0.0809476 11.8926 0.0527571 11.9579C0.0245665 12.0232 0.00713572 12.0946 0.00146057 12.1682C-0.00421458 12.2418 0.00197715 12.316 0.019682 12.3866C0.0373868 12.4572 0.0662578 12.5229 0.104645 12.5798L1.0786 14.033C1.11688 14.0901 1.16397 14.1374 1.21717 14.1722C1.27037 14.2069 1.32863 14.2285 1.38862 14.2356C1.44861 14.2427 1.50916 14.2352 1.56679 14.2135C1.62442 14.1919 1.678 14.1565 1.72447 14.1094L10.7086 5.02779C10.7913 4.94591 10.8944 4.90126 11.0007 4.90126C11.107 4.90126 11.2102 4.94591 11.2929 5.02779L20.2774 14.1094C20.3238 14.1565 20.3773 14.1919 20.4348 14.2136C20.4924 14.2354 20.5529 14.243 20.6128 14.236C20.6727 14.229 20.731 14.2076 20.7842 14.173C20.8374 14.1384 20.8845 14.0913 20.9229 14.0344L21.8968 12.5812C21.9352 12.524 21.9639 12.458 21.9814 12.387C21.9989 12.3161 22.0048 12.2416 21.9988 12.1679C21.9928 12.0941 21.9749 12.0226 21.9463 11.9573C21.9176 11.8921 21.8788 11.8344 21.8319 11.7876Z" fill="#FCA311"/>
</g>
<defs>
<clipPath id="clip0">
<rect width="22" height="24" fill="white"/>
</clipPath>
</defs>
</svg>
