<svg width="30" height="30" viewBox="0 0 30 30" fill="none" xmlns="http://www.w3.org/2000/svg">
<path d="M12.1875 10.3125H17.8125V11.25H12.1875V10.3125Z" fill="black"/>
<path d="M12.1875 6.5625H17.8125V7.5H12.1875V6.5625Z" fill="black"/>
<path d="M12.1875 12.1875H17.8125V13.125H12.1875V12.1875Z" fill="black"/>
<path d="M12.1875 8.4375H17.8125V9.375H12.1875V8.4375Z" fill="black"/>
<path d="M12.1875 14.0625H17.8125V15H12.1875V14.0625Z" fill="black"/>
<path d="M10.3125 18.75H12.1875V19.6875H10.3125V18.75Z" fill="black"/>
<path d="M13.125 18.75H22.5V19.6875H13.125V18.75Z" fill="black"/>
<path d="M9.375 20.625H15.9375V21.5625H9.375V20.625Z" fill="black"/>
<path d="M16.875 20.625H18.75V21.5625H16.875V20.625Z" fill="black"/>
<path d="M19.6875 20.625H22.5V21.5625H19.6875V20.625Z" fill="black"/>
<path d="M7.5 20.625H8.4375V21.5625H7.5V20.625Z" fill="black"/>
<path d="M7.5 22.5H22.5V23.4375H7.5V22.5Z" fill="black"/>
<path d="M7.5 24.375H11.25V25.3125H7.5V24.375Z" fill="black"/>
<path d="M12.1875 24.375H22.5V25.3125H12.1875V24.375Z" fill="black"/>
<path d="M3.28125 12.6562H8.90625V13.5938H3.28125V12.6562Z" fill="#FCA311"/>
<path d="M3.28125 14.5312H8.90625V15.4688H3.28125V14.5312Z" fill="#FCA311"/>
<path d="M27.6562 7.5H25.7812V2.34375C25.7812 1.97079 25.6331 1.6131 25.3694 1.34938C25.1056 1.08566 24.748 0.9375 24.375 0.9375H5.625C5.25204 0.9375 4.89435 1.08566 4.63063 1.34938C4.36691 1.6131 4.21875 1.97079 4.21875 2.34375V10.3125H2.34375C1.97079 10.3125 1.6131 10.4607 1.34938 10.7244C1.08566 10.9881 0.9375 11.3458 0.9375 11.7188V16.4062C0.9375 16.7792 1.08566 17.1369 1.34938 17.4006C1.6131 17.6643 1.97079 17.8125 2.34375 17.8125H4.21875V27.6562C4.21875 28.0292 4.36691 28.3869 4.63063 28.6506C4.89435 28.9143 5.25204 29.0625 5.625 29.0625H24.375C24.748 29.0625 25.1056 28.9143 25.3694 28.6506C25.6331 28.3869 25.7812 28.0292 25.7812 27.6562V15H27.6562C28.0292 15 28.3869 14.8518 28.6506 14.5881C28.9143 14.3244 29.0625 13.9667 29.0625 13.5938V8.90625C29.0625 8.53329 28.9143 8.1756 28.6506 7.91188C28.3869 7.64816 28.0292 7.5 27.6562 7.5ZM8.90625 1.875V3.14062L8.8275 3.0225C8.78469 2.9583 8.7267 2.90566 8.65866 2.86926C8.59063 2.83285 8.51466 2.8138 8.4375 2.8138C8.36034 2.8138 8.28437 2.83285 8.21634 2.86926C8.1483 2.90566 8.09031 2.9583 8.0475 3.0225L7.96875 3.14062V1.875H8.90625ZM1.875 16.4062V11.7188C1.875 11.5944 1.92439 11.4752 2.01229 11.3873C2.1002 11.2994 2.21943 11.25 2.34375 11.25H9.84375C9.96807 11.25 10.0873 11.2994 10.1752 11.3873C10.2631 11.4752 10.3125 11.5944 10.3125 11.7188V16.4062C10.3125 16.5306 10.2631 16.6498 10.1752 16.7377C10.0873 16.8256 9.96807 16.875 9.84375 16.875H7.96875C7.84443 16.875 7.7252 16.9244 7.63729 17.0123C7.54939 17.1002 7.5 17.2194 7.5 17.3438V18.0783L6.43406 17.0123C6.34618 16.9244 6.22697 16.875 6.10266 16.875H2.34375C2.21943 16.875 2.1002 16.8256 2.01229 16.7377C1.92439 16.6498 1.875 16.5306 1.875 16.4062ZM24.8438 27.6562C24.8438 27.7806 24.7944 27.8998 24.7065 27.9877C24.6185 28.0756 24.4993 28.125 24.375 28.125H5.625C5.50068 28.125 5.38145 28.0756 5.29354 27.9877C5.20564 27.8998 5.15625 27.7806 5.15625 27.6562V17.8125H5.90625L7.63547 19.5417C7.70092 19.6079 7.7846 19.6531 7.87584 19.6716C7.96707 19.69 8.06174 19.6809 8.14776 19.6453C8.23379 19.6098 8.30729 19.5494 8.35889 19.4719C8.41049 19.3945 8.43786 19.3034 8.4375 19.2103V17.8125H9.84375C10.2167 17.8125 10.5744 17.6643 10.8381 17.4006C11.1018 17.1369 11.25 16.7792 11.25 16.4062V11.7188C11.25 11.3458 11.1018 10.9881 10.8381 10.7244C10.5744 10.4607 10.2167 10.3125 9.84375 10.3125H5.15625V2.34375C5.15625 2.21943 5.20564 2.1002 5.29354 2.01229C5.38145 1.92439 5.50068 1.875 5.625 1.875H7.03125V4.6875C7.03123 4.78811 7.06358 4.88606 7.12352 4.96687C7.18346 5.04767 7.2678 5.10705 7.36409 5.13622C7.46038 5.16539 7.5635 5.16281 7.65821 5.12885C7.75292 5.09489 7.83418 5.03136 7.89 4.94766L8.4375 4.125L8.985 4.94625C9.04075 5.02986 9.12189 5.09334 9.21646 5.12733C9.31103 5.16131 9.41402 5.16401 9.51023 5.13502C9.60645 5.10603 9.69081 5.04688 9.75086 4.96631C9.81091 4.88573 9.84347 4.78799 9.84375 4.6875V1.875H24.375C24.4993 1.875 24.6185 1.92439 24.7065 2.01229C24.7944 2.1002 24.8438 2.21943 24.8438 2.34375V7.5H20.1562C19.7833 7.5 19.4256 7.64816 19.1619 7.91188C18.8982 8.1756 18.75 8.53329 18.75 8.90625V13.5938C18.75 13.9667 18.8982 14.3244 19.1619 14.5881C19.4256 14.8518 19.7833 15 20.1562 15H21.5625V16.3978C21.5625 16.4905 21.59 16.5811 21.6415 16.6582C21.693 16.7353 21.7662 16.7953 21.8519 16.8308C21.9375 16.8663 22.0318 16.8755 22.1227 16.8575C22.2136 16.8394 22.2971 16.7948 22.3627 16.7292L24.0938 15H24.8438V27.6562ZM28.125 13.5938C28.125 13.7181 28.0756 13.8373 27.9877 13.9252C27.8998 14.0131 27.7806 14.0625 27.6562 14.0625H23.8973C23.773 14.0625 23.6538 14.1119 23.5659 14.1998L22.5 15.2658V14.5312C22.5 14.4069 22.4506 14.2877 22.3627 14.1998C22.2748 14.1119 22.1556 14.0625 22.0312 14.0625H20.1562C20.0319 14.0625 19.9127 14.0131 19.8248 13.9252C19.7369 13.8373 19.6875 13.7181 19.6875 13.5938V8.90625C19.6875 8.78193 19.7369 8.6627 19.8248 8.57479C19.9127 8.48689 20.0319 8.4375 20.1562 8.4375H27.6562C27.7806 8.4375 27.8998 8.48689 27.9877 8.57479C28.0756 8.6627 28.125 8.78193 28.125 8.90625V13.5938Z" fill="black"/>
<path d="M21.0938 9.84375H26.7188V10.7812H21.0938V9.84375Z" fill="#FCA311"/>
<path d="M21.0938 11.7188H26.7188V12.6562H21.0938V11.7188Z" fill="#FCA311"/>
</svg>
