<svg width="22" height="22" viewBox="0 0 22 22" fill="none" xmlns="http://www.w3.org/2000/svg">
<path d="M2.57812 3.4375H1.54688C1.45234 3.4375 1.375 3.51484 1.375 3.60938V18.3906C1.375 18.4852 1.45234 18.5625 1.54688 18.5625H2.57812C2.67266 18.5625 2.75 18.4852 2.75 18.3906V3.60938C2.75 3.51484 2.67266 3.4375 2.57812 3.4375ZM20.4746 3.4375H19.4434C19.3488 3.4375 19.2715 3.51484 19.2715 3.60938V18.3906C19.2715 18.4852 19.3488 18.5625 19.4434 18.5625H20.4746C20.5691 18.5625 20.6465 18.4852 20.6465 18.3906V3.60938C20.6465 3.51484 20.5691 3.4375 20.4746 3.4375ZM4.29688 15.8125H6.70312C6.79766 15.8125 6.875 15.7352 6.875 15.6406V3.60938C6.875 3.51484 6.79766 3.4375 6.70312 3.4375H4.29688C4.20234 3.4375 4.125 3.51484 4.125 3.60938V15.6406C4.125 15.7352 4.20234 15.8125 4.29688 15.8125ZM11.1934 15.8125H12.2246C12.3191 15.8125 12.3965 15.7352 12.3965 15.6406V3.60938C12.3965 3.51484 12.3191 3.4375 12.2246 3.4375H11.1934C11.0988 3.4375 11.0215 3.51484 11.0215 3.60938V15.6406C11.0215 15.7352 11.0988 15.8125 11.1934 15.8125ZM13.9004 15.8125H17.7246C17.8191 15.8125 17.8965 15.7352 17.8965 15.6406V3.60938C17.8965 3.51484 17.8191 3.4375 17.7246 3.4375H13.9004C13.8059 3.4375 13.7285 3.51484 13.7285 3.60938V15.6406C13.7285 15.7352 13.8059 15.8125 13.9004 15.8125ZM8.42188 15.8125H9.45312C9.54766 15.8125 9.625 15.7352 9.625 15.6406V3.60938C9.625 3.51484 9.54766 3.4375 9.45312 3.4375H8.42188C8.32734 3.4375 8.25 3.51484 8.25 3.60938V15.6406C8.25 15.7352 8.32734 15.8125 8.42188 15.8125ZM6.72461 17.1875H4.31836C4.22383 17.1875 4.14648 17.2648 4.14648 17.3594V18.3906C4.14648 18.4852 4.22383 18.5625 4.31836 18.5625H6.72461C6.81914 18.5625 6.89648 18.4852 6.89648 18.3906V17.3594C6.89648 17.2648 6.81914 17.1875 6.72461 17.1875ZM12.2461 17.1875H11.2148C11.1203 17.1875 11.043 17.2648 11.043 17.3594V18.3906C11.043 18.4852 11.1203 18.5625 11.2148 18.5625H12.2461C12.3406 18.5625 12.418 18.4852 12.418 18.3906V17.3594C12.418 17.2648 12.3406 17.1875 12.2461 17.1875ZM17.7461 17.1875H13.9219C13.8273 17.1875 13.75 17.2648 13.75 17.3594V18.3906C13.75 18.4852 13.8273 18.5625 13.9219 18.5625H17.7461C17.8406 18.5625 17.918 18.4852 17.918 18.3906V17.3594C17.918 17.2648 17.8406 17.1875 17.7461 17.1875ZM9.47461 17.1875H8.44336C8.34883 17.1875 8.27148 17.2648 8.27148 17.3594V18.3906C8.27148 18.4852 8.34883 18.5625 8.44336 18.5625H9.47461C9.56914 18.5625 9.64648 18.4852 9.64648 18.3906V17.3594C9.64648 17.2648 9.56914 17.1875 9.47461 17.1875Z" fill="#4F4F4F"/>
</svg>
