<svg width="80" height="80" viewBox="0 0 80 80" fill="none" xmlns="http://www.w3.org/2000/svg">
<path d="M71.1057 28.8458L79.5426 20.4089C79.8905 20.0617 80.0541 19.5703 79.9845 19.0839C79.9155 18.5974 79.6207 18.1714 79.1898 17.9346L69.047 12.3651C68.2908 11.9501 67.3411 12.2266 66.9254 12.9828C66.5104 13.7396 66.7863 14.6893 67.5431 15.1044L75.861 19.6716L68.6204 26.9116L42.5785 12.6117L49.8185 5.37171L57.1372 9.39087C57.8934 9.80591 58.8438 9.53003 59.2588 8.7732C59.6744 8.01697 59.3979 7.06665 58.6411 6.65161L50.2946 2.06787C49.6854 1.7334 48.9286 1.84143 48.4379 2.33277L40.0004 10.7703L31.5629 2.33277C31.0715 1.84143 30.3147 1.73401 29.7062 2.06787L0.810906 17.9346C0.379998 18.1714 0.0851978 18.5968 0.0162279 19.0839C-0.0533521 19.5703 0.110222 20.0617 0.458123 20.4089L8.89501 28.8458L0.458123 37.2821C0.110222 37.63 -0.0533521 38.1207 0.0162279 38.6078C0.0851978 39.0942 0.379998 39.5203 0.810906 39.7565L9.5426 44.5514V60.578C9.5426 61.1487 9.85326 61.6736 10.3531 61.9482L39.2484 77.8143C39.4828 77.9431 39.7416 78.0072 40.0004 78.0072C40.2592 78.0072 40.5179 77.9431 40.7523 77.8143L69.6476 61.9482C70.1475 61.6736 70.4581 61.1487 70.4581 60.578V44.5514L79.1898 39.7571C79.6207 39.5203 79.9155 39.0942 79.9845 38.6078C80.0541 38.1213 79.8905 37.63 79.5426 37.2827L71.1057 28.8458ZM40.0004 42.9291L14.3516 28.8452L40.0004 14.7607L65.6492 28.8452L40.0004 42.9291ZM30.1829 5.37171L37.4222 12.6117L11.3804 26.9116L4.14037 19.6716L30.1829 5.37171ZM11.3816 30.7794L37.4235 45.0793L30.1829 52.32L4.14037 38.02L11.3816 30.7794ZM67.3331 59.6539L41.5629 73.8043V57.832C41.5629 56.969 40.8634 56.2695 40.0004 56.2695C39.1373 56.2695 38.4379 56.969 38.4379 57.832V73.8043L12.6676 59.6539V46.2677L29.7062 55.6238C29.9424 55.7532 30.2012 55.8167 30.4575 55.8167C30.8622 55.8167 31.2626 55.6592 31.5629 55.3589L40.0004 46.9214L48.4379 55.3589C48.7382 55.6598 49.1385 55.8167 49.5432 55.8167C49.7996 55.8167 50.0583 55.7532 50.2946 55.6238L67.3331 46.2677V59.6539ZM49.8185 52.32L42.5779 45.0787L68.6198 30.7794L75.861 38.0194L49.8185 52.32Z" fill="#E0E0E0"/>
<path d="M63.25 12.5275C63.6608 12.5275 64.0624 12.3603 64.3547 12.0691C64.6453 11.7786 64.8125 11.3758 64.8125 10.965C64.8125 10.5536 64.6453 10.1508 64.3547 9.86026C64.0642 9.56912 63.6608 9.4025 63.25 9.4025C62.8374 9.4025 62.4358 9.56912 62.1453 9.86026C61.8529 10.1508 61.6875 10.5536 61.6875 10.965C61.6875 11.3758 61.8529 11.7786 62.1453 12.0691C62.4358 12.3603 62.8392 12.5275 63.25 12.5275Z" fill="#E0E0E0"/>
<path d="M40 51.0822C39.5892 51.0822 39.1858 51.2488 38.8953 51.5399C38.6047 51.8317 38.4375 52.2333 38.4375 52.6447C38.4375 53.0566 38.6047 53.4583 38.8953 53.7506C39.1858 54.0411 39.5892 54.2072 40 54.2072C40.4108 54.2072 40.8142 54.0411 41.1047 53.7506C41.3953 53.4583 41.5625 53.0566 41.5625 52.6447C41.5625 52.2333 41.3953 51.8317 41.1047 51.5399C40.8142 51.2488 40.4108 51.0822 40 51.0822Z" fill="#E0E0E0"/>
</svg>
