<svg width="163" height="30" viewBox="0 0 163 30" fill="none" xmlns="http://www.w3.org/2000/svg">
<g clip-path="url(#clip0)">
<path d="M26.9178 28.1989C26.4274 28.7873 25.6429 29.2106 24.5641 29.2106H2.94212C2.09045 29.2106 1.34202 28.8183 0.784564 28.1628C0.294212 27.5795 0 26.7949 0 25.9742V4.02194C0 3.17027 0.423252 2.35473 1.14072 1.83341C1.66204 1.44113 2.38466 1.17789 3.23117 1.17789H24.3989C25.4106 1.17789 26.1952 1.57017 26.7526 2.1586C27.3101 2.77799 27.6352 3.62965 27.6352 4.51229V26.2065C27.6404 26.924 27.4081 27.6414 26.9178 28.1989ZM24.6002 4.38325C24.6002 3.96 24.177 3.50061 23.8157 3.50061H3.91766C3.49441 3.50061 3.00405 3.82579 3.00405 4.31614V26.0413C3.00405 26.5988 3.52538 26.924 3.91766 26.924H23.7485C24.2389 26.924 24.6002 26.5988 24.6002 26.0723V4.38325ZM20.1922 18.8203C20.4193 19.7029 20.8787 21.432 21.1058 22.2527C21.2348 22.645 21.6942 22.8721 22.0504 22.8721H23.7485L23.2892 25.1277H21.4929C21.0026 25.1277 20.4451 25.0606 19.9599 24.8335C19.5367 24.6374 19.1444 24.3122 18.8812 23.7857C18.654 23.3263 18.4218 22.5108 18.2927 21.9895C17.6372 22.9392 16.2333 24.7664 15.4848 25.6181H11.7943C13.9157 23.4967 16.0113 20.6217 17.3791 18.4331C16.8217 16.1156 15.8771 12.0947 15.5519 9.74099H4.05186V7.55247H15.1235C14.9583 6.76791 14.7003 5.29685 14.6022 4.54841H17.2501C17.3791 5.26588 17.6114 6.73694 17.8075 7.55247H19.4076C19.1444 6.89695 18.7521 5.62719 18.5921 4.97167H21.1058C21.3019 5.65816 21.7613 6.93308 22.0194 7.55247H23.6195V9.74099H18.2308C18.4579 11.1759 19.0154 13.7928 19.3405 15.0316C19.8619 14.18 20.6464 12.3528 21.0077 11.274H23.8518C22.9691 13.4006 21.4981 16.6008 20.1922 18.8203ZM4.1138 24.3432V21.8295C6.92171 21.4062 11.9543 20.1003 14.5661 19.3158V21.6695C11.9233 22.516 6.85977 23.8528 4.1138 24.3432ZM13.8847 18.0357C13.5234 18.526 12.9711 18.8203 12.1556 18.8203H7.06108C6.40555 18.8203 5.88423 18.557 5.49195 18.1338C5.13064 17.7415 4.90353 17.184 4.90353 16.5646V13.3954C4.90353 12.8379 5.16677 12.3166 5.59002 11.9244C6.01327 11.563 6.60169 11.3359 7.19012 11.3359H11.8304C12.6459 11.3359 13.2705 11.5992 13.6937 11.9914C14.1531 12.4508 14.3802 13.0702 14.3802 13.7567V16.2395C14.3751 16.9259 14.246 17.5815 13.8847 18.0357ZM11.5001 14.0871C11.5001 13.7258 11.2368 13.4677 10.8807 13.4677H8.33083C7.96952 13.4677 7.64434 13.7309 7.64434 14.1232V16.0846C7.64434 16.4459 7.96952 16.7401 8.26373 16.7401H10.9426C11.2368 16.7401 11.5001 16.544 11.5001 16.1207V14.0871Z" fill="#14213D"/>
<path d="M60.6385 15.0316H57.6654V12.776C57.6654 12.5128 57.4383 12.2547 57.1441 12.2547H35.7751C35.4809 12.2547 35.2176 12.5179 35.2176 12.9721V15.0626H32.2136V12.6779C32.2136 11.7953 32.5388 11.0778 33.1272 10.5875C33.5866 10.2262 34.206 9.99906 34.9905 9.99906H57.9906C58.7081 9.99906 59.3275 10.2262 59.7869 10.6185C60.3082 11.0417 60.6385 11.6663 60.6385 12.4457V15.0316ZM56.2254 9.18353C55.2137 8.26993 54.233 7.19115 53.4794 6.14335C52.891 7.28922 51.8483 8.36284 50.7695 9.18353H42.8671C41.7574 8.3009 40.8747 7.19115 40.1212 6.0814C39.3366 7.19115 38.3559 8.39897 37.1481 9.18353H32.2497C34.3402 8.07379 36.7248 6.7008 37.8346 4.51228C38.3559 3.46447 38.3559 2.09664 38.3249 0.883667H41.1328C41.0348 2.5199 40.9057 4.21806 40.2812 5.65299H43.1562C43.9717 6.89177 45.2466 8.03765 46.4235 8.92028C48.5449 8.10475 50.8986 5.91623 51.4199 4.0529C51.647 3.20123 51.7141 1.93147 51.7451 0.883667H54.522C54.424 2.55087 54.2588 4.18193 53.7065 5.65299H56.3183C57.428 7.02598 58.8681 8.26477 60.3391 9.18353H56.2254ZM34.144 4.64132C33.7827 3.92386 33.2304 2.64893 32.9362 1.53919H35.646C35.9093 2.32375 36.4977 3.92386 36.9519 4.64132H34.144ZM58.7752 28.8183C58.2848 29.2106 57.5983 29.4067 56.8809 29.4067H35.9402C35.1557 29.4067 34.4692 29.2106 34.015 28.8492C33.4937 28.426 33.1994 27.8014 33.1994 26.9859V24.338C33.1994 23.4863 33.5917 22.836 34.1801 22.4127C34.7015 22.0514 35.357 21.8553 36.0435 21.8553H44.4414C44.6066 21.494 44.9008 20.6113 44.9989 20.1881H38.1597C37.4732 20.1881 36.9158 20.0229 36.5287 19.7287C35.9712 19.3364 35.677 18.717 35.677 17.9634V15.9039C35.677 15.0523 36.0022 14.4638 36.4925 14.1077C36.9829 13.7154 37.6694 13.5502 38.4178 13.5502H54.8524C55.6679 13.5502 56.3234 13.7774 56.7467 14.2367C57.108 14.629 57.3041 15.1503 57.3041 15.8368V17.7311C57.3041 18.5157 57.0409 19.1351 56.5867 19.5584C56.1634 19.9506 55.5389 20.1777 54.8214 20.1777H47.9926C47.8945 20.601 47.6003 21.4836 47.4713 21.8449H57.2061C57.9597 21.8449 58.5119 22.1082 58.9042 22.5314C59.4255 23.0218 59.6578 23.7392 59.6578 24.3948V26.8465C59.6578 27.7395 59.3326 28.395 58.7752 28.8183ZM56.6538 24.6064C56.6538 24.2812 56.3286 24.018 55.9982 24.018H36.6577C36.3635 24.018 36.1364 24.3122 36.1364 24.6374V26.5988C36.1364 26.9601 36.3996 27.2182 36.7919 27.2182H56.0344C56.3286 27.2182 56.6538 26.9911 56.6538 26.5627V24.6064ZM54.331 16.3065C54.331 16.0123 54.1039 15.7852 53.7426 15.7852H39.2075C38.9443 15.7852 38.7172 15.9814 38.7172 16.3065V17.4524C38.7172 17.7776 39.0114 18.0099 39.2746 18.0099H53.7788C54.073 18.0099 54.3362 17.7828 54.3362 17.4886V16.3065H54.331ZM44.5343 4.64132H41.5922C42.3097 3.69158 42.9291 2.64893 43.3575 1.53919H45.9692C45.7731 2.61796 44.9885 3.89289 44.5343 4.64132ZM47.6674 4.64132C47.2442 3.62964 46.8157 2.64893 46.6867 1.53919H49.2365C49.4998 2.48892 49.923 3.82578 50.3773 4.64132H47.6674ZM58.0268 4.64132H55.0227C55.6782 3.85675 56.3957 2.64893 56.8189 1.53919H59.4978C59.1984 2.64893 58.481 3.99096 58.0268 4.64132Z" fill="#14213D"/>
<path d="M88.8467 9.28162H93.7348V12.327H76.8305L75.4059 14.4948H93.4147V17.4731H76.1543L74.9259 19.6771H89.461C91.1075 19.6771 92.4444 21.014 92.4444 22.6605V24.7561C92.4444 27.0995 90.5449 29.0041 88.1964 29.0041H70.4869L68.2209 25.9897H84.4129C85.342 25.9897 86.0956 25.2361 86.0956 24.307C86.0956 23.378 85.342 22.6244 84.4129 22.6244H68.2519V20.0332L68.8042 19.0938H64.9485L69.9707 12.327H65.0156V9.28162H73.5632V6.2053H66.146V3.15995H73.5632V0.666901H79.912V3.15995H85.3213V5.19879L87.7525 1.96246H94.2303L88.8467 9.28162ZM79.9068 6.2053V9.28162H82.2708L84.5368 6.2053H79.9068Z" fill="#FCA311"/>
<path d="M127.156 29.1022H120.389L118.479 8.31123H110.319V6.00915H98.9841V2.99993H101.637L101.121 0.60495H107.212L107.764 2.99993H110.453V5.30201H118.227L117.71 0.60495H123.445L123.899 5.30201H127.817V8.31123H124.188L125.809 25.9639H128.302L127.156 29.1022ZM99.5622 27.8686V18.1854C99.5622 17.504 100.114 16.9569 100.791 16.9569H108.631C109.312 16.9569 109.86 17.5092 109.86 18.1854V27.8737C109.86 28.555 109.307 29.1022 108.631 29.1022H100.791C100.114 29.1022 99.5622 28.5499 99.5622 27.8686ZM99.6603 10.6391V7.66086H109.767V10.6391H99.6603ZM99.6603 15.2381V12.2599H109.767V15.2381H99.6603ZM105.328 20.0332H104.032V26.0568H105.328V20.0332ZM110.541 28.7099V25.6336L111.996 25.2465V15.042H110.603V12.0327H118.309V15.042H116.946V23.9148L119.31 23.3986V26.4439L110.541 28.7099ZM127.579 3.86709C127.579 3.86709 128.333 1.84374 126.501 0.785609C126.501 0.785609 125.148 0.331386 124.792 1.18305C124.792 1.18305 123.718 3.89805 125.386 4.46067C125.386 4.46067 127.43 5.02329 127.579 3.86709Z" fill="#FCA311"/>
<path d="M160.799 29.0351H143.601L140.039 27.2853L139.033 29.0351H132.978L135.699 23.9509V19.4809H133.433V16.5027L135.73 11.0314H132.978V7.9241H141.299V11.6508L139.358 16.3478H141.335V24.4774L144.54 26.031H162.157L160.799 29.0351ZM156.169 25.0193L155.07 21.974H156.753V20.1932H154.812V24.6941H149.114V20.1932H147.173V24.8903H142.641V7.56278H147.694L144.324 4.71358H150.899L151.772 5.45685L153.976 3.93417H143.255V0.888824H158.657C159.793 0.888824 160.712 1.80759 160.712 2.94314C160.712 3.60383 160.392 4.22839 159.855 4.61035L155.757 7.55762H158.926C160.216 7.55762 161.264 8.60542 161.264 9.89582V22.6811C161.264 23.9715 160.216 25.0193 158.926 25.0193H156.169ZM149.108 10.6081H147.168V12.5179H149.108V10.6081ZM149.108 15.4033H147.168V17.344H149.108V15.4033ZM156.753 10.6081H154.812V12.5179H156.753V10.6081ZM156.753 15.4033H154.812V17.344H156.753V15.4033ZM140.132 1.30691C140.132 1.30691 136.199 0.212653 134.207 3.11348C134.207 3.11348 133.376 5.24522 135.033 5.77171C135.033 5.77171 140.318 7.34083 141.351 4.71358C141.351 4.70841 142.362 1.49273 140.132 1.30691Z" fill="#FCA311"/>
</g>
<defs>
<clipPath id="clip0">
<rect width="162.162" height="30" fill="white"/>
</clipPath>
</defs>
</svg>
