<svg width="30" height="30" viewBox="0 0 30 30" fill="none" xmlns="http://www.w3.org/2000/svg">
<path d="M8.4375 20.1562C9.21281 20.1562 9.84375 19.5253 9.84375 18.75C9.84375 17.9747 9.21281 17.3438 8.4375 17.3438C7.66219 17.3438 7.03125 17.9747 7.03125 18.75C7.03125 19.5253 7.66219 20.1562 8.4375 20.1562ZM8.4375 18.2812C8.69625 18.2812 8.90625 18.4917 8.90625 18.75C8.90625 19.0083 8.69625 19.2188 8.4375 19.2188C8.17875 19.2188 7.96875 19.0083 7.96875 18.75C7.96875 18.4917 8.17875 18.2812 8.4375 18.2812Z" fill="#FCA311"/>
<path d="M7.96875 16.4062H8.90625C9.42328 16.4062 9.84375 15.9858 9.84375 15.4688V10.7812C9.84375 10.2642 9.42328 9.84375 8.90625 9.84375H7.96875C7.45172 9.84375 7.03125 10.2642 7.03125 10.7812V15.4688C7.03125 15.9858 7.45172 16.4062 7.96875 16.4062ZM7.96875 10.7812H8.90625L8.90672 15.4688H7.96875V10.7812Z" fill="#FCA311"/>
<path d="M25.7812 7.03125V2.34375C25.7812 1.30969 24.9403 0.46875 23.9062 0.46875H5.625C4.33266 0.46875 3.28125 1.52016 3.28125 2.8125V7.96875H2.34375C1.30969 7.96875 0.46875 8.80969 0.46875 9.84375V20.1562C0.46875 21.1903 1.30969 22.0312 2.34375 22.0312H3.28125V27.1875C3.28125 28.4798 4.33266 29.5312 5.625 29.5312H27.1875C28.4798 29.5312 29.5312 28.4798 29.5312 27.1875V7.03125H25.7812ZM1.40625 20.1562V9.84375C1.40625 9.32672 1.82672 8.90625 2.34375 8.90625H14.5312C15.0483 8.90625 15.4688 9.32672 15.4688 9.84375V20.1562C15.4688 20.6733 15.0483 21.0938 14.5312 21.0938H9.47812L8.56547 24.7439C8.53641 24.8616 8.33953 24.8616 8.31 24.7439L7.39687 21.0938H2.34375C1.82672 21.0938 1.40625 20.6733 1.40625 20.1562ZM13.5938 22.0312H14.5312C15.2222 22.0312 15.8203 21.6516 16.1456 21.0938H22.0312V25.7812H13.5938V22.0312ZM14.5312 7.96875H12.6562V4.21875H22.0312V9.84375H16.4062C16.4062 8.80969 15.5653 7.96875 14.5312 7.96875ZM4.21875 27.1875V22.0312H6.66563L7.40063 24.9713C7.51969 25.4484 7.94625 25.7812 8.4375 25.7812C8.92875 25.7812 9.35531 25.4484 9.47437 24.9713L10.2094 22.0312H12.6562V26.7188H22.9688V20.1562H16.4062V19.2188H19.2188V18.2812H16.4062V17.3438H22.9688V16.4062H16.4062V15.4688H19.2188V14.5312H16.4062V13.5938H22.9688V12.6562H16.4062V10.7812H22.9688V3.28125H11.7188V7.96875H4.21875V2.8125C4.21875 2.03719 4.84969 1.40625 5.625 1.40625H23.9062C24.4233 1.40625 24.8438 1.82672 24.8438 2.34375V27.1875C24.8438 27.7172 25.027 28.2009 25.3247 28.5938H5.625C4.84969 28.5938 4.21875 27.9628 4.21875 27.1875ZM28.5938 27.1875C28.5938 27.9628 27.9628 28.5938 27.1875 28.5938C26.4122 28.5938 25.7812 27.9628 25.7812 27.1875V7.96875H26.7188V25.7812H27.6562V7.96875H28.5938V27.1875Z" fill="black"/>
<path d="M20.1562 14.5312H22.9688V15.4688H20.1562V14.5312Z" fill="black"/>
<path d="M20.1562 18.2812H22.9688V19.2188H20.1562V18.2812Z" fill="black"/>
</svg>
