<svg width="28" height="28" viewBox="0 0 28 28" fill="none" xmlns="http://www.w3.org/2000/svg">
<circle cx="14" cy="14" r="14" fill="#F2F2F2"/>
<path d="M18.7721 13.0235C18.827 13.0216 18.8818 13.0307 18.933 13.0505C18.9843 13.0702 19.0311 13.1 19.0706 13.1382C19.1101 13.1763 19.1416 13.2221 19.163 13.2726C19.1845 13.3232 19.1955 13.3776 19.1955 13.4325C19.1955 13.4875 19.1845 13.5418 19.163 13.5924C19.1416 13.643 19.1101 13.6887 19.0706 13.7269C19.0311 13.7651 18.9843 13.7949 18.933 13.8146C18.8818 13.8343 18.827 13.8435 18.7721 13.8416H17.6351V14.5708H18.7721C18.8274 14.5681 18.8826 14.5766 18.9344 14.5959C18.9862 14.6152 19.0336 14.6448 19.0737 14.6829C19.1137 14.721 19.1456 14.7669 19.1674 14.8177C19.1891 14.8686 19.2004 14.9233 19.2004 14.9786C19.2004 15.0339 19.1891 15.0886 19.1674 15.1395C19.1456 15.1903 19.1137 15.2362 19.0737 15.2743C19.0336 15.3124 18.9862 15.342 18.9344 15.3613C18.8826 15.3806 18.8274 15.3891 18.7721 15.3864H17.2278C17.1198 15.3861 17.0164 15.3429 16.9401 15.2665C16.8639 15.1901 16.821 15.0866 16.8209 14.9786V11.8869C16.8209 11.6619 17.0032 11.4771 17.2278 11.4771H18.775C18.88 11.4826 18.9789 11.5282 19.0511 11.6045C19.1234 11.6808 19.1635 11.782 19.1632 11.8871C19.1629 11.9922 19.1222 12.0932 19.0495 12.1691C18.9767 12.245 18.8776 12.29 18.7726 12.2948H17.6356V13.0239L18.7721 13.0235ZM16.2764 14.9781C16.2755 15.0864 16.2319 15.1899 16.1551 15.2662C16.0783 15.3425 15.9744 15.3854 15.8662 15.3855C15.8021 15.3861 15.7387 15.3718 15.6811 15.3437C15.6234 15.3156 15.5731 15.2745 15.5341 15.2236L13.9519 13.0716V14.9776C13.9519 15.0858 13.9089 15.1895 13.8324 15.266C13.7559 15.3425 13.6522 15.3855 13.544 15.3855C13.4358 15.3855 13.3321 15.3425 13.2556 15.266C13.1791 15.1895 13.1362 15.0858 13.1362 14.9776V11.886C13.1362 11.7114 13.2504 11.5549 13.4147 11.499C13.4553 11.4847 13.4981 11.4776 13.5411 11.4781C13.6675 11.4781 13.7841 11.5467 13.8624 11.6429L15.4573 13.7998V11.886C15.4573 11.6609 15.6396 11.4762 15.8652 11.4762C16.0907 11.4762 16.2755 11.6609 16.2755 11.886L16.2764 14.9781ZM12.5548 14.9781C12.5543 15.0865 12.5108 15.1904 12.4339 15.2668C12.357 15.3432 12.2529 15.3861 12.1445 15.386C12.0369 15.3851 11.934 15.3417 11.8581 15.2653C11.7823 15.189 11.7397 15.0857 11.7396 14.9781V11.8864C11.7396 11.6614 11.9219 11.4767 12.1474 11.4767C12.3725 11.4767 12.5553 11.6614 12.5553 11.8864L12.5548 14.9781ZM10.9569 15.386H9.40963C9.30131 15.3857 9.19747 15.3427 9.12066 15.2664C9.04384 15.19 9.00025 15.0864 8.99935 14.9781V11.8864C8.99935 11.6614 9.18407 11.4767 9.40963 11.4767C9.63518 11.4767 9.81748 11.6614 9.81748 11.8864V14.5703H10.9569C11.0651 14.5703 11.1688 14.6132 11.2453 14.6897C11.3218 14.7662 11.3648 14.8699 11.3648 14.9781C11.3648 15.0863 11.3218 15.19 11.2453 15.2665C11.1688 15.343 11.0651 15.386 10.9569 15.386ZM21.7778 13.3142C21.7778 9.83312 18.286 7.00006 14 7.00006C9.71393 7.00006 6.2222 9.83312 6.2222 13.3142C6.2222 16.4335 8.98963 19.0464 12.7264 19.5427C12.9796 19.5957 13.3238 19.7099 13.4128 19.9253C13.491 20.1197 13.4633 20.4211 13.438 20.6267L13.3316 21.2874C13.3009 21.4823 13.1746 22.0549 14.0102 21.7054C14.8482 21.3559 18.4941 19.0624 20.1269 17.1831C21.2435 15.9605 21.7778 14.7044 21.7778 13.3142Z" fill="#828282"/>
</svg>
