<svg width="30" height="30" viewBox="0 0 30 30" fill="none" xmlns="http://www.w3.org/2000/svg">
<path d="M6.5625 10.7812H23.4375C23.6963 10.7812 23.9062 10.5712 23.9062 10.3125V2.8125C23.9062 2.55375 23.6963 2.34375 23.4375 2.34375H6.5625C6.30375 2.34375 6.09375 2.55375 6.09375 2.8125V10.3125C6.09375 10.5712 6.30375 10.7812 6.5625 10.7812ZM7.03125 3.28125H22.9688V9.84375H7.03125V3.28125Z" fill="black"/>
<path d="M10.3125 6.80299L8.835 4.43908C8.72391 4.26142 8.50922 4.17986 8.30813 4.23658C8.10703 4.29471 7.96875 4.47846 7.96875 4.68752V8.90627H8.90625V6.32205L10.3838 8.68596C10.4709 8.82564 10.6228 8.90627 10.7812 8.90627C10.8244 8.90627 10.868 8.90018 10.9106 8.88799C11.1117 8.83033 11.25 8.64658 11.25 8.43752V4.21877H10.3125V6.80299Z" fill="#FCA311"/>
<path d="M12.1875 4.6875V8.4375C12.1875 8.69625 12.3975 8.90625 12.6562 8.90625H14.5312V7.96875H13.125V7.03125H14.5312V6.09375H13.125V5.15625H14.5312V4.21875H12.6562C12.3975 4.21875 12.1875 4.42875 12.1875 4.6875Z" fill="#FCA311"/>
<path d="M17.3438 6.00375L17.3105 5.91984C17.2388 5.74172 17.0667 5.625 16.875 5.625C16.6833 5.625 16.5112 5.74172 16.4395 5.91938L16.4062 6.00375V4.21875H15.4688V8.4375C15.4688 8.66203 15.6281 8.85516 15.8489 8.89781C16.0692 8.93953 16.2891 8.82 16.373 8.61188L16.875 7.35563L17.377 8.61141C17.4497 8.79188 17.6236 8.90625 17.8125 8.90625C17.8416 8.90625 17.8716 8.90344 17.9011 8.89781C18.1219 8.85516 18.2812 8.66203 18.2812 8.4375V4.21875H17.3438V6.00375Z" fill="#FCA311"/>
<path d="M19.2188 5.625C19.2188 6.40031 19.8497 7.03125 20.625 7.03125C20.8833 7.03125 21.0938 7.24172 21.0938 7.5C21.0938 7.75828 20.8833 7.96875 20.625 7.96875H19.2188V8.90625H20.625C21.4003 8.90625 22.0312 8.27531 22.0312 7.5C22.0312 6.72469 21.4003 6.09375 20.625 6.09375C20.3667 6.09375 20.1562 5.88328 20.1562 5.625C20.1562 5.36672 20.3667 5.15625 20.625 5.15625H22.0312V4.21875H20.625C19.8497 4.21875 19.2188 4.84969 19.2188 5.625Z" fill="#FCA311"/>
<path d="M26.4666 10.8342C26.3114 10.7536 26.1244 10.7658 25.9814 10.8661L25.7812 11.0058V0.9375C25.7812 0.67875 25.5713 0.46875 25.3125 0.46875H4.6875C4.42875 0.46875 4.21875 0.67875 4.21875 0.9375V3.28125H0.9375C0.67875 3.28125 0.46875 3.49125 0.46875 3.75V27.1875C0.46875 28.4798 1.52016 29.5312 2.8125 29.5312H22.5C24.3094 29.5312 25.7812 28.0594 25.7812 26.25V24.6192L25.9814 24.7594C26.0616 24.8152 26.1553 24.8438 26.25 24.8438C26.3241 24.8438 26.3981 24.8259 26.4666 24.7908C26.6213 24.7102 26.7188 24.5498 26.7188 24.375V11.25C26.7188 11.0752 26.6213 10.9148 26.4666 10.8342ZM1.40625 27.1875V4.21875H4.21875V27.1875C4.21875 27.9628 3.58781 28.5938 2.8125 28.5938C2.03719 28.5938 1.40625 27.9628 1.40625 27.1875ZM24.8438 26.25C24.8438 27.5423 23.7923 28.5938 22.5 28.5938H4.67531C4.97297 28.2009 5.15625 27.7172 5.15625 27.1875V1.40625H24.8438V11.662L21.4148 14.0625H18.2812C16.7302 14.0625 15.4688 15.3239 15.4688 16.875V18.75C15.4688 19.972 16.253 21.0113 17.3438 21.3984V24.8438C17.3438 25.8778 18.1847 26.7188 19.2188 26.7188C20.2528 26.7188 21.0938 25.8778 21.0938 24.8438V21.5625H21.4148L24.8438 23.963V26.25ZM22.0312 20.8495V14.7755L23.9062 13.463V22.1625L22.0312 20.8495ZM18.2812 21.5625H20.1562V24.8438C20.1562 25.3608 19.7358 25.7812 19.2188 25.7812C18.7017 25.7812 18.2812 25.3608 18.2812 24.8438V21.5625ZM18.2812 20.625C17.2472 20.625 16.4062 19.7841 16.4062 18.75V16.875C16.4062 15.8409 17.2472 15 18.2812 15H21.0938V20.625H18.2812ZM25.7812 23.475L24.8438 22.8188V12.8062L25.7812 12.15V23.475Z" fill="black"/>
<path d="M27.6562 16.4062H29.5312V17.3438H27.6562V16.4062Z" fill="black"/>
<path d="M27.3204 14.6697L28.7268 13.2634L29.3897 13.9263L27.9833 15.3326L27.3204 14.6697Z" fill="black"/>
<path d="M27.3199 19.0826L27.9828 18.4197L29.3892 19.826L28.7263 20.4889L27.3199 19.0826Z" fill="black"/>
<path d="M6.5625 21.0938H14.0625C14.3212 21.0938 14.5312 20.8837 14.5312 20.625V12.1875C14.5312 11.9288 14.3212 11.7188 14.0625 11.7188H6.5625C6.30375 11.7188 6.09375 11.9288 6.09375 12.1875V20.625C6.09375 20.8837 6.30375 21.0938 6.5625 21.0938ZM7.03125 12.6562H13.5938V20.1562H7.03125V12.6562Z" fill="black"/>
<path d="M6.09375 22.0312H16.4062V22.9688H6.09375V22.0312Z" fill="black"/>
<path d="M6.09375 23.9062H16.4062V24.8438H6.09375V23.9062Z" fill="black"/>
<path d="M6.09375 25.7812H16.4062V26.7188H6.09375V25.7812Z" fill="black"/>
</svg>
