<svg width="13" height="11" viewBox="0 0 13 11" fill="none" xmlns="http://www.w3.org/2000/svg">
<path d="M2.23913 5.5L6.21739 1.56836C6.4058 1.38216 6.5 1.16732 6.5 0.923828C6.5 0.680337 6.4058 0.465496 6.21739 0.279297C6.02898 0.0930979 5.8116 0 5.56522 0C5.31884 0 5.10145 0.0930979 4.91304 0.279297L0.282609 4.85547C0.0942019 5.04167 0 5.25651 0 5.5C0 5.74349 0.0942019 5.95833 0.282609 6.14453L4.91304 10.7422C5.01449 10.8281 5.12681 10.8926 5.25 10.9355C5.37319 10.9785 5.47826 11 5.56522 11C5.66667 11 5.77898 10.9785 5.90217 10.9355C6.02536 10.8926 6.13043 10.8281 6.21739 10.7422C6.4058 10.556 6.5 10.3411 6.5 10.0977C6.5 9.85417 6.4058 9.63932 6.21739 9.45312L2.23913 5.5ZM8.71739 5.5L12.7174 1.56836C12.9058 1.38216 13 1.16732 13 0.923828C13 0.680337 12.9058 0.465496 12.7174 0.279297C12.529 0.0930979 12.3116 0 12.0652 0C11.8188 0 11.6014 0.0930979 11.413 0.279297L6.78261 4.85547C6.5942 5.04167 6.5 5.25651 6.5 5.5C6.5 5.74349 6.5942 5.95833 6.78261 6.14453L11.413 10.7422C11.5145 10.8281 11.6268 10.8926 11.75 10.9355C11.8732 10.9785 11.9783 11 12.0652 11C12.1522 11 12.2572 10.9785 12.3804 10.9355C12.5036 10.8926 12.6159 10.8281 12.7174 10.7422C12.9058 10.556 13 10.3411 13 10.0977C13 9.85417 12.9058 9.63932 12.7174 9.45312L8.71739 5.5Z" fill="#999999"/>
</svg>
