<svg width="7" height="11" viewBox="0 0 7 11" fill="none" xmlns="http://www.w3.org/2000/svg">
<path d="M6.06198 4.93802L1.34506 0.221106C1.18537 0.0737011 1.00112 0 0.792295 0C0.583472 0 0.399219 0.0737011 0.239531 0.221106C0.0798428 0.380794 0 0.565046 0 0.773869C0 0.982692 0.0798428 1.16694 0.239531 1.32663L4.40369 5.49079L0.239531 9.65494C0.0798428 9.81463 0 9.99888 0 10.2077C0 10.4165 0.0798428 10.6008 0.239531 10.7605C0.325517 10.8465 0.408431 10.9079 0.488275 10.9447C0.568119 10.9816 0.669458 11 0.792295 11C0.915132 11 1.01647 10.9816 1.09632 10.9447C1.17616 10.9079 1.25907 10.8465 1.34506 10.7605L6.06198 6.04355C6.22166 5.88386 6.30151 5.69961 6.30151 5.49079C6.30151 5.28196 6.22166 5.09771 6.06198 4.93802Z" fill="#999999"/>
</svg>
