<svg width="13" height="11" viewBox="0 0 13 11" fill="none" xmlns="http://www.w3.org/2000/svg">
<path d="M12.5684 4.85547L7.99219 0.279297C7.80599 0.0930979 7.59115 0 7.34766 0C7.10417 0 6.88932 0.0930979 6.70312 0.279297C6.51693 0.465496 6.42383 0.680337 6.42383 0.923828C6.42383 1.16732 6.51693 1.38216 6.70312 1.56836L10.6348 5.5L6.70312 9.45312C6.51693 9.63932 6.42383 9.85417 6.42383 10.0977C6.42383 10.3411 6.51693 10.556 6.70312 10.7422C6.78906 10.8281 6.8929 10.8926 7.01465 10.9355C7.13639 10.9785 7.2474 11 7.34766 11C7.43359 11 7.53743 10.9785 7.65918 10.9355C7.78093 10.8926 7.89193 10.8281 7.99219 10.7422L12.5684 6.14453C12.7546 5.95833 12.8477 5.74349 12.8477 5.5C12.8477 5.25651 12.7546 5.04167 12.5684 4.85547ZM6.14453 4.85547L1.56836 0.279297C1.38216 0.0930979 1.16732 0 0.923828 0C0.680337 0 0.465496 0.0930979 0.279297 0.279297C0.0930979 0.465496 0 0.680337 0 0.923828C0 1.16732 0.0930979 1.38216 0.279297 1.56836L4.23242 5.5L0.279297 9.45312C0.0930979 9.63932 0 9.85417 0 10.0977C0 10.3411 0.0930979 10.556 0.279297 10.7422C0.379558 10.8281 0.476236 10.8926 0.569336 10.9355C0.662435 10.9785 0.780598 11 0.923828 11C1.06706 11 1.18522 10.9785 1.27832 10.9355C1.37142 10.8926 1.4681 10.8281 1.56836 10.7422L6.14453 6.14453C6.33073 5.95833 6.42383 5.74349 6.42383 5.5C6.42383 5.25651 6.33073 5.04167 6.14453 4.85547Z" fill="#999999"/>
</svg>
