<svg width="7" height="11" viewBox="0 0 7 11" fill="none" xmlns="http://www.w3.org/2000/svg">
<path d="M1.89782 5.49079L6.06198 1.32663C6.22166 1.16694 6.30151 0.982692 6.30151 0.773869C6.30151 0.565046 6.22166 0.380794 6.06198 0.221106C5.90229 0.0737011 5.71804 0 5.50921 0C5.30039 0 5.11614 0.0737011 4.95645 0.221106L0.239531 4.93802C0.0798428 5.09771 0 5.28196 0 5.49079C0 5.69961 0.0798428 5.88386 0.239531 6.04355L4.95645 10.7605C5.04243 10.8465 5.13763 10.9079 5.24204 10.9447C5.34646 10.9816 5.43551 11 5.50921 11C5.58291 11 5.67197 10.9816 5.77638 10.9447C5.88079 10.9079 5.97599 10.8465 6.06198 10.7605C6.22166 10.6008 6.30151 10.4165 6.30151 10.2077C6.30151 9.99888 6.22166 9.81463 6.06198 9.65494L1.89782 5.49079Z" fill="#999999"/>
</svg>
