<?xml version="1.0"?>
<svg xmlns:rdf="http://www.w3.org/1999/02/22-rdf-syntax-ns#" xmlns="http://www.w3.org/2000/svg" xmlns:cc="http://creativecommons.org/ns#" xmlns:dc="http://purl.org/dc/elements/1.1/" xmlns:svg="http://www.w3.org/2000/svg" id="svg2807" viewBox="0 0 366.06 347.94" version="1.0" y="0" x="0">
  <g id="layer1" transform="translate(-4.4711 -13.529)">
    <g id="g2880" transform="translate(.000051975 -97.5)">
      <path id="path2817" transform="matrix(.96692 0 0 1.0352 .0000040628 -22.853)" d="m311.49 301.6c0.01 75.62-65.62 136.93-146.59 136.93-80.959 0-146.59-61.31-146.58-136.93-0.009-75.62 65.621-136.93 146.58-136.93 80.97 0 146.6 61.31 146.59 136.93z"/>
      <path id="path2849" fill="#969696" transform="matrix(.91978 0 0 .98474 7.7737 -7.6311)" d="m142.21 436.86c-37.43-5.48-71.129-24.28-94.04-52.45l116.73-82.81-22.69 135.26z"/>
      <path id="path2847" fill="#969696" transform="matrix(.91978 0 0 .98474 7.7737 -7.6311)" d="m175.74 165.07c36.1 2.5 69.93 17.38 94.98 41.79l-105.82 94.74 10.84-136.53z"/>
      <path id="path2818" stroke-linejoin="round" d="m311.49 301.6c0.01 75.62-65.62 136.93-146.59 136.93-80.959 0-146.59-61.31-146.58-136.93-0.009-75.62 65.621-136.93 146.58-136.93 80.97 0 146.6 61.31 146.59 136.93v0z" transform="matrix(.34631 0 0 .37077 102.34 177.55)" stroke="#000" stroke-linecap="round" stroke-width="13.954" fill="#fff"/>
      <path id="path2819" transform="matrix(.050251 0 0 .0538 151.16 273.14)" d="m311.49 301.6c0.01 75.62-65.62 136.93-146.59 136.93-80.959 0-146.59-61.31-146.58-136.93-0.009-75.62 65.621-136.93 146.58-136.93 80.97 0 146.6 61.31 146.59 136.93z"/>
      <path id="path2821" stroke="#000" stroke-width="5" fill="none" d="m126.52 269.15l29.37-19.82"/>
      <path id="path2822" stroke="#000" stroke-width="5" fill="none" d="m121.74 293.75l58.74-39.64"/>
      <path id="path2823" stroke="#000" stroke-width="5" fill="none" d="m156.25 313.21l29.37-19.82"/>
    </g>
  </g>
</svg>
