<svg width="30" height="30" viewBox="0 0 30 30" fill="none" xmlns="http://www.w3.org/2000/svg">
<path d="M28.8349 11.7856L27.697 11.1028C27.3993 10.923 27.153 10.6696 26.9816 10.367C26.8103 10.0644 26.7197 9.72276 26.7188 9.375C26.7187 9.25068 26.6694 9.13146 26.5814 9.04355C26.4935 8.95564 26.3743 8.90626 26.25 8.90625H3.75C3.62568 8.90626 3.50646 8.95564 3.41855 9.04355C3.33064 9.13146 3.28126 9.25068 3.28125 9.375C3.28026 9.72276 3.18974 10.0644 3.01839 10.367C2.84704 10.6696 2.60065 10.923 2.30295 11.1028L1.16507 11.7856C1.09566 11.8272 1.03822 11.8861 0.998336 11.9566C0.958456 12.027 0.937497 12.1066 0.9375 12.1875V13.125C0.937503 13.2493 0.986879 13.3686 1.07477 13.4565L1.68085 14.0625L1.07477 14.6685C0.986879 14.7564 0.937503 14.8757 0.9375 15V15.9375C0.937503 16.0618 0.986879 16.1811 1.07477 16.269L1.68085 16.875L1.07477 17.481C0.986879 17.5689 0.937503 17.6882 0.9375 17.8125V18.75C0.937503 18.8743 0.986879 18.9936 1.07477 19.0815L1.68085 19.6875L1.07477 20.2935C0.986879 20.3814 0.937503 20.5007 0.9375 20.625V21.5625C0.937503 21.6868 0.986879 21.8061 1.07477 21.894L1.68085 22.5L1.07477 23.106C0.986879 23.1939 0.937503 23.3132 0.9375 23.4375V24.375C0.937497 24.4559 0.958456 24.5355 0.998336 24.6059C1.03822 24.6764 1.09566 24.7353 1.16507 24.7769L2.30295 25.4597C2.60065 25.6395 2.84704 25.8929 3.01839 26.1955C3.18974 26.4981 3.28026 26.8397 3.28125 27.1875C3.28126 27.3118 3.33064 27.431 3.41855 27.5189C3.50646 27.6069 3.62568 27.6562 3.75 27.6562H26.25C26.3743 27.6562 26.4935 27.6069 26.5814 27.5189C26.6694 27.431 26.7187 27.3118 26.7188 27.1875C26.7197 26.8397 26.8103 26.4981 26.9816 26.1955C27.153 25.8929 27.3993 25.6395 27.697 25.4597L28.8349 24.7769C28.9043 24.7353 28.9618 24.6764 29.0017 24.6059C29.0415 24.5355 29.0625 24.4559 29.0625 24.375V23.4375C29.0625 23.3132 29.0131 23.1939 28.9252 23.106L28.3191 22.5L28.9252 21.894C29.0131 21.8061 29.0625 21.6868 29.0625 21.5625V20.625C29.0625 20.5007 29.0131 20.3814 28.9252 20.2935L28.3191 19.6875L28.9252 19.0815C29.0131 18.9936 29.0625 18.8743 29.0625 18.75V17.8125C29.0625 17.6882 29.0131 17.5689 28.9252 17.481L28.3191 16.875L28.9252 16.269C29.0131 16.1811 29.0625 16.0618 29.0625 15.9375V15C29.0625 14.8757 29.0131 14.7564 28.9252 14.6685L28.3191 14.0625L28.9252 13.4565C29.0131 13.3686 29.0625 13.2493 29.0625 13.125V12.1875C29.0625 12.1066 29.0415 12.027 29.0017 11.9566C28.9618 11.8861 28.9043 11.8272 28.8349 11.7856ZM28.125 12.9309L27.3248 13.731C27.2369 13.8189 27.1875 13.9382 27.1875 14.0625C27.1875 14.1868 27.2369 14.3061 27.3248 14.394L28.125 15.1941V15.7433L27.3248 16.5435C27.2369 16.6314 27.1875 16.7507 27.1875 16.875C27.1875 16.9993 27.2369 17.1186 27.3248 17.2065L28.125 18.0066V18.5558L27.3248 19.356C27.2369 19.4439 27.1875 19.5632 27.1875 19.6875C27.1875 19.8118 27.2369 19.9311 27.3248 20.019L28.125 20.8191V21.3683L27.3248 22.1685C27.2369 22.2564 27.1875 22.3757 27.1875 22.5C27.1875 22.6243 27.2369 22.7436 27.3248 22.8315L28.125 23.6316V24.1096L27.2147 24.6558C26.8466 24.8781 26.5312 25.1777 26.2903 25.5339C26.0493 25.8901 25.8886 26.2944 25.8192 26.7188H4.18076C4.11136 26.2944 3.95065 25.8901 3.70972 25.5339C3.46879 25.1777 3.15339 24.8781 2.78532 24.6558L1.875 24.1096V23.6316L2.67523 22.8315C2.76313 22.7436 2.81251 22.6243 2.81251 22.5C2.81251 22.3757 2.76313 22.2564 2.67523 22.1685L1.875 21.3684V20.8192L2.67523 20.019C2.76313 19.9311 2.81251 19.8118 2.81251 19.6875C2.81251 19.5632 2.76313 19.4439 2.67523 19.356L1.875 18.5559V18.0067L2.67523 17.2065C2.76313 17.1186 2.81251 16.9993 2.81251 16.875C2.81251 16.7507 2.76313 16.6314 2.67523 16.5435L1.875 15.7434V15.1942L2.67523 14.394C2.76313 14.3061 2.81251 14.1868 2.81251 14.0625C2.81251 13.9382 2.76313 13.8189 2.67523 13.731L1.875 12.9309V12.4529L2.78532 11.9067C3.15339 11.6844 3.46879 11.3848 3.70972 11.0286C3.95065 10.6724 4.11136 10.2681 4.18076 9.84375H25.8192C25.8886 10.2681 26.0493 10.6724 26.2903 11.0286C26.5312 11.3848 26.8466 11.6844 27.2147 11.9067L28.125 12.4529V12.9309Z" fill="black"/>
<path d="M24.0365 4.97487L23.6306 4.12978C23.5956 4.05681 23.5422 3.99416 23.4758 3.94793C23.4093 3.9017 23.332 3.87347 23.2514 3.86599L21.9301 3.74331C21.5839 3.71019 21.2521 3.58848 20.9666 3.3899C20.6811 3.19133 20.4516 2.92258 20.3001 2.60955C20.2735 2.55406 20.2361 2.50436 20.1903 2.46329C20.1444 2.42222 20.0909 2.39059 20.0329 2.3702C19.9748 2.34981 19.9132 2.34107 19.8518 2.34446C19.7903 2.34786 19.7301 2.36333 19.6746 2.38999L9.17188 7.43546L9.5778 8.2805L19.6923 3.42156C19.9386 3.77405 20.2585 4.06884 20.63 4.28556C21.0014 4.50229 21.4154 4.63578 21.8435 4.67681L22.9005 4.77494L23.1075 5.20576L22.7326 6.2736C22.6915 6.39091 22.6986 6.51976 22.7524 6.63182C22.8063 6.74388 22.9024 6.82997 23.0197 6.87116L24.0875 7.24589L24.4094 7.91595L25.2544 7.51002L24.8484 6.66493C24.7946 6.55286 24.6985 6.46677 24.5812 6.42558L23.7725 6.14177L24.0563 5.33307C24.0975 5.21577 24.0904 5.08692 24.0365 4.97487Z" fill="black"/>
<path d="M23.9062 11.7188H6.09375C5.72092 11.7192 5.36348 11.8675 5.09985 12.1311C4.83622 12.3947 4.68793 12.7522 4.6875 13.125V23.4375C4.68793 23.8103 4.83622 24.1678 5.09985 24.4314C5.36348 24.695 5.72092 24.8433 6.09375 24.8438H23.9062C24.2791 24.8433 24.6365 24.695 24.9001 24.4314C25.1638 24.1678 25.3121 23.8103 25.3125 23.4375V13.125C25.3121 12.7522 25.1638 12.3947 24.9001 12.1311C24.6365 11.8675 24.2791 11.7192 23.9062 11.7188ZM9.375 23.9062H6.09375C5.96947 23.9061 5.85033 23.8567 5.76245 23.7688C5.67457 23.6809 5.62514 23.5618 5.625 23.4375V13.125C5.62514 13.0007 5.67457 12.8816 5.76245 12.7937C5.85033 12.7058 5.96947 12.6564 6.09375 12.6562H9.375V23.9062ZM24.375 23.4375C24.3749 23.5618 24.3254 23.6809 24.2375 23.7688C24.1497 23.8567 24.0305 23.9061 23.9062 23.9062H10.3125V12.6562H23.9062C24.0305 12.6564 24.1497 12.7058 24.2375 12.7937C24.3254 12.8816 24.3749 13.0007 24.375 13.125V23.4375Z" fill="black"/>
<path d="M6.5625 14.0625H8.4375V15H6.5625V14.0625Z" fill="black"/>
<path d="M6.5625 15.9375H8.4375V16.875H6.5625V15.9375Z" fill="black"/>
<path d="M6.5625 17.8125H8.4375V18.75H6.5625V17.8125Z" fill="black"/>
<path d="M6.5625 19.6875H8.4375V20.625H6.5625V19.6875Z" fill="black"/>
<path d="M6.5625 21.5625H8.4375V22.5H6.5625V21.5625Z" fill="black"/>
<path d="M11.7188 13.5938H12.6562V14.5312H11.7188V13.5938Z" fill="black"/>
<path d="M13.5938 13.5938H17.3438V14.5312H13.5938V13.5938Z" fill="#FCA311"/>
<path d="M18.2812 13.5938H20.1562V14.5312H18.2812V13.5938Z" fill="black"/>
<path d="M11.7188 15.4688H15V16.4062H11.7188V15.4688Z" fill="#FCA311"/>
<path d="M15.9375 15.4688H16.875V16.4062H15.9375V15.4688Z" fill="black"/>
<path d="M11.7188 17.3438H16.4062V18.2812H11.7188V17.3438Z" fill="#FCA311"/>
<path d="M17.3438 17.3438H18.2812V18.2812H17.3438V17.3438Z" fill="black"/>
<path d="M18.75 20.625H19.6875V21.5625H18.75V20.625Z" fill="black"/>
<path d="M20.625 20.625H23.4375V21.5625H20.625V20.625Z" fill="#FCA311"/>
<path d="M17.3438 22.5H21.0938V23.4375H17.3438V22.5Z" fill="#FCA311"/>
<path d="M22.0312 22.5H23.4375V23.4375H22.0312V22.5Z" fill="black"/>
</svg>
