<svg width="24" height="24" viewBox="0 0 24 24" fill="none" xmlns="http://www.w3.org/2000/svg">
<g clip-path="url(#clip0)">
<path d="M23.9537 13.1087C23.7382 10.9412 22.7699 8.89785 21.2271 7.35494C19.9085 6.03646 18.2947 5.18918 16.5966 4.81244V3.62142C17.2902 3.44887 17.8057 2.82107 17.8057 2.07485C17.8057 1.19603 17.0908 0.481079 16.2119 0.481079H12.8369C11.958 0.481079 11.2431 1.19603 11.2431 2.07485C11.2431 2.82102 11.7586 3.44883 12.4522 3.62142V4.81577C10.7592 5.19411 9.15075 6.04021 7.83598 7.35498C7.54826 7.64271 7.28294 7.94454 7.04008 8.25823C7.02831 8.25734 7.01655 8.25645 7.00455 8.25645H3.66414C3.40529 8.25645 3.19538 8.46631 3.19538 8.72521C3.19538 8.9841 3.40529 9.19396 3.66414 9.19396H6.40224C6.05855 9.76936 5.78142 10.3736 5.57048 10.9957H0.468757C0.20991 10.9957 0 11.2055 0 11.4644C0 11.7233 0.20991 11.9332 0.468757 11.9332H5.30558C5.17049 12.5262 5.09295 13.1297 5.07294 13.735H3.00005C2.7412 13.735 2.53129 13.9448 2.53129 14.2037C2.53129 14.4626 2.7412 14.6725 3.00005 14.6725H5.08789C5.12746 15.2792 5.225 15.8828 5.38058 16.4742H2.34379C2.08494 16.4742 1.87503 16.6841 1.87503 16.943C1.87503 17.2019 2.08494 17.4117 2.34379 17.4117H5.67975C6.1396 18.6282 6.85825 19.7684 7.83598 20.7461C9.38035 22.2905 11.4258 23.259 13.5955 23.4734C13.9052 23.504 14.2151 23.5191 14.5245 23.5191C16.3537 23.5191 18.1597 22.9897 19.692 21.9918C19.909 21.8506 19.9703 21.5602 19.829 21.3432C19.6878 21.1263 19.3974 21.0649 19.1804 21.2062C15.8261 23.3905 11.3339 22.9182 8.4989 20.0832C5.1725 16.7568 5.1725 11.3444 8.4989 8.01795C11.8252 4.6916 17.2377 4.6916 20.5641 8.01795C23.3954 10.8492 23.8702 15.3376 21.6932 18.6903C21.5522 18.9074 21.6139 19.1978 21.831 19.3387C22.0482 19.4797 22.3384 19.418 22.4794 19.2009C23.6426 17.4095 24.1662 15.2459 23.9537 13.1087ZM12.1806 2.0749C12.1806 1.71302 12.475 1.41864 12.8369 1.41864H16.2119C16.5738 1.41864 16.8682 1.71302 16.8682 2.0749C16.8682 2.43678 16.5738 2.73116 16.2119 2.73116H16.1278H12.9209H12.8369C12.475 2.73116 12.1806 2.43673 12.1806 2.0749ZM13.3897 4.65461V3.66868H15.6591V4.65293C14.9055 4.5633 14.1431 4.56386 13.3897 4.65461Z" fill="#FCA311"/>
<path d="M20.8958 19.9457C20.772 19.9457 20.6516 19.9958 20.5644 20.083C20.4768 20.1702 20.427 20.2911 20.427 20.4144C20.427 20.5377 20.4768 20.6586 20.5644 20.7458C20.6516 20.8335 20.7721 20.8832 20.8958 20.8832C21.0191 20.8832 21.1395 20.8335 21.2272 20.7458C21.3144 20.6586 21.3645 20.5377 21.3645 20.4144C21.3645 20.2911 21.3144 20.1702 21.2272 20.083C21.1395 19.9958 21.019 19.9457 20.8958 19.9457Z" fill="#FCA311"/>
<path d="M14.5316 6.77869C10.5219 6.77869 7.25977 10.0408 7.25977 14.0505C7.25977 18.0602 10.5219 21.3223 14.5316 21.3223C18.5412 21.3223 21.8033 18.0602 21.8033 14.0505C21.8033 10.0408 18.5412 6.77869 14.5316 6.77869ZM14.5316 20.3847C11.0388 20.3847 8.19728 17.5432 8.19728 14.0505C8.19728 10.5578 11.0388 7.7162 14.5316 7.7162C18.0243 7.7162 20.8658 10.5578 20.8658 14.0505C20.8658 17.5432 18.0243 20.3847 14.5316 20.3847Z" fill="#FCA311"/>
<path d="M17.4967 10.4224L15.1749 12.7441C14.9808 12.6481 14.7624 12.5939 14.5315 12.5939C14.3006 12.5939 14.0823 12.6481 13.8881 12.7441L12.849 11.705C12.6659 11.5219 12.3692 11.5219 12.1861 11.705C12.003 11.888 12.003 12.1849 12.1861 12.3679L13.2251 13.407C13.1291 13.6012 13.0749 13.8196 13.0749 14.0504C13.0749 14.8536 13.7283 15.507 14.5315 15.507C15.3347 15.507 15.9881 14.8536 15.9881 14.0504C15.9881 13.8196 15.9339 13.6012 15.8379 13.407L18.0915 11.1534L18.1596 11.0853C18.3427 10.9023 18.3427 10.6054 18.1596 10.4224C17.9766 10.2393 17.6798 10.2393 17.4967 10.4224ZM14.5315 14.5696C14.2453 14.5696 14.0124 14.3367 14.0124 14.0505C14.0124 13.7643 14.2453 13.5314 14.5315 13.5314C14.8177 13.5314 15.0506 13.7643 15.0506 14.0505C15.0506 14.3367 14.8177 14.5696 14.5315 14.5696Z" fill="#FCA311"/>
<path d="M19.5434 13.5874H19.1091C18.8502 13.5874 18.6403 13.7973 18.6403 14.0562C18.6403 14.315 18.8502 14.5249 19.1091 14.5249H19.5434C19.8022 14.5249 20.0121 14.315 20.0121 14.0562C20.0121 13.7973 19.8022 13.5874 19.5434 13.5874Z" fill="#FCA311"/>
<path d="M9.95386 13.576H9.51961C9.26076 13.576 9.05086 13.7858 9.05086 14.0447C9.05086 14.3036 9.26076 14.5135 9.51961 14.5135H9.95386C10.2127 14.5135 10.4226 14.3036 10.4226 14.0447C10.4226 13.7858 10.2127 13.576 9.95386 13.576Z" fill="#FCA311"/>
<path d="M14.5372 9.94164C14.7961 9.94164 15.006 9.73178 15.006 9.47289V9.03864C15.006 8.77974 14.7961 8.56989 14.5372 8.56989C14.2784 8.56989 14.0685 8.77974 14.0685 9.03864V9.47289C14.0685 9.73178 14.2784 9.94164 14.5372 9.94164Z" fill="#FCA311"/>
<path d="M14.5258 18.1594C14.267 18.1594 14.0571 18.3692 14.0571 18.6281V19.0624C14.0571 19.3213 14.267 19.5311 14.5258 19.5311C14.7847 19.5311 14.9946 19.3213 14.9946 19.0624V18.6281C14.9946 18.3692 14.7847 18.1594 14.5258 18.1594Z" fill="#FCA311"/>
<path d="M0.46875 16.4741C0.345469 16.4741 0.224531 16.5242 0.137344 16.6114C0.0501563 16.6986 0 16.8195 0 16.9428C0 17.0666 0.0501094 17.187 0.137344 17.2742C0.224578 17.3614 0.345469 17.4116 0.46875 17.4116C0.592031 17.4116 0.712969 17.3614 0.800109 17.2742C0.887297 17.187 0.9375 17.0661 0.9375 16.9428C0.9375 16.8195 0.887344 16.6986 0.800109 16.6114C0.712969 16.5242 0.592031 16.4741 0.46875 16.4741Z" fill="#FCA311"/>
</g>
<defs>
<clipPath id="clip0">
<rect width="24" height="24" fill="white"/>
</clipPath>
</defs>
</svg>
