<svg width="14" height="14" viewBox="0 0 14 14" fill="none" xmlns="http://www.w3.org/2000/svg">
<path d="M5.25004 6.55667V4.375C5.25004 3.57 5.90337 2.91667 6.70837 2.91667C7.51337 2.91667 8.16671 3.57 8.16671 4.375V6.55667C8.87254 6.08417 9.33337 5.285 9.33337 4.375C9.33337 2.9225 8.16087 1.75 6.70837 1.75C5.25587 1.75 4.08337 2.9225 4.08337 4.375C4.08337 5.285 4.54421 6.08417 5.25004 6.55667ZM10.99 9.2575L8.34171 7.93917C8.24254 7.89833 8.13754 7.875 8.02671 7.875H7.58337V4.375C7.58337 3.89083 7.19254 3.5 6.70837 3.5C6.22421 3.5 5.83337 3.89083 5.83337 4.375V10.64L3.83254 10.22C3.78587 10.2142 3.74504 10.2025 3.69254 10.2025C3.51171 10.2025 3.34837 10.2783 3.23171 10.395L2.77087 10.8617L5.65254 13.7433C5.81004 13.9008 6.03171 14 6.27087 14H10.2317C10.6692 14 11.0075 13.6792 11.0717 13.2533L11.5092 10.1792C11.515 10.1383 11.5209 10.0975 11.5209 10.0625C11.5209 9.70083 11.2992 9.38583 10.99 9.2575Z" fill="#BDBDBD"/>
</svg>
